<?xml version="1.0" encoding="UTF-8"?>
<svg version="1.1" xmlns="http://www.w3.org/2000/svg" width="512" height="512">
<path d="M0 0 C0.85609863 0.20898926 1.71219727 0.41797852 2.59423828 0.63330078 C28.28202915 7.15912396 52.61900395 19.03263184 73 36 C73.84788086 36.68980957 73.84788086 36.68980957 74.71289062 37.39355469 C107.18807652 63.83558863 128.69947159 100.23809108 138 141 C138.24556641 142.04486572 138.24556641 142.04486572 138.49609375 143.11083984 C148.59923977 188.41843991 138.32519053 238.95687219 114 278 C87.75661445 319.19746344 47.51116026 348.40166105 0 360 C-0.8573877 360.21027832 -1.71477539 360.42055664 -2.59814453 360.63720703 C-29.12014869 366.79592945 -59.58680419 366.47795913 -86 360 C-86.85609863 359.79101074 -87.71219727 359.58202148 -88.59423828 359.36669922 C-117.45923026 352.0337279 -145.01878146 337.78761087 -166.6640625 317.21484375 C-168.69397873 315.29015729 -170.77455453 313.52008395 -172.9375 311.75 C-197.48782946 290.25593604 -220.01704907 251.74996515 -223.41015625 219.046875 C-223.70212891 217.53867187 -223.70212891 217.53867187 -224 216 C-225.80974662 214.75890651 -225.80974662 214.75890651 -228 214 C-239.01844511 202.80631123 -243.4258189 189.31143994 -243.36572266 173.93945312 C-243.01890777 158.37414632 -235.90060736 145.78439619 -225 135 C-223.515 134.01 -223.515 134.01 -222 133 C-220.99427172 130.82013755 -220.99427172 130.82013755 -220.2734375 128.22265625 C-219.96881592 127.24369385 -219.66419434 126.26473145 -219.3503418 125.25610352 C-219.028479 124.20221436 -218.70661621 123.1483252 -218.375 122.0625 C-203.44288612 75.51882021 -170.47267089 37.50876677 -127.12451172 15.05859375 C-88.3446994 -4.26446603 -42.28743267 -10.37118956 0 0 Z M-77 32 C-77.76038574 32.18272461 -78.52077148 32.36544922 -79.30419922 32.55371094 C-106.13149793 39.1722343 -129.34018078 52.78447048 -149 72 C-150.39992188 73.30710937 -150.39992188 73.30710937 -151.828125 74.640625 C-165.06309529 87.28408824 -176.07056372 104.04286986 -183 121 C-183 121.99 -183 122.98 -183 124 C-181.76024414 124.0093457 -180.52048828 124.01869141 -179.24316406 124.02832031 C-174.59095897 124.06855227 -169.93939235 124.13439944 -165.28759766 124.20751953 C-163.28410112 124.23553821 -161.28049796 124.25684654 -159.27685547 124.27099609 C-141.35471463 124.40507695 -127.01148139 126.62133659 -113.25 139.1875 C-102.78563047 150.40651157 -99.01666986 163.99712936 -99 179 C-100.00026091 193.62199589 -106.14783857 205.67263499 -116.6875 215.6875 C-126.99368357 224.29266298 -138.52906535 227.25364989 -151.625 227.4140625 C-153.10625366 227.44311172 -153.10625366 227.44311172 -154.61743164 227.4727478 C-157.74486893 227.53211659 -160.87234389 227.57875713 -164 227.625 C-166.13152571 227.66321912 -168.26303662 227.7022731 -170.39453125 227.7421875 C-175.59622199 227.83778251 -180.79800322 227.92295257 -186 228 C-183.12852131 247.35417808 -169.59369595 265.64904415 -157 280 C-156.24847656 280.87269531 -155.49695313 281.74539063 -154.72265625 282.64453125 C-128.29049347 312.78171514 -89.91890425 329.26317752 -50.32446289 331.89013672 C-10.84618866 333.75603562 27.25537095 319.74496486 57 294 C57.80308594 293.319375 58.60617187 292.63875 59.43359375 291.9375 C64.42242155 287.6301141 68.84332194 283.11123878 73 278 C73.77214844 277.06542969 74.54429687 276.13085938 75.33984375 275.16796875 C81.94969311 266.99323884 87.17119535 258.32253066 92 249 C92.32097656 248.38930664 92.64195312 247.77861328 92.97265625 247.14941406 C98.47222989 236.55870792 102.00205278 225.52765171 105 214 C105.34289062 212.72640625 105.68578125 211.4528125 106.0390625 210.140625 C114.52017191 171.9360013 105.21628998 130.77315036 84.75292969 98.00292969 C79.02833376 89.2227909 72.2630615 81.52545534 65 74 C64.21109375 73.14792969 63.4221875 72.29585937 62.609375 71.41796875 C43.70146456 51.5396192 17.4302217 38.47531311 -9 32 C-9.98299072 31.7522583 -9.98299072 31.7522583 -10.98583984 31.49951172 C-31.53942225 26.55663328 -56.53026226 26.82418273 -77 32 Z M-206 163 C-209.61593322 167.78924489 -210.6719246 172.60318677 -210.37109375 178.546875 C-209.58952161 183.71347818 -207.91227741 187.33446806 -203.94140625 190.79296875 C-196.85845135 195.8215084 -190.39719305 196.1564831 -181.9453125 196.16796875 C-181.08493378 196.17129715 -180.22455505 196.17462555 -179.33810425 196.17805481 C-177.52439912 196.18309956 -175.71068479 196.1854639 -173.89697266 196.18530273 C-171.14079301 196.18748748 -168.38501514 196.20566451 -165.62890625 196.22460938 C-163.85937636 196.22754427 -162.08984458 196.22952842 -160.3203125 196.23046875 C-159.50547394 196.23765427 -158.69063538 196.24483978 -157.85110474 196.25224304 C-149.97180725 196.22119818 -143.34338827 195.04587704 -137 190 C-133.05440454 185.94480467 -131.0667896 181.76248081 -130.96484375 176.01953125 C-131.46541515 169.70744795 -133.80384253 165.03144566 -138.5 160.6875 C-145.36975087 156.05041816 -151.96766039 155.84302109 -160.0546875 155.83203125 C-160.91506622 155.82870285 -161.77544495 155.82537445 -162.66189575 155.82194519 C-164.47560088 155.81690044 -166.28931521 155.8145361 -168.10302734 155.81469727 C-170.85920699 155.81251252 -173.61498486 155.79433549 -176.37109375 155.77539062 C-178.14062364 155.77245573 -179.91015542 155.77047158 -181.6796875 155.76953125 C-182.49452606 155.76234573 -183.30936462 155.75516022 -184.14889526 155.74775696 C-192.35428924 155.78008666 -199.98100252 157.01147845 -206 163 Z " fill="#686262" transform="translate(299,76)"/>
<path d="M0 0 C1.92663002 1.43832874 1.92663002 1.43832874 3.82095337 3.1542511 C4.51492847 3.78223917 5.20890358 4.41022724 5.92390823 5.05724525 C9.10676201 8.0356802 12.22113037 11.07362415 15.30224609 14.15698242 C15.98295166 14.83432938 16.66365723 15.51167633 17.36499023 16.20954895 C19.58709293 18.42224486 21.80549335 20.63860497 24.0234375 22.85546875 C25.57655717 24.4053715 27.12975049 25.95520043 28.68301392 27.50495911 C31.92407778 30.74005952 35.16309278 33.97719548 38.40087891 37.21557617 C42.55196851 41.36676788 46.70992445 45.51100867 50.86963463 49.65355968 C54.07287755 52.84570047 57.27158182 56.04235924 60.46901321 59.24032021 C62.00082757 60.77095417 63.53426451 62.29996608 65.06934738 63.82732201 C67.2090409 65.9572408 69.34233269 68.09337439 71.47412109 70.23120117 C72.10891388 70.86037445 72.74370667 71.48954773 73.3977356 72.13778687 C73.97791443 72.72216019 74.55809326 73.30653351 75.15585327 73.90861511 C75.65982321 74.41204028 76.16379314 74.91546545 76.6830349 75.43414593 C79.73490121 79.06277457 80.31542569 82.19245885 80.375 86.875 C80.40335937 87.88304687 80.43171875 88.89109375 80.4609375 89.9296875 C79.41657952 96.88617373 73.59976393 101.68787296 68.81640625 106.44238281 C67.74252151 107.52152451 67.74252151 107.52152451 66.64694214 108.62246704 C64.29045144 110.98772625 61.92676099 113.34563468 59.5625 115.703125 C57.91840851 117.34856424 56.27461397 118.99430023 54.63110352 120.64031982 C51.191231 124.08313675 47.74777728 127.52232046 44.30175781 130.95898438 C39.88308161 135.3662486 35.47346832 139.78245433 31.06648254 144.20140457 C27.67637826 147.59873053 24.2815315 150.99128515 20.88522339 154.38240814 C19.2570408 156.00925602 17.6303441 157.63759239 16.00515747 159.26743317 C13.73610377 161.54155895 11.46074976 163.8091866 9.18359375 166.07519531 C8.51230438 166.75053314 7.84101501 167.42587097 7.14938354 168.12167358 C6.21583542 169.04676224 6.21583542 169.04676224 5.26342773 169.99053955 C4.72660873 170.5266045 4.18978973 171.06266945 3.63670349 171.61497879 C-0.93574477 175.48430384 -5.29134201 175.42529018 -11.0859375 175.3125 C-16.38740101 174.74397844 -18.83972495 172.22134216 -22.375 168.5 C-24.72325726 163.44221514 -24.97097307 158.48314207 -24 153 C-21.23266017 148.33923046 -17.95442088 144.67618845 -14.12988281 140.90283203 C-13.55383804 140.32649521 -12.97779327 139.75015839 -12.3842926 139.15635681 C-10.49527592 137.26872397 -8.59929377 135.38825843 -6.703125 133.5078125 C-5.38561041 132.1940314 -4.06853917 130.87980554 -2.75189209 129.56515503 C0.70260099 126.11827191 4.16305943 122.67743928 7.62481689 119.237854 C11.16106968 115.72211655 14.69161701 112.20065979 18.22265625 108.6796875 C25.14288177 101.78086535 32.06942612 94.88842501 39 88 C37.3892662 83.93270535 34.4836829 81.25705906 31.40454102 78.27270508 C30.83360718 77.71111694 30.26267334 77.14952881 29.67443848 76.57092285 C28.43625209 75.35371089 27.19591232 74.13868639 25.95367622 72.92560768 C23.98483865 71.00089094 22.02410408 69.06826711 20.06565857 67.13298035 C14.49731745 61.63174374 8.92117038 56.13863588 3.32397461 50.66674805 C-0.1018603 47.31647466 -3.51267875 43.95151869 -6.91450691 40.5768795 C-8.20989205 39.29754185 -9.51079744 38.02376762 -10.81738091 36.75586891 C-23.63232457 24.31371518 -23.63232457 24.31371518 -25 16 C-24.56641271 9.70339658 -22.81564995 5.30334676 -18 1 C-11.89797978 -2.34130039 -6.38955586 -2.72461541 0 0 Z " fill="#686262" transform="translate(264,169)"/>
</svg>
