<?xml version="1.0" encoding="UTF-8"?>
<svg version="1.1" xmlns="http://www.w3.org/2000/svg" width="512" height="512">
<path d="M0 0 C0.84248291 0.46027588 1.68496582 0.92055176 2.55297852 1.39477539 C3.93175171 2.14609741 3.93175171 2.14609741 5.33837891 2.91259766 C6.34892334 3.50613037 7.35946777 4.09966309 8.40063477 4.71118164 C9.24050934 5.20307732 9.24050934 5.20307732 10.09735107 5.70491028 C11.93896456 6.78527493 13.77732141 7.87104188 15.61547852 8.95727539 C16.91907123 9.72442785 18.22270142 10.49151661 19.52636719 11.25854492 C29.34275459 17.04467727 39.08967767 22.94081519 48.81689453 28.87548828 C57.68841036 34.28441596 66.6109854 39.603305 75.55297852 44.89477539 C86.16441849 51.17500566 96.73397406 57.51770239 107.26196289 63.93676758 C116.65140411 69.65929475 126.09036212 75.2941742 135.55297852 80.89477539 C146.72016465 87.5042535 157.83684813 94.18879302 168.91552734 100.94555664 C179.72666749 107.52753061 190.6118911 113.98282998 201.51196289 120.41625977 C202.17581497 120.8087793 202.83966705 121.20129883 203.52363586 121.60571289 C204.77350077 122.34465716 206.02410819 123.08234738 207.27555847 123.81860352 C211.44044982 126.2822467 211.44044982 126.2822467 212.55297852 127.39477539 C212.64810795 130.07265513 212.6785313 132.72466408 212.66650391 135.40283203 C212.66664993 136.24178513 212.66679596 137.08073822 212.66694641 137.94511414 C212.66624701 140.73174583 212.65845337 143.51831155 212.65063477 146.30493164 C212.64877068 148.23164331 212.64734673 150.15835544 212.64634705 152.08506775 C212.6425211 157.16664936 212.63269017 162.24820259 212.62164307 167.32977295 C212.61143058 172.51094173 212.60684978 177.69211508 212.60180664 182.87329102 C212.59106797 193.04713365 212.57347056 203.22094772 212.55297852 213.39477539 C205.29297852 213.39477539 198.03297852 213.39477539 190.55297852 213.39477539 C190.55297852 255.63477539 190.55297852 297.87477539 190.55297852 341.39477539 C197.81297852 341.39477539 205.07297852 341.39477539 212.55297852 341.39477539 C212.55297852 362.51477539 212.55297852 383.63477539 212.55297852 405.39477539 C71.31297852 405.39477539 -69.92702148 405.39477539 -215.44702148 405.39477539 C-215.44702148 384.27477539 -215.44702148 363.15477539 -215.44702148 341.39477539 C-208.18702148 341.39477539 -200.92702148 341.39477539 -193.44702148 341.39477539 C-193.44702148 299.15477539 -193.44702148 256.91477539 -193.44702148 213.39477539 C-200.70702148 213.39477539 -207.96702148 213.39477539 -215.44702148 213.39477539 C-216.08331751 202.47600549 -216.59507468 191.56976618 -216.8977623 180.63655949 C-217.04316389 175.55744041 -217.239504 170.49177306 -217.55932617 165.42041016 C-219.62763633 131.74089105 -219.62763633 131.74089105 -212.86621094 123.97674561 C-206.6534789 118.10736093 -198.73177138 114.79178357 -190.85437012 111.76144409 C-186.47462112 110.00475098 -182.65259167 107.71805014 -178.69702148 105.17602539 C-177.47894582 104.44850275 -176.25765427 103.726333 -175.03295898 103.01000977 C-163.79138512 96.38008541 -152.59012195 89.68888293 -141.44702148 82.89477539 C-130.81373304 76.41150752 -120.12335418 70.03000197 -109.40600586 63.68676758 C-100.05018117 58.14772468 -90.73012137 52.55481401 -81.44702148 46.89477539 C-70.82273021 40.41699322 -60.14152413 34.04067085 -49.43319702 27.70288086 C-36.25331315 19.89994987 -23.15145893 11.97276301 -10.07714844 3.99438477 C-9.20920654 3.46651367 -8.34126465 2.93864258 -7.44702148 2.39477539 C-6.61195068 1.78956055 -5.77687988 1.1843457 -4.91650391 0.56079102 C-2.44702148 -0.60522461 -2.44702148 -0.60522461 0 0 Z M-32.18530273 98.94165039 C-40.88879056 108.38170281 -44.13016149 119.20074626 -43.78686523 131.87524414 C-42.69456852 143.18742041 -37.61002066 152.97697546 -29.05639648 160.49633789 C-19.37667071 167.64959436 -8.52014178 171.55785754 3.55297852 170.39477539 C16.73137535 167.59935788 26.64638246 161.36198928 34.55297852 150.39477539 C40.68805297 139.7651409 42.63976429 128.17471855 39.42797852 116.14477539 C35.30457611 104.41041996 27.67198843 95.03725803 16.55297852 89.39477539 C-1.02108362 81.75387881 -18.52379348 85.98788023 -32.18530273 98.94165039 Z M-129.44702148 213.39477539 C-129.44702148 255.63477539 -129.44702148 297.87477539 -129.44702148 341.39477539 C-115.58702148 341.39477539 -101.72702148 341.39477539 -87.44702148 341.39477539 C-87.44702148 299.15477539 -87.44702148 256.91477539 -87.44702148 213.39477539 C-101.30702148 213.39477539 -115.16702148 213.39477539 -129.44702148 213.39477539 Z M-22.44702148 213.39477539 C-22.44702148 255.63477539 -22.44702148 297.87477539 -22.44702148 341.39477539 C-8.58702148 341.39477539 5.27297852 341.39477539 19.55297852 341.39477539 C19.55297852 299.15477539 19.55297852 256.91477539 19.55297852 213.39477539 C5.69297852 213.39477539 -8.16702148 213.39477539 -22.44702148 213.39477539 Z M84.55297852 213.39477539 C84.55297852 255.63477539 84.55297852 297.87477539 84.55297852 341.39477539 C98.41297852 341.39477539 112.27297852 341.39477539 126.55297852 341.39477539 C126.55297852 299.15477539 126.55297852 256.91477539 126.55297852 213.39477539 C112.69297852 213.39477539 98.83297852 213.39477539 84.55297852 213.39477539 Z " fill="#FFFFFF" transform="translate(257.447021484375,42.605224609375)"/>
</svg>
