<?xml version="1.0" encoding="UTF-8"?>
<svg version="1.1" xmlns="http://www.w3.org/2000/svg" width="512" height="512">
<path d="M0 0 C11.78511302 14.14213562 5 36.59106497 5 55 C133.7 55 262.4 55 395 55 C395 38.83 395 22.66 395 6 C400 0 400 0 402.02734375 -0.91015625 C406.81774758 -1.292213 409.95248943 -0.91797274 414 2 C417.005151 6.74741879 417.42760393 10.89322509 417.37752342 16.3740387 C417.38188374 17.20646729 417.38624407 18.03889588 417.39073652 18.89654958 C417.40170494 21.69234724 417.39126332 24.48765301 417.38095093 27.28344727 C417.38440686 29.30550419 417.38917098 31.32755924 417.39513266 33.34961033 C417.40768116 38.91129282 417.40145474 44.4728213 417.39217401 50.03450441 C417.38539962 56.03049048 417.39585674 62.02644966 417.40411377 68.02243042 C417.4166982 79.09131867 417.41558595 90.16016444 417.40737936 101.22905299 C417.39983539 111.45431249 417.39786133 121.67955396 417.4014473 131.90481567 C417.40179103 132.92185578 417.40179103 132.92185578 417.40214171 133.95944215 C417.40307571 136.71171101 417.40403091 139.46397986 417.405021 142.21624869 C417.41419987 168.03942016 417.40587464 193.86256027 417.38973031 219.6857269 C417.37549328 242.63262379 417.37676715 265.57947073 417.39111328 288.52636719 C417.40717402 314.30203359 417.41354893 340.0776723 417.40427649 365.85334301 C417.40331432 368.60062344 417.4023758 371.34790388 417.4014473 374.09518433 C417.40109145 375.10987462 417.40109145 375.10987462 417.40072841 376.14506371 C417.39731469 386.36438641 417.40130925 396.5836891 417.40888596 406.80300903 C417.41745723 418.42177983 417.41504386 430.04050308 417.39904372 441.65926862 C417.39114629 447.59006807 417.38809451 453.52076603 417.39799118 459.45156479 C417.40690805 464.87715054 417.4020549 470.30254039 417.38605852 475.72810829 C417.38269795 477.69437334 417.38443328 479.66065483 417.39168589 481.62690938 C417.40076978 484.29349744 417.39149102 486.95940891 417.37752342 489.6259613 C417.38454692 490.3946134 417.39157042 491.1632655 417.39880675 491.95521009 C417.34887762 496.70391579 416.5647382 499.9898662 414 504 C409.76447144 506.82368571 405.97522686 506.66653757 401 506 C398.06576805 504.20353146 396.52794645 503.0558929 395 500 C395 490.1 395 480.2 395 470 C266.3 470 137.6 470 5 470 C5 479.9 5 489.8 5 500 C0.33202358 505.83497053 0.33202358 505.83497053 -3.20703125 506.2734375 C-10.27310908 506.54887682 -10.27310908 506.54887682 -14.0625 503.6875 C-17.28891554 499.21214941 -17.14351784 495.30083965 -17.13142776 489.99510479 C-17.1334804 489.16613773 -17.13553303 488.33717067 -17.13764787 487.4830834 C-17.14334142 484.68114636 -17.14185772 481.87925812 -17.14044189 479.07731628 C-17.14302418 477.05785052 -17.14603695 475.03838526 -17.1494453 473.01892072 C-17.15753456 467.45050873 -17.15930594 461.88210962 -17.16004276 456.31369245 C-17.16188996 450.31561585 -17.16943557 444.31754599 -17.17617798 438.31947327 C-17.19048449 424.51109238 -17.19628946 410.70271328 -17.20086992 396.89432681 C-17.20320483 390.07298683 -17.20680735 383.25164769 -17.2105653 376.43030837 C-17.22340116 353.08696626 -17.23412066 329.74362461 -17.2375679 306.40027905 C-17.23778954 304.93460755 -17.23801132 303.46893606 -17.23823325 302.00326457 C-17.23845389 300.53402471 -17.23867438 299.06478485 -17.2388947 297.59554499 C-17.23933726 294.64792518 -17.23978437 291.70030536 -17.24023438 288.75268555 C-17.24034377 288.02184584 -17.24045316 287.29100613 -17.24056586 286.53801977 C-17.24419747 262.83410688 -17.26012123 239.13022456 -17.28342474 215.42632338 C-17.30800916 190.3737699 -17.32174008 165.32123389 -17.32293582 140.268668 C-17.32310728 137.51965574 -17.32332271 134.77064349 -17.32357025 132.02163124 C-17.3236539 131.0062817 -17.3236539 131.0062817 -17.32373925 129.97042004 C-17.32489086 119.06760279 -17.33592217 108.16481685 -17.35045731 97.26201018 C-17.36480875 86.30775468 -17.367814 75.35353412 -17.36001733 64.39927097 C-17.35610015 58.46241115 -17.3570924 52.52565692 -17.37107468 46.58880997 C-17.38374956 41.15756245 -17.38267277 35.72650057 -17.37048396 30.29525355 C-17.3685158 28.32687627 -17.37165659 26.35848613 -17.38032833 24.39012697 C-17.39134738 21.72066329 -17.38398504 19.05186328 -17.3719368 16.38241863 C-17.37953199 15.61290899 -17.38712718 14.84339935 -17.39495254 14.05057123 C-17.3484335 9.29710219 -16.54781458 6.023271 -14 2 C-9.69468976 -1.10382832 -4.94817433 -2.22143472 0 0 Z M5 150 C5 224.25 5 298.5 5 375 C13.91 375 22.82 375 32 375 C32 300.75 32 226.5 32 150 C23.09 150 14.18 150 5 150 Z M55 150 C55 161.22 55 172.44 55 184 C82.39 184 109.78 184 138 184 C138 172.78 138 161.56 138 150 C110.61 150 83.22 150 55 150 Z M160 150 C160 224.25 160 298.5 160 375 C237.55 375 315.1 375 395 375 C395 300.75 395 226.5 395 150 C317.45 150 239.9 150 160 150 Z M55 207 C55 220.2 55 233.4 55 247 C82.39 247 109.78 247 138 247 C138 233.8 138 220.6 138 207 C110.61 207 83.22 207 55 207 Z M55 270 C55 283.53 55 297.06 55 311 C82.39 311 109.78 311 138 311 C138 297.47 138 283.94 138 270 C110.61 270 83.22 270 55 270 Z M55 333 C55 346.86 55 360.72 55 375 C82.39 375 109.78 375 138 375 C138 361.14 138 347.28 138 333 C110.61 333 83.22 333 55 333 Z " fill="#696363" transform="translate(56,6)"/>
<path d="M0 0 C0.95202301 -0.00671722 1.90404602 -0.01343445 2.88491821 -0.02035522 C6.02318585 -0.03930812 9.16123929 -0.04325812 12.29956055 -0.04541016 C14.48902981 -0.05184011 16.67849822 -0.05856862 18.8679657 -0.06558228 C23.4551289 -0.07754838 28.04221683 -0.08126379 32.62939453 -0.08007812 C38.49362247 -0.07987501 44.35736539 -0.10717251 50.22147846 -0.14162254 C54.74350684 -0.16391226 59.26541889 -0.16791502 63.78749657 -0.16685867 C65.94874937 -0.16921168 68.11000553 -0.17801818 70.27120399 -0.19352341 C73.3009351 -0.21322422 76.32962542 -0.20732887 79.359375 -0.1953125 C80.24331436 -0.20655151 81.12725372 -0.21779053 82.03797913 -0.22937012 C90.97206721 -0.13979481 98.05455009 3.19286642 104.58081055 9.22412109 C114.37739959 20.51474332 112.3737793 32.38365808 112.3737793 47.29052734 C64.5237793 47.29052734 16.6737793 47.29052734 -32.6262207 47.29052734 C-32.6262207 17.54252628 -32.6262207 17.54252628 -23.41918945 7.94287109 C-16.22500163 1.3129333 -9.41222327 -0.00958524 0 0 Z " fill="#696363" transform="translate(324.626220703125,320.70947265625)"/>
<path d="M0 0 C0.95202301 -0.00671722 1.90404602 -0.01343445 2.88491821 -0.02035522 C6.02318585 -0.03930812 9.16123929 -0.04325812 12.29956055 -0.04541016 C14.48902981 -0.05184011 16.67849822 -0.05856862 18.8679657 -0.06558228 C23.4551289 -0.07754838 28.04221683 -0.08126379 32.62939453 -0.08007812 C38.49362247 -0.07987501 44.35736539 -0.10717251 50.22147846 -0.14162254 C54.74350684 -0.16391226 59.26541889 -0.16791502 63.78749657 -0.16685867 C65.94874937 -0.16921168 68.11000553 -0.17801818 70.27120399 -0.19352341 C73.3009351 -0.21322422 76.32962542 -0.20732887 79.359375 -0.1953125 C80.24331436 -0.20655151 81.12725372 -0.21779053 82.03797913 -0.22937012 C90.97206721 -0.13979481 98.05455009 3.19286642 104.58081055 9.22412109 C114.37739959 20.51474332 112.3737793 32.38365808 112.3737793 47.29052734 C64.5237793 47.29052734 16.6737793 47.29052734 -32.6262207 47.29052734 C-32.6262207 17.54252628 -32.6262207 17.54252628 -23.41918945 7.94287109 C-16.22500163 1.3129333 -9.41222327 -0.00958524 0 0 Z " fill="#696363" transform="translate(324.626220703125,-0.29052734375)"/>
</svg>
