<?xml version="1.0" encoding="UTF-8"?>
<svg version="1.1" xmlns="http://www.w3.org/2000/svg" width="512" height="512">
<path d="M0 0 C6.66510958 3.96338256 10.02095857 8.7113132 12.48046875 16.08984375 C12.48046875 24.33984375 12.48046875 32.58984375 12.48046875 41.08984375 C82.44046875 41.08984375 152.40046875 41.08984375 224.48046875 41.08984375 C224.48046875 32.83984375 224.48046875 24.58984375 224.48046875 16.08984375 C228.07958589 7.99183019 231.21964332 2.34144525 239.48046875 -0.91015625 C246.86250861 -1.77381855 253.76454531 -2.03749099 259.8671875 2.6015625 C265.00013519 7.33679996 268.15940306 11.88146658 268.70751953 19.06591797 C268.6970459 20.08186035 268.68657227 21.09780273 268.67578125 22.14453125 C268.66933594 23.253125 268.66289062 24.36171875 268.65625 25.50390625 C268.63949219 26.64601563 268.62273437 27.788125 268.60546875 28.96484375 C268.59644531 30.13015625 268.58742188 31.29546875 268.578125 32.49609375 C268.55464307 35.36088952 268.52180016 38.2252591 268.48046875 41.08984375 C269.61923462 41.06627808 269.61923462 41.06627808 270.78100586 41.04223633 C302.03408171 40.4818233 327.5954726 44.17741717 350.953125 66.4375 C364.46717436 80.6199413 374.57816042 99.91888664 374.61468983 119.85908318 C374.61914767 120.99326585 374.62360551 122.12744852 374.62819844 123.29600036 C374.6279219 125.15025121 374.6279219 125.15025121 374.62763977 127.04196167 C374.6309419 128.37629812 374.6346682 129.71063357 374.63878125 131.04496777 C374.64876996 134.70603488 374.652513 138.36708559 374.65517056 142.02816439 C374.659083 145.97932915 374.66866075 149.93048105 374.67738342 153.88163757 C374.69712267 163.42174945 374.70721141 172.96186235 374.71611121 182.50198954 C374.7204988 186.99974142 374.72586444 191.49749212 374.73110008 195.99524307 C374.74811081 210.95611006 374.76260317 225.91697632 374.76984882 240.87785149 C374.77175858 244.7580859 374.77367893 248.6383203 374.77563477 252.51855469 C374.77611851 253.48291451 374.77660225 254.44727434 374.77710065 255.44085719 C374.78539422 271.04959812 374.81072047 286.65826224 374.84321544 302.26696967 C374.87633871 318.30889445 374.89430239 334.35078027 374.89749306 350.39273942 C374.89965343 359.39283457 374.90833233 368.39281777 374.93395424 377.39287949 C374.95573343 385.06065125 374.96367639 392.72828385 374.95398746 400.39608304 C374.94946338 404.30292981 374.95121742 408.2094899 374.9707489 412.11629677 C375.13966213 447.87127448 375.13966213 447.87127448 366.73046875 463.40234375 C366.38540283 464.06129639 366.04033691 464.72024902 365.68481445 465.39916992 C354.8612274 485.55979007 337.47513437 501.15305231 315.48046875 508.08984375 C305.93845533 510.82974991 296.93889317 511.52237597 287.05412292 511.4775238 C285.53637577 511.48170581 284.01863174 511.48718805 282.50089341 511.49384362 C278.36531223 511.50820348 274.22993194 511.50408338 270.09434021 511.4966768 C265.62044625 511.49192379 261.14659444 511.50447379 256.67271423 511.51469421 C247.92136815 511.53184627 239.17009399 511.53272965 230.41873547 511.52748131 C223.30151706 511.52343145 216.18431983 511.52489284 209.06710243 511.53022957 C207.54467443 511.5313522 207.54467443 511.5313522 205.99149031 511.53249751 C203.92926595 511.53402907 201.86704159 511.53556742 199.80481724 511.53711248 C180.48723314 511.55082468 161.16968959 511.54540898 141.85210643 511.53392727 C124.20361784 511.52399758 106.55523414 511.53693329 88.90676173 511.56086146 C70.75826286 511.58528101 52.60981277 511.59485323 34.46129781 511.58820873 C24.28313447 511.58472269 14.10505173 511.58690784 3.92690086 511.60445976 C-4.73800073 511.61921754 -13.40276494 511.61977064 -22.06766395 511.60238885 C-26.48287845 511.59390561 -30.89784791 511.59166333 -35.31304932 511.60704041 C-39.36533675 511.62097804 -43.41717131 511.61600937 -47.46943315 511.59680117 C-48.92490381 511.59306841 -50.38041155 511.59588323 -51.83584891 511.60641282 C-64.97681682 511.69462202 -78.13705196 509.67201192 -89.83203125 503.33984375 C-90.49098389 502.99477783 -91.14993652 502.64971191 -91.82885742 502.29418945 C-111.97447247 491.47865816 -127.60456322 474.08229576 -134.51953125 452.08984375 C-137.05796577 443.05991069 -137.95345976 434.65158478 -137.9072113 425.29594421 C-137.91139536 423.95556295 -137.9168787 422.61518524 -137.92353112 421.27481395 C-137.93786426 417.6294917 -137.93377948 413.98439787 -137.9263643 410.33906376 C-137.92160451 406.39277972 -137.93416721 402.44654313 -137.94438171 398.50027466 C-137.96152075 390.78365502 -137.96241987 383.06711698 -137.95716881 375.35048326 C-137.95311645 369.07374837 -137.95458328 362.79703748 -137.95991707 356.52030373 C-137.96066549 355.62469226 -137.96141391 354.72908079 -137.96218501 353.80632958 C-137.9637166 351.98649622 -137.96525495 350.16666286 -137.96679998 348.34682951 C-137.9805075 331.30545387 -137.97509981 314.26412421 -137.96361477 297.22274963 C-137.95368589 281.65971041 -137.9666202 266.09679015 -137.99054896 250.53376927 C-138.01497879 234.52325241 -138.0245382 218.51279085 -138.01789623 202.50225574 C-138.01441242 193.52575236 -138.01658045 184.54934039 -138.03414726 175.57285118 C-138.04891798 167.93085192 -138.04944148 160.28900844 -138.03207635 152.64701208 C-138.02360354 148.75430482 -138.02132469 144.86187525 -138.03672791 140.96918297 C-138.1468213 110.99920408 -138.1468213 110.99920408 -133.51953125 98.08984375 C-133.13136451 96.98568965 -132.74319777 95.88153555 -132.34326839 94.74392223 C-124.92453954 74.6788896 -108.68379823 58.07124642 -89.4440918 49.06030273 C-74.81900388 42.58136265 -60.8955151 40.92247191 -45.01953125 41.02734375 C-43.72015625 41.03185547 -42.42078125 41.03636719 -41.08203125 41.04101562 C-37.894483 41.05273455 -34.7070317 41.06914156 -31.51953125 41.08984375 C-31.55095215 40.02455444 -31.55095215 40.02455444 -31.58300781 38.93774414 C-31.66687811 35.67609181 -31.71841482 32.41466731 -31.76953125 29.15234375 C-31.80304688 28.03537109 -31.8365625 26.91839844 -31.87109375 25.76757812 C-31.96254387 17.97145541 -31.31285759 11.0886506 -25.73925781 5.21313477 C-18.48923015 -1.36685201 -9.52098152 -3.43936232 0 0 Z M-86.4921875 102.3671875 C-88.60085219 105.19905511 -89.88616013 107.82308363 -91.20703125 111.08984375 C-91.62339844 112.10046875 -92.03976563 113.11109375 -92.46875 114.15234375 C-94.07596283 118.64536996 -94.64455803 122.7202347 -94.65095901 127.48171329 C-94.65480016 128.55715399 -94.6586413 129.63259468 -94.66259885 130.74062449 C-94.66173237 131.91628692 -94.66086588 133.09194935 -94.65997314 134.30323792 C-94.66294427 135.55677738 -94.66591539 136.81031684 -94.66897655 138.10184234 C-94.67703365 141.57906708 -94.6788354 145.05627116 -94.67957401 148.53350413 C-94.68142686 152.28487934 -94.68897545 156.03624388 -94.69570923 159.78761292 C-94.70928477 167.99033882 -94.7153163 176.19305984 -94.71971989 184.39579511 C-94.7224841 189.52020639 -94.72672183 194.64461579 -94.73122406 199.7690258 C-94.74341662 213.96381417 -94.75371537 228.15860102 -94.75709915 242.35339451 C-94.75731872 243.26172442 -94.75753828 244.17005434 -94.7577645 245.1059094 C-94.75798278 246.01638737 -94.75820106 246.92686534 -94.75842595 247.86493355 C-94.75886941 249.70984177 -94.75931598 251.55474999 -94.75976562 253.3996582 C-94.75998705 254.31479232 -94.76020848 255.22992644 -94.76043662 256.17279189 C-94.76438232 270.99213515 -94.78182941 285.81142916 -94.80512515 300.63075341 C-94.8288629 315.85449866 -94.84130214 331.07821924 -94.84246707 346.3019833 C-94.84338256 354.84587119 -94.84910304 363.38969495 -94.86728668 371.93356514 C-94.88272053 379.21096329 -94.88778887 386.48827749 -94.87954858 393.7656889 C-94.87565342 397.4755367 -94.87651574 401.18521562 -94.89060593 404.89504242 C-94.90577505 408.92600368 -94.89744468 412.95658777 -94.88702393 416.98756409 C-94.89508033 418.14761147 -94.90313673 419.30765885 -94.91143727 420.50285918 C-94.82965029 434.07677775 -91.64610906 445.73348512 -82.26953125 455.83984375 C-70.55804727 466.7056407 -57.33316003 468.54926853 -41.86987305 468.47079468 C-40.42438499 468.47425857 -38.97889958 468.47902801 -37.53341961 468.48497641 C-33.5930752 468.49741578 -29.6529508 468.49134854 -25.71260595 468.48201776 C-21.45077421 468.47519841 -17.18897892 468.48572273 -12.92715454 468.49395752 C-4.59076543 468.50726639 3.74554245 468.50442983 12.08193469 468.4957196 C18.85977515 468.48893223 25.63759291 468.48803088 32.41543579 468.49129105 C33.38172167 468.49175075 34.34800755 468.49221044 35.34357482 468.49268407 C37.30683764 468.49364329 39.27010046 468.49461593 41.23336327 468.49560185 C59.62374535 468.5041474 78.0140825 468.49433471 96.40445721 468.47820075 C112.1690747 468.46479833 127.9336259 468.46712666 143.69824219 468.48095703 C162.02481139 468.49702759 180.35134126 468.50332351 198.67791653 468.49412024 C200.63377825 468.49316464 202.58963998 468.49222152 204.54550171 468.49129105 C205.988817 468.49059681 205.988817 468.49059681 207.46129018 468.48988854 C214.22750917 468.48730308 220.99370311 468.49166006 227.75991821 468.49872971 C236.01065642 468.50716131 244.26130905 468.50482971 252.51203752 468.48888747 C256.71810885 468.48102707 260.92403774 468.4778749 265.13010788 468.48783493 C268.98663767 468.49682883 272.84289407 468.49177247 276.69939935 468.47590227 C278.74188264 468.47100778 280.78438518 468.48070877 282.82684803 468.49107397 C296.84944259 468.40229524 308.74707703 465.56622907 319.23046875 455.83984375 C329.60975417 444.65273659 331.94538616 431.87947289 331.8681488 417.04139709 C331.87353434 415.78258223 331.87891988 414.52376736 331.88446862 413.22680658 C331.8988078 409.76725607 331.8947151 406.30794611 331.8873018 402.84838307 C331.88254362 399.10391188 331.8951032 395.35949078 331.90531921 391.61503601 C331.92246046 384.29298988 331.92335704 376.97102974 331.91810631 369.64896876 C331.91405493 363.69445685 331.91551963 357.73997023 331.92085457 351.78545952 C331.92160299 350.93602753 331.92235141 350.08659555 331.92312251 349.2114232 C331.92465408 347.48548011 331.92619243 345.75953702 331.92773748 344.03359395 C331.9414454 327.87122657 331.93603668 311.70890769 331.92455227 295.54654144 C331.91461989 280.78002553 331.92756367 266.01363492 331.95148646 251.24713833 C331.97590342 236.06044598 331.98547906 220.87381193 331.97883373 205.68710035 C331.97534751 197.17066168 331.97753415 188.65431935 331.99508476 180.13789558 C332.00983919 172.88884381 332.01039991 165.63995626 331.99301385 158.39090759 C331.98452837 154.6970498 331.9822937 151.00348495 331.99766541 147.30964279 C332.01416605 143.29461815 331.99930444 139.28029392 331.98167419 135.26527405 C331.9912792 134.11291435 332.00088421 132.96055465 332.01078027 131.77327496 C331.89009709 118.3530592 327.95907107 107.20050483 318.91796875 97.27734375 C307.34852673 86.89451117 297.35744455 84.76384609 282.04296875 84.96484375 C280.73908203 84.97386719 279.43519531 84.98289062 278.09179688 84.9921875 C274.88783043 85.01565978 271.68424611 85.04849648 268.48046875 85.08984375 C268.4664502 86.15513306 268.4664502 86.15513306 268.45214844 87.24194336 C268.39799079 90.50441049 268.31443306 93.76551299 268.23046875 97.02734375 C268.21628906 98.14431641 268.20210938 99.26128906 268.1875 100.41210938 C267.96930183 107.85266683 267.26400277 114.9524816 262.03417969 120.67138672 C255.88364555 126.03909046 250.97527491 126.58911848 242.97265625 126.47265625 C236.73981397 125.78941403 233.35998553 123.0188215 229.10546875 118.65234375 C222.60588216 108.40299567 224.97442085 97.43864627 224.48046875 85.08984375 C154.52046875 85.08984375 84.56046875 85.08984375 12.48046875 85.08984375 C12.15046875 93.33984375 11.82046875 101.58984375 11.48046875 110.08984375 C7.91135241 118.12035552 5.5570073 122.84228454 -2.51953125 126.08984375 C-9.96651916 126.96110465 -16.82411244 127.18881618 -22.97265625 122.51171875 C-27.820965 118.05519253 -30.13200474 113.70695565 -30.83837891 107.11376953 C-30.8697998 106.09782715 -30.9012207 105.08188477 -30.93359375 104.03515625 C-30.99160156 102.37226562 -30.99160156 102.37226562 -31.05078125 100.67578125 C-31.08171875 99.53367187 -31.11265625 98.3915625 -31.14453125 97.21484375 C-31.20253906 95.466875 -31.20253906 95.466875 -31.26171875 93.68359375 C-31.35563444 90.81916511 -31.44131108 87.95473683 -31.51953125 85.08984375 C-35.93596722 84.97204796 -40.35199039 84.90206264 -44.76953125 84.83984375 C-46.62191406 84.78957031 -46.62191406 84.78957031 -48.51171875 84.73828125 C-64.97077197 84.56502806 -75.8465595 90.07728428 -86.4921875 102.3671875 Z " fill="#686262" transform="translate(137.51953125,0.91015625)"/>
<path d="M0 0 C1.08487428 -0.00644889 2.16974856 -0.01289778 3.28749782 -0.0195421 C5.06675703 -0.01489629 5.06675703 -0.01489629 6.88196087 -0.01015663 C8.1464897 -0.01468774 9.41101853 -0.01921886 10.71386641 -0.02388728 C14.22163891 -0.03612111 17.72931605 -0.03585637 21.23710501 -0.03349853 C25.0211332 -0.03309045 28.80513078 -0.04412859 32.58914471 -0.05361366 C40.00202855 -0.0702268 47.41488058 -0.07572335 54.82778148 -0.07683842 C60.85353313 -0.07778876 66.87927429 -0.08189834 72.90502262 -0.08823967 C89.98959571 -0.10585304 107.07414366 -0.11507841 124.15872589 -0.11357872 C125.07976572 -0.11349881 126.00080555 -0.1134189 126.94975567 -0.11333656 C128.33300255 -0.11321392 128.33300255 -0.11321392 129.74419381 -0.1130888 C144.6891239 -0.1122759 159.63395319 -0.13141427 174.57885412 -0.1596133 C189.92462664 -0.1883402 205.27034999 -0.20215369 220.61615008 -0.20042574 C229.23146742 -0.19976177 237.84667911 -0.20525732 246.46197224 -0.22678185 C253.79733264 -0.24499112 261.1325395 -0.24934311 268.46791271 -0.235763 C272.20971341 -0.22923197 275.95121952 -0.22912067 279.69299221 -0.2464695 C283.7517289 -0.26509419 287.80978324 -0.25264933 291.86853313 -0.23720741 C293.04801378 -0.24749454 294.22749442 -0.25778167 295.4427169 -0.26838052 C303.14766562 -0.20352546 308.58723457 0.82409499 314.58915997 6.00336266 C315.03517559 6.56152672 315.48119122 7.11969078 315.94072247 7.69476891 C316.63294903 8.52814781 316.63294903 8.52814781 317.33915997 9.37836266 C321.04118259 15.0492954 321.41291502 20.66505183 320.56572247 27.25726891 C318.30844509 34.38180062 315.00155556 38.56262398 308.56572247 42.25726891 C305.53501059 43.2675062 303.51037891 43.38450861 300.34071922 43.38869667 C299.25162685 43.39253782 298.16253448 43.39637896 297.04043931 43.4003365 C295.23872237 43.39903678 295.23872237 43.39903678 293.40060711 43.3977108 C292.12820889 43.40068192 290.85581068 43.40365304 289.54485494 43.4067142 C286.00592161 43.41479235 282.46700855 43.41657422 278.92806709 43.41731167 C275.11405795 43.4191608 271.30005937 43.42670741 267.48605633 43.43344688 C259.14312343 43.44703635 250.80019534 43.45305583 242.45725322 43.45745754 C237.24947969 43.46021883 232.04170801 43.46445597 226.83393574 43.46896172 C212.41961025 43.481155 198.00528626 43.49145432 183.59095573 43.49483681 C182.20678577 43.49516616 182.20678577 43.49516616 180.79465278 43.49550216 C179.4071427 43.49582958 179.4071427 43.49582958 177.99160212 43.49616361 C176.11713898 43.49660708 174.24267584 43.49705364 172.3682127 43.49750328 C170.97351054 43.49783543 170.97351054 43.49783543 169.55063257 43.49817428 C154.48138119 43.50212308 139.41217813 43.51957932 124.34294542 43.5428628 C108.87746983 43.56656597 93.4120185 43.57903818 77.94652444 43.58020473 C69.26083451 43.58112205 60.57520755 43.58688881 51.88953495 43.60502434 C44.49407223 43.62041135 37.09869195 43.62555407 29.70321628 43.61728624 C25.9293184 43.61337479 22.15558662 43.61433328 18.3817091 43.62834358 C14.29161516 43.6433891 10.20189683 43.63523072 6.11178875 43.62476158 C4.91733629 43.63281799 3.72288383 43.64087439 2.49223584 43.64917493 C-4.79454262 43.60539879 -9.32766569 42.84611211 -15.05927753 38.06976891 C-20.14181512 32.0509744 -22.15440113 26.89111932 -21.81318378 18.93305016 C-20.84378545 12.087299 -17.53277604 7.81936279 -12.31318378 3.48383141 C-8.3065096 0.86824784 -4.7514413 0.00715582 0 0 Z " fill="#686262" transform="translate(106.43427753448486,148.74273109436035)"/>
<path d="M0 0 C1.07476593 -0.00524185 2.14953186 -0.0104837 3.25686646 -0.0158844 C5.52100769 -0.02228214 7.78518226 -0.0209969 10.04931641 -0.01245117 C13.49051882 -0.00394898 16.93005524 -0.03272375 20.37109375 -0.06445312 C22.58072867 -0.0660657 24.79036651 -0.06548652 27 -0.0625 C28.52546951 -0.07935097 28.52546951 -0.07935097 30.08175659 -0.09654236 C37.4934315 -0.02519155 44.87611453 1.05653481 50.57955933 6.18360901 C55.9756522 12.04603024 57.09942247 17.5854363 56.9453125 25.42578125 C56.32449798 31.40112102 54.02522769 35.00953276 49.8828125 39.24609375 C42.45871876 44.24307992 35.99366877 44.89228219 27.265625 44.8671875 C26.19085907 44.87242935 25.11609314 44.8776712 24.00875854 44.8830719 C21.74461731 44.88946964 19.48044274 44.8881844 17.21630859 44.87963867 C13.77510618 44.87113648 10.33556976 44.89991125 6.89453125 44.93164062 C4.68489633 44.9332532 2.47525849 44.93267402 0.265625 44.9296875 C-0.75135468 44.94092148 -1.76833435 44.95215546 -2.81613159 44.96372986 C-10.2278065 44.89237905 -17.61048953 43.81065269 -23.31393433 38.68357849 C-28.7100272 32.82115726 -29.83379747 27.2817512 -29.6796875 19.44140625 C-29.05887298 13.46606648 -26.75960269 9.85765474 -22.6171875 5.62109375 C-15.19309376 0.62410758 -8.72804377 -0.02509469 0 0 Z " fill="#686262" transform="translate(370.3671875,361.56640625)"/>
<path d="M0 0 C1.07476593 -0.00524185 2.14953186 -0.0104837 3.25686646 -0.0158844 C5.52100769 -0.02228214 7.78518226 -0.0209969 10.04931641 -0.01245117 C13.49051882 -0.00394898 16.93005524 -0.03272375 20.37109375 -0.06445312 C22.58072867 -0.0660657 24.79036651 -0.06548652 27 -0.0625 C28.52546951 -0.07935097 28.52546951 -0.07935097 30.08175659 -0.09654236 C37.4934315 -0.02519155 44.87611453 1.05653481 50.57955933 6.18360901 C55.9756522 12.04603024 57.09942247 17.5854363 56.9453125 25.42578125 C56.32449798 31.40112102 54.02522769 35.00953276 49.8828125 39.24609375 C42.45871876 44.24307992 35.99366877 44.89228219 27.265625 44.8671875 C26.19085907 44.87242935 25.11609314 44.8776712 24.00875854 44.8830719 C21.74461731 44.88946964 19.48044274 44.8881844 17.21630859 44.87963867 C13.77510618 44.87113648 10.33556976 44.89991125 6.89453125 44.93164062 C4.68489633 44.9332532 2.47525849 44.93267402 0.265625 44.9296875 C-0.75135468 44.94092148 -1.76833435 44.95215546 -2.81613159 44.96372986 C-10.2278065 44.89237905 -17.61048953 43.81065269 -23.31393433 38.68357849 C-28.7100272 32.82115726 -29.83379747 27.2817512 -29.6796875 19.44140625 C-29.05887298 13.46606648 -26.75960269 9.85765474 -22.6171875 5.62109375 C-15.19309376 0.62410758 -8.72804377 -0.02509469 0 0 Z " fill="#686262" transform="translate(242.3671875,361.56640625)"/>
<path d="M0 0 C1.07476593 -0.00524185 2.14953186 -0.0104837 3.25686646 -0.0158844 C5.52100769 -0.02228214 7.78518226 -0.0209969 10.04931641 -0.01245117 C13.49051882 -0.00394898 16.93005524 -0.03272375 20.37109375 -0.06445312 C22.58072867 -0.0660657 24.79036651 -0.06548652 27 -0.0625 C28.52546951 -0.07935097 28.52546951 -0.07935097 30.08175659 -0.09654236 C37.4934315 -0.02519155 44.87611453 1.05653481 50.57955933 6.18360901 C55.9756522 12.04603024 57.09942247 17.5854363 56.9453125 25.42578125 C56.32449798 31.40112102 54.02522769 35.00953276 49.8828125 39.24609375 C42.45871876 44.24307992 35.99366877 44.89228219 27.265625 44.8671875 C26.19085907 44.87242935 25.11609314 44.8776712 24.00875854 44.8830719 C21.74461731 44.88946964 19.48044274 44.8881844 17.21630859 44.87963867 C13.77510618 44.87113648 10.33556976 44.89991125 6.89453125 44.93164062 C4.68489633 44.9332532 2.47525849 44.93267402 0.265625 44.9296875 C-0.75135468 44.94092148 -1.76833435 44.95215546 -2.81613159 44.96372986 C-10.2278065 44.89237905 -17.61048953 43.81065269 -23.31393433 38.68357849 C-28.7100272 32.82115726 -29.83379747 27.2817512 -29.6796875 19.44140625 C-29.05887298 13.46606648 -26.75960269 9.85765474 -22.6171875 5.62109375 C-15.19309376 0.62410758 -8.72804377 -0.02509469 0 0 Z " fill="#686262" transform="translate(114.3671875,361.56640625)"/>
<path d="M0 0 C1.10156937 -0.00960754 2.20313873 -0.01921509 3.33808899 -0.02911377 C5.12402718 -0.03548859 5.12402718 -0.03548859 6.94604492 -0.04199219 C8.78280037 -0.0505423 8.78280037 -0.0505423 10.65666199 -0.05926514 C13.24994034 -0.06871832 15.84323072 -0.07525038 18.43652344 -0.07910156 C22.40019747 -0.08880278 26.3633521 -0.11982241 30.3269043 -0.15136719 C32.84578142 -0.15789768 35.36466226 -0.16314797 37.88354492 -0.16699219 C39.66037407 -0.18551239 39.66037407 -0.18551239 41.47309875 -0.20440674 C48.85201453 -0.18447484 53.43504981 0.51199626 59.23901367 5.34863281 C64.32155126 11.36742732 66.33413727 16.5272824 65.99291992 24.48535156 C65.02352158 31.33110272 61.71251218 35.59903892 56.49291992 39.93457031 C52.5092547 42.53513347 48.94045539 43.41268591 44.21630859 43.45166016 C42.63392647 43.47079971 42.63392647 43.47079971 41.01957703 43.49032593 C39.88929581 43.49255157 38.75901459 43.49477722 37.59448242 43.49707031 C36.42194412 43.50372711 35.24940582 43.51038391 34.04133606 43.51724243 C31.5625668 43.52735889 29.08377035 43.53205976 26.60498047 43.53173828 C22.82563014 43.53610495 19.04745388 43.57241973 15.26831055 43.61035156 C12.85620515 43.61622129 10.44409423 43.62018964 8.03198242 43.62207031 C6.34566963 43.64362686 6.34566963 43.64362686 4.62528992 43.6656189 C-3.03531497 43.62133229 -8.44359891 42.56315439 -14.40942383 37.41503906 C-14.85543945 36.856875 -15.30145508 36.29871094 -15.76098633 35.72363281 C-16.2224707 35.16804688 -16.68395508 34.61246094 -17.15942383 34.04003906 C-20.86144645 28.36910631 -21.23317888 22.75334989 -20.38598633 16.16113281 C-18.12870895 9.0366011 -14.82181942 4.85577774 -8.38598633 1.16113281 C-5.32487452 0.14076221 -3.20646187 0.02256911 0 0 Z " fill="#686262" transform="translate(361.385986328125,255.8388671875)"/>
<path d="M0 0 C1.10156937 -0.00960754 2.20313873 -0.01921509 3.33808899 -0.02911377 C5.12402718 -0.03548859 5.12402718 -0.03548859 6.94604492 -0.04199219 C8.78280037 -0.0505423 8.78280037 -0.0505423 10.65666199 -0.05926514 C13.24994034 -0.06871832 15.84323072 -0.07525038 18.43652344 -0.07910156 C22.40019747 -0.08880278 26.3633521 -0.11982241 30.3269043 -0.15136719 C32.84578142 -0.15789768 35.36466226 -0.16314797 37.88354492 -0.16699219 C39.66037407 -0.18551239 39.66037407 -0.18551239 41.47309875 -0.20440674 C48.85201453 -0.18447484 53.43504981 0.51199626 59.23901367 5.34863281 C64.32155126 11.36742732 66.33413727 16.5272824 65.99291992 24.48535156 C65.02352158 31.33110272 61.71251218 35.59903892 56.49291992 39.93457031 C52.5092547 42.53513347 48.94045539 43.41268591 44.21630859 43.45166016 C42.63392647 43.47079971 42.63392647 43.47079971 41.01957703 43.49032593 C39.88929581 43.49255157 38.75901459 43.49477722 37.59448242 43.49707031 C36.42194412 43.50372711 35.24940582 43.51038391 34.04133606 43.51724243 C31.5625668 43.52735889 29.08377035 43.53205976 26.60498047 43.53173828 C22.82563014 43.53610495 19.04745388 43.57241973 15.26831055 43.61035156 C12.85620515 43.61622129 10.44409423 43.62018964 8.03198242 43.62207031 C6.34566963 43.64362686 6.34566963 43.64362686 4.62528992 43.6656189 C-3.03531497 43.62133229 -8.44359891 42.56315439 -14.40942383 37.41503906 C-14.85543945 36.856875 -15.30145508 36.29871094 -15.76098633 35.72363281 C-16.2224707 35.16804688 -16.68395508 34.61246094 -17.15942383 34.04003906 C-20.86144645 28.36910631 -21.23317888 22.75334989 -20.38598633 16.16113281 C-18.12870895 9.0366011 -14.82181942 4.85577774 -8.38598633 1.16113281 C-5.32487452 0.14076221 -3.20646187 0.02256911 0 0 Z " fill="#686262" transform="translate(233.385986328125,255.8388671875)"/>
<path d="M0 0 C1.10156937 -0.00960754 2.20313873 -0.01921509 3.33808899 -0.02911377 C5.12402718 -0.03548859 5.12402718 -0.03548859 6.94604492 -0.04199219 C8.78280037 -0.0505423 8.78280037 -0.0505423 10.65666199 -0.05926514 C13.24994034 -0.06871832 15.84323072 -0.07525038 18.43652344 -0.07910156 C22.40019747 -0.08880278 26.3633521 -0.11982241 30.3269043 -0.15136719 C32.84578142 -0.15789768 35.36466226 -0.16314797 37.88354492 -0.16699219 C39.66037407 -0.18551239 39.66037407 -0.18551239 41.47309875 -0.20440674 C48.85201453 -0.18447484 53.43504981 0.51199626 59.23901367 5.34863281 C64.32155126 11.36742732 66.33413727 16.5272824 65.99291992 24.48535156 C65.02352158 31.33110272 61.71251218 35.59903892 56.49291992 39.93457031 C52.5092547 42.53513347 48.94045539 43.41268591 44.21630859 43.45166016 C42.63392647 43.47079971 42.63392647 43.47079971 41.01957703 43.49032593 C39.88929581 43.49255157 38.75901459 43.49477722 37.59448242 43.49707031 C36.42194412 43.50372711 35.24940582 43.51038391 34.04133606 43.51724243 C31.5625668 43.52735889 29.08377035 43.53205976 26.60498047 43.53173828 C22.82563014 43.53610495 19.04745388 43.57241973 15.26831055 43.61035156 C12.85620515 43.61622129 10.44409423 43.62018964 8.03198242 43.62207031 C6.34566963 43.64362686 6.34566963 43.64362686 4.62528992 43.6656189 C-3.03531497 43.62133229 -8.44359891 42.56315439 -14.40942383 37.41503906 C-14.85543945 36.856875 -15.30145508 36.29871094 -15.76098633 35.72363281 C-16.2224707 35.16804688 -16.68395508 34.61246094 -17.15942383 34.04003906 C-20.86144645 28.36910631 -21.23317888 22.75334989 -20.38598633 16.16113281 C-18.12870895 9.0366011 -14.82181942 4.85577774 -8.38598633 1.16113281 C-5.32487452 0.14076221 -3.20646187 0.02256911 0 0 Z " fill="#686262" transform="translate(105.385986328125,255.8388671875)"/>
</svg>
