<?xml version="1.0" encoding="UTF-8"?>
<svg version="1.1" xmlns="http://www.w3.org/2000/svg" width="225" height="225">
<path d="M0 0 C2.84860992 -0.37473011 2.84860992 -0.37473011 6.5670166 -0.3742218 C7.24926756 -0.37819621 7.93151853 -0.38217061 8.63444376 -0.38626546 C10.93163496 -0.39592722 13.22821623 -0.38404756 15.52539062 -0.37231445 C17.16774222 -0.37474115 18.81009233 -0.37845928 20.45243835 -0.38337708 C24.92139837 -0.39280648 29.39014016 -0.38334354 33.85908318 -0.37004495 C38.52800417 -0.35875525 43.19691402 -0.36283603 47.86584473 -0.36479187 C55.70763732 -0.36567563 63.54934361 -0.35457727 71.39111328 -0.33618164 C80.46724971 -0.31501275 89.54325964 -0.31150364 98.61941576 -0.3177436 C107.3375367 -0.32343135 116.05561292 -0.31779856 124.77372742 -0.30657005 C128.48981042 -0.30191624 132.20586616 -0.30105359 135.92195129 -0.3031559 C140.29513061 -0.3050347 144.66818053 -0.29696651 149.04133034 -0.2810955 C150.6498187 -0.27684021 152.25832016 -0.27601042 153.86681175 -0.27878571 C156.05567931 -0.28199034 158.24415605 -0.2729697 160.4329834 -0.26069641 C161.6600576 -0.25864354 162.88713181 -0.25659067 164.15139008 -0.25447559 C167 0 167 0 169 2 C169.26069641 4.00462341 169.26069641 4.00462341 169.2746582 6.49389648 C169.28419022 7.42503769 169.29372223 8.35617889 169.30354309 9.3155365 C169.30217598 10.82803734 169.30217598 10.82803734 169.30078125 12.37109375 C169.30506638 13.40436295 169.3093515 14.43763214 169.31376648 15.50221252 C169.31951683 17.69035102 169.32000488 19.87850863 169.31567383 22.06665039 C169.31251609 25.42041559 169.3359571 28.77329724 169.36132812 32.12695312 C169.3636012 34.24999888 169.36430457 36.37304702 169.36328125 38.49609375 C169.372491 39.50240341 169.38170074 40.50871307 169.39118958 41.54551697 C169.38496078 42.47981033 169.37873199 43.4141037 169.37231445 44.37670898 C169.37294388 45.19896469 169.3735733 46.0212204 169.3742218 46.86839294 C168.91073064 49.50848772 168.09179517 50.37420438 166 52 C163.8125 52.6875 163.8125 52.6875 162 53 C161.90203125 53.68707031 161.8040625 54.37414062 161.703125 55.08203125 C161.55359375 55.98308594 161.4040625 56.88414062 161.25 57.8125 C161.11078125 58.70582031 160.9715625 59.59914062 160.828125 60.51953125 C159.80700631 63.57807072 158.79522138 64.45156801 156 66 C153.26652469 66.5926089 150.74543779 66.52428278 148 66 C145.56880377 64.12984906 144.35930827 62.71861655 143 60 C143 57.36 143 54.72 143 52 C103.73 52 64.46 52 24 52 C24 54.64 24 57.28 24 60 C21.86111111 64.56944444 21.86111111 64.56944444 19 66 C12.00984781 66.68755595 12.00984781 66.68755595 8.0625 64 C5.40204018 60.13024026 5.23627941 57.64682839 5 53 C3.824375 52.566875 3.824375 52.566875 2.625 52.125 C0 51 0 51 -2 49 C-2.25396729 47.03334045 -2.25396729 47.03334045 -2.25878906 44.59790039 C-2.26509338 43.68677994 -2.27139771 42.77565948 -2.27789307 41.83692932 C-2.2738446 40.85046921 -2.26979614 39.86400909 -2.265625 38.84765625 C-2.26753845 37.8365831 -2.2694519 36.82550995 -2.27142334 35.78379822 C-2.27278603 33.64272819 -2.26908375 31.50164992 -2.26074219 29.3605957 C-2.25005505 26.07940112 -2.26062906 22.79875546 -2.2734375 19.51757812 C-2.2721157 17.44010295 -2.26955289 15.36262813 -2.265625 13.28515625 C-2.26967346 12.30072037 -2.27372192 11.31628448 -2.27789307 10.30201721 C-2.27158875 9.3877446 -2.26528442 8.47347198 -2.25878906 7.53149414 C-2.25719788 6.72700333 -2.25560669 5.92251251 -2.25396729 5.09364319 C-2 3 -2 3 0 0 Z " fill="#676161" transform="translate(29,150)"/>
<path d="M0 0 C0.79075928 0.00523682 1.58151855 0.01047363 2.39624023 0.01586914 C3.67724609 0.02070312 3.67724609 0.02070312 4.98413086 0.02563477 C5.88196289 0.03401367 6.77979492 0.04239258 7.70483398 0.05102539 C8.6065332 0.05553711 9.50823242 0.06004883 10.43725586 0.06469727 C12.67234712 0.07652315 14.90730835 0.09300319 17.14233398 0.11352539 C18.14233398 3.11352539 18.14233398 3.11352539 18.14233398 6.11352539 C30.88546442 9.1034956 42.97417493 10.76429799 56.06958008 10.63500977 C58.64296566 10.61352012 61.21356156 10.6349947 63.78686523 10.66040039 C75.9698321 10.67773036 87.29657991 8.8929407 99.14233398 6.11352539 C99.12170898 5.30915039 99.10108398 4.50477539 99.07983398 3.67602539 C99.14233398 1.11352539 99.14233398 1.11352539 100.14233398 0.11352539 C101.55803522 0.02700928 102.97792899 0.00647635 104.39624023 0.01586914 C105.16524658 0.0183667 105.93425293 0.02086426 106.7265625 0.0234375 C107.70939209 0.0325415 108.69222168 0.04164551 109.70483398 0.05102539 C111.38834407 0.06251398 113.07185666 0.07364019 114.75537109 0.08447266 C115.9973954 0.09269798 115.9973954 0.09269798 117.26451111 0.10108948 C118.19403343 0.10724525 118.19403343 0.10724525 119.14233398 0.11352539 C124.66431886 13.71928926 129.9617713 27.39703512 135.06396484 41.16577148 C136.22797937 44.3008639 137.4029611 47.43172473 138.57788086 50.56274414 C139.32008852 52.56119291 140.06165097 54.55988145 140.80249023 56.55883789 C141.15440933 57.49196808 141.50632843 58.42509827 141.86891174 59.38650513 C142.34082191 60.67087967 142.34082191 60.67087967 142.82226562 61.98120117 C143.24240685 63.10983078 143.24240685 63.10983078 143.67103577 64.26126099 C144.14233398 66.11352539 144.14233398 66.11352539 143.14233398 68.11352539 C87.37233398 68.11352539 31.60233398 68.11352539 -25.85766602 68.11352539 C-26.85766602 66.11352539 -26.85766602 66.11352539 -25.73706055 62.50366211 C-25.16275031 60.93061163 -24.57987138 59.36067457 -23.99047852 57.79321289 C-23.5249054 56.52811386 -23.5249054 56.52811386 -23.04992676 55.23745728 C-22.03487553 52.48502441 -21.00900003 49.73676886 -19.98266602 46.98852539 C-19.28855676 45.11439377 -18.59503493 43.24004449 -17.90209961 41.36547852 C-16.20260407 36.77350175 -14.49421663 32.18489434 -12.78295898 27.59729004 C-11.47900188 24.09707695 -10.18412837 20.5935461 -8.88891602 17.09008789 C-8.08752856 14.93097531 -7.28551341 12.77209553 -6.48266602 10.61352539 C-6.12060059 9.63754395 -5.75853516 8.6615625 -5.38549805 7.65600586 C-5.0592041 6.7860498 -4.73291016 5.91609375 -4.39672852 5.01977539 C-4.12038574 4.28049805 -3.84404297 3.5412207 -3.55932617 2.77954102 C-2.45179709 0.14983383 -2.45179709 0.14983383 0 0 Z " fill="#686262" transform="translate(53.857666015625,77.886474609375)"/>
<path d="M0 0 C4.03368418 3.47731395 3.27698909 6.21591275 4 12 C48.055 12.495 48.055 12.495 93 13 C93.33 9.7 93.66 6.4 94 3 C97.33169751 -0.33169751 98.41437441 -0.81657498 103 -1 C107.56521739 1.13043478 107.56521739 1.13043478 109 4 C109.25067142 7.11018247 109.43206773 10.1963497 109.5625 13.3125 C109.6042334 14.28985107 109.6459668 15.26720215 109.68896484 16.27416992 C110.06639851 26.45178436 110.11013244 36.62920447 110.125 46.8125 C110.1275882 47.64834625 110.13017639 48.4841925 110.13284302 49.34536743 C110.13868516 51.73679912 110.13712268 54.12809861 110.1328125 56.51953125 C110.13479141 57.24563599 110.13677032 57.97174072 110.1388092 58.71984863 C110.11529325 63.7694135 110.11529325 63.7694135 109 66 C105.70835171 66.02895225 102.41673601 66.0467823 99.125 66.0625 C98.18785156 66.07087891 97.25070313 66.07925781 96.28515625 66.08789062 C94.94130859 66.09272461 94.94130859 66.09272461 93.5703125 66.09765625 C92.32918701 66.10551147 92.32918701 66.10551147 91.06298828 66.11352539 C89 66 89 66 87 65 C86.36198164 62.4684134 85.83312632 60.00160498 85.375 57.4375 C85.2409375 56.72658203 85.106875 56.01566406 84.96875 55.28320312 C84.63808153 53.52357447 84.31804233 51.76195452 84 50 C82.16830682 49.51460131 80.33453941 49.03702814 78.5 48.5625 C77.4790625 48.29566406 76.458125 48.02882812 75.40625 47.75390625 C66.72683615 45.83288919 58.11113231 45.72469091 49.25 45.6875 C48.2273555 45.68157837 48.2273555 45.68157837 47.18405151 45.67553711 C35.41897369 45.64378764 24.38496414 46.96761954 13 50 C12.86795166 50.60908203 12.73590332 51.21816406 12.59985352 51.84570312 C12.42381592 52.64943359 12.24777832 53.45316406 12.06640625 54.28125 C11.80645874 55.47331055 11.80645874 55.47331055 11.54125977 56.68945312 C9.77632124 64.22367876 9.77632124 64.22367876 8 66 C6.52347336 66.09880797 5.04232764 66.13079245 3.5625 66.1328125 C2.22058594 66.13474609 2.22058594 66.13474609 0.8515625 66.13671875 C-0.55996094 66.13091797 -0.55996094 66.13091797 -2 66.125 C-3.41152344 66.13080078 -3.41152344 66.13080078 -4.8515625 66.13671875 C-5.74617188 66.13542969 -6.64078125 66.13414063 -7.5625 66.1328125 C-8.38878906 66.13168457 -9.21507812 66.13055664 -10.06640625 66.12939453 C-12 66 -12 66 -13 65 C-13.09872483 63.35452677 -13.1279888 61.70482809 -13.12939453 60.05639648 C-13.13254669 59.00117294 -13.13569885 57.9459494 -13.13894653 56.85874939 C-13.1369223 55.70782303 -13.13489807 54.55689667 -13.1328125 53.37109375 C-13.13376923 52.19289566 -13.13472595 51.01469757 -13.13571167 49.80079651 C-13.13639408 47.29810534 -13.13453557 44.79541241 -13.13037109 42.29272461 C-13.12505686 38.47831173 -13.13029677 34.6640184 -13.13671875 30.84960938 C-13.13605733 28.41927057 -13.13477484 25.98893185 -13.1328125 23.55859375 C-13.13584885 21.85345863 -13.13584885 21.85345863 -13.13894653 20.11387634 C-13.09337913 4.54067059 -13.09337913 4.54067059 -10.625 1.0625 C-6.90404369 -1.37043297 -4.15522593 -1.12537369 0 0 Z " fill="#686262" transform="translate(64,9)"/>
</svg>
