<?xml version="1.0" encoding="UTF-8"?>
<svg version="1.1" xmlns="http://www.w3.org/2000/svg" width="840" height="859">
<path d="M0 0 C1.86780624 0.05867249 1.86780624 0.05867249 3.77334595 0.11853027 C17.5504009 0.56639992 31.3069857 1.22904237 45.0625 2.109375 C46.92972466 2.22851761 46.92972466 2.22851761 48.83467102 2.35006714 C59.84743896 3.08320385 70.8318794 4.0908081 81.8046875 5.27734375 C83.07280273 5.41382324 84.34091797 5.55030273 85.64746094 5.69091797 C86.3022644 5.76155457 86.95706787 5.83219116 87.63171387 5.90496826 C89.78828452 6.13578701 91.94532692 6.36168437 94.10253906 6.58642578 C127.39528228 10.05931691 161.11655554 13.96355226 193.1640625 24.03515625 C196.46650075 25.05664214 199.7667678 25.93370426 203.125 26.75 C212.72117944 29.10008476 221.62130491 32.18920472 230.6875 36.125 C231.93991668 36.65799285 233.19252914 37.19052585 234.4453125 37.72265625 C238.54786295 39.47567032 242.62264211 41.2864365 246.6875 43.125 C247.32671387 43.41181641 247.96592773 43.69863281 248.62451172 43.99414062 C262.85848548 50.46645305 275.67885445 59.27640037 288.3125 68.4296875 C288.96476563 68.90132324 289.61703125 69.37295898 290.2890625 69.85888672 C290.75054688 70.2767041 291.21203125 70.69452148 291.6875 71.125 C291.6875 71.785 291.6875 72.445 291.6875 73.125 C292.3475 73.125 293.0075 73.125 293.6875 73.125 C293.6875 73.785 293.6875 74.445 293.6875 75.125 C294.3475 75.125 295.0075 75.125 295.6875 75.125 C295.6875 75.785 295.6875 76.445 295.6875 77.125 C296.3475 77.125 297.0075 77.125 297.6875 77.125 C297.6875 77.785 297.6875 78.445 297.6875 79.125 C298.3475 79.125 299.0075 79.125 299.6875 79.125 C299.6875 79.785 299.6875 80.445 299.6875 81.125 C300.3475 81.125 301.0075 81.125 301.6875 81.125 C301.6875 81.785 301.6875 82.445 301.6875 83.125 C302.24050781 83.32351563 302.79351563 83.52203125 303.36328125 83.7265625 C306.63217152 85.6933906 308.62136939 88.49515919 310.875 91.5 C311.32552734 92.0775 311.77605469 92.655 312.24023438 93.25 C314.41192747 96.10217863 316.23308926 98.50753408 316.6875 102.125 C317.3475 102.125 318.0075 102.125 318.6875 102.125 C318.6875 103.115 318.6875 104.105 318.6875 105.125 C319.3475 105.125 320.0075 105.125 320.6875 105.125 C322.7260947 109.14790728 324.74433718 113.18008614 326.74267578 117.22314453 C327.57707102 118.90271531 328.42610816 120.5749949 329.27734375 122.24609375 C336.61830208 137.22009098 340.43409157 153.55409943 343.296875 169.90576172 C343.6351739 171.82772237 344.0024599 173.74453814 344.375 175.66015625 C346.70572378 189.49882868 345.6875 202.88330678 345.6875 217.125 C70.1375 217.125 -205.4125 217.125 -489.3125 217.125 C-490.62215804 210.57670981 -490.06979284 204.43552726 -489.625 197.8125 C-489.57926849 197.12171356 -489.53353699 196.43092712 -489.48641968 195.71920776 C-486.18127525 147.11641056 -470.35212206 103.18500766 -433.3125 70.125 C-421.0665107 60.125 -421.0665107 60.125 -417.3125 60.125 C-417.3125 59.465 -417.3125 58.805 -417.3125 58.125 C-416.3225 58.125 -415.3325 58.125 -414.3125 58.125 C-414.3125 57.465 -414.3125 56.805 -414.3125 56.125 C-407.85692186 51.39553576 -400.33589852 48.02881173 -393.125 44.625 C-392.11252197 44.14579102 -391.10004395 43.66658203 -390.05688477 43.17285156 C-375.16577402 36.18341282 -360.03021043 30.92651004 -344.3125 26.125 C-343.12269531 25.75503906 -341.93289063 25.38507813 -340.70703125 25.00390625 C-309.44227985 15.64389993 -276.6928416 10.69957315 -244.3125 7.125 C-243.50184082 7.0326709 -242.69118164 6.9403418 -241.85595703 6.84521484 C-228.36736036 5.31147767 -214.84717109 4.16487869 -201.3125 3.125 C-200.27996094 3.0425 -199.24742187 2.96 -198.18359375 2.875 C-132.39703969 -2.29106069 -65.92292461 -2.0954425 0 0 Z " fill="#686262" transform="translate(492.3125,328.875)"/>
<path d="M0 0 C1.15849523 -0.00350607 2.31699045 -0.00701215 3.5105916 -0.01062447 C6.7225288 -0.01831805 9.93431874 -0.01709091 13.14625662 -0.01206893 C16.64210812 -0.00879655 20.13793557 -0.01708961 23.63377935 -0.02388728 C29.75964724 -0.03418807 35.88548352 -0.03703093 42.01135921 -0.03497505 C51.12098824 -0.03192527 60.23058228 -0.04024854 69.3402045 -0.0507243 C86.55708806 -0.07006988 103.77395971 -0.07569274 120.99085286 -0.07683842 C134.28670201 -0.0777574 147.58254649 -0.08187352 160.87839413 -0.08823967 C164.70518551 -0.09003475 168.53197689 -0.09181438 172.35876828 -0.09358943 C173.31011382 -0.09403152 174.26145935 -0.09447362 175.24163354 -0.09492911 C202.00281679 -0.10723823 228.76399842 -0.11513017 255.52518463 -0.11424255 C257.03874102 -0.11419582 257.03874102 -0.11419582 258.5828743 -0.11414814 C263.69712733 -0.11398192 268.81138036 -0.11378384 273.92563339 -0.11357872 C274.9413469 -0.11353883 275.95706041 -0.11349894 277.00355311 -0.11345784 C279.05757376 -0.11337697 281.11159441 -0.11329337 283.16561506 -0.11320706 C315.12206974 -0.11198158 347.07848197 -0.1269939 379.03492451 -0.15435219 C414.93594437 -0.18507479 450.83693634 -0.20228457 486.73797017 -0.20042574 C490.56633333 -0.20027648 494.39469649 -0.20017907 498.22305965 -0.20011711 C499.16570293 -0.2000938 500.10834621 -0.20007049 501.07955443 -0.20004648 C516.24772064 -0.19998494 531.41585 -0.21275552 546.58400525 -0.22998164 C561.82929386 -0.24693723 577.07452856 -0.24891254 592.31982138 -0.235763 C601.37540653 -0.22837333 610.43082791 -0.2320323 619.4863957 -0.25164768 C625.5389048 -0.26364972 631.59129532 -0.26105413 637.64379899 -0.24670668 C641.09000232 -0.23894552 644.5358888 -0.23738612 647.98206975 -0.25362138 C651.70211178 -0.26774949 655.42131317 -0.25714902 659.1413269 -0.24050903 C660.20065688 -0.25044539 661.25998686 -0.26038175 662.35141775 -0.27061921 C676.20841213 -0.13976512 689.19914014 4.77575137 699.40479755 14.18695641 C710.89796459 26.20150972 714.55857177 38.73864147 714.50552082 55.02055931 C714.50637525 55.98617509 714.50722967 56.95179087 714.50810999 57.94666773 C714.50975316 61.17253496 714.50426247 64.39834985 714.49879169 67.62421227 C714.49850955 69.94048626 714.4986681 72.25676034 714.4992342 74.57303429 C714.49952109 80.8554851 714.49364175 87.13791681 714.48666024 93.42036319 C714.48040879 99.98803215 714.47982148 106.55570155 714.47863483 113.12337303 C714.47604649 124.14497776 714.4696338 135.1665758 714.46070576 146.18817711 C714.45152107 157.53843717 714.4444454 168.88869533 714.44019794 180.23895836 C714.43993522 180.93906326 714.4396725 181.63916815 714.43940181 182.36048835 C714.43809674 185.87285064 714.43683304 189.38521294 714.43558991 192.89757526 C714.42523002 222.01747769 714.40754827 251.1373732 714.3852663 280.25726891 C710.0232042 279.52334181 708.0618145 278.42906735 704.7602663 275.44476891 C699.67556167 271.12795844 694.34188425 267.49517172 688.6977663 263.94476891 C687.90225361 263.4416317 687.10674091 262.93849449 686.28712177 262.4201107 C681.43958738 259.40235694 676.53078951 256.73300064 671.3852663 254.25726891 C671.3852663 253.59726891 671.3852663 252.93726891 671.3852663 252.25726891 C670.81574238 252.12981285 670.24621845 252.0023568 669.65943623 251.87103844 C667.31896668 251.23937548 665.21998209 250.40545132 662.99854755 249.43695641 C662.14067646 249.06570641 661.28280537 248.69445641 660.39893818 248.31195641 C659.50755146 247.92265953 658.61616474 247.53336266 657.6977663 247.13226891 C650.99461763 244.21472986 644.26557909 241.37075342 637.50318623 238.59369469 C636.71994732 238.27163551 635.93670841 237.94957634 635.12973499 237.6177578 C633.21507349 236.83053551 631.30019238 236.04384739 629.3852663 235.25726891 C629.38162067 234.32512062 629.37797504 233.39297234 629.37421894 232.43257713 C629.33717401 223.62020458 629.27929821 214.8081784 629.20136356 205.99606991 C629.16196285 201.46634155 629.12973824 196.93680543 629.11427021 192.40692711 C629.09905458 188.0300286 629.06452285 183.65365887 629.01695728 179.27699661 C629.00219385 177.61262119 628.9942282 175.94817024 628.99338245 174.28372955 C628.98075282 161.8842309 627.69382774 152.78677021 618.9008913 143.45648766 C603.35342559 129.86452617 580.32856593 124.95034221 560.3852663 122.25726891 C559.09878193 122.08324547 557.81229755 121.90922203 556.4868288 121.72992516 C535.35676038 119.0509034 514.00577234 119.09122011 492.74049091 119.12689781 C488.95472421 119.13225905 485.16907634 119.12691237 481.38331318 119.12055016 C450.29070196 119.04404288 450.29070196 119.04404288 419.3852663 122.06976891 C418.16669941 122.24790123 416.94813251 122.42603355 415.69263935 122.60956383 C395.3392055 125.68119279 368.0504317 130.12920214 354.5962038 147.43305016 C349.42346257 155.22553453 348.2549146 162.06707219 348.06886005 171.27680016 C348.03768841 172.56465668 348.03768841 172.56465668 348.00588703 173.8785305 C347.94074107 176.60886545 347.88166977 179.33929286 347.8227663 182.06976891 C347.77954781 183.92589808 347.73593247 185.78201807 347.69190693 187.63812828 C347.58435222 192.17774861 347.48501936 196.71744366 347.3852663 201.25726891 C335.8352663 201.25726891 324.2852663 201.25726891 312.3852663 201.25726891 C312.35948505 198.32980797 312.3337038 195.40234703 312.3071413 192.38617516 C312.26864314 189.52646146 312.22350801 186.66692336 312.17774677 183.80731773 C312.14965681 181.83181819 312.12838316 179.85620876 312.11427021 177.88055992 C312.09267398 175.02769761 312.04593996 172.17613999 311.9946413 169.32367516 C311.99279835 168.01530441 311.99279835 168.01530441 311.99091816 166.68050194 C311.77277154 157.38548386 308.24017278 150.18316967 301.9008913 143.45648766 C286.35175797 129.8630683 263.32958018 124.95375958 243.3852663 122.25726891 C242.11038349 122.08324547 240.83550068 121.90922203 239.52198505 121.72992516 C218.18132712 119.00428118 196.57076443 119.09004194 175.09229755 119.12689781 C171.38782888 119.13226519 167.68348139 119.12690681 163.9790163 119.12055016 C133.08881229 119.05418982 133.08881229 119.05418982 102.3852663 122.06976891 C101.16597431 122.24790123 99.94668232 122.42603355 98.69044209 122.60956383 C75.99259376 126.03340493 50.72871749 130.64851001 35.8227663 149.69086266 C31.06083235 158.19246757 30.9769105 166.36612321 31.03570652 175.82164192 C31.04956529 178.25981198 31.04294034 180.69717936 31.03086567 183.13535118 C31.00005199 190.05999914 31.004879 196.98445042 31.02491474 203.90912437 C31.03581188 208.16018706 31.02269903 212.41063785 30.99501896 216.66161537 C30.98957473 218.2779623 30.99365179 219.89437032 31.00741673 221.5106678 C31.02640122 223.76331294 31.01511268 226.01393758 30.99708271 228.26654625 C30.99946949 229.54734062 31.00185627 230.82813499 31.00431538 232.14774132 C30.3852663 235.25726891 30.3852663 235.25726891 28.03599262 237.12290001 C25.06062218 238.3961992 22.08335838 239.49006826 19.0102663 240.50726891 C11.18937409 243.22900498 3.82588924 246.63842048 -3.6147337 250.25726891 C-4.4397337 250.64398766 -5.2647337 251.03070641 -6.1147337 251.42914391 C-21.6753135 258.88525506 -38.32285419 267.9653894 -50.6147337 280.25726891 C-51.9347337 280.25726891 -53.2547337 280.25726891 -54.6147337 280.25726891 C-54.7061045 250.28618727 -54.77683443 220.31511043 -54.81899501 190.34392013 C-54.82399747 186.80063186 -54.8291748 183.25734387 -54.83446026 179.71405602 C-54.8355095 179.00869035 -54.83655874 178.30332468 -54.83763978 177.5765843 C-54.85501601 166.17513764 -54.88653823 154.77377216 -54.92334488 143.37237356 C-54.96083197 131.66199734 -54.98298591 119.95166346 -54.99108768 108.24122971 C-54.9962935 101.66847001 -55.00849337 95.09589406 -55.03765392 88.52319336 C-55.06490537 82.33033109 -55.07315894 76.1377274 -55.06716442 69.94481087 C-55.0682603 67.67816383 -55.07615575 65.4115077 -55.0915556 63.14491272 C-55.18695114 48.37349419 -54.71061014 35.74495485 -46.4897337 22.94476891 C-45.80653057 21.85551109 -45.12332745 20.76625328 -44.4194212 19.64398766 C-43.82387432 18.85637047 -43.22832745 18.06875328 -42.6147337 17.25726891 C-41.9547337 17.25726891 -41.2947337 17.25726891 -40.6147337 17.25726891 C-40.6147337 16.59726891 -40.6147337 15.93726891 -40.6147337 15.25726891 C-39.9547337 15.25726891 -39.2947337 15.25726891 -38.6147337 15.25726891 C-38.6147337 14.59726891 -38.6147337 13.93726891 -38.6147337 13.25726891 C-37.9547337 13.25726891 -37.2947337 13.25726891 -36.6147337 13.25726891 C-36.6147337 12.59726891 -36.6147337 11.93726891 -36.6147337 11.25726891 C-25.90527989 2.67803343 -13.36416494 -0.05129169 0 0 Z " fill="#696363" transform="translate(90.61473369598389,94.74273109436035)"/>
<path d="M0 0 C275.55 0 551.1 0 835 0 C835.97453996 3.89815986 836.13986928 7.33058878 836.12698364 11.30105591 C836.12854363 12.0381019 836.13010362 12.77514789 836.13171089 13.53452861 C836.13570051 16.00497299 836.13253914 18.47535595 836.12939453 20.94580078 C836.13074945 22.71652258 836.1325299 24.4872441 836.13470459 26.25796509 C836.13926746 31.06763349 836.13749423 35.87728047 836.1343255 40.68694925 C836.1317968 45.71487391 836.1341408 50.74279671 836.13571167 55.77072144 C836.13753153 64.21254812 836.1351315 72.65436605 836.13037109 81.09619141 C836.12492531 90.86648258 836.12669417 100.6367529 836.1321975 110.40704358 C836.13672964 118.78755501 836.13737879 127.16806016 836.13475883 135.54857242 C836.13319707 140.55756337 836.13299962 145.5665445 836.13629532 150.57553482 C836.13917561 155.28193264 836.13719541 159.98830345 836.13140106 164.69469833 C836.13007447 166.42574773 836.13046588 168.15679939 836.13266373 169.8878479 C836.13537907 172.24290015 836.13198939 174.59786477 836.12698364 176.95291138 C836.12921436 177.64472791 836.13144509 178.33654444 836.13374341 179.04932511 C836.11415034 183.77169931 836.11415034 183.77169931 835 186 C796.06 185.67 757.12 185.34 717 185 C716.75 146.125 716.75 146.125 716.70214844 133.90283203 C716.66888097 130.25056866 716.66888097 130.25056866 716.63043213 126.59835815 C716.61592938 124.98634621 716.60905087 123.37425359 716.60845947 121.76217651 C716.5992191 112.46331888 716.3681808 104.44304744 712 96 C711.67 95.01 711.34 94.02 711 93 C710.34 93 709.68 93 709 93 C709 92.34 709 91.68 709 91 C707.34015202 90.31653318 705.67163195 89.65411685 704 89 C703.154375 88.649375 702.30875 88.29875 701.4375 87.9375 C689.58704426 84.70555752 676.39391663 85.85924061 664.20640564 85.87301636 C661.98474574 85.87186318 659.76308603 85.87027432 657.54142672 85.86828911 C651.45572378 85.86412295 645.37003657 85.86617423 639.28433359 85.86927533 C633.38915563 85.87130741 627.49398098 85.86863887 621.59880347 85.86612797 C608.80238433 85.86087026 596.00597018 85.86131539 583.20955056 85.86420688 C572.01165889 85.86672467 560.81376905 85.86737809 549.61587715 85.86618423 C548.87244383 85.86610785 548.12901051 85.86603146 547.36304891 85.86595276 C544.34505068 85.86564142 541.32705245 85.86532301 538.30905423 85.864993 C510.01209326 85.86193566 481.71513548 85.86470488 453.41817501 85.8700899 C428.28846588 85.87483581 403.15876182 85.87441027 378.02905273 85.86962891 C349.78158747 85.86427227 321.53412501 85.86215202 293.2866593 85.86524117 C290.2745419 85.86556188 287.26242449 85.86587472 284.25030708 85.86618423 C283.13785413 85.86630285 283.13785413 85.86630285 282.00292738 85.86642386 C270.81250214 85.86756046 259.62207894 85.8662327 248.43165398 85.86370468 C235.70610352 85.86084416 222.98055884 85.86156299 210.25500911 85.86698543 C203.76258023 85.86961328 197.27016165 85.87064295 190.77773285 85.86733627 C184.83345367 85.86435456 178.8891943 85.86599744 172.94491691 85.87131383 C170.79569996 85.87242998 168.64648133 85.87186459 166.49726545 85.86943804 C145.05767684 84.57007501 145.05767684 84.57007501 126.1796875 92.64453125 C119.52664096 100.02073502 118.89779701 107.85251381 118.82641602 117.5559082 C118.8163855 118.63526894 118.8163855 118.63526894 118.80615234 119.73643494 C118.79219489 121.28543281 118.78027202 122.83445012 118.77020454 124.38347816 C118.75368483 126.83362183 118.73044953 129.28361885 118.70530701 131.73368835 C118.63478832 138.69486118 118.57417342 145.65608845 118.52319336 152.61743164 C118.49146947 156.88551134 118.45023039 161.15341176 118.40299797 165.42134666 C118.38696088 167.0468647 118.37464721 168.67242381 118.36609077 170.29799843 C118.35398583 172.56254054 118.32986338 174.82665665 118.30297852 177.09106445 C118.29267105 178.38011185 118.28236359 179.66915924 118.27174377 180.99726868 C118 184 118 184 116 186 C113.94508266 186.2332716 113.94508266 186.2332716 111.3624115 186.20927429 C110.38506546 186.20505463 109.40771942 186.20083496 108.40075684 186.19648743 C107.32483276 186.18151718 106.24890869 186.16654694 105.14038086 186.15112305 C103.44523094 186.13934021 103.44523094 186.13934021 101.71583557 186.12731934 C97.96534894 186.09864832 94.21518313 186.0554173 90.46484375 186.01171875 C87.86935577 185.98809852 85.27386089 185.96522463 82.67835999 185.94306946 C77.23332494 185.89447166 71.78841733 185.83933471 66.34350586 185.77856445 C60.04060641 185.70827634 53.73767757 185.64847942 47.43461698 185.59470528 C41.37973076 185.54295818 35.32491916 185.48543968 29.27011299 185.42493629 C26.68919585 185.39943417 24.10826646 185.37514316 21.52732658 185.3520565 C17.92821804 185.3187308 14.3292431 185.27888364 10.73022461 185.23706055 C9.65227631 185.22816299 8.574328 185.21926544 7.4637146 185.21009827 C6.48918839 185.19741913 5.51466217 185.18473999 4.51060486 185.17167664 C3.6587004 185.16262645 2.80679594 185.15357626 1.92907619 185.14425182 C0 185 0 185 -1 184 C-1.099843 181.65166169 -1.13442778 179.33268044 -1.12698364 176.98377991 C-1.12854363 176.24113008 -1.13010362 175.49848026 -1.13171089 174.7333259 C-1.13572367 172.22592474 -1.13253016 169.71858333 -1.12939453 167.21118164 C-1.13074846 165.42119816 -1.13252835 163.63121497 -1.13470459 161.8412323 C-1.13928025 156.96527277 -1.13748874 152.0893343 -1.1343255 147.21337438 C-1.13180219 142.12136988 -1.1341394 137.02936724 -1.13571167 131.93736267 C-1.13753362 123.38345006 -1.13512658 114.82954607 -1.13037109 106.27563477 C-1.12493016 96.37418968 -1.1266898 86.47276518 -1.1321975 76.57132059 C-1.13672999 68.08471343 -1.13737846 59.59811248 -1.13475883 51.1115045 C-1.13319658 46.03651717 -1.13300083 40.96153953 -1.13629532 35.88655281 C-1.13917594 31.1153536 -1.1371948 26.34418102 -1.13140106 21.5729847 C-1.13007442 19.81774947 -1.13046597 18.06251203 -1.13266373 16.30727768 C-1.13537901 13.91922236 -1.1319894 11.53125348 -1.12698364 9.14320374 C-1.12921436 8.44155895 -1.13144509 7.73991416 -1.13374341 7.01700741 C-1.11414998 2.22829996 -1.11414998 2.22829996 0 0 Z " fill="#696363" transform="translate(3,578)"/>
</svg>
