<?xml version="1.0" encoding="UTF-8"?>
<svg version="1.1" xmlns="http://www.w3.org/2000/svg" width="512" height="512">
<path d="M0 0 C1.21908414 -0.00480972 1.21908414 -0.00480972 2.46279624 -0.0097166 C5.18546485 -0.01801636 7.90791347 -0.01209238 10.63058567 -0.00622082 C12.60258156 -0.0092415 14.57457628 -0.01313057 16.54656893 -0.01781338 C21.96528101 -0.02811269 27.38392707 -0.02590664 32.80264461 -0.02163279 C38.6466356 -0.0191691 44.49061054 -0.02817526 50.33459568 -0.03567028 C61.78318463 -0.04842895 73.23175013 -0.05020954 84.68034499 -0.04787002 C93.98407943 -0.04608811 103.28780675 -0.04783377 112.59154034 -0.05209446 C113.92827211 -0.05269686 115.26500389 -0.05329806 116.60173567 -0.05389806 C118.61606425 -0.05480532 120.63039284 -0.05571398 122.64472142 -0.05663041 C141.37205245 -0.06505961 160.0993809 -0.06939583 178.82671356 -0.06522369 C179.53265691 -0.06506732 180.23860025 -0.06491094 180.96593582 -0.06474983 C184.5439269 -0.06394405 188.12191796 -0.06309827 191.69990902 -0.06223653 C192.41050823 -0.06206544 193.12110743 -0.06189435 193.85323994 -0.06171808 C195.29024358 -0.06137142 196.72724722 -0.06102289 198.16425086 -0.06067249 C220.5272767 -0.05531451 242.89026311 -0.06324801 265.25328159 -0.08170605 C290.37890632 -0.10242 315.50450662 -0.11314998 340.63014036 -0.10913056 C343.3089139 -0.10873521 345.98768744 -0.10837367 348.66646099 -0.10803318 C350.64354214 -0.10778142 350.64354214 -0.10778142 352.66056431 -0.10752458 C361.9538434 -0.10708644 371.24710047 -0.11398365 380.5403738 -0.1238451 C391.86481833 -0.13574016 403.18920482 -0.13718482 414.51365011 -0.12505493 C420.29281301 -0.11915326 426.07186966 -0.11810243 431.85102558 -0.13005733 C437.14035865 -0.14087197 442.42949618 -0.13786553 447.71881992 -0.12379565 C449.63327592 -0.12113653 451.54774702 -0.12355317 453.46218824 -0.13153151 C456.0636872 -0.14162145 458.66450435 -0.13322943 461.26597595 -0.12025452 C462.00983603 -0.12756386 462.75369611 -0.13487321 463.5200974 -0.14240405 C471.62653717 -0.05855703 477.96647494 2.52504199 483.69590855 8.25447559 C487.59612807 13.96903969 487.12602195 19.77313282 487.09996128 26.43172169 C487.11025616 28.26717045 487.11025616 28.26717045 487.12075901 30.13969898 C487.13590199 33.48760705 487.13752512 36.8349571 487.13181663 40.18285799 C487.12871558 42.99009077 487.13482859 45.79727378 487.14085537 48.60449946 C487.15489547 55.24161072 487.15334858 61.87859332 487.14195347 68.51570606 C487.13052112 75.32415664 487.1444661 82.13221105 487.17134994 88.94060934 C487.19365428 94.81272193 487.20011008 100.68471157 487.19427353 106.55686343 C487.19093176 110.05170797 487.19312826 113.54629985 487.21052456 117.04110813 C487.36363526 151.02014598 487.36363526 151.02014598 478.94590855 166.56697559 C478.60084263 167.22592823 478.25577671 167.88488087 477.90025425 168.56380177 C467.0766672 188.72442191 449.69057417 204.31768415 427.69590855 211.25447559 C418.15389512 213.99438175 409.15433296 214.68700781 399.26956272 214.64215565 C397.75181556 214.64633765 396.23407154 214.65181989 394.71633321 214.65847546 C390.58075203 214.67283532 386.44537174 214.66871522 382.30978 214.66130865 C377.83588605 214.65655563 373.36203423 214.66910564 368.88815403 214.67932606 C360.13680795 214.69647811 351.38553378 214.6973615 342.63417526 214.69211315 C335.51695686 214.6880633 328.39975963 214.68952468 321.28254223 214.69486141 C319.76011423 214.69598405 319.76011423 214.69598405 318.2069301 214.69712936 C316.14470574 214.69866092 314.08248139 214.70019927 312.02025703 214.70174433 C292.70267293 214.71545652 273.38512939 214.71004082 254.06754623 214.69855911 C236.41905764 214.68862943 218.77067394 214.70156513 201.12220152 214.7254933 C182.97370265 214.74991285 164.82525257 214.75948507 146.67673761 214.75284058 C136.49857426 214.74935453 126.32049153 214.75153969 116.14234066 214.76909161 C107.47743907 214.78384939 98.81267485 214.78440249 90.14777585 214.76702069 C85.73256135 214.75853746 81.31759189 214.75629517 76.90239048 214.77167225 C72.85010305 214.78560989 68.79826848 214.78064121 64.74600665 214.76143301 C63.29053599 214.75770026 61.83502825 214.76051507 60.37959089 214.77104466 C47.23862298 214.85925387 34.07838783 212.83664376 22.38340855 206.50447559 C21.39497959 205.98687672 21.39497959 205.98687672 20.38658237 205.4588213 C0.24827027 194.64721071 -15.39974132 177.24583999 -22.30409145 155.25447559 C-24.75000301 146.46293902 -25.74747112 138.26133305 -25.72401333 129.15559864 C-25.73248287 127.91809361 -25.74095242 126.68058857 -25.74967861 125.40558338 C-25.76888751 122.05450191 -25.77483945 118.70398077 -25.7729311 115.3528831 C-25.77281034 112.54205698 -25.78141537 109.73128142 -25.78970861 106.92046958 C-25.8088414 100.28884971 -25.81186118 93.65735571 -25.80506802 87.02571583 C-25.7984099 80.20496486 -25.82138527 73.38475225 -25.85838175 66.56411046 C-25.88912428 60.68093801 -25.90043463 54.79793857 -25.89654493 48.91468745 C-25.89448492 45.41230761 -25.89984227 41.91034875 -25.92443752 38.40804577 C-25.95093698 34.50727656 -25.936942 30.607211 -25.91932583 26.70637989 C-25.93258907 25.55867115 -25.94585232 24.41096241 -25.95951748 23.22847462 C-25.87114461 14.79847355 -23.87429245 9.82467659 -17.92909145 3.87947559 C-12.30943619 0.40064139 -6.462911 -0.03807832 0 0 Z M320.82090855 51.19197559 C316.52434343 57.38408415 315.87482287 62.854311 316.69590855 70.25447559 C318.23592807 75.63993309 321.33445455 79.31928438 325.4263773 83.02791309 C331.96933122 86.56403621 339.6218443 86.55321554 346.88340855 86.52010059 C347.82595493 86.52201405 348.76850132 86.5239275 349.73960972 86.52589893 C351.71951155 86.52725144 353.69942253 86.52362082 355.67930698 86.51521778 C358.68765012 86.504505 361.6953962 86.51514515 364.70372105 86.52791309 C366.63861818 86.52659133 368.57351495 86.5240286 370.50840855 86.52010059 C371.39616978 86.52414906 372.28393101 86.52819752 373.19859409 86.53236866 C382.19913104 86.4657059 389.40983612 85.58877294 396.03184605 79.16463184 C400.55766075 73.96950652 401.25356458 68.62539928 401.0435648 61.96931934 C400.32138885 56.3298555 397.99221028 52.14285491 393.75840855 48.37947559 C389.26820922 45.26382708 385.75789806 44.00899077 380.29820347 43.96394825 C379.24328205 43.95118855 378.18836063 43.93842884 377.1014719 43.92528248 C375.40605007 43.92194401 375.40605007 43.92194401 373.6763773 43.91853809 C372.503839 43.91188129 371.3313007 43.90522449 370.12323093 43.89836597 C367.64446167 43.88824952 365.16566523 43.88354864 362.68687534 43.88387012 C358.90752501 43.87950346 355.12934875 43.84318867 351.35020542 43.80525684 C348.93810003 43.79938712 346.5259891 43.79541877 344.1138773 43.79353809 C342.98966877 43.77916706 341.86546024 43.76479603 340.70718479 43.74998951 C332.66570061 43.79647801 326.33416429 44.99689821 320.82090855 51.19197559 Z M64.82090855 115.19197559 C60.52434343 121.38408415 59.87482287 126.854311 60.69590855 134.25447559 C62.23592807 139.63993309 65.33445455 143.31928438 69.4263773 147.02791309 C76.74152887 150.98136851 85.34844483 150.5414291 93.41661167 150.51326466 C95.28421398 150.51852161 95.28421398 150.51852161 97.18954563 150.52388477 C100.58009156 150.53114267 103.97039107 150.52949257 107.36092281 150.5231266 C110.92412596 150.51803157 114.48731921 150.52276773 118.0505228 150.52589893 C124.03210921 150.52952843 130.01364608 150.52476626 135.99522495 150.51521778 C142.89181409 150.50433518 149.78828493 150.50786148 156.6848712 150.51887059 C162.62655566 150.52797253 168.5682047 150.52921458 174.50989389 150.52399325 C178.04966607 150.52088949 181.58938282 150.52042006 185.12915134 150.52706623 C189.07788211 150.53396357 193.02648242 150.52437959 196.97520542 150.51326466 C198.714828 150.51933735 198.714828 150.51933735 200.48959446 150.52553272 C209.74860732 150.47739667 218.83342188 150.18807611 225.69590855 143.25447559 C230.64457791 137.0759594 230.4892189 129.84050589 229.69590855 122.25447559 C228.01654952 116.8212552 224.33057413 113.39469799 219.69590855 110.25447559 C215.95297809 108.48831679 212.99655205 108.00073862 208.87149143 107.98705006 C207.70661198 107.97852009 206.54173252 107.96999012 205.34155369 107.96120167 C203.43774181 107.96256123 203.43774181 107.96256123 201.49546909 107.96394825 C200.13826726 107.95796041 198.78106883 107.95115427 197.42387486 107.94359303 C193.7439808 107.92595058 190.0641798 107.92123836 186.38424754 107.91996145 C184.08273242 107.91853816 181.78124083 107.91426516 179.47973156 107.90896702 C171.44345827 107.89047169 163.40725125 107.88229567 155.37095737 107.88387012 C147.89154537 107.885071 140.41242218 107.86397815 132.93308324 107.8323828 C126.50232361 107.80618953 120.07165813 107.79550412 113.6408456 107.79678094 C109.80417904 107.79728974 105.96776917 107.79165282 102.13115597 107.77042484 C98.52031122 107.75099103 94.90996663 107.75095251 91.29910374 107.76545811 C89.35166074 107.76852987 87.40421743 107.75190526 85.4568491 107.73457813 C77.11864648 107.79419347 70.6446884 108.66952449 64.82090855 115.19197559 Z " fill="#FFFFFF" transform="translate(25.304091453552246,233.7455244064331)"/>
<path d="M0 0 C1.51774716 -0.00418201 3.03549118 -0.00966424 4.55322951 -0.01631981 C8.68881069 -0.03067967 12.82419098 -0.02655957 16.95978272 -0.019153 C21.43367667 -0.01439999 25.90752849 -0.02694999 30.38140869 -0.03717041 C39.13275477 -0.05432247 47.88402894 -0.05520585 56.63538746 -0.04995751 C63.75260586 -0.04590765 70.86980309 -0.04736904 77.98702049 -0.05270576 C79.00197249 -0.05345419 80.01692449 -0.05420261 81.06263262 -0.05497371 C83.12485698 -0.05650527 85.18708134 -0.05804362 87.24930569 -0.05958868 C106.56688979 -0.07330087 125.88443333 -0.06788517 145.2020165 -0.05640347 C162.85050508 -0.04647378 180.49888879 -0.05940948 198.1473612 -0.08333766 C216.29586007 -0.10775721 234.44431015 -0.11732943 252.59282511 -0.11068493 C262.77098846 -0.10719889 272.94907119 -0.10938404 283.12722206 -0.12693596 C291.79212366 -0.14169374 300.45688787 -0.14224684 309.12178687 -0.12486505 C313.53700137 -0.11638181 317.95197084 -0.11413952 322.36717224 -0.1295166 C326.41945967 -0.14345424 330.47129424 -0.13848556 334.52355608 -0.11927737 C335.97902673 -0.11554461 337.43453447 -0.11835942 338.88997183 -0.12888902 C352.03093974 -0.21709822 365.19117489 1.80551189 376.88615417 8.13768005 C377.54510681 8.48274597 378.20405945 8.82781189 378.88298035 9.18333435 C400.38693176 20.72811265 415.07348892 38.79114681 422.38737488 61.96604919 C424.99815856 71.55647766 425.06530469 80.9906293 425.0196991 90.87327576 C425.01111608 93.71278266 425.04016671 96.55032007 425.07170105 99.38963318 C425.07331185 101.21840863 425.07273786 103.04718759 425.06974792 104.8759613 C425.0809819 105.71258804 425.09221588 106.54921478 425.10379028 107.41119385 C425.02717128 113.93137631 423.43264261 119.49180144 418.75724792 124.2275238 C418.18103699 124.58975037 417.60482605 124.95197693 417.01115417 125.32518005 C416.43236511 125.70545349 415.85357605 126.08572693 415.25724792 126.4775238 C411.14184158 128.70232584 407.20614204 128.53068687 402.66804981 128.52190113 C401.44069338 128.52542948 401.44069338 128.52542948 400.18854186 128.5290291 C397.42308541 128.5357317 394.65767582 128.5352605 391.89221191 128.53485107 C389.89892018 128.53814891 387.90562912 128.54187431 385.91233891 128.54599255 C380.41619914 128.55602973 374.9200703 128.5597321 369.42392266 128.56238186 C363.50351694 128.56627981 357.58311991 128.57585847 351.66271973 128.58459473 C338.03241542 128.60343813 324.40210958 128.61361717 310.77179566 128.62205541 C304.03749507 128.62626083 297.30319539 128.63148296 290.56889556 128.63673994 C267.52075447 128.65463067 244.47261313 128.66962714 221.42446613 128.67706013 C219.97728837 128.67753489 218.5301106 128.67801077 217.08293284 128.67848779 C216.00641828 128.67884235 216.00641828 128.67884235 214.90815596 128.67920408 C211.27199716 128.68040529 207.63583836 128.68162074 203.99967957 128.68284607 C203.27807043 128.68308622 202.5564613 128.68332637 201.81298523 128.6835738 C178.41405258 128.69146761 155.0151706 128.71490084 131.61626008 128.74740201 C106.8829387 128.78169402 82.14964698 128.80141068 57.41630143 128.80470437 C54.70151689 128.80512191 51.98673238 128.80560148 49.27194786 128.80612755 C48.60348191 128.80625074 47.93501597 128.80637393 47.24629347 128.80650086 C37.15171347 128.80868917 27.05718643 128.82199248 16.9626255 128.84116554 C5.48070774 128.86283528 -6.00111746 128.87094131 -17.48305335 128.86119876 C-23.34323374 128.85664332 -29.203223 128.85861259 -35.06337738 128.87796021 C-40.42692818 128.89551563 -45.79014733 128.89465616 -51.15370128 128.87906291 C-53.09519867 128.87667524 -55.03671857 128.88107008 -56.97818144 128.89289156 C-59.61637018 128.90796178 -62.25337636 128.89837202 -64.89153576 128.88266468 C-65.6461653 128.89288689 -66.40079484 128.90310909 -67.17829195 128.91364107 C-73.36650538 128.83317156 -78.79718764 126.98334577 -83.26618958 122.5712738 C-83.62841614 121.99506287 -83.9906427 121.41885193 -84.36384583 120.82518005 C-84.74411926 120.24639099 -85.1243927 119.66760193 -85.51618958 119.0712738 C-87.8796834 114.69931742 -87.62281764 110.29774625 -87.66462708 105.4697113 C-87.67269882 104.57966904 -87.68077057 103.68962677 -87.68908691 102.77261353 C-87.70292954 100.88040612 -87.7136509 98.98817372 -87.72151184 97.09593201 C-87.73292896 95.18862936 -87.75321361 93.28135599 -87.78303528 91.37425232 C-88.02117288 76.13211547 -87.10235833 61.79039736 -79.67634583 48.07518005 C-79.33127991 47.41622742 -78.98621399 46.75727478 -78.63069153 46.07835388 C-67.80710448 25.91773373 -50.42101145 10.3244715 -28.42634583 3.38768005 C-18.8843324 0.64777389 -9.88477024 -0.04485217 0 0 Z " fill="#FFFFFF" transform="translate(87.42634582519531,63.61231994628906)"/>
</svg>
