<?xml version="1.0" encoding="UTF-8"?>
<svg version="1.1" xmlns="http://www.w3.org/2000/svg" width="512" height="512">
<path d="M0 0 C168.96 0 337.92 0 512 0 C512 192.28251121 512 192.28251121 500 207 C499.52820313 207.63292969 499.05640625 208.26585937 498.5703125 208.91796875 C490.3892441 219.38696306 476.9991466 226.11021359 464 228 C458.39926271 228.29428659 452.80591736 228.2746912 447.19876099 228.26069641 C445.48291447 228.26371931 443.7670693 228.26760949 442.0512265 228.27228898 C437.34971936 228.28255982 432.64828857 228.28038948 427.9467752 228.27610838 C422.8710026 228.27363952 417.7952483 228.28265731 412.71948242 228.29014587 C402.78081105 228.30289031 392.8421667 228.30468689 382.90348853 228.30234561 C374.82456053 228.30056205 366.74564073 228.30231292 358.66671371 228.30657005 C357.5165588 228.30716524 356.36640389 228.30776043 355.18139579 228.30837366 C352.84480064 228.30958542 350.50820549 228.31079955 348.17161034 228.31201603 C326.26276782 228.32289054 304.3539407 228.32072947 282.44509731 228.31463119 C262.40684928 228.30946183 242.36864986 228.32071814 222.33041145 228.33972941 C201.74915295 228.359106 181.16791745 228.36736413 160.58664978 228.36360615 C149.03423264 228.36169388 137.48185687 228.36418431 125.92944717 228.37832069 C116.09503055 228.39023315 106.26068077 228.39164085 96.42626323 228.37953053 C91.41023446 228.373641 86.39432797 228.37254455 81.37830734 228.38453293 C76.78279563 228.39538852 72.18750835 228.39229215 67.59200715 228.37827124 C65.93327592 228.37562345 64.27452713 228.37799345 62.61581315 228.38600711 C44.56324033 228.467141 28.47923625 224.29999934 15.1796875 211.37109375 C-30.19625205 162.01052868 0 7.52657294 0 0 Z M57 118 C56.27832131 120.01300764 56.27832131 120.01300764 56.40625 122.15234375 C56.40882812 122.92900391 56.41140625 123.70566406 56.4140625 124.50585938 C56.44242188 125.30830078 56.47078125 126.11074219 56.5 126.9375 C56.49742188 127.73607422 56.49484375 128.53464844 56.4921875 129.35742188 C56.56946329 134.02101583 56.98630741 137.22549776 60 141 C62.98810917 142.49405458 65.7151868 142.14383708 69.04833984 142.16113281 C70.13641685 142.16858017 70.13641685 142.16858017 71.24647522 142.17617798 C73.65130556 142.19080858 76.05606993 142.19760305 78.4609375 142.203125 C80.13001508 142.2088757 81.79909263 142.21463344 83.46817017 142.22039795 C86.97031971 142.23091048 90.47244627 142.2367515 93.97460938 142.24023438 C98.46278628 142.24571978 102.95065991 142.26974756 107.43874168 142.29820633 C110.88740934 142.31682759 114.33600387 142.32203803 117.78471756 142.32357025 C119.43933394 142.32659846 121.09394897 142.33463267 122.74851608 142.34775543 C125.06353595 142.36480569 127.37781395 142.36293853 129.69287109 142.35644531 C131.01032318 142.36009094 132.32777527 142.36373657 133.68515015 142.36749268 C137.1787436 141.98018403 138.5866883 141.50917887 141 139 C142.79567346 132.64607852 142.17773855 125.43549992 141 119 C139.17670987 115.87211434 138.49463441 115.16487814 135 114 C132.6810637 113.88985561 130.35907911 113.84092076 128.03759766 113.82299805 C126.98097176 113.81314125 126.98097176 113.81314125 125.90299988 113.80308533 C123.57335297 113.78338456 121.24377037 113.77169807 118.9140625 113.76171875 C118.11767742 113.75764322 117.32129234 113.7535677 116.50077438 113.74936867 C112.28697724 113.72852343 108.07321253 113.71421405 103.859375 113.70483398 C99.50911121 113.69376203 95.15935787 113.6593491 90.80927467 113.61966228 C87.46179252 113.59351329 84.11443245 113.58514379 80.76685715 113.58155251 C79.16328858 113.57668346 77.55972558 113.56506032 75.95625687 113.54651451 C73.71082323 113.52215428 71.46671685 113.52308136 69.22119141 113.5300293 C67.94450592 113.52416306 66.66782043 113.51829681 65.35244751 113.51225281 C61.42563736 114.08356395 59.77247654 115.21398356 57 118 Z M172 116 C169.13373368 119.65203404 169.818637 124.0442143 170.0625 128.4375 C170.07732422 129.18837891 170.09214844 129.93925781 170.10742188 130.71289062 C170.14544922 131.44572266 170.18347656 132.17855469 170.22265625 132.93359375 C170.25109619 133.59415771 170.27953613 134.25472168 170.30883789 134.93530273 C171.41385705 138.2363084 173.03092176 140.27187894 176 142 C180.16971293 142.75327922 184.30268338 142.6515874 188.52954102 142.59936523 C190.43757507 142.60527931 190.43757507 142.60527931 192.38415527 142.61131287 C195.86573313 142.62127608 199.34649505 142.60013799 202.82795453 142.57283282 C206.47357923 142.54897645 210.11918847 142.55194757 213.76487732 142.55152893 C219.88562813 142.54690314 226.00606754 142.52327594 232.12670898 142.48706055 C239.20169215 142.44530965 246.27639508 142.42774448 253.35149437 142.4244408 C260.88717193 142.42084033 268.42274877 142.40196585 275.95838428 142.37732053 C278.12867 142.37109443 280.29894805 142.36745655 282.46924019 142.36428642 C286.51290069 142.35728581 290.55627383 142.33289226 294.59985352 142.30639648 C295.80256393 142.30573181 297.00527435 142.30506714 298.24443054 142.30438232 C299.34495758 142.2944072 300.44548462 142.28443207 301.57936096 142.27415466 C302.53521874 142.26950416 303.49107653 142.26485365 304.4758997 142.26006222 C307.13423922 141.98616911 308.76070966 141.43923981 311 140 C313.77683755 134.44632491 312.27802626 124.96412256 311 119 C309.20743736 115.74079519 308.56841333 115.18947111 305 114 C303.2582598 113.9055691 301.51310951 113.86938601 299.76881409 113.86628723 C298.14316025 113.85988976 298.14316025 113.85988976 296.48466492 113.85336304 C295.29548965 113.85381622 294.10631439 113.85426941 292.88110352 113.85473633 C291.62888 113.85137772 290.37665649 113.8480191 289.08648682 113.84455872 C285.65053654 113.83667843 282.21464669 113.83338069 278.77869153 113.83274293 C275.91084655 113.83179354 273.04300738 113.82811493 270.17516464 113.82457083 C263.40966081 113.81642709 256.64417028 113.81398654 249.87866211 113.81469727 C242.8980373 113.81529821 235.91748972 113.80474288 228.93688446 113.7889536 C222.94445067 113.7758821 216.95204213 113.7705132 210.95959419 113.77115268 C207.38020134 113.77140776 203.80087714 113.76855096 200.22149849 113.75797462 C196.23039855 113.74650371 192.23940477 113.75103808 188.24829102 113.75708008 C187.06113998 113.75146057 185.87398895 113.74584106 184.65086365 113.74005127 C183.02098007 113.746343 183.02098007 113.746343 181.35816956 113.75276184 C180.41446282 113.75221707 179.47075609 113.75167231 178.49845219 113.75111103 C175.85311853 114.01463193 174.24549168 114.60336295 172 116 Z " fill="#414A98" transform="translate(0,228)"/>
<path d="M0 0 C1.7047465 -0.00373965 3.40949129 -0.00834243 5.11423337 -0.01373065 C9.78521135 -0.02593727 14.45611758 -0.02570293 19.12710786 -0.02334189 C24.17023965 -0.02293313 29.21334862 -0.0339786 34.25646973 -0.04345703 C44.13231109 -0.06005558 54.00812858 -0.06556608 63.88398273 -0.06668179 C71.91424974 -0.06763288 79.94450889 -0.07174623 87.97477341 -0.07808304 C110.75535588 -0.09569294 133.53591952 -0.10492239 156.31650884 -0.10342209 C158.15788888 -0.10330222 158.15788888 -0.10330222 160.03646851 -0.10317993 C161.88010402 -0.10305729 161.88010402 -0.10305729 163.7609847 -0.10293217 C183.67367959 -0.10211952 203.58629878 -0.12125261 223.49897178 -0.14945666 C243.95820904 -0.17820555 264.41740941 -0.19199583 284.87666738 -0.19026911 C296.35768733 -0.18960587 307.83862795 -0.19506942 319.31962967 -0.21662521 C329.09612062 -0.23486345 338.87249628 -0.23916268 348.6489969 -0.22560637 C353.63315428 -0.21908987 358.61709065 -0.21891178 363.60122681 -0.23631287 C368.17233201 -0.25210718 372.74304215 -0.24911543 377.3141381 -0.2317446 C378.95948353 -0.22868863 380.60485892 -0.23225361 382.25016899 -0.24346475 C399.86576513 -0.35545715 416.202751 3.12225958 429.65316772 15.49008179 C449.30591163 36.67965164 446.30160522 56.32218356 446.30160522 86.26742554 C277.34160522 86.26742554 108.38160522 86.26742554 -65.69839478 86.26742554 C-65.69839478 33.18750297 -65.69839478 33.18750297 -50.87026978 17.24398804 C-35.78181251 3.51240643 -19.85236709 -0.04129997 0 0 Z " fill="#414A97" transform="translate(65.69839477539063,56.732574462890625)"/>
</svg>
