<?xml version="1.0" encoding="UTF-8"?>
<svg version="1.1" xmlns="http://www.w3.org/2000/svg" width="512" height="512">
<path d="M0 0 C0.89332031 0.74121094 1.78664063 1.48242188 2.70703125 2.24609375 C26.47720462 22.73006804 41.47729463 54.26733017 43.87109375 85.38671875 C43.93490234 86.68029297 43.93490234 86.68029297 44 88 C44.07927734 89.58748047 44.07927734 89.58748047 44.16015625 91.20703125 C45.03917885 126.4825904 32.22639441 156.92740597 9 183 C8.40574219 183.66773438 7.81148437 184.33546875 7.19921875 185.0234375 C-14.00910759 207.4421646 -46.09089035 219.92696135 -76.46484375 221.22265625 C-111.35451421 222.16690125 -142.98747929 210.04110627 -168.56494141 186.35888672 C-193.59511815 162.47725955 -206.41610467 130.21167078 -207.3125 95.8125 C-207.05348038 80.4655874 -204.44595095 65.35253962 -199 51 C-198.75266113 50.34193359 -198.50532227 49.68386719 -198.25048828 49.00585938 C-186.00619791 17.18453976 -161.20185502 -6.36233881 -130.4140625 -20.17578125 C-86.9004219 -38.78168044 -35.91040384 -30.25295704 0 0 Z M-109.4375 -0.5 C-110.31623779 -0.23517822 -111.19497559 0.02964355 -112.1003418 0.30249023 C-122.9998746 3.74762541 -132.972597 8.95422205 -142 16 C-141.06409496 17.1055189 -140.12620142 18.20935453 -139.1875 19.3125 C-138.66542969 19.92738281 -138.14335937 20.54226562 -137.60546875 21.17578125 C-136.12827531 22.85424679 -134.59960869 24.43882034 -133 26 C-129.36529314 24.64397475 -125.96640088 22.97837696 -122.53051758 21.18188477 C-113.26364495 16.35847589 -104.29168567 13.05833713 -94 11 C-94 6.38 -94 1.76 -94 -3 C-99.8554349 -3 -103.94369262 -2.15972412 -109.4375 -0.5 Z M-69 -3 C-69 1.62 -69 6.24 -69 11 C-68.04222656 11.1959375 -67.08445313 11.391875 -66.09765625 11.59375 C-55.01915271 14.02332035 -42.73184326 17.55097302 -33.765625 24.80859375 C-32.07590069 26.20390007 -32.07590069 26.20390007 -29.984375 25.91015625 C-27.53701985 24.78764887 -26.09647555 23.39050299 -24.25 21.4375 C-23.63640625 20.79683594 -23.0228125 20.15617187 -22.390625 19.49609375 C-21.93171875 19.00238281 -21.4728125 18.50867188 -21 18 C-23.047733 11.85680101 -32.11293534 8.55169326 -37.7109375 5.54296875 C-43.2368586 2.86502237 -48.94773501 0.96262748 -54.8125 -0.8125 C-55.88902832 -1.14157349 -55.88902832 -1.14157349 -56.98730469 -1.47729492 C-57.67856445 -1.67685791 -58.36982422 -1.8764209 -59.08203125 -2.08203125 C-59.69280518 -2.25968018 -60.3035791 -2.4373291 -60.93286133 -2.62036133 C-63.63326542 -3.18063317 -63.63326542 -3.18063317 -69 -3 Z M-161 35 C-171.74758981 47.67904073 -180 66.30580785 -180 83 C-175.38 83 -170.76 83 -166 83 C-165.76925781 81.97261719 -165.53851563 80.94523437 -165.30078125 79.88671875 C-162.57586763 68.14884787 -158.79673112 58.21835131 -151.94140625 48.19140625 C-150.74455608 46.05268683 -150.74455608 46.05268683 -151.6171875 43.94921875 C-153.11738756 41.83452997 -154.70789741 40.06201255 -156.5625 38.25 C-157.18253906 37.63640625 -157.80257812 37.0228125 -158.44140625 36.390625 C-159.77622963 34.88904074 -159.77622963 34.88904074 -161 35 Z M-127.4375 55.7890625 C-138.41083924 69.75841213 -143.43439951 85.1929547 -142 103 C-139.83254233 119.25593253 -130.80958709 134.07058376 -118.1875 144.2734375 C-103.75197096 154.60098354 -87.07342664 157.93100505 -69.640625 155.5390625 C-54.94050396 152.23347973 -40.60999654 143.54488184 -32 131 C-22.54099968 115.11176496 -18.23248077 99.18674917 -22.625 80.8125 C-26.93461496 64.41446395 -36.85073053 52.10239628 -51 43 C-76.06779181 28.57792753 -108.3776939 33.9802459 -127.4375 55.7890625 Z M-3 35 C-5.97 37.97 -8.94 40.94 -12 44 C-10.52647892 47.6838027 -9.06689981 50.78162908 -7.125 54.1875 C-1.98133893 63.56122784 0.77413159 72.53841846 3 83 C7.62 83 12.24 83 17 83 C16.47074925 70.12156499 12.38402332 59.17633216 6.5 47.875 C5.94892578 46.80934814 5.94892578 46.80934814 5.38671875 45.72216797 C3.06902987 41.43997159 0.61274982 38.26928416 -3 35 Z M-180 108 C-180 113.59814346 -179.56893867 117.72657798 -178 122.9375 C-177.78142334 123.6689624 -177.56284668 124.4004248 -177.33764648 125.15405273 C-173.80686116 136.36715324 -168.54190236 146.94971717 -161 156 C-159.89134015 155.08877273 -158.78827781 154.17073341 -157.6875 153.25 C-157.07261719 152.73953125 -156.45773438 152.2290625 -155.82421875 151.703125 C-153.94067671 149.94461466 -152.48426344 148.10080364 -151 146 C-151.59167969 145.030625 -152.18335938 144.06125 -152.79296875 143.0625 C-159.49772151 131.79431781 -163.83599305 120.98404171 -166 108 C-170.62 108 -175.24 108 -180 108 Z M3 108 C2.78085937 108.99257812 2.56171875 109.98515625 2.3359375 111.0078125 C-0.64029141 123.95721602 -5.2542345 135.49251767 -12 147 C-9.03 149.97 -6.06 152.94 -3 156 C7.88158188 146.76714265 14.77511347 129.01757689 17 115 C17 112.69 17 110.38 17 108 C12.38 108 7.76 108 3 108 Z M-135.06640625 166.96875 C-135.89011719 167.8040625 -136.71382813 168.639375 -137.5625 169.5 C-138.38878906 170.3353125 -139.21507812 171.170625 -140.06640625 172.03125 C-141.02353516 173.00578125 -141.02353516 173.00578125 -142 174 C-129.95560956 186.86965423 -111.06660954 192.83966968 -94 195 C-94 190.38 -94 185.76 -94 181 C-97.15487792 179.94837403 -100.31780505 178.91226889 -103.5234375 178.02734375 C-112.80305056 175.44118262 -120.70212116 171.73325331 -128.96484375 166.79296875 C-132.38804063 164.36979439 -132.38804063 164.36979439 -135.06640625 166.96875 Z M-35.96533203 167.94702148 C-44.71427729 173.12203788 -53.2419442 176.30625732 -63 179 C-64.98 179.66 -66.96 180.32 -69 181 C-69 185.62 -69 190.24 -69 195 C-52.08004928 192.07154699 -37.15386262 186.96082825 -23 177 C-22.34 176.01 -21.68 175.02 -21 174 C-22.47613985 172.49702124 -23.95599157 170.99768715 -25.4375 169.5 C-26.26121094 168.6646875 -27.08492187 167.829375 -27.93359375 166.96875 C-31.3289315 163.73387244 -32.19391316 165.6920889 -35.96533203 167.94702148 Z " fill="#FFFFFF" transform="translate(255,75)"/>
<path d="M0 0 C4.27061411 -0.08885543 8.53361833 -0.04465048 12.80322266 0.0546875 C13.69315918 0.07257324 14.5830957 0.09045898 15.5 0.10888672 C90.27980715 1.77498423 90.27980715 1.77498423 116.80322266 19.0546875 C117.40521484 19.43109375 118.00720703 19.8075 118.62744141 20.1953125 C123.40900064 23.61587377 125.82560079 28.6711613 127.80322266 34.0546875 C128.37468463 38.26921957 127.96619071 40.95418321 126.24072266 44.7421875 C124.61132695 47.77196943 124.61132695 47.77196943 124.99072266 50.1171875 C125.39291016 51.07625 125.39291016 51.07625 125.80322266 52.0546875 C128.07659094 58.07242706 128.68265895 62.5838903 126.49072266 68.7421875 C125.10532172 71.46167822 123.75748683 73.72818253 121.80322266 76.0546875 C122.77869562 78.0407856 123.76940252 79.99593428 124.87353516 81.9140625 C127.67403028 86.93420931 128.4413436 90.311599 127.80322266 96.0546875 C127.08447266 97.97265625 127.08447266 97.97265625 126.24072266 99.8046875 C124.60997724 102.7805016 124.60997724 102.7805016 124.99072266 105.1171875 C125.39291016 106.07625 125.39291016 106.07625 125.80322266 107.0546875 C128.16125141 113.29652833 128.72071397 118.25423448 126.30322266 124.5546875 C121.29131728 134.76926281 111.14067116 139.14013996 100.85888672 142.734375 C45.18434273 161.06788101 -44.43036207 163.8731944 -98.64990234 139.3671875 C-106.30846968 135.42044114 -112.89299121 131.21078029 -116.50927734 123.1171875 C-117.66920466 117.95023853 -117.75173088 114.3421797 -115.63427734 109.4296875 C-114.08922701 105.80217802 -113.95368348 104.68834649 -115.19677734 101.0546875 C-115.72271484 99.91 -115.72271484 99.91 -116.25927734 98.7421875 C-117.79877523 94.32896023 -118.04412349 90.2569881 -116.36865234 85.90234375 C-115.37401601 83.90935974 -114.30775231 81.98470241 -113.19677734 80.0546875 C-112.52268277 78.72509406 -111.85395436 77.39272359 -111.19677734 76.0546875 C-111.72078125 75.34892578 -111.72078125 75.34892578 -112.25537109 74.62890625 C-112.71041016 74.00628906 -113.16544922 73.38367188 -113.63427734 72.7421875 C-114.08673828 72.12730469 -114.53919922 71.51242187 -115.00537109 70.87890625 C-117.60334597 66.9010234 -117.71355356 62.65484304 -117.19677734 58.0546875 C-116.48974609 56.15234375 -116.48974609 56.15234375 -115.63427734 54.3671875 C-114.07606013 50.77651304 -113.96130622 49.66606463 -115.19677734 46.0546875 C-115.54740234 45.2709375 -115.89802734 44.4871875 -116.25927734 43.6796875 C-118.17573268 38.31361255 -117.50871099 34.16633154 -115.25927734 29.0546875 C-109.67662993 18.74946441 -98.91540302 14.07846408 -88.14990234 10.77734375 C-59.54558352 2.51665419 -29.59651753 0.73678817 0 0 Z M-85.19677734 37.0546875 C-47.48183752 62.19798072 34.15773402 51.35150839 76.10253906 43.59570312 C86.44087442 41.5857954 86.44087442 41.5857954 95.80322266 37.0546875 C86.59486257 33.70619292 77.41771898 31.42762683 67.74072266 29.8671875 C66.80494385 29.71282227 65.86916504 29.55845703 64.9050293 29.39941406 C45.2835186 26.40445787 25.62202181 25.6769541 5.80322266 25.7421875 C4.64745728 25.74401031 3.49169189 25.74583313 2.30090332 25.74771118 C-26.56175179 25.82410559 -58.07543061 26.03964231 -85.19677734 37.0546875 Z " fill="#FFFFFF" transform="translate(168.19677734375,309.9453125)"/>
<path d="M0 0 C0.80179687 -0.03351563 1.60359375 -0.06703125 2.4296875 -0.1015625 C9.54363092 1.8161092 13.8448382 8.55256127 17.75 14.375 C18.79317407 15.89138009 19.83748351 17.40697962 20.8828125 18.921875 C21.41551758 19.69853516 21.94822266 20.47519531 22.49707031 21.27539062 C25.14772991 25.10111767 27.88766262 28.86105869 30.625 32.625 C35.33603393 39.12384681 39.98774083 45.66133563 44.60327148 52.22827148 C47.7136593 56.64636053 50.85965569 61.03646351 54.03417969 65.40869141 C56.20656058 68.40293287 58.36674943 71.40586226 60.52587891 74.40966797 C61.59570691 75.89174725 62.67095375 77.36992939 63.75146484 78.84423828 C65.3072822 80.96933797 66.84278929 83.10784329 68.375 85.25 C68.84107666 85.87656494 69.30715332 86.50312988 69.78735352 87.14868164 C72.97581118 91.66390436 73.92818674 95.07949683 74.125 100.625 C72.48099822 105.37433848 70.29208446 107.87759911 66.125 110.625 C62.89526367 111.07910156 62.89526367 111.07910156 59.29296875 111.015625 C57.35454102 110.99628906 57.35454102 110.99628906 55.37695312 110.9765625 C54.02212454 110.94314634 52.66730683 110.90928662 51.3125 110.875 C49.93817683 110.85492034 48.56382561 110.83667213 47.18945312 110.8203125 C43.83392144 110.77321732 40.47981873 110.70745135 37.125 110.625 C37.12868717 111.26883951 37.13237434 111.91267902 37.13617325 112.57602882 C37.2245549 128.25038797 37.29072438 143.92466031 37.33224869 159.59920692 C37.35286389 167.17934754 37.38096436 174.7593217 37.42675781 182.33935547 C37.46665774 188.94701035 37.49244039 195.55454467 37.50135398 202.16231668 C37.50656347 205.66034075 37.51878531 209.15801996 37.54792023 212.65593338 C37.58019976 216.56316791 37.58095737 220.47006668 37.57910156 224.37744141 C37.59348267 225.53406281 37.60786377 226.6906842 37.62268066 227.88235474 C37.59086721 234.06395299 37.4545305 238.02671007 33.125 242.625 C29.99253036 244.87092973 27.22003662 244.88228888 23.42602539 244.8996582 C21.70888084 244.91395622 21.70888084 244.91395622 19.95704651 244.92854309 C18.72469772 244.92763168 17.49234894 244.92672028 16.22265625 244.92578125 C14.9528038 244.93006638 13.68295135 244.9343515 12.37461853 244.93876648 C9.68881394 244.94451025 7.0033936 244.94594481 4.31762695 244.94067383 C0.88327208 244.93488062 -2.55054323 244.95181058 -5.98480892 244.9750185 C-9.26981638 244.99333033 -12.55479445 244.98956989 -15.83984375 244.98828125 C-17.0701683 244.997491 -18.30049286 245.00670074 -19.56809998 245.01618958 C-20.71601517 245.00996078 -21.86393036 245.00373199 -23.04663086 244.99731445 C-24.05382675 244.99794388 -25.06102264 244.9985733 -26.09873962 244.9992218 C-29.46877443 244.54496308 -31.21398201 243.74596705 -33.875 241.625 C-37.92809892 236.13153505 -37.27696837 229.99942467 -37.21557617 223.46923828 C-37.21623329 221.63912956 -37.21623329 221.63912956 -37.21690369 219.77204895 C-37.21517604 216.43964516 -37.20016709 213.10780407 -37.17918181 209.77549982 C-37.16038365 206.28816555 -37.15866211 202.80082317 -37.15510559 199.31344604 C-37.14579431 192.71557929 -37.12119306 186.11786229 -37.09105712 179.52006137 C-37.05748446 172.00618068 -37.04101992 164.49229271 -37.02597082 156.97835565 C-36.99464259 141.52715048 -36.94190008 126.07609458 -36.875 110.625 C-37.7220752 110.65118408 -38.56915039 110.67736816 -39.44189453 110.7043457 C-42.60638062 110.78992505 -45.77027406 110.85242097 -48.93554688 110.8996582 C-50.30130503 110.9246928 -51.66693067 110.95873218 -53.03222656 111.00219727 C-65.84745053 111.39974983 -65.84745053 111.39974983 -69.73413086 108.24365234 C-71.7387511 105.79165592 -72.82208533 104.32152909 -73.4375 101.25 C-73.60378906 100.54101562 -73.77007812 99.83203125 -73.94140625 99.1015625 C-73.75513972 92.15491676 -68.91823301 86.57791409 -64.9375 81.25 C-63.7608523 79.64907396 -62.58509093 78.04749616 -61.41015625 76.4453125 C-60.52094482 75.2372998 -60.52094482 75.2372998 -59.61376953 74.00488281 C-56.98778835 70.41065865 -54.43021929 66.76970022 -51.875 63.125 C-47.21617153 56.49722982 -42.48911659 49.92162797 -37.73486328 43.36206055 C-34.03337799 38.24803535 -30.37994457 33.10248695 -26.75 27.9375 C-24.79495382 25.16433227 -22.83633972 22.39371984 -20.875 19.625 C-20.12742432 18.56877441 -20.12742432 18.56877441 -19.36474609 17.49121094 C-17.89706186 15.42572196 -16.41901531 13.36808355 -14.9375 11.3125 C-14.50099121 10.69608643 -14.06448242 10.07967285 -13.61474609 9.44458008 C-9.93753717 4.37938421 -6.61016746 0.06335624 0 0 Z M-0.875 35.625 C-2.7304271 38.0477891 -4.47034231 40.48122819 -6.1875 43 C-7.27374874 44.56709353 -8.36102257 46.13347691 -9.44921875 47.69921875 C-10.01302246 48.51310059 -10.57682617 49.32698242 -11.15771484 50.16552734 C-13.89201418 54.081554 -16.69504654 57.94692351 -19.5 61.8125 C-20.57960347 63.30455989 -21.65903265 64.7967459 -22.73828125 66.2890625 C-23.52066162 67.3704248 -23.52066162 67.3704248 -24.31884766 68.47363281 C-26.77932118 71.87521623 -29.23733685 75.2784809 -31.6875 78.6875 C-32.32776123 79.57248169 -32.32776123 79.57248169 -32.98095703 80.4753418 C-35.00123301 82.82980718 -35.00123301 82.82980718 -35.875 85.625 C-34.22951172 85.68107422 -34.22951172 85.68107422 -32.55078125 85.73828125 C-31.09632143 85.80396653 -29.64189584 85.87041299 -28.1875 85.9375 C-27.1056543 85.97133789 -27.1056543 85.97133789 -26.00195312 86.00585938 C-21.55158955 86.22939362 -18.45682837 86.72099444 -14.875 89.625 C-12.90657228 92.7655816 -12.61848028 95.21596666 -12.5965271 98.88946533 C-12.58536362 99.9551474 -12.57420013 101.02082947 -12.56269836 102.11880493 C-12.56053818 103.28261688 -12.55837799 104.44642883 -12.55615234 105.64550781 C-12.54610672 106.87504181 -12.5360611 108.10457581 -12.52571106 109.37136841 C-12.50012109 112.73882956 -12.48326481 116.10612226 -12.47028303 119.4736414 C-12.45464806 122.9944189 -12.42785902 126.51511108 -12.4022522 130.03582764 C-12.35547086 136.70094737 -12.31872366 143.36608317 -12.28557932 150.03128314 C-12.24735336 157.62015967 -12.19794445 165.20895049 -12.14759517 172.79775476 C-12.04428488 188.40678082 -11.95649785 204.01584251 -11.875 219.625 C-3.955 219.625 3.965 219.625 12.125 219.625 C12.14481934 215.83427002 12.16463867 212.04354004 12.18505859 208.13793945 C12.25191221 195.62489211 12.32945273 183.11193025 12.41252708 170.5989809 C12.46264199 163.01107612 12.50908503 155.42318208 12.546875 147.83520508 C12.5798233 141.22127634 12.61967019 134.60743123 12.66779006 127.99359483 C12.69302688 124.49184579 12.71481643 120.99015204 12.72834396 117.48833656 C12.7435771 113.57846811 12.77421227 109.66880264 12.80615234 105.7590332 C12.80831253 104.59881653 12.81047272 103.43859985 12.81269836 102.2432251 C12.82386185 101.17616837 12.83502533 100.10911163 12.8465271 99.00971985 C12.85482324 97.6228823 12.85482324 97.6228823 12.86328697 96.20802784 C13.15522459 93.32669249 13.80728625 91.20155997 15.125 88.625 C19.56321076 86.47832833 24.14106677 86.22599689 29 86 C29.68835938 85.96132812 30.37671875 85.92265625 31.0859375 85.8828125 C32.76523246 85.78951834 34.44507767 85.70621762 36.125 85.625 C30.54104029 76.40639015 24.24352672 67.75318601 17.89501953 59.05371094 C14.89720604 54.94029734 11.91781156 50.81360185 8.9375 46.6875 C8.38497559 45.92429443 7.83245117 45.16108887 7.26318359 44.37475586 C6.74965332 43.66456299 6.23612305 42.95437012 5.70703125 42.22265625 C5.25561768 41.59883057 4.8042041 40.97500488 4.33911133 40.33227539 C3.23800446 38.78390613 2.17891339 37.20587009 1.125 35.625 C0.465 35.625 -0.195 35.625 -0.875 35.625 Z " fill="#FFFFFF" transform="translate(389.875,133.375)"/>
<path d="M0 0 C3 1.875 3 1.875 5 5 C5.39701254 8.37718457 5.29554513 11.61765016 5 15 C5.86625 15.185625 6.7325 15.37125 7.625 15.5625 C13.15696128 17.91870573 16.64021704 22.51568961 19 28 C19.32635374 31.91624485 19.2353669 34.70577509 17 38 C12.99833063 40.66777958 9.70623152 40.83537677 5 40 C2.0625 37.625 2.0625 37.625 0 35 C-0.66 34.34 -1.32 33.68 -2 33 C-5.09926819 33.32198966 -5.09926819 33.32198966 -8 34 C-8.76956136 36.34533951 -8.76956136 36.34533951 -9 39 C-7.40883829 41.16545517 -6.33307438 41.90827556 -3.73046875 42.625 C-2.47169922 42.810625 -2.47169922 42.810625 -1.1875 43 C7.34278764 44.52503689 12.19108691 48.09873182 17.25 55.125 C21.03571605 61.34439066 20.54306296 67.91657009 20 75 C18.30562686 81.77749255 13.44110528 85.93683697 8 90 C7.01 90.495 7.01 90.495 6 91 C5.72250923 92.96352088 5.72250923 92.96352088 5.6875 95.25 C5.35454241 98.91837482 5.06344531 99.91540625 2.75 103 C-0.14228311 105.10347863 -1.44356954 106 -5 106 C-11.17617021 104.01106383 -11.17617021 104.01106383 -13.375 101.3125 C-14 99 -14 99 -14.125 95.125 C-14.3967025 92.35671041 -14.67220296 91.31649369 -16.69921875 89.359375 C-18.11690014 88.3635914 -19.54831247 87.38709567 -20.9921875 86.4296875 C-24.80593901 83.714059 -26.56739922 80.38432248 -27.9375 76 C-28.01665386 72.20061478 -27.02568513 70.18321948 -25 67 C-21.33187819 64.55458546 -18.26319633 64.15901791 -14 65 C-11.125 67.375 -11.125 67.375 -9 70 C-7.04366025 72.41121859 -7.04366025 72.41121859 -3.375 72.125 C-2.26125 72.08375 -1.1475 72.0425 0 72 C0.25015873 68.58357241 0.25015873 68.58357241 0 65 C-3.13260575 62.91159617 -4.4953919 62.68431208 -8.125 62.25 C-14.95289888 61.0758904 -20.2414865 58.43164359 -24.6328125 52.96875 C-29.06419191 46.18240896 -29.62225547 40.02265087 -29 32 C-27.48200314 25.36992546 -24.36582044 20.75070712 -18.875 16.6875 C-16 15 -16 15 -14 15 C-14.04640625 14.40832031 -14.0928125 13.81664062 -14.140625 13.20703125 C-14.33369653 8.98014382 -14.4219755 6.6751608 -12.125 3 C-8.46781052 -0.44206069 -4.87602847 -0.78314798 0 0 Z " fill="#FFFFFF" transform="translate(175,118)"/>
</svg>
