<?xml version="1.0" encoding="UTF-8"?>
<svg version="1.1" xmlns="http://www.w3.org/2000/svg" width="512" height="512">
<path d="M0 0 C0.82371094 0.68835938 1.64742187 1.37671875 2.49609375 2.0859375 C27.78254721 23.94037621 41.3388486 55.08057162 44 88 C46.01325411 120.56526826 34.95491872 152.23866345 14 177 C13.31164062 177.82371094 12.62328125 178.64742187 11.9140625 179.49609375 C-9.94037621 204.78254721 -41.08057162 218.3388486 -74 221 C-91.64573162 222.09089664 -109.48961123 219.26472873 -126 213 C-126.65806641 212.75266113 -127.31613281 212.50532227 -127.99414062 212.25048828 C-158.93480955 200.34505698 -183.02822398 175.89207254 -196.91992188 146.02197266 C-202.73454189 132.68393264 -206.44793929 117.56060128 -207 103 C-207.0515625 101.94683594 -207.103125 100.89367187 -207.15625 99.80859375 C-207.97634359 68.13247881 -197.42028334 38.12958574 -177 14 C-176.31164062 13.17628906 -175.62328125 12.35257813 -174.9140625 11.50390625 C-130.67805381 -39.67891247 -50.7126403 -42.91687784 0 0 Z M-124.9375 5.375 C-125.71762451 5.73779053 -126.49774902 6.10058105 -127.30151367 6.47436523 C-132.68352277 9.08871362 -137.33928178 12.25584465 -142 16 C-141.56856689 16.50813232 -141.13713379 17.01626465 -140.69262695 17.53979492 C-139.66357422 18.75179036 -138.63452148 19.96378581 -137.60546875 21.17578125 C-136.12827531 22.85424679 -134.59960869 24.43882034 -133 26 C-129.54873332 24.72018055 -126.63371936 23.20481739 -123.5625 21.1875 C-114.48467424 15.65422021 -104.42482273 12.73747046 -94 11 C-94 6.38 -94 1.76 -94 -3 C-105.19353718 -3 -114.92020168 0.67905392 -124.9375 5.375 Z M-69 -3 C-69 1.62 -69 6.24 -69 11 C-67.98421875 11.23074219 -66.9684375 11.46148437 -65.921875 11.69921875 C-53.47411437 14.61113543 -42.42005549 18.34283801 -32 26 C-28.78475695 24.59155282 -26.67816132 22.89655214 -24.25 20.375 C-23.63640625 19.74335937 -23.0228125 19.11171875 -22.390625 18.4609375 C-21.93171875 17.97882813 -21.4728125 17.49671875 -21 17 C-24.8529232 12.74229499 -28.7931032 10.13005895 -33.875 7.5 C-34.61516357 7.11199219 -35.35532715 6.72398438 -36.11791992 6.32421875 C-43.17919572 2.72626972 -50.3823628 0.1681712 -58 -2 C-58.65355469 -2.20625 -59.30710938 -2.4125 -59.98046875 -2.625 C-62.93900434 -3.17436057 -65.99089218 -3 -69 -3 Z M-161 35 C-171.74758981 47.67904073 -180 66.30580785 -180 83 C-175.38 83 -170.76 83 -166 83 C-165.78085938 82.00742188 -165.56171875 81.01484375 -165.3359375 79.9921875 C-162.53175832 67.78833924 -159.01282894 55.89820046 -151 46 C-152.40301147 42.81326038 -154.07765071 40.67778594 -156.5625 38.25 C-157.18253906 37.63640625 -157.80257812 37.0228125 -158.44140625 36.390625 C-159.77622963 34.88904074 -159.77622963 34.88904074 -161 35 Z M-127 55 C-138.38159751 68.74255511 -143.58032765 85.23927219 -142 103 C-139.0970487 119.95116206 -131.05909979 134.54410633 -117.125 144.8125 C-103.19301098 153.9499928 -87.6082497 158.33281294 -71.01171875 155.34375 C-54.02518428 151.79800718 -40.67548672 143.14242813 -30.78515625 128.84765625 C-22.08026982 114.96174332 -18.71275118 99.17458225 -22.08056641 83.05053711 C-25.85646408 66.98480026 -34.50802535 53.64269171 -48.40625 44.52734375 C-74.49749693 29.16337153 -105.98501496 32.4283494 -127 55 Z M-3 35 C-5.97 37.97 -8.94 40.94 -12 44 C-10.52167387 47.69581534 -9.30190231 50.21847591 -7.1875 53.4375 C-1.65422021 62.51532576 1.26252954 72.57517727 3 83 C7.62 83 12.24 83 17 83 C16.47074925 70.12156499 12.38402332 59.17633216 6.5 47.875 C5.94892578 46.80934814 5.94892578 46.80934814 5.38671875 45.72216797 C3.06902987 41.43997159 0.61274982 38.26928416 -3 35 Z M-180 108 C-179.47074925 120.87843501 -175.38402332 131.82366784 -169.5 143.125 C-169.13261719 143.83543457 -168.76523438 144.54586914 -168.38671875 145.27783203 C-166.06902987 149.56002841 -163.61274982 152.73071584 -160 156 C-157.03 153.03 -154.06 150.06 -151 147 C-152.48268313 143.29329218 -153.60565715 140.97713501 -155.75 137.8125 C-158.70341336 133.00141141 -160.54967845 128.08107877 -162.3125 122.75 C-162.56676758 121.98147705 -162.82103516 121.2129541 -163.08300781 120.42114258 C-164.42511494 116.21541708 -165.26291392 112.4225165 -166 108 C-170.62 108 -175.24 108 -180 108 Z M3 108 C2.76925781 109.01578125 2.53851563 110.0315625 2.30078125 111.078125 C-0.61113543 123.52588563 -4.34283801 134.57994451 -12 145 C-10.59155282 148.21524305 -8.89655214 150.32183868 -6.375 152.75 C-5.74335938 153.36359375 -5.11171875 153.9771875 -4.4609375 154.609375 C-3.97882813 155.06828125 -3.49671875 155.5271875 -3 156 C1.25715226 152.147577 3.87178867 148.20736129 6.5 143.125 C6.88800781 142.37976074 7.27601563 141.63452148 7.67578125 140.86669922 C13.03196849 130.2998733 16.50928821 119.94065362 17 108 C12.38 108 7.76 108 3 108 Z M-135.1640625 166.96875 C-135.97617188 167.8040625 -136.78828125 168.639375 -137.625 169.5 C-138.85089844 170.75296875 -138.85089844 170.75296875 -140.1015625 172.03125 C-140.72804688 172.6809375 -141.35453125 173.330625 -142 174 C-138.147577 178.25715226 -134.20736129 180.87178867 -129.125 183.5 C-128.37976074 183.88800781 -127.63452148 184.27601563 -126.86669922 184.67578125 C-116.2998733 190.03196849 -105.94065362 193.50928821 -94 194 C-94 189.38 -94 184.76 -94 180 C-95.52367187 179.65388672 -95.52367187 179.65388672 -97.078125 179.30078125 C-108.75937326 176.56817555 -119.42947402 173.28296486 -129.2578125 166.13671875 C-132.08832093 164.2899072 -132.65630751 164.68732668 -135.1640625 166.96875 Z M-37.75 168.6875 C-47.39244749 174.82101351 -57.7604149 178.12673582 -69 180 C-69 184.62 -69 189.24 -69 194 C-52.58376496 194 -33.50608274 185.64347467 -21 175 C-21.93590504 173.8944811 -22.87379858 172.79064547 -23.8125 171.6875 C-24.59560547 170.76517578 -24.59560547 170.76517578 -25.39453125 169.82421875 C-27.60007905 167.31595433 -27.60007905 167.31595433 -30 165 C-33.17663697 165 -35.12983089 166.95882746 -37.75 168.6875 Z " fill="#F85959" transform="translate(255,78)"/>
<path d="M0 0 C5.02477958 4.89771619 7.37007535 9.03567263 8.01171875 16.09375 C7.74051262 19.1854999 7.39136276 20.65029406 6.13671875 23.34375 C4.50732304 26.37353193 4.50732304 26.37353193 4.88671875 28.71875 C5.28890625 29.6778125 5.28890625 29.6778125 5.69921875 30.65625 C8.13900894 37.11451814 8.63015165 41.95711167 5.82421875 48.34375 C5.13124951 49.7887192 4.42328722 51.22661116 3.69921875 52.65625 C3.32539063 53.40519531 2.9515625 54.15414062 2.56640625 54.92578125 C2.28023437 55.49683594 1.9940625 56.06789063 1.69921875 56.65625 C2.31796875 57.378125 2.93671875 58.1 3.57421875 58.84375 C7.36618279 63.86252594 8.51211638 68.37887389 7.69921875 74.65625 C7.17046821 76.16847654 6.60668687 77.66882969 6.01171875 79.15625 C4.39607883 83.50950199 5.04503033 85.63680582 6.90625 89.765625 C8.56094004 93.71079731 8.20723207 97.0193182 6.9609375 101.03515625 C3.03268528 110.39153882 -4.71385405 115.21536579 -13.67578125 119.34375 C-70.34289757 140.91054523 -161.14213674 140.93514888 -217.30078125 118.65625 C-220.83185931 116.89071097 -224.0720361 114.92147634 -227.30078125 112.65625 C-228.22890625 112.07875 -229.15703125 111.50125 -230.11328125 110.90625 C-234.33957282 106.55920724 -237.54170001 100.75001385 -237.80078125 94.59375 C-237.38293991 91.30324942 -236.78336872 89.11860495 -235.61328125 86.09375 C-234.26776608 82.45587566 -234.1862293 81.96717673 -235.61328125 78.09375 C-236.17015625 76.959375 -236.72703125 75.825 -237.30078125 74.65625 C-238.11342094 67.34249283 -235.93839795 62.7457658 -232.0234375 56.67578125 C-231.03704559 54.63844859 -231.03704559 54.63844859 -232.1640625 52.62109375 C-232.88142578 51.61755859 -232.88142578 51.61755859 -233.61328125 50.59375 C-236.92229659 45.87047057 -237.68915333 42.48183118 -237.30078125 36.65625 C-236.78515625 35.46 -236.26953125 34.26375 -235.73828125 33.03125 C-234.19323092 29.40374052 -234.05768739 28.28990899 -235.30078125 24.65625 C-235.65140625 23.8725 -236.00203125 23.08875 -236.36328125 22.28125 C-238.0347488 17.60114086 -237.68275716 13.84461951 -236.17578125 9.15625 C-232.06280173 1.47868822 -227.20459891 -2.76741265 -219.30078125 -6.34375 C-218.23730469 -6.82714844 -217.17382812 -7.31054688 -216.078125 -7.80859375 C-195.56885013 -16.53179396 -172.27801707 -18.38411314 -150.30078125 -20.34375 C-149.12902344 -20.45178955 -149.12902344 -20.45178955 -147.93359375 -20.56201172 C-106.14884101 -24.22206092 -33.65346882 -29.23044149 0 0 Z M-203.30078125 14.65625 C-203.63078125 15.31625 -203.96078125 15.97625 -204.30078125 16.65625 C-195.71491374 19.81040277 -187.26159818 21.83356081 -178.23828125 23.28125 C-177.58783844 23.38641937 -176.93739563 23.49158875 -176.26724243 23.59994507 C-135.37736462 30.15067735 -92.22214858 29.88767469 -51.36328125 23.28125 C-50.13649658 23.08442627 -48.90971191 22.88760254 -47.64575195 22.68481445 C-39.91388338 21.35012457 -32.66508257 19.36164132 -25.30078125 16.65625 C-26.14268118 14.41631671 -26.14268118 14.41631671 -28.65234375 13.7265625 C-36.13955362 11.56438495 -43.63390106 9.90943344 -51.30078125 8.53125 C-52.585896 8.29365967 -52.585896 8.29365967 -53.89697266 8.05126953 C-72.67401626 4.83456585 -91.5655183 4.30746083 -110.57495117 4.34057617 C-114.33477099 4.34372611 -118.09379273 4.32020434 -121.85351562 4.29492188 C-163.39041796 4.06504908 -163.39041796 4.06504908 -203.30078125 14.65625 Z " fill="#F85959" transform="translate(288.30078125,334.34375)"/>
<path d="M0 0 C1.71230301 -0.01913956 1.71230301 -0.01913956 3.459198 -0.03866577 C4.68840973 -0.04089142 5.91762146 -0.04311707 7.18408203 -0.04541016 C8.45156281 -0.05206696 9.71904358 -0.05872375 11.02493286 -0.06558228 C13.70654339 -0.07570934 16.3877485 -0.0812644 19.06933594 -0.08007812 C22.49475714 -0.07987505 25.91934757 -0.10716859 29.34457207 -0.14162254 C32.62437716 -0.16929416 35.90417608 -0.16804222 39.18408203 -0.17041016 C41.02182693 -0.19196671 41.02182693 -0.19196671 42.896698 -0.21395874 C53.70417305 -0.15602278 53.70417305 -0.15602278 58.31689453 4.29052734 C60.28660807 7.44804692 60.56475789 9.86312285 60.55740356 13.55499268 C60.56015289 14.62067474 60.56290222 15.68635681 60.56573486 16.78433228 C60.55494904 18.5300502 60.55494904 18.5300502 60.54394531 20.31103516 C60.54423737 21.54056915 60.54452942 22.77010315 60.54483032 24.03689575 C60.54367606 27.40441639 60.53364849 30.77169155 60.51968241 34.13916874 C60.50717639 37.65989012 60.50600465 41.18061481 60.50363159 44.70135498 C60.49741644 51.36653833 60.48100517 58.03165604 60.46093261 64.69681048 C60.43857469 72.28562507 60.42758045 79.87444279 60.41754174 87.46328211 C60.39663896 103.07240186 60.36146231 118.68145614 60.31689453 134.29052734 C61.58750732 134.25125122 61.58750732 134.25125122 62.88378906 134.21118164 C66.04827515 134.12560229 69.21216859 134.06310638 72.37744141 134.01586914 C73.74319957 133.99083455 75.1088252 133.95679517 76.47412109 133.91333008 C89.28982157 133.51576273 89.28982157 133.51576273 93.15673828 136.66552734 C96.42194037 140.63336786 97.36142146 142.70982145 97.21533203 147.89599609 C96.47043611 153.26644554 93.63387252 156.98704906 90.50439453 161.29052734 C89.91980469 162.11939453 89.33521484 162.94826172 88.73291016 163.80224609 C84.54922598 169.69641172 80.21954204 175.48107223 75.83911133 181.22998047 C71.99229364 186.30447913 68.38196657 191.51517353 64.81689453 196.79052734 C60.31227698 203.4533703 55.65842808 209.95512787 50.77929688 216.34838867 C48.1450419 219.81201077 45.5848651 223.30852417 43.10986328 226.88818359 C42.57949463 227.65437012 42.04912598 228.42055664 41.50268555 229.20996094 C40.49436636 230.67520187 39.49302867 232.14528298 38.50024414 233.62109375 C35.15844314 238.47434143 31.73005146 243.34623818 25.78955078 244.98974609 C24.99419922 244.98587891 24.19884766 244.98201172 23.37939453 244.97802734 C22.58662109 245.00251953 21.79384766 245.02701172 20.97705078 245.05224609 C13.42720007 242.89039457 9.17500814 235.65356986 5.12939453 229.41552734 C1.01876635 223.23770465 -3.17209566 217.18279501 -7.68310547 211.29052734 C-12.04087177 205.57846595 -16.16051971 199.74316576 -20.18310547 193.79052734 C-24.24750963 187.77620139 -28.41447821 181.88140817 -32.80810547 176.10302734 C-36.90059101 170.69502729 -40.94949094 165.2620141 -44.87060547 159.72802734 C-45.34062988 159.08518799 -45.8106543 158.44234863 -46.29492188 157.7800293 C-49.17545074 153.65952698 -50.47946152 150.44950731 -50.68310547 145.29052734 C-49.08489961 140.05196371 -47.26865728 137.25645381 -42.68310547 134.29052734 C-39.45336914 133.83642578 -39.45336914 133.83642578 -35.85107422 133.89990234 C-34.55878906 133.91279297 -33.26650391 133.92568359 -31.93505859 133.93896484 C-30.58023001 133.972381 -29.2254123 134.00624072 -27.87060547 134.04052734 C-26.4962823 134.060607 -25.12193108 134.07885521 -23.74755859 134.09521484 C-20.39202691 134.14231003 -17.0379242 134.20807599 -13.68310547 134.29052734 C-13.68679264 133.65276336 -13.69047981 133.01499937 -13.69427872 132.3579092 C-13.78269469 116.82506801 -13.84884652 101.2923146 -13.89035416 85.75928402 C-13.91096154 78.24755237 -13.939047 70.73598892 -13.98486328 63.22436523 C-14.02478722 56.67566439 -14.05055154 50.12708537 -14.05945945 43.5782662 C-14.06466489 40.1120667 -14.07686077 36.64621568 -14.1060257 33.1801281 C-14.13835307 29.30662479 -14.13906131 25.43345947 -14.13720703 21.55981445 C-14.15158813 20.41613907 -14.16596924 19.27246368 -14.18078613 18.09413147 C-14.14730989 11.63229633 -13.7036848 7.4631061 -9.68310547 2.29052734 C-6.61014333 -0.01133605 -3.77211129 0.02866006 0 0 Z M11.31689453 25.29052734 C11.30231201 29.08125732 11.28772949 32.8719873 11.27270508 36.77758789 C11.22240801 49.2906587 11.15597226 61.80359993 11.08117962 74.31654644 C11.03622025 81.90445759 10.99680596 89.49232178 10.97045898 97.08032227 C10.94747998 103.69428114 10.91408318 110.30809146 10.86819297 116.92193252 C10.84425924 120.42370768 10.82553153 123.9253357 10.81928062 127.42719078 C10.81210605 131.33712269 10.78167227 135.24668589 10.74926758 139.15649414 C10.75070267 140.31671082 10.75213776 141.47692749 10.75361633 142.67230225 C10.74107819 143.73935898 10.72854004 144.80641571 10.71562195 145.9058075 C10.71101298 146.83036586 10.70640402 147.75492422 10.70165539 148.7074995 C10.14807308 152.42388201 8.65463607 155.27159337 5.64501953 157.56396484 C2.17088086 158.6481759 -1.32325042 158.76245929 -4.93310547 158.91552734 C-5.67818359 158.95419922 -6.42326172 158.99287109 -7.19091797 159.03271484 C-9.02125787 159.12657843 -10.8521469 159.20962452 -12.68310547 159.29052734 C-8.8033963 165.7384947 -4.61628208 171.81195786 -0.05810547 177.79052734 C6.27147917 186.09513656 12.14926458 194.68206804 17.97338867 203.34619141 C19.37075008 205.36846766 20.82996607 207.33342495 22.31689453 209.29052734 C25.74889444 208.14652737 26.11493353 207.51715518 28.03173828 204.59912109 C28.54704102 203.82713379 29.06234375 203.05514648 29.59326172 202.25976562 C30.41552246 201.00655518 30.41552246 201.00655518 31.25439453 199.72802734 C35.53559564 193.32790874 39.90045287 187.04103651 44.56689453 180.91552734 C53.75710121 170.66235175 53.75710121 170.66235175 59.31689453 159.29052734 C57.79708984 159.21705078 57.79708984 159.21705078 56.24658203 159.14208984 C54.89499542 159.0670017 53.54343415 158.99145654 52.19189453 158.91552734 C51.52673828 158.88458984 50.86158203 158.85365234 50.17626953 158.82177734 C45.92671371 158.57180347 42.16868649 158.15356025 38.31689453 156.29052734 C36.51475473 152.76675651 36.06190759 149.83187704 36.03842163 145.9058075 C36.02725815 144.83875076 36.01609467 143.77169403 36.0045929 142.67230225 C36.00243271 141.51208557 36.00027252 140.3518689 35.99804688 139.15649414 C35.98800125 137.92681412 35.97795563 136.69713409 35.96760559 135.43019104 C35.94204309 132.06692126 35.92517012 128.7038196 35.91217756 125.34049201 C35.89652668 121.82238977 35.86974272 118.30437259 35.84414673 114.78633118 C35.79739354 108.12832788 35.76063273 101.47030853 35.72747386 94.81222516 C35.68922798 87.23058056 35.63982429 79.64902146 35.5894897 72.06744897 C35.48622129 56.47519737 35.39841727 40.88291011 35.31689453 25.29052734 C27.39689453 25.29052734 19.47689453 25.29052734 11.31689453 25.29052734 Z " fill="#F85959" transform="translate(366.68310546875,133.70947265625)"/>
<path d="M0 0 C3.71415501 0.87471042 5.0939134 2.34985958 7.15625 5.5078125 C7.39453125 7.6328125 7.39453125 7.6328125 7.46875 9.9453125 C7.62821897 12.86891027 7.7208734 14.06831886 9.80859375 16.17578125 C11.21836344 17.15500675 12.64202246 18.11450526 14.078125 19.0546875 C17.89376979 21.72276995 20.56572613 24.97146407 21.6328125 29.5546875 C21.90370405 33.34716914 21.26645534 35.35085339 19.09375 38.4453125 C15.57801604 40.91380656 13.44241677 41.5078125 9.15625 41.5078125 C5.78674791 40.09732325 4.34181072 38.75715972 2.15625 35.8203125 C0.36547906 33.26630011 0.36547906 33.26630011 -2.46875 33.0078125 C-5.20740337 33.29503659 -5.20740337 33.29503659 -6.84375 36.5078125 C-6.5315736 39.15413537 -6.5315736 39.15413537 -5.84375 41.5078125 C-4.35875 41.83652344 -4.35875 41.83652344 -2.84375 42.171875 C5.91554601 44.22362198 13.12030128 46.11992036 18.7421875 53.625 C22.86811756 60.57753408 23.14772736 67.60432158 22.15625 75.5078125 C20.39737425 82.29204753 15.62834924 86.42150462 10.15625 90.5078125 C9.16625 91.0028125 9.16625 91.0028125 8.15625 91.5078125 C7.87875923 93.47133338 7.87875923 93.47133338 7.84375 95.7578125 C7.5032922 99.25727218 7.15195752 100.51438536 5.15625 103.5703125 C1.64003427 105.84120183 -0.55256291 106.30894373 -4.68359375 106.046875 C-7.58146565 105.32371709 -9.33834904 103.88132175 -11.046875 101.44140625 C-12.5169742 97.87425378 -12.22150579 94.28537042 -11.84375 90.5078125 C-12.9265625 90.1365625 -12.9265625 90.1365625 -14.03125 89.7578125 C-19.60753703 87.27946271 -22.66965899 84.07686484 -25.1796875 78.59765625 C-26.24996999 75.2294143 -25.86998218 72.84306709 -24.84375 69.5078125 C-22.62091931 66.25905996 -21.22393818 65.61150019 -17.40625 64.5703125 C-13.34135762 64.4989986 -11.96711634 64.97535331 -8.84375 67.5078125 C-7.85375 68.838125 -7.85375 68.838125 -6.84375 70.1953125 C-5.0562433 72.75951379 -5.0562433 72.75951379 -2.21875 72.9453125 C0.33524853 72.70701746 0.33524853 72.70701746 2.15625 70.5078125 C2.57291667 68.0078125 2.57291667 68.0078125 2.15625 65.5078125 C-0.82811429 63.51823631 -2.16729449 63.15422964 -5.59375 62.6328125 C-14.43093252 60.93976737 -19.57873851 56.77922026 -24.84375 49.5078125 C-27.7975955 43.72854956 -27.72116514 36.50416429 -26.34375 30.23046875 C-24.3819077 24.42296967 -21.22264013 20.16750329 -16.15625 16.6328125 C-13.84375 15.5078125 -13.84375 15.5078125 -11.84375 15.5078125 C-11.93076172 14.63769531 -11.93076172 14.63769531 -12.01953125 13.75 C-12.25625621 9.65127643 -12.32333559 6.39710939 -9.90625 2.9453125 C-6.32916898 0.09824801 -4.46614088 -0.34240413 0 0 Z " fill="#F85959" transform="translate(172.84375,120.4921875)"/>
</svg>
