<?xml version="1.0" encoding="UTF-8"?>
<svg version="1.1" xmlns="http://www.w3.org/2000/svg" width="512" height="512">
<path d="M0 0 C158.4 0 316.8 0 480 0 C480 95.04 480 190.08 480 288 C458.88 288 437.76 288 416 288 C416 298.56 416 309.12 416 320 C268.16 320 120.32 320 -32 320 C-32 235.52 -32 151.04 -32 64 C-21.44 64 -10.88 64 0 64 C0 42.88 0 21.76 0 0 Z M32 32 C32 42.56 32 53.12 32 64 C158.72 64 285.44 64 416 64 C416 127.36 416 190.72 416 256 C426.56 256 437.12 256 448 256 C448 182.08 448 108.16 448 32 C310.72 32 173.44 32 32 32 Z M145 148 C143.91525391 149.06734375 143.91525391 149.06734375 142.80859375 150.15625 C132.08898142 161.38438284 127.0247894 176.64116359 126.5 192 C127.09565074 209.43271169 133.77511758 225.49387029 146 238 C159.83780547 250.15534005 176.86925826 256.95216338 195.4140625 255.78515625 C208.44075134 254.26874569 219.38227614 249.60851388 230 242 C230.64582031 241.53980469 231.29164063 241.07960938 231.95703125 240.60546875 C244.14173213 231.06124481 251.97019878 215.10510407 254 200 C254.69166247 190.26869333 254.09399444 181.33532806 251 172 C250.7215625 171.13890625 250.443125 170.2778125 250.15625 169.390625 C247.79381577 162.83283343 244.20175073 157.52202562 240 152 C238.9171875 150.4840625 238.9171875 150.4840625 237.8125 148.9375 C228.14814434 137.82506499 213.19443818 130.08747147 198.53881836 128.78051758 C177.18205317 127.79329236 160.43548314 132.59019986 145 148 Z " fill="#FFFFFF" transform="translate(32,96)"/>
</svg>
