<?xml version="1.0" encoding="UTF-8"?>
<svg version="1.1" xmlns="http://www.w3.org/2000/svg" width="512" height="512">
<path d="M0 0 C6.99117158 5.98012121 13.01017628 11.48029446 14.26171875 20.98828125 C14.61618768 27.28316057 12.59145962 32.49913488 9.25 37.75 C4.34291777 42.65708223 -0.90630831 44.79375389 -7.75 45.25 C-15.74602703 45.02992586 -20.24371071 41.97681711 -26.0625 36.8125 C-42.34933539 22.44582183 -60.95027445 17.55883784 -82.43798828 18.78125 C-108.67400265 21.02133661 -125.23166308 40.07969555 -142.765625 57.4921875 C-143.49484917 58.21608799 -144.22407333 58.93998848 -144.9753952 59.68582535 C-148.82627127 63.51020758 -152.67362209 67.33810004 -156.51855469 71.16845703 C-159.67310058 74.30963068 -162.83477449 77.44335481 -166.00292969 80.57080078 C-169.86653178 84.38480524 -173.71744977 88.21120137 -177.55986786 92.04654312 C-179.01148074 93.49150077 -180.46729809 94.93224887 -181.92761993 96.36840439 C-197.41135424 111.61014137 -209.93269924 129.06615615 -210.38061523 151.73364258 C-210.33141594 172.1385147 -204.45957787 189.98339184 -190 205 C-175.35822529 219.0986486 -157.10689681 225.71309825 -137.00830078 225.47070312 C-115.19104256 224.63584773 -98.12161796 213.66431426 -83.34375 198.36328125 C-81.72829181 196.71767945 -80.11239316 195.07250994 -78.49609375 193.42773438 C-75.98957744 190.86540296 -73.4872298 188.29932319 -70.99267578 185.7253418 C-68.55848796 183.21832415 -66.1086345 180.72748415 -63.65625 178.23828125 C-62.92160522 177.47155594 -62.18696045 176.70483063 -61.43005371 175.91487122 C-56.08509003 170.51854277 -50.7924878 166.99987156 -43.28515625 165.43359375 C-35.53791461 165.44720929 -29.21100353 167.95366332 -23.5625 173.3125 C-19.21063414 180.79770928 -17.75232792 187.16384437 -19.93432617 195.62158203 C-22.27555269 201.58108334 -26.94278616 205.63751036 -31.42578125 210.0546875 C-32.37524887 211.00498627 -33.3238977 211.95610375 -34.27177429 212.9079895 C-36.25868825 214.89775232 -38.25403578 216.87851569 -40.25610352 218.85302734 C-42.78495528 221.34809654 -45.29339847 223.8625541 -47.79644299 226.38347816 C-60.47859444 239.13995828 -72.89292589 251.4384208 -89.5625 258.875 C-90.37203125 259.24447754 -91.1815625 259.61395508 -92.015625 259.99462891 C-119.3418765 272.21867345 -151.10080824 273.76855124 -179.3515625 263.50390625 C-209.75487931 250.97148979 -233.4961866 229.64327603 -246.62646484 199.08520508 C-258.45301617 170.27649749 -257.96807947 137.64107061 -246 109 C-244.66939361 106.01496708 -243.24659139 103.092648 -241.75 100.1875 C-241.42821777 99.55505371 -241.10643555 98.92260742 -240.77490234 98.27099609 C-232.89079257 83.75698265 -220.79956421 72.33893566 -209.234375 60.80078125 C-207.51064507 59.07247869 -205.78728365 57.34380853 -204.06427002 55.61479187 C-200.46857803 52.01021509 -196.86733706 48.41129847 -193.26220703 44.81616211 C-188.6735607 40.23900646 -184.10097196 35.64617845 -179.53268051 31.04871845 C-175.98270319 27.48028018 -172.42333524 23.92132322 -168.86127472 20.36495018 C-167.17273786 18.67656529 -165.48724333 16.98513143 -163.80504608 15.29043007 C-151.57622 2.98351919 -139.5277743 -8.08406677 -123.5625 -15.375 C-122.66853516 -15.79072266 -121.77457031 -16.20644531 -120.85351562 -16.63476562 C-113.3870626 -20.01206445 -106.05618991 -22.39807553 -98 -24 C-96.99839844 -24.22171875 -95.99679688 -24.4434375 -94.96484375 -24.671875 C-61.51581991 -31.05955955 -26.14722514 -21.54826943 0 0 Z " fill="#686262" transform="translate(297,200)"/>
<path d="M0 0 C24.70769712 20.39305819 39.57601426 47.9743619 42.81689453 79.80761719 C44.71152097 102.49261113 40.15632402 124.61198866 29.75 144.8125 C29.26732666 145.76116943 29.26732666 145.76116943 28.77490234 146.72900391 C20.89079257 161.24301735 8.79956421 172.66106434 -2.765625 184.19921875 C-4.48935493 185.92752131 -6.21271635 187.65619147 -7.93572998 189.38520813 C-11.53142197 192.98978491 -15.13266294 196.58870153 -18.73779297 200.18383789 C-23.3264393 204.76099354 -27.89902804 209.35382155 -32.46731949 213.95128155 C-36.01729681 217.51971982 -39.57666476 221.07867678 -43.13872528 224.63504982 C-44.82726214 226.32343471 -46.51275667 228.01486857 -48.19495392 229.70956993 C-60.42378 242.01648081 -72.4722257 253.08406677 -88.4375 260.375 C-89.77844727 260.99858398 -89.77844727 260.99858398 -91.14648438 261.63476562 C-98.6129374 265.01206445 -105.94381009 267.39807553 -114 269 C-115.00160156 269.22171875 -116.00320313 269.4434375 -117.03515625 269.671875 C-146.92411357 275.37970169 -178.44558303 268.33458605 -203.54345703 251.42993164 C-212.63039333 245.04800798 -223.58119515 237.34977663 -226 226 C-226.92830776 218.94763209 -225.02671807 213.18484268 -221.25 207.25 C-216.34291777 202.34291777 -211.09369169 200.20624611 -204.25 199.75 C-196.25397297 199.97007414 -191.75628929 203.02318289 -185.9375 208.1875 C-169.65066461 222.55417817 -151.04972555 227.44116216 -129.56201172 226.21875 C-103.32599735 223.97866339 -86.76833692 204.92030445 -69.234375 187.5078125 C-68.50515083 186.78391201 -67.77592667 186.06001152 -67.0246048 185.31417465 C-63.17372873 181.48979242 -59.32637791 177.66189996 -55.48144531 173.83154297 C-52.32689942 170.69036932 -49.16522551 167.55664519 -45.99707031 164.42919922 C-42.13346822 160.61519476 -38.28255023 156.78879863 -34.44013214 152.95345688 C-32.98851926 151.50849923 -31.53270191 150.06775113 -30.07238007 148.63159561 C-14.58864576 133.38985863 -2.06730076 115.93384385 -1.61938477 93.26635742 C-1.66858406 72.8614853 -7.54042213 55.01660816 -22 40 C-36.63449364 25.90836238 -54.90139889 19.2714404 -74.99609375 19.53149414 C-85.79230835 19.95171266 -95.44004736 22.9848057 -105.1875 27.5625 C-105.79231201 27.83578125 -106.39712402 28.1090625 -107.02026367 28.390625 C-117.10626117 33.47857265 -125.03215005 42.96600009 -132.85546875 50.93359375 C-133.53447739 51.62493912 -134.21348602 52.31628448 -134.91307068 53.02857971 C-137.71859711 55.88913304 -140.52301706 58.75037553 -143.30834961 61.63061523 C-145.37496451 63.76413407 -147.45742019 65.8811003 -149.54296875 67.99609375 C-150.15883347 68.64090195 -150.77469818 69.28571014 -151.40922546 69.95005798 C-156.39056116 74.96126375 -161.75094061 78.11350559 -168.71484375 79.56640625 C-176.46208539 79.55279071 -182.78899647 77.04633668 -188.4375 71.6875 C-192.78936586 64.20229072 -194.24767208 57.83615563 -192.06567383 49.37841797 C-189.72444731 43.41891666 -185.05721384 39.36248964 -180.57421875 34.9453125 C-179.62475113 33.99501373 -178.6761023 33.04389625 -177.72822571 32.0920105 C-175.74131175 30.10224768 -173.74596422 28.12148431 -171.74389648 26.14697266 C-169.21504472 23.65190346 -166.70660153 21.1374459 -164.20355701 18.61652184 C-151.52140556 5.86004172 -139.10707411 -6.4384208 -122.4375 -13.875 C-121.62796875 -14.24447754 -120.8184375 -14.61395508 -119.984375 -14.99462891 C-80.71000387 -32.56350995 -33.52679988 -27.25878981 0 0 Z " fill="#686262" transform="translate(427,67)"/>
</svg>
