<?xml version="1.0" encoding="UTF-8"?>
<svg version="1.1" xmlns="http://www.w3.org/2000/svg" width="512" height="512">
<path d="M0 0 C1.66671708 -0.00571138 3.33343024 -0.01267859 5.00013733 -0.02079773 C9.50233037 -0.03866038 14.00432778 -0.03757369 18.50654554 -0.03185534 C22.27617327 -0.0287532 26.04576397 -0.03486738 29.81538641 -0.04089409 C38.71435828 -0.05491535 47.61323409 -0.0533983 56.51220703 -0.04199219 C65.66791159 -0.03051574 74.82332306 -0.04458416 83.97898901 -0.07138866 C91.86298562 -0.09359904 99.74689059 -0.10017097 107.63091624 -0.09431225 C112.3294487 -0.09095393 117.02779338 -0.09328243 121.72629929 -0.11056328 C126.14731722 -0.12611552 130.56790356 -0.12198586 134.98890495 -0.10325813 C136.60287968 -0.09959491 138.21688699 -0.10261387 139.83083153 -0.11314392 C154.38559902 -0.20078846 166.30401711 2.30103221 177.35791016 12.40405273 C187.60701469 23.61777887 189.94455709 35.65526355 190.07275391 50.47436523 C190.09919818 51.92321786 190.12730972 53.37204088 190.15696716 54.8208313 C190.21535268 57.84008619 190.26237291 60.85919376 190.29949951 63.87878418 C190.35306209 68.23238009 190.43308116 72.58516329 190.51855469 76.93823242 C190.68577828 85.71808881 190.8090066 94.4983289 190.92041016 103.27905273 C190.93030849 104.05637379 190.94020683 104.83369484 190.95040512 105.63457108 C191.0844656 116.25051586 191.20141099 126.86659396 191.30786133 137.48284912 C191.34075174 140.75586063 191.37546742 144.02884449 191.41186523 147.30181885 C191.50737025 155.93944411 191.58907333 164.57685622 191.63272762 173.21491623 C191.65119474 176.86575812 191.67566225 180.51627075 191.71707153 184.16693115 C191.76226959 188.20310227 191.77454278 192.23873226 191.78369141 196.27514648 C191.80115417 197.44896378 191.81861694 198.62278107 191.83660889 199.83216858 C191.79634702 215.27181915 185.13560042 225.92296279 174.50553441 236.66232079 C173.61935076 237.5424944 172.7331671 238.42266801 171.82012939 239.32951355 C170.85624344 240.29758005 169.89300916 241.26629577 168.93036532 242.23559743 C166.30195156 244.87838975 163.6643548 247.51184171 161.0250473 250.14374864 C158.17292478 252.99112296 155.32946342 255.84712521 152.48483276 258.70198059 C146.91804793 264.28592592 141.3431477 269.86169944 135.76515439 275.43444606 C131.23009889 279.96545383 126.69780394 284.49920553 122.16744232 289.03490639 C121.19884078 290.00463056 121.19884078 290.00463056 120.21067153 290.99394513 C118.89871665 292.30743154 117.58676518 293.62092136 116.27481708 294.93441454 C103.98279986 307.24014663 91.68123083 319.53629506 79.37661681 331.8294296 C68.1289929 343.06712023 56.8928493 354.31620888 45.66215959 365.57082101 C34.11857379 377.13880952 22.56760248 388.69937422 11.0084846 400.25184327 C4.52374608 406.73309244 -1.95811083 413.21715995 -8.4323349 419.7089138 C-13.94315698 425.2344724 -19.46099251 430.75290969 -24.9878864 436.26239439 C-27.80529602 439.07130406 -30.61945136 441.88327545 -33.4249382 444.70409775 C-35.99735833 447.29040439 -38.57897007 449.86716262 -41.16795936 452.43687967 C-42.53687103 453.80027898 -43.89604057 455.17343877 -45.25474048 456.54701489 C-55.70421155 466.87312367 -66.318685 472.60748327 -81.07958984 472.84155273 C-88.231806 472.79853306 -94.19303721 471.66093216 -100.64208984 468.40405273 C-101.30982422 468.07663086 -101.97755859 467.74920898 -102.66552734 467.41186523 C-115.12244486 460.44616034 -125.45585937 447.74382229 -135.47924805 437.72802734 C-136.92758302 436.28433288 -138.37611057 434.8408316 -139.82481384 433.39750671 C-143.72363932 429.51167729 -147.61923552 425.62262714 -151.51380181 421.7325294 C-153.95241974 419.29685938 -156.39161638 416.86177034 -158.83098412 414.42685127 C-166.47973741 406.79173102 -174.1265168 399.15464213 -181.77039558 391.5146417 C-190.56561542 382.72391074 -199.36735415 373.93977608 -208.17477161 365.16126627 C-215.00670801 358.35097096 -221.83284482 351.53489783 -228.65463704 344.71444136 C-232.71941452 340.65070894 -236.78655581 336.5894135 -240.85976601 332.534132 C-244.68729705 328.72312658 -248.50754566 324.90496667 -252.32244301 321.08131599 C-253.7182001 319.6847913 -255.1164961 318.29079848 -256.51758957 316.89962769 C-269.21153832 304.290286 -280.57624828 292.20165478 -280.95458984 273.40405273 C-280.97253084 257.17941318 -273.78074941 246.25108903 -262.6868059 235.04287648 C-261.36773611 233.73282175 -261.36773611 233.73282175 -260.02201843 232.39630127 C-259.06139517 231.43149556 -258.10142316 230.46604107 -257.1420396 229.50000262 C-254.5272739 226.87088369 -251.90335515 224.25107633 -249.27770436 221.6328342 C-246.43854799 218.79843232 -243.60806176 215.95539349 -240.77639771 213.11351013 C-235.23714903 207.55711392 -229.68979949 202.00887532 -224.1393474 196.46367273 C-219.62672138 191.95509641 -215.11685909 187.44377307 -210.60892677 182.93050385 C-209.96610326 182.28693191 -209.32327975 181.64335998 -208.66097674 180.98028587 C-207.3549004 179.67267798 -206.04882747 178.3650667 -204.74275789 177.05745205 C-192.51034535 164.81132965 -180.26838771 152.57478436 -168.02337924 140.34125862 C-156.83078317 129.15859811 -145.64967231 117.96453506 -134.47400918 106.76495436 C-122.98463227 95.25117479 -111.48787009 83.74481898 -99.982961 72.2465589 C-93.52953663 65.79662353 -87.07899259 59.34387142 -80.6360836 52.88343048 C-75.15273393 47.38534448 -69.66237131 41.89437982 -64.16294988 36.41236767 C-61.3597102 33.61762756 -58.55972446 30.81982702 -55.76840782 28.01317406 C-53.20898065 25.43985955 -50.64036143 22.87609569 -48.06436525 20.31937072 C-46.70246047 18.96297773 -45.35029679 17.59682521 -43.998604 16.23025537 C-30.64423551 3.03432465 -18.20119231 -0.05655864 0 0 Z M29.35791016 102.40405273 C20.5618117 114.13826706 17.88510357 124.89602066 19.35791016 139.40405273 C21.40474417 149.80557403 27.74586151 159.08302158 36.23291016 165.34155273 C47.26056743 172.3515117 58.69199425 175.06384166 71.63525391 172.25170898 C83.27634146 168.62743926 93.24194896 160.77520756 99.13916016 150.11108398 C104.48393954 138.23950671 104.7342818 126.58313681 100.35791016 114.40405273 C94.76703028 103.04047575 86.15546504 95.00026102 74.35791016 90.40405273 C58.49854693 85.37226141 40.65424039 90.04055767 29.35791016 102.40405273 Z " fill="#FFFFFF" transform="translate(301.64208984375,20.595947265625)"/>
</svg>
