<?xml version="1.0" encoding="UTF-8"?>
<svg version="1.1" xmlns="http://www.w3.org/2000/svg" width="512" height="512">
<path d="M0 0 C0.68239827 -0.00175304 1.36479653 -0.00350607 2.06787354 -0.00531223 C4.35919409 -0.00997176 6.65045117 -0.00750686 8.94177437 -0.00507832 C10.59927107 -0.00694631 12.25676733 -0.00924697 13.91426289 -0.01194364 C18.47288954 -0.01806944 23.03149788 -0.01792713 27.59012771 -0.01674926 C32.5050146 -0.01654545 37.41989559 -0.02206209 42.33477974 -0.02680683 C51.96517367 -0.03511808 61.59556148 -0.03786188 71.22595869 -0.03841921 C79.0523448 -0.03889412 86.87872889 -0.04094761 94.70511436 -0.04411983 C116.88580142 -0.05292749 139.06648364 -0.057539 161.24717246 -0.05678936 C162.4432786 -0.0567494 163.63938474 -0.05670945 164.87173653 -0.05666828 C166.66808171 -0.05660696 166.66808171 -0.05660696 168.5007167 -0.0565444 C187.91465715 -0.05613784 207.32857821 -0.06570971 226.74251305 -0.07980665 C246.66821518 -0.09416125 266.59390785 -0.10107735 286.51961529 -0.10021287 C297.70978051 -0.0998806 308.89992541 -0.10264099 320.09008598 -0.11339092 C329.61654751 -0.12248385 339.14297949 -0.12468111 348.66944347 -0.1178815 C353.5310058 -0.11461026 358.3925114 -0.11458137 363.25406837 -0.12323475 C367.70392028 -0.13107395 372.15367024 -0.1296948 376.60351957 -0.12095062 C378.21384785 -0.11940993 379.82418364 -0.1212531 381.43450306 -0.12681069 C383.62331876 -0.13386488 385.81177628 -0.12858195 388.00057983 -0.12025452 C389.21639201 -0.12047188 390.43220419 -0.12068925 391.68485916 -0.12091321 C396.01580271 0.19314998 400.37853119 0.75719958 403.86831856 3.49582195 C408.0875142 9.11171684 408.2736126 13.22438631 408.25755882 20.09761047 C408.25961146 20.91054804 408.26166409 21.72348561 408.26377892 22.56105766 C408.26946201 25.30245512 408.26799006 28.04380255 408.26657295 30.78520489 C408.26915583 32.76357302 408.27216877 34.74194064 408.27557635 36.72030753 C408.28365856 42.17051387 408.2854366 47.62070705 408.28617382 53.07091868 C408.28802223 58.94356969 408.29556845 64.81621384 408.30230904 70.68886089 C408.31661 84.20584453 408.32241979 97.72282636 408.32700098 111.23981616 C408.32933654 117.91821346 408.33293912 124.59661001 408.33669636 131.27500664 C408.34953142 154.13239019 408.36025113 176.98977326 408.36369896 199.84716034 C408.36392059 201.28206133 408.36414238 202.71696233 408.36436431 204.15186332 C408.36458495 205.59024152 408.36480543 207.02861972 408.36502576 208.46699792 C408.36546831 211.35266388 408.36591543 214.23832983 408.36636543 217.12399578 C408.36652952 218.19721223 408.36652952 218.19721223 408.36669692 219.29210982 C408.37032846 242.49733209 408.38625238 265.70252314 408.4095558 288.90773345 C408.43414433 313.43744997 408.44787132 337.96714864 408.44906688 362.49687785 C408.44923833 365.18888009 408.44945376 367.88088232 408.44970131 370.57288456 C408.44975708 371.23573883 408.44981285 371.8985931 408.44987031 372.58153386 C408.45095022 382.59328338 408.46031791 392.60500345 408.47388649 402.61674213 C408.48926248 414.00240226 408.49442271 425.38800886 408.48614839 436.77367739 C408.48223315 442.5851024 408.4832141 448.39641954 408.49720573 454.20783138 C408.50989208 459.52560001 408.5087936 464.84317912 408.49661502 470.16094729 C408.49464888 472.08691709 408.49777852 474.01290009 408.50645939 475.93885133 C408.51750034 478.55351055 408.51010019 481.16749486 408.49806786 483.78213501 C408.50946065 484.907965 408.50946065 484.907965 408.52108359 486.05653903 C408.45924701 492.26613942 407.21933167 497.03543384 402.75113106 501.50363445 C398.12858569 504.36521016 393.5931698 504.25417363 388.25226212 504.25726891 C387.56986385 504.25902194 386.88746558 504.26077498 386.18438858 504.26258114 C383.89306803 504.26724066 381.60181095 504.26477576 379.31048775 504.26234722 C377.65299105 504.26421521 375.99549478 504.26651587 374.33799922 504.26921254 C369.77937257 504.27533834 365.22076424 504.27519603 360.66213441 504.27401817 C355.74724751 504.27381436 350.83236653 504.279331 345.91748238 504.28407574 C336.28708845 504.29238698 326.65670064 504.29513079 317.02630343 504.29568812 C309.19991731 504.29616302 301.37353322 504.29821652 293.54714775 504.30138874 C271.36646069 504.31019639 249.18577848 504.31480791 227.00508966 504.31405827 C225.80898351 504.31401831 224.61287737 504.31397835 223.38052559 504.31393719 C221.5841804 504.31387587 221.5841804 504.31387587 219.75154541 504.31381331 C200.33760497 504.31340674 180.92368391 504.32297861 161.50974907 504.33707555 C141.58404694 504.35143015 121.65835426 504.35834625 101.73264682 504.35748178 C90.5424816 504.3571495 79.3523367 504.35990989 68.16217613 504.37065983 C58.63571461 504.37975275 49.10928262 504.38195001 39.58281864 504.3751504 C34.72125632 504.37187917 29.85975071 504.37185027 24.99819374 504.38050365 C20.54834184 504.38834286 16.09859188 504.3869637 11.64874254 504.37821952 C10.03841426 504.37667884 8.42807848 504.378522 6.81775905 504.3840796 C4.62894335 504.39113379 2.44048583 504.38585086 0.25168228 504.37752342 C-0.96412989 504.37774079 -2.17994207 504.37795816 -3.43259704 504.37818211 C-7.7635406 504.06411892 -12.12626907 503.50006933 -15.61605644 500.76144695 C-19.83525208 495.14555207 -20.02135049 491.0328826 -20.00529671 484.15965843 C-20.00734934 483.34672086 -20.00940197 482.53378329 -20.01151681 481.69621125 C-20.01719989 478.95481379 -20.01572795 476.21346635 -20.01431084 473.47206402 C-20.01689372 471.49369588 -20.01990666 469.51532827 -20.02331424 467.53696138 C-20.03139644 462.08675503 -20.03317449 456.63656185 -20.03391171 451.18635023 C-20.03576012 445.31369921 -20.04330633 439.44105507 -20.05004692 433.56840801 C-20.06434789 420.05142438 -20.07015767 406.53444255 -20.07473887 393.01745275 C-20.07707442 386.33905545 -20.08067701 379.6606589 -20.08443424 372.98226227 C-20.09726931 350.12487872 -20.10798901 327.26749564 -20.11143684 304.41010857 C-20.11165848 302.97520757 -20.11188026 301.54030658 -20.1121022 300.10540559 C-20.11232284 298.66702739 -20.11254332 297.22864919 -20.11276364 295.79027098 C-20.1132062 292.90460503 -20.11365331 290.01893908 -20.11410332 287.13327312 C-20.11421271 286.41779549 -20.1143221 285.70231786 -20.1144348 284.96515908 C-20.11806634 261.75993681 -20.13399026 238.55474577 -20.15729368 215.34953546 C-20.18188222 190.81981893 -20.19560921 166.29012026 -20.19680476 141.76039106 C-20.19697622 139.06838882 -20.19719165 136.37638658 -20.19743919 133.68438435 C-20.19749496 133.02153008 -20.19755073 132.35867581 -20.19760819 131.67573505 C-20.19868811 121.66398552 -20.2080558 111.65226546 -20.22162437 101.64052677 C-20.23700037 90.25486665 -20.24216059 78.86926005 -20.23388627 67.48359152 C-20.22997103 61.67216651 -20.23095198 55.86084936 -20.24494362 50.04943752 C-20.25762996 44.7316689 -20.25653149 39.41408978 -20.24435291 34.09632162 C-20.24238676 32.17035181 -20.2455164 30.24436882 -20.25419727 28.31841757 C-20.26523822 25.70375835 -20.25783807 23.08977404 -20.24580574 20.4751339 C-20.25340093 19.72458057 -20.26099613 18.97402724 -20.26882148 18.20072988 C-20.2069849 11.99112948 -18.96706955 7.22183506 -14.49886894 2.75363445 C-9.87632357 -0.10794125 -5.34090768 0.00309528 0 0 Z M6.12613106 26.12863445 C6.12613106 175.28863445 6.12613106 324.44863445 6.12613106 478.12863445 C130.20613106 478.12863445 254.28613106 478.12863445 382.12613106 478.12863445 C382.12613106 328.96863445 382.12613106 179.80863445 382.12613106 26.12863445 C258.04613106 26.12863445 133.96613106 26.12863445 6.12613106 26.12863445 Z " fill="#F4841A" transform="translate(61.87386894226074,3.871365547180176)"/>
<path d="M0 0 C1.15094147 -0.00708481 2.30188293 -0.01416962 3.48770142 -0.02146912 C5.36817421 -0.01775299 5.36817421 -0.01775299 7.28663635 -0.01396179 C8.62737817 -0.01831155 9.9681175 -0.02349558 11.30885315 -0.02944946 C14.94316964 -0.04282211 18.57738203 -0.0434201 22.21171832 -0.04088616 C25.24848326 -0.03981531 28.28522724 -0.04470272 31.32198769 -0.04949158 C38.487466 -0.06058068 45.65289189 -0.06102749 52.81837463 -0.05497742 C60.20462202 -0.04893675 67.59067895 -0.06125228 74.97689384 -0.08254749 C81.3243943 -0.10017345 87.67183419 -0.1061633 94.01935822 -0.10290974 C97.80784381 -0.10109838 101.59619352 -0.1037183 105.38465691 -0.11762428 C108.94783009 -0.13021436 112.51070671 -0.12824762 116.07387543 -0.11521339 C118.00021642 -0.11172639 119.92656653 -0.12301681 121.85287476 -0.13478088 C128.67511561 -0.09330495 133.89765557 0.03548571 139.05055237 5.01069641 C141.3543543 9.3757948 141.44410775 13.15549027 140.55055237 17.94819641 C139.2019789 21.35173897 138.08977299 23.01388622 135.23805237 25.26069641 C132.11163045 26.30283705 129.92147997 26.39404708 126.64068604 26.40786743 C124.89315536 26.41860039 124.89315536 26.41860039 123.11032104 26.42955017 C121.19101021 26.43358353 121.19101021 26.43358353 119.23292542 26.43769836 C117.87277554 26.44396435 116.51262738 26.45061127 115.15248108 26.45761108 C110.68492318 26.47863623 106.217365 26.48901137 101.74977112 26.49897766 C100.21109817 26.50302566 98.6724254 26.5071426 97.13375282 26.51132774 C89.90532883 26.53037528 82.67691503 26.54460775 75.44847077 26.55293971 C67.10693643 26.56271375 58.76566734 26.58903925 50.42422646 26.62944061 C43.97486639 26.65960503 37.52558235 26.67440885 31.0761531 26.67772073 C27.22497239 26.68007068 23.37407519 26.68902374 19.5229702 26.7141819 C15.89904829 26.73747394 12.27559634 26.74169166 8.65161896 26.73142052 C6.69182816 26.73068966 4.73206117 26.74977256 2.77236938 26.76948547 C-7.98712503 26.70581846 -7.98712503 26.70581846 -12.76194763 22.26069641 C-15.68657127 18.05126701 -15.39116967 13.18571826 -14.76194763 8.26069641 C-13.06806154 4.74745118 -11.98063546 2.86884091 -8.47753811 1.12073994 C-5.50157574 0.1782351 -3.11833399 0.00641511 0 0 Z " fill="#F4841A" transform="translate(252.76194763183594,400.7393035888672)"/>
<path d="M0 0 C1.15523163 -0.00571014 2.31046326 -0.01142029 3.5007019 -0.01730347 C4.774487 -0.01842133 6.04827209 -0.01953918 7.36065674 -0.02069092 C8.71080664 -0.02531845 10.06095523 -0.03034302 11.41110229 -0.03573608 C15.08482278 -0.04887054 18.75852498 -0.05530736 22.43226528 -0.05974674 C24.72754348 -0.06267649 27.02281667 -0.06678116 29.31809235 -0.07125092 C36.49953652 -0.08493015 43.68096926 -0.09459406 50.86242557 -0.09845281 C59.15185165 -0.10293127 67.44111265 -0.12046741 75.73048854 -0.1494534 C82.13736711 -0.1710786 88.54419927 -0.18115757 94.95111394 -0.18249393 C98.77766209 -0.18354159 102.60405516 -0.18944073 106.43056488 -0.20731354 C110.03225678 -0.22380825 113.63367728 -0.22594308 117.23539352 -0.21717453 C119.18324508 -0.21603854 121.13108768 -0.22974613 123.07888794 -0.243927 C133.82073716 -0.1926433 133.82073716 -0.1926433 138.56085205 3.14044189 C141.98852124 6.91087801 142.06938906 10.80814027 141.9163208 15.69903564 C141.38948664 19.31740216 139.98162719 21.45069174 137.56085205 24.14044189 C134.29783701 26.22555244 131.67608297 26.3951927 127.8432312 26.40786743 C126.67683609 26.4163974 125.51044098 26.42492737 124.30870056 26.43371582 C123.03275528 26.43280945 121.75681 26.43190308 120.44219971 26.43096924 C119.08190034 26.43695505 117.72160437 26.44376073 116.36131287 26.45132446 C112.66909768 26.46898639 108.9769752 26.47367992 105.28472185 26.47495604 C102.97702986 26.47637809 100.66936141 26.48064871 98.36167526 26.48595047 C90.30826064 26.50445141 82.25491222 26.51262101 74.20147705 26.51104736 C66.69875706 26.50984595 59.19632474 26.53094793 51.69367754 26.56253469 C45.2485321 26.5887007 38.80348059 26.59941453 32.35828245 26.59813654 C28.51048695 26.597627 24.66294713 26.60330569 20.81520462 26.62449265 C17.19535096 26.64388076 13.5759967 26.64399609 9.95612526 26.62945938 C7.99874576 26.62637694 6.04136618 26.64304378 4.08406067 26.66033936 C-6.72523443 26.58297055 -6.72523443 26.58297055 -11.43914795 22.14044189 C-14.47034437 17.59364726 -14.72044466 13.80009248 -13.81414795 8.45294189 C-11.11566765 1.95205753 -6.6321591 0.01957142 0 0 Z " fill="#F4841A" transform="translate(132.43914794921875,157.85955810546875)"/>
<path d="M0 0 C1.74753067 -0.01073296 1.74753067 -0.01073296 3.53036499 -0.02168274 C4.80990555 -0.02437164 6.08944611 -0.02706055 7.40776062 -0.02983093 C8.76791049 -0.03609692 10.12805866 -0.04274384 11.48820496 -0.04974365 C15.95576285 -0.0707688 20.42332103 -0.08114394 24.89091492 -0.09111023 C26.42958786 -0.09515823 27.96826063 -0.09927517 29.50693321 -0.10346031 C36.7353572 -0.12250785 43.963771 -0.13674032 51.19221526 -0.14507228 C59.5337496 -0.15484632 67.8750187 -0.18117182 76.21645957 -0.22157317 C82.66581965 -0.2517376 89.11510369 -0.26654142 95.56453294 -0.26985329 C99.41571365 -0.27220325 103.26661085 -0.28115631 107.11771584 -0.30631447 C110.74163775 -0.3296065 114.3650897 -0.33382422 117.98906708 -0.32355309 C119.94885787 -0.32282223 121.90862486 -0.34190512 123.86831665 -0.36161804 C134.62781107 -0.29795103 134.62781107 -0.29795103 139.40263367 4.14717102 C142.32725731 8.35660042 142.0318557 13.22214917 141.40263367 18.14717102 C139.70874757 21.66041626 138.6213215 23.53902652 135.11822414 25.28712749 C132.14226177 26.22963234 129.75902002 26.40145232 126.64068604 26.40786743 C125.48974457 26.41495224 124.3388031 26.42203705 123.15298462 26.42933655 C121.27251183 26.42562042 121.27251183 26.42562042 119.35404968 26.42182922 C118.01330787 26.42617898 116.67256854 26.43136302 115.33183289 26.43731689 C111.69751639 26.45068954 108.06330401 26.45128753 104.42896771 26.4487536 C101.39220277 26.44768274 98.35545879 26.45257015 95.31869835 26.45735902 C88.15322003 26.46844812 80.98779414 26.46889492 73.8223114 26.46284485 C66.43606402 26.45680418 59.05000708 26.46911971 51.66379219 26.49041492 C45.31629173 26.50804088 38.96885184 26.51403073 32.62132782 26.51077718 C28.83284223 26.50896582 25.04449251 26.51158574 21.25602913 26.52549171 C17.69285595 26.53808179 14.12997932 26.53611505 10.56681061 26.52308083 C8.64046961 26.51959383 6.71411951 26.53088425 4.78781128 26.54264832 C-5.89374978 26.47770957 -5.89374978 26.47770957 -10.59736633 23.14717102 C-13.32390031 19.66848973 -14.33347423 16.54537275 -14.59736633 12.14717102 C-13.66934953 7.25399149 -12.54792312 4.25973091 -8.59736633 1.14717102 C-5.47094442 0.10503038 -3.28079394 0.01382036 0 0 Z " fill="#F4841A" transform="translate(132.5973663330078,84.85282897949219)"/>
<path d="M0 0 C1.1496373 -0.00571014 2.2992746 -0.01142029 3.48374939 -0.01730347 C4.74615952 -0.01842133 6.00856964 -0.01953918 7.30923462 -0.02069092 C8.65130245 -0.02531991 9.99336897 -0.03034468 11.33543396 -0.03573608 C14.98216945 -0.04885345 18.62888653 -0.05530362 22.27564192 -0.05974674 C24.55399924 -0.06267825 26.83235154 -0.06678319 29.11070633 -0.07125092 C36.23928535 -0.08492347 43.36785288 -0.09459158 50.49644411 -0.09845281 C58.72531006 -0.10293454 66.95400998 -0.12048868 75.18282545 -0.1494534 C81.54384908 -0.17106657 87.90482599 -0.18115687 94.26588595 -0.18249393 C98.06500101 -0.18354213 101.86395994 -0.18945313 105.66303635 -0.20731354 C109.2368327 -0.22378825 112.81035547 -0.22595282 116.38417625 -0.21717453 C118.31909039 -0.21603667 120.25399543 -0.22975831 122.18885803 -0.243927 C123.92177345 -0.23557327 123.92177345 -0.23557327 125.68969727 -0.22705078 C126.69147696 -0.22851734 127.69325665 -0.2299839 128.7253933 -0.2314949 C132.99374968 0.34654773 135.62595695 2.38601255 138.78433228 5.20294189 C141.25017545 9.49533556 141.24588818 13.30259248 140.47183228 18.14044189 C138.41616745 22.25177155 136.73697933 24.48580656 132.47183228 26.14044189 C129.80996895 26.40050411 129.80996895 26.40050411 126.71624756 26.41459656 C124.95403366 26.42955925 124.95403366 26.42955925 123.15621948 26.44482422 C121.22827545 26.44582123 121.22827545 26.44582123 119.26138306 26.44683838 C117.89123076 26.45446166 116.52108274 26.46288945 115.15093994 26.47206116 C111.43187601 26.4939957 107.71289429 26.50280355 103.99377298 26.5078876 C101.66932991 26.51153222 99.34490835 26.5177728 97.02047348 26.52488899 C88.90870977 26.54937924 80.79700997 26.5624346 72.68521118 26.565979 C65.12790306 26.56961463 57.57100097 26.59951272 50.01381695 26.64138359 C43.52196237 26.67608904 37.03024235 26.69152748 30.53829563 26.69222504 C26.66248744 26.69301774 22.78709298 26.70175244 18.91138077 26.7302227 C15.26518767 26.7564085 11.61975118 26.75860659 7.97350693 26.74256706 C6.00179034 26.73988958 4.03008846 26.76193249 2.0585022 26.78475952 C-7.60684011 26.70481626 -7.60684011 26.70481626 -11.29943848 23.7389679 C-14.49948276 20.00796365 -15.42263599 17.01925539 -15.52816772 12.14044189 C-14.7734784 8.07076205 -13.51162067 5.09316194 -10.52816772 2.20294189 C-6.90578769 0.2785525 -4.03515525 0.01199093 0 0 Z " fill="#F4831A" transform="translate(133.52816772460938,230.85955810546875)"/>
</svg>
