<?xml version="1.0" encoding="UTF-8"?>
<svg version="1.1" xmlns="http://www.w3.org/2000/svg" width="512" height="512">
<path d="M0 0 C1.15316784 -0.00322445 2.30633568 -0.00644889 3.49444801 -0.00977105 C4.76203474 -0.00822245 6.02962147 -0.00667385 7.33561993 -0.00507832 C8.69526806 -0.00694625 10.05491566 -0.00924689 11.4145624 -0.01194364 C15.1545362 -0.01807024 18.89448767 -0.01792703 22.63446534 -0.01674926 C26.66660828 -0.01654547 30.69874401 -0.02206196 34.7308836 -0.02680683 C42.63218726 -0.03511877 50.53348346 -0.03786192 58.43479113 -0.03841921 C64.85673888 -0.03889413 71.27868417 -0.0409477 77.70063114 -0.04411983 C95.90292453 -0.05292807 114.10521202 -0.05753897 132.30750755 -0.05678936 C133.28911542 -0.0567494 134.27072328 -0.05670945 135.28207684 -0.05666828 C136.75628388 -0.05660696 136.75628388 -0.05660696 138.26027288 -0.0565444 C154.18882097 -0.05613793 170.11734542 -0.06570723 186.04588667 -0.07980665 C202.39619822 -0.09416534 218.74649823 -0.1010771 235.09681624 -0.10021287 C244.27826287 -0.09988072 253.45968472 -0.10263592 262.64112568 -0.11339092 C270.45849606 -0.12248927 278.27583044 -0.12467667 286.09320382 -0.1178815 C290.08187386 -0.11461286 294.0704748 -0.11457197 298.0591383 -0.12323475 C301.71150539 -0.13108556 305.3637484 -0.12968288 309.01611241 -0.12095062 C310.96127227 -0.11868457 312.90643593 -0.12625544 314.85158092 -0.13419026 C320.70456143 -0.11100605 325.90878682 -0.08642025 331.37362957 2.12863445 C336.39734465 7.41675559 336.51232004 11.24465972 336.47128582 18.29269695 C336.4691634 19.65350887 336.4691634 19.65350887 336.4669981 21.04181194 C336.46139053 23.94578601 336.44883675 26.8496836 336.43612957 29.75363445 C336.43111555 31.71977917 336.42655247 33.6859251 336.4224577 35.65207195 C336.41141863 40.47762235 336.39414892 45.30311543 336.37362957 50.12863445 C337.66986248 50.10768719 338.96609539 50.08673992 340.30160809 50.06515789 C345.13027089 49.99252555 349.95888578 49.94675015 354.78793621 49.90890789 C356.87428196 49.88884532 358.96057184 49.86158856 361.04672527 49.82687664 C364.05296935 49.77812286 367.05846726 49.75561178 370.06503582 49.73800945 C370.99135311 49.71736431 371.9176704 49.69671917 372.87205791 49.67544842 C378.89032557 49.67338311 382.59522784 50.33964747 387.37362957 54.12863445 C390.02574014 59.1832591 390.7489974 62.93810605 390.75115299 68.71991348 C390.75551331 69.45557025 390.75987364 70.19122701 390.76436609 70.9491764 C390.77529861 73.40978405 390.76490994 75.86982855 390.7545805 78.33043194 C390.75803785 80.11411384 390.76280293 81.89779361 390.76876223 83.6814689 C390.7812911 88.57960783 390.77509323 93.47757151 390.76580358 98.37571108 C390.75902123 103.6593362 390.76949024 108.94293099 390.77774334 114.2265501 C390.79109127 124.57558458 390.78819828 134.92455383 390.77950542 145.27359087 C390.77273383 153.68298969 390.77180988 162.09237021 390.77507687 170.50177097 C390.77553657 171.69804626 390.77599626 172.89432155 390.77646989 174.12684761 C390.77742906 176.55694649 390.77840169 178.98704536 390.77938767 181.41714423 C390.78794457 204.20999523 390.77810251 227.00281005 390.76198657 249.79565512 C390.74858141 269.36052377 390.75091255 288.92533903 390.76474285 308.49020672 C390.78079039 331.20233316 390.78712238 353.91442788 390.77790606 376.6265592 C390.7769504 379.04747736 390.77600728 381.46839553 390.77507687 383.8893137 C390.77461404 385.08050015 390.77415121 386.2716866 390.77367436 387.4989696 C390.77108212 395.90051156 390.77546048 404.30203343 390.78251553 412.70357227 C390.79092146 422.93892996 390.7886694 433.17421862 390.77267329 443.40956838 C390.76477865 448.63356138 390.76171935 453.85743919 390.77162075 459.08143139 C390.7805433 463.86118923 390.77567511 468.64072482 390.75968809 473.42046242 C390.75632996 475.15184019 390.75805746 476.88323664 390.76531546 478.61460245 C390.77441229 480.96440238 390.76510786 483.31343684 390.75115299 485.66319656 C390.75042241 487.62255751 390.75042241 487.62255751 390.74967706 489.62150151 C390.20626937 494.68948639 388.62201813 497.94426582 384.93612957 501.44113445 C380.89185748 504.10443559 377.52953848 504.25389038 372.74446583 504.25726891 C371.59068129 504.26049335 370.43689675 504.2637178 369.24814904 504.26703995 C367.97988018 504.26549135 366.71161133 504.26394275 365.40491009 504.26234722 C364.04454926 504.26421515 362.68418897 504.26651579 361.32382953 504.26921254 C357.58192513 504.27533912 353.84004303 504.27519594 350.09813476 504.27401817 C346.06396593 504.27381438 342.02980432 504.27933083 337.99563885 504.28407574 C330.09066018 504.29238748 322.18568897 504.29513081 314.2807063 504.29568812 C307.85636628 504.29616301 301.43202872 504.29821646 295.00768948 504.30138874 C276.80033043 504.31019664 258.59297727 504.31480789 240.38561608 504.31405827 C239.40374549 504.31401831 238.4218749 504.31397835 237.41025066 504.31393719 C236.42718366 504.31389631 235.44411665 504.31385543 234.43125974 504.31381331 C218.49556956 504.31340677 202.55990301 504.32297794 186.62421967 504.33707555 C170.26826289 504.35143099 153.91231764 504.3583462 137.5563544 504.35748178 C128.37102726 504.35714953 119.18572488 504.35990893 110.0004034 504.37065983 C102.18044258 504.37975387 94.36051775 504.38194911 86.54055394 504.3751504 C82.54998255 504.37187969 78.55948024 504.37184837 74.56891537 504.38050365 C70.91598377 504.38834523 67.26317632 504.38696131 63.61024784 504.37821952 C61.66236052 504.37594958 59.71446942 504.38353153 57.76659691 504.39145917 C56.60759688 504.38686037 55.44859684 504.38226158 54.25447559 504.37752342 C53.25646053 504.37774079 52.25844548 504.37795816 51.23018754 504.37818211 C44.97392205 503.83163748 41.48578034 501.82823533 37.37362957 497.12863445 C35.65560575 493.69258681 36.25396777 489.7442455 36.27597332 485.96457195 C36.27738827 485.05736401 36.27880322 484.15015606 36.28026104 483.21545696 C36.28586861 480.3114829 36.29842239 477.4075853 36.31112957 474.50363445 C36.31614359 472.53748973 36.32070667 470.5713438 36.32480145 468.60519695 C36.33584051 463.77964655 36.35311022 458.95415348 36.37362957 454.12863445 C35.07739666 454.14958172 33.78116375 454.17052898 32.44565105 454.19211102 C27.61698825 454.26474336 22.78837336 454.31051876 17.95932293 454.34836102 C15.87297718 454.36842359 13.7866873 454.39568035 11.70053387 454.43039227 C8.69428979 454.47914604 5.68879188 454.50165712 2.68222332 454.51925945 C1.75590603 454.53990459 0.82958874 454.56054974 -0.12479877 454.58182049 C-6.14306643 454.58388579 -9.8479687 453.91762143 -14.62637043 450.12863445 C-17.278481 445.07400981 -18.00173826 441.31916286 -18.00389385 435.53735542 C-18.00825417 434.80169866 -18.0126145 434.0660419 -18.01710695 433.3080925 C-18.02803947 430.84748486 -18.0176508 428.38744035 -18.00732136 425.92683697 C-18.01077871 424.14315507 -18.01554379 422.3594753 -18.02150309 420.5758 C-18.03403196 415.67766107 -18.02783409 410.7796974 -18.01854444 405.88155782 C-18.01176209 400.59793271 -18.0222311 395.31433791 -18.0304842 390.0307188 C-18.04383213 379.68168433 -18.04093914 369.33271508 -18.03224628 358.98367804 C-18.02547469 350.57427922 -18.02455074 342.16489869 -18.02781773 333.75549793 C-18.02827743 332.55922264 -18.02873712 331.36294735 -18.02921075 330.1304213 C-18.03016992 327.70032242 -18.03114255 325.27022354 -18.03212853 322.84012467 C-18.04068543 300.04727367 -18.03084337 277.25445885 -18.01472743 254.46161378 C-18.00132227 234.89674513 -18.00365341 215.33192987 -18.01748371 195.76706219 C-18.03353125 173.05493575 -18.03986324 150.34284102 -18.03064692 127.63070971 C-18.02969126 125.20979155 -18.02874814 122.78887338 -18.02781773 120.36795521 C-18.0273549 119.17676876 -18.02689207 117.98558231 -18.02641522 116.7582993 C-18.02382298 108.35675735 -18.02820134 99.95523548 -18.03525639 91.55369663 C-18.04366232 81.31833894 -18.04141026 71.08305029 -18.02541415 60.84770053 C-18.01751951 55.62370753 -18.01446021 50.39982972 -18.02436161 45.17583752 C-18.03328416 40.39607968 -18.02841597 35.61654409 -18.01242895 30.83680648 C-18.00907082 29.10542871 -18.01079832 27.37403227 -18.01805632 25.64266645 C-18.02715315 23.29286653 -18.01784872 20.94383206 -18.00389385 18.59407234 C-18.0034068 17.28783171 -18.00291974 15.98159108 -18.00241792 14.6357674 C-17.45901023 9.56778251 -15.87475899 6.31300308 -12.18887043 2.81613445 C-8.14546119 0.15340154 -4.7840324 0.00337963 0 0 Z M8.37362957 26.12863445 C8.37362957 158.78863445 8.37362957 291.44863445 8.37362957 428.12863445 C108.03362957 428.12863445 207.69362957 428.12863445 310.37362957 428.12863445 C310.37362957 295.46863445 310.37362957 162.80863445 310.37362957 26.12863445 C210.71362957 26.12863445 111.05362957 26.12863445 8.37362957 26.12863445 Z M336.37362957 76.12863445 C336.36776333 80.7403915 336.36189709 85.35214855 336.35585308 90.10365582 C336.30070812 132.36865785 336.23077006 174.63361487 336.14464329 216.89856554 C336.13337477 222.43497175 336.12223637 227.97137821 336.1111784 233.50778484 C336.10897471 234.61001014 336.10677103 235.71223544 336.10450057 236.84786151 C336.06910272 254.70825566 336.04425264 272.56864977 336.02328255 290.42906602 C336.0015403 308.74774933 335.96850491 327.06638701 335.92492801 345.38503152 C335.89838411 356.6937867 335.88070892 368.002485 335.87428353 379.3112698 C335.86903802 387.06014338 335.85284927 394.80894531 335.82796391 402.55778053 C335.81392018 407.03224868 335.80478879 411.50658848 335.80862141 415.98108006 C335.81202199 420.07520422 335.80172284 424.16905386 335.78039405 428.26312176 C335.77510895 429.74636781 335.77490922 431.22964224 335.78023394 432.71288814 C335.78672446 434.72545665 335.77308286 436.73806021 335.75839043 438.75058556 C335.75649182 439.86962137 335.75459322 440.98865718 335.75263709 442.14160317 C335.32234268 445.53283635 334.39218595 447.39335919 332.37362957 450.12863445 C327.11315192 453.86612229 321.83033384 453.55713045 315.62964153 453.52736187 C314.00486497 453.53733211 314.00486497 453.53733211 312.34726465 453.54750377 C308.71744835 453.5661573 305.087961 453.56352681 301.45810223 453.5610075 C298.85626032 453.57002319 296.25442268 453.58034992 293.65259075 453.59189129 C288.05089611 453.61466959 282.44926362 453.62656106 276.8475256 453.63102055 C268.74840932 453.63748397 260.64940537 453.66042469 252.55033438 453.68736384 C239.40958009 453.73062621 226.26883053 453.7605961 213.1280241 453.78219891 C200.36432857 453.80321024 187.60067175 453.83048669 174.83700848 453.86618328 C174.05001798 453.86838211 173.26302749 453.87058093 172.4521888 453.87284639 C168.50401751 453.88391608 164.55584657 453.89510888 160.60767579 453.90636289 C127.86302426 453.99954022 95.11836182 454.07032135 62.37362957 454.12863445 C62.37362957 462.04863445 62.37362957 469.96863445 62.37362957 478.12863445 C162.03362957 478.12863445 261.69362957 478.12863445 364.37362957 478.12863445 C364.37362957 345.46863445 364.37362957 212.80863445 364.37362957 76.12863445 C355.13362957 76.12863445 345.89362957 76.12863445 336.37362957 76.12863445 Z " fill="#696363" transform="translate(69.62637042999268,3.871365547180176)"/>
<path d="M0 0 C0.8278377 -0.00445784 1.65567541 -0.00891569 2.5085991 -0.01350862 C3.41792261 -0.01332426 4.32724611 -0.01313989 5.26412487 -0.01294994 C6.23025666 -0.01662663 7.19638845 -0.02030332 8.19179696 -0.02409142 C11.44371004 -0.03514411 14.69559119 -0.03897477 17.94752026 -0.04278088 C20.27317437 -0.04904424 22.59882748 -0.05569093 24.92447948 -0.0626936 C31.25301179 -0.08011307 37.58153653 -0.09065759 43.91008687 -0.09889913 C47.86153784 -0.10404644 51.81298646 -0.11012224 55.76443577 -0.11641026 C66.70452392 -0.13327968 77.64461 -0.14791533 88.58470917 -0.155159 C91.42325689 -0.15706888 94.2618046 -0.15898922 97.10035229 -0.16094494 C98.15861029 -0.16167055 98.15861029 -0.16167055 99.23824724 -0.16241082 C110.67010524 -0.17071333 122.10185867 -0.1960548 133.533671 -0.22852562 C145.27010585 -0.26159001 157.00648754 -0.27960713 168.74296921 -0.28280324 C175.33277636 -0.28515742 181.92241818 -0.29416614 188.51218128 -0.31926441 C194.70999891 -0.34248857 200.90754169 -0.34680103 207.1053915 -0.33650303 C209.38142656 -0.33600621 211.65747488 -0.3423694 213.93346882 -0.35605907 C217.03848558 -0.37369181 220.1425067 -0.36671385 223.24752331 -0.35352612 C224.15015465 -0.36449536 225.05278598 -0.37546461 225.98276979 -0.38676625 C231.59705845 -0.32911655 234.62237394 0.48585138 238.94629955 4.13422108 C241.86832572 8.33991192 241.58279308 13.21303945 240.94629955 18.13422108 C238.87925012 22.26831994 237.19563937 24.41160892 232.94629955 26.13422108 C230.93560797 26.38607007 230.93560797 26.38607007 228.76675797 26.38869667 C227.52108979 26.39744496 227.52108979 26.39744496 226.2502566 26.40636998 C225.34316382 26.40259066 224.43607103 26.39881134 223.50149059 26.39491749 C222.04995292 26.40065581 222.04995292 26.40065581 220.56909126 26.40651006 C217.31790078 26.41685075 214.06688655 26.41284585 210.81568432 26.40887928 C208.48825955 26.41322515 206.16083622 26.41840787 203.83341503 26.42436695 C197.50498954 26.43778136 191.17662368 26.43833292 184.84818673 26.43580365 C178.90232939 26.43460063 172.95648216 26.44080754 167.01062786 26.44623711 C154.5153766 26.45711541 142.02015232 26.45494876 129.52489953 26.44885226 C118.09244561 26.44368262 106.66007688 26.45493925 95.2276398 26.47395048 C83.49004214 26.49331962 71.75248481 26.50158653 60.01487106 26.49782723 C53.42459131 26.49601141 46.83438958 26.49868034 40.24412251 26.51254177 C34.0479593 26.52508612 27.85196702 26.52320814 21.65580654 26.51013088 C19.3793593 26.50775818 17.10290016 26.51052447 14.82646656 26.51875401 C11.7234748 26.52916434 8.62106267 26.52116657 5.51809216 26.50844288 C4.16079907 26.51950431 4.16079907 26.51950431 2.77608591 26.5307892 C-3.03575338 26.48051237 -6.43951599 25.56167808 -10.80370045 21.50922108 C-12.73101783 17.84731806 -13.18240455 14.25275227 -13.05370045 10.13422108 C-11.69504535 6.46585231 -10.14445978 3.58107222 -7.05370045 1.13422108 C-4.34364962 0.2308708 -2.78200668 0.00695375 0 0 Z " fill="#686262" transform="translate(115.05370044708252,289.86577892303467)"/>
<path d="M0 0 C0.97262976 -0.0055344 1.94525951 -0.01106879 2.9473629 -0.0167709 C6.20947118 -0.03039406 9.4708166 -0.01539871 12.73291016 -0.00050354 C15.07033616 -0.0042861 17.40775992 -0.00978561 19.74517822 -0.01687622 C26.09635001 -0.03085623 32.44725167 -0.01964297 38.79840851 -0.00316501 C44.7669086 0.00926703 50.73538098 0.00507612 56.70388961 0.00170528 C68.53066526 -0.00417292 80.35733444 0.00999664 92.18408203 0.03465271 C103.65938305 0.05857339 115.13454181 0.06565694 126.60986328 0.05516052 C139.10661056 0.04375029 151.60329204 0.04182254 164.10003853 0.05625862 C170.71488336 0.06380513 177.32967126 0.06768926 183.94451904 0.06175423 C190.16287685 0.05698771 196.38103734 0.0670729 202.5993576 0.08870888 C204.88386113 0.09428131 207.1683836 0.09473789 209.45288849 0.08975601 C212.56679428 0.08381623 215.68009417 0.09628372 218.79394531 0.11352539 C219.7020162 0.10751535 220.61008709 0.1015053 221.54567528 0.09531313 C226.32862508 0.14360462 229.50885365 0.40190741 233.39697266 3.50120544 C236.77260072 7.34243738 236.90979822 11.14127573 236.74853516 16.05979919 C236.22197763 19.71644867 234.88341004 21.81316503 232.39697266 24.50120544 C227.75572287 27.07972884 223.07586212 26.78367908 217.91456604 26.76190186 C216.95489251 26.7657274 215.99521897 26.76955295 215.00646442 26.77349442 C211.78835232 26.78381939 208.57041881 26.7798332 205.35229492 26.77586365 C203.04604934 26.78021038 200.73980521 26.7853934 198.43356323 26.79135132 C192.16711113 26.80475631 185.90071929 26.80531834 179.63425565 26.80278802 C174.40543472 26.80171938 169.17662604 26.80659889 163.94780773 26.81139344 C150.90859126 26.82312859 137.86940916 26.82226056 124.83019047 26.81583663 C113.5084063 26.81066709 102.18670816 26.82192398 90.86494101 26.84093485 C79.23691674 26.86031016 67.60893687 26.86827834 55.98089641 26.8648116 C49.45375659 26.86299667 42.92669557 26.86565591 36.39956856 26.87952614 C30.26248432 26.89207926 24.12557258 26.89018412 17.98849106 26.87711525 C15.73503881 26.87474449 13.48157451 26.87750196 11.22813606 26.88573837 C8.15401021 26.89616498 5.08046756 26.88813773 2.00636292 26.87542725 C1.11287771 26.88280153 0.21939251 26.89017582 -0.701168 26.89777356 C-6.57256974 26.8466382 -10.88848502 25.93493304 -15.41552734 21.87620544 C-17.25788385 18.19149243 -17.71718887 14.60388538 -17.60302734 10.50120544 C-14.48119609 1.30914677 -8.79419256 -0.09301948 0 0 Z " fill="#686262" transform="translate(119.60302734375,233.49879455566406)"/>
<path d="M0 0 C0.96461151 -0.0055344 1.92922302 -0.01106879 2.92306519 -0.0167709 C6.15209798 -0.03037325 9.38035732 -0.01541 12.609375 -0.00050354 C14.92562183 -0.00428685 17.2418664 -0.00978699 19.55810547 -0.01687622 C25.84730474 -0.03084636 32.13623091 -0.01964986 38.42541504 -0.00316501 C45.00496642 0.01067778 51.58450182 0.00422629 58.1640625 0.0007019 C69.21358478 -0.00273111 80.26300443 0.01139318 91.3125 0.03465271 C102.67712433 0.05857285 114.04160501 0.0656567 125.40625 0.05516052 C139.10713074 0.04252928 152.80791043 0.04504615 166.50878906 0.06081963 C171.73992464 0.06658042 176.97101214 0.06649598 182.20214844 0.06175423 C188.36142742 0.05698439 194.52050741 0.06708672 200.67974854 0.08870888 C202.94125701 0.09427677 205.2027846 0.09474203 207.46429443 0.08975601 C210.54933432 0.08380697 213.63376501 0.09630156 216.71875 0.11352539 C217.61544403 0.10751535 218.51213806 0.1015053 219.43600464 0.09531313 C224.49321975 0.14671767 227.97335462 0.70234791 232.359375 3.50120544 C235.78704419 7.27164156 235.86791201 11.16890382 235.71484375 16.05979919 C235.18800959 19.67816571 233.78015014 21.81145529 231.359375 24.50120544 C228.5427189 26.21023718 226.45637104 26.75171297 223.17983341 26.75568104 C221.93416524 26.76442933 221.93416524 26.76442933 220.66333205 26.77335435 C219.75623926 26.76957503 218.84914648 26.7657957 217.91456604 26.76190186 C216.46302837 26.76764018 216.46302837 26.76764018 214.98216671 26.77349442 C211.73097623 26.78383512 208.47996199 26.77983022 205.22875977 26.77586365 C202.901335 26.78020951 200.57391167 26.78539224 198.24649048 26.79135132 C191.91806499 26.80476573 185.58969912 26.80531729 179.26126218 26.80278802 C173.31540484 26.80158499 167.36955761 26.8077919 161.42370331 26.81322148 C148.92845204 26.82409978 136.43322777 26.82193313 123.93797498 26.81583663 C112.50552106 26.81066699 101.07315232 26.82192362 89.64071525 26.84093485 C77.90311759 26.86030399 66.16556026 26.86857089 54.42794651 26.8648116 C47.83766675 26.86299578 41.24746503 26.86566471 34.65719795 26.87952614 C28.46103475 26.89207048 22.26504247 26.8901925 16.06888199 26.87711525 C13.79243475 26.87474255 11.51597561 26.87750883 9.23954201 26.88573837 C6.13655025 26.8961487 3.03413812 26.88815094 -0.0688324 26.87542725 C-1.42612549 26.88648867 -1.42612549 26.88648867 -2.81083864 26.89777356 C-8.62267794 26.84749674 -12.02644054 25.92866244 -16.390625 21.87620544 C-18.3225072 18.20562926 -18.74825088 14.62686401 -18.640625 10.50120544 C-15.6557528 1.19542741 -8.68341414 -0.09301305 0 0 Z " fill="#696363" transform="translate(120.640625,345.49879455566406)"/>
<path d="M0 0 C1.3941362 -0.01073296 1.3941362 -0.01073296 2.81643677 -0.02168274 C3.83415665 -0.02437164 4.85187653 -0.02706055 5.9004364 -0.02983093 C7.51060638 -0.03968773 7.51060638 -0.03968773 9.15330505 -0.04974365 C12.71183845 -0.06948287 16.27032966 -0.08113994 19.8289032 -0.09111023 C21.04327749 -0.09518576 22.25765179 -0.09926128 23.5088253 -0.10346031 C29.93477077 -0.12432248 36.36069486 -0.13862429 42.78666687 -0.147995 C49.42808045 -0.15906707 56.06915152 -0.19347614 62.71046162 -0.23316669 C67.81397125 -0.25929209 72.91740067 -0.26768317 78.0209713 -0.27127647 C80.46940052 -0.27615199 82.91782593 -0.28779324 85.36618996 -0.30631447 C88.7919389 -0.33062099 92.21681541 -0.32975608 95.6426239 -0.32279968 C96.65427109 -0.33560974 97.66591827 -0.3484198 98.70822144 -0.36161804 C104.61493291 -0.31788647 107.96804287 0.2126701 112.46562195 4.14717102 C115.56180698 8.44187929 115.88645759 11.87900766 115.11405945 16.95967102 C114.02796695 20.62359752 112.22474253 22.51943714 109.46562195 25.14717102 C106.62073166 26.09546778 104.84383037 26.27887771 101.89328003 26.29434204 C100.95544174 26.30149734 100.01760345 26.30865265 99.05134583 26.31602478 C98.02427521 26.31871368 96.99720459 26.32140259 95.93901062 26.32417297 C94.85581039 26.33074417 93.77261017 26.33731537 92.65658569 26.34408569 C89.06558669 26.36382552 85.47462949 26.37548211 81.8835907 26.38545227 C80.65818384 26.3895278 79.43277699 26.39360332 78.17023659 26.39780235 C72.35460646 26.4165134 66.5389928 26.43107939 60.72333831 26.43941432 C54.68378405 26.44821384 48.64448093 26.4675159 42.60502625 26.50386047 C36.12412999 26.54224224 29.64346043 26.56109634 23.16245461 26.56561852 C20.6916969 26.57049423 18.22094297 26.58213605 15.75024986 26.60065651 C12.29337031 26.62496126 8.83735541 26.62409843 5.38041687 26.61714172 C4.35941895 26.62995178 3.33842102 26.64276184 2.28648376 26.65596008 C-3.63642875 26.61249848 -7.01651837 26.08467828 -11.53437805 22.14717102 C-14.28188594 18.14863649 -14.08723821 13.82972899 -13.53437805 9.14717102 C-12.05844288 5.91417016 -10.2684486 3.42556315 -7.53437805 1.14717102 C-4.69990498 0.20234666 -2.937936 0.01553875 0 0 Z " fill="#686262" transform="translate(178.5343780517578,89.85282897949219)"/>
</svg>
