<?xml version="1.0" encoding="UTF-8"?>
<svg version="1.1" xmlns="http://www.w3.org/2000/svg" width="512" height="512">
<path d="M0 0 C1.59338163 -0.00461199 3.18675901 -0.01096691 4.78012753 -0.01890898 C9.14773165 -0.03558453 13.5149855 -0.02736405 17.88259077 -0.0149641 C22.59705428 -0.00590867 27.31145784 -0.01988579 32.02590942 -0.03088379 C41.25721592 -0.0486683 50.48839232 -0.04482931 59.71970391 -0.03323323 C67.22231632 -0.02419892 74.72489226 -0.02297489 82.22750854 -0.02732849 C83.29540428 -0.02794142 84.36330002 -0.02855436 85.46355623 -0.02918586 C87.63298012 -0.03046477 89.802404 -0.03176162 91.97182786 -0.03307623 C112.31352779 -0.04448183 132.6551556 -0.03136862 152.9968437 -0.00987476 C170.45016173 0.00799619 187.90337334 0.00489208 205.35668945 -0.0135498 C225.62570352 -0.03495685 245.89465438 -0.04338319 266.16367817 -0.03110075 C268.32511202 -0.02982656 270.48654587 -0.02856907 272.64797974 -0.02732849 C274.24317118 -0.02640284 274.24317118 -0.02640284 275.87058872 -0.02545848 C283.36400777 -0.02200509 290.85738672 -0.02783371 298.35079956 -0.0372467 C307.4830435 -0.0484662 316.61514992 -0.04542763 325.74737811 -0.02412373 C330.40661485 -0.0136127 335.0656223 -0.00949243 339.72485733 -0.02272034 C343.99095888 -0.03464892 348.25661885 -0.02807409 352.5226804 -0.00681013 C354.06496467 -0.00234604 355.60728632 -0.00460605 357.1495465 -0.01431328 C373.12980322 -0.1071713 373.12980322 -0.1071713 378.43774414 4.50793457 C382.72063247 9.30399553 383.01145951 14.35828115 382.93894958 20.54750061 C382.94448398 21.43537905 382.95001838 22.32325749 382.95572048 23.23804134 C382.96929079 26.20142214 382.9543774 29.16395542 382.93945312 32.12731934 C382.94323758 34.25652422 382.94873867 36.38572664 382.95582581 38.5149231 C382.96978018 44.2896255 382.95861093 50.06402995 382.94211459 55.83871579 C382.928259 61.88307505 382.93472469 67.92741709 382.93824768 73.9717865 C382.94094918 84.12084757 382.92747854 94.26979032 382.90429688 104.41882324 C382.87768043 116.15285431 382.87594258 127.88668765 382.88768524 139.62073857 C382.89846332 150.90976654 382.89227615 162.19872299 382.87812996 173.48774529 C382.87237117 178.29184599 382.87245201 183.09589433 382.87719536 187.8999958 C382.88196672 193.55615944 382.87185663 199.21210648 382.85024071 204.86822891 C382.84467514 206.94429354 382.84420542 209.02037899 382.84919357 211.09644508 C382.85514736 213.92965467 382.84263927 216.76220223 382.82542419 219.59535217 C382.83443926 220.82847801 382.83443926 220.82847801 382.84363645 222.08651549 C382.78973784 226.96249808 382.09755708 230.26683286 379.43774414 234.50793457 C374.23562192 239.56945889 368.86447377 240.75707004 361.75596809 240.76241016 C361.10648305 240.76561664 360.45699801 240.76882312 359.7878316 240.77212676 C357.61441478 240.78041927 355.44127406 240.77450522 353.26785278 240.76863098 C351.69270041 240.77165201 350.1175495 240.77554125 348.54240119 240.78022355 C344.21597574 240.79051857 339.889633 240.7883179 335.56320071 240.78404295 C330.89643376 240.78157846 326.22968688 240.79058646 321.56292725 240.79808044 C312.42095053 240.81083722 303.27900317 240.81261991 294.13701905 240.81028018 C286.70683012 240.80849793 279.27665011 240.81024466 271.84646225 240.81450462 C270.78939698 240.81509981 269.73233171 240.815695 268.64323416 240.81630823 C266.49587521 240.81751996 264.34851626 240.8187341 262.20115732 240.8199506 C242.05787643 240.83082994 221.91461229 240.8286618 201.77133046 240.82256576 C183.34102841 240.8173964 164.9107792 240.82865184 146.4804876 240.84766398 C127.55932638 240.86703295 108.63819017 240.87530002 89.71701896 240.87154073 C79.0930068 240.86962723 68.46903963 240.87213065 57.84503555 240.88625526 C48.80060505 240.89815805 39.75624722 240.89958634 30.71181573 240.8874651 C26.09717849 240.88156864 21.48267426 240.88049816 16.86804581 240.8924675 C12.64264894 240.9032999 8.41749655 240.9002545 4.19211124 240.88620581 C2.66456763 240.88355159 1.13700503 240.88594818 -0.39051996 240.89394168 C-17.78634397 240.97864596 -17.78634397 240.97864596 -23.10332477 236.09142762 C-27.64140779 230.94543582 -27.710879 226.50004308 -27.70942688 219.95611572 C-27.71310357 219.07236055 -27.71678026 218.18860537 -27.72056836 217.27806973 C-27.73161666 214.30488084 -27.73545098 211.33172687 -27.73925781 208.35852051 C-27.74552156 206.23153065 -27.75216828 204.10454188 -27.75917053 201.97755432 C-27.77658758 196.19026025 -27.78713408 190.40297445 -27.79537606 184.61566067 C-27.8005244 181.00123132 -27.80660019 177.38680455 -27.81288719 173.77237701 C-27.83194067 162.46734857 -27.84617185 151.16232668 -27.85449916 139.85728526 C-27.86427514 126.80057178 -27.89060357 113.74402767 -27.93100005 100.68737388 C-27.96114115 90.59981254 -27.97596611 80.5122998 -27.97928017 70.4246943 C-27.9816328 64.39767463 -27.99062118 58.37083587 -28.01574135 52.34386444 C-28.03899204 46.67379506 -28.04326726 41.0040261 -28.03297997 35.33392143 C-28.03248378 33.25342498 -28.03882853 31.17291389 -28.05253601 29.09246254 C-28.07021236 26.25051018 -28.06316956 23.40964092 -28.05000305 20.56768799 C-28.0609723 19.74578846 -28.07194154 18.92388893 -28.08324319 18.07708335 C-28.02340707 12.72179144 -27.20833379 8.5875201 -23.56225586 4.50793457 C-17.06325392 -1.14222501 -8.07316344 -0.05081376 0 0 Z M57.43774414 35.50793457 C57.43774414 40.45793457 57.43774414 45.40793457 57.43774414 50.50793457 C54.6727985 62.56309757 49.98371636 71.67746844 39.84399414 79.03918457 C29.077225 85.61110859 20.43393225 85.50793457 7.43774414 85.50793457 C7.43774414 108.27793457 7.43774414 131.04793457 7.43774414 154.50793457 C10.40774414 154.50793457 13.37774414 154.50793457 16.43774414 154.50793457 C29.99388242 155.560381 40.39040539 160.15029158 49.43774414 170.50793457 C56.4008865 181.44179447 57.43569894 190.48134695 58.43774414 203.50793457 C137.30774414 203.50793457 216.17774414 203.50793457 297.43774414 203.50793457 C297.43774414 198.55793457 297.43774414 193.60793457 297.43774414 188.50793457 C300.44148583 175.41162082 305.90459263 165.75954823 317.43774414 158.50793457 C327.69059519 153.0308415 335.01628202 153.50793457 347.43774414 153.50793457 C347.43774414 131.06793457 347.43774414 108.62793457 347.43774414 85.50793457 C342.15774414 85.50793457 336.87774414 85.50793457 331.43774414 85.50793457 C319.00945767 82.46178593 309.21492601 76.59295279 302.43774414 65.50793457 C297.53640831 55.48111646 297.20660278 47.04081409 296.43774414 35.50793457 C217.56774414 35.50793457 138.69774414 35.50793457 57.43774414 35.50793457 Z " fill="#197422" transform="translate(78.562255859375,84.4920654296875)"/>
<path d="M0 0 C112.86 0 225.72 0 342 0 C342 25.7109375 342 25.7109375 337.5 30.64453125 C333.06927525 34.09449662 330.22119917 35.12424665 324.68129253 35.13142776 C323.57129979 35.13526891 322.46130704 35.13911005 321.31767815 35.1430676 C320.09318784 35.14220112 318.86869752 35.14133463 317.60710144 35.14044189 C316.31020191 35.14341302 315.01330238 35.14638414 313.67710286 35.1494453 C310.06976017 35.15752402 306.46243736 35.15930535 302.85508668 35.16004276 C298.96745733 35.16189179 295.07983834 35.16943835 291.19221497 35.17617798 C282.68813016 35.18976784 274.18405006 35.19578699 265.6799562 35.20018864 C260.37167686 35.20294986 255.06339934 35.20718698 249.75512123 35.21169281 C235.06285688 35.22388614 220.370594 35.23418545 205.6783247 35.2375679 C204.73773906 35.23778747 203.79715341 35.23800703 202.82806518 35.23823325 C201.41378057 35.23856067 201.41378057 35.23856067 199.97092456 35.2388947 C198.06028759 35.23933817 196.14965063 35.23978473 194.23901367 35.24023438 C193.29126854 35.2404558 192.34352341 35.24067723 191.36705873 35.24090537 C176.00681408 35.24485421 160.64661684 35.26231057 145.28639051 35.2855939 C129.52259168 35.30929644 113.75881665 35.32176925 97.99499971 35.32293582 C89.14163622 35.32385318 80.28833451 35.32962081 71.43498802 35.34775543 C63.89679432 35.36314159 56.35868148 35.36828567 48.82047506 35.36001733 C44.97366878 35.35610559 41.12702543 35.35706583 37.28023911 35.37107468 C33.11132433 35.38611793 28.94277812 35.37796269 24.77384949 35.36749268 C23.55605134 35.37554908 22.33825319 35.38360548 21.08355206 35.39190602 C14.49368106 35.35305685 9.45340219 35.14989654 4.35546875 30.5 C-3.46366931 20.45803005 0 16.50335127 0 0 Z " fill="#197422" transform="translate(85,358)"/>
<path d="M0 0 C84.81 0 169.62 0 257 0 C257 22 257 22 253 30 C249.21367751 33.60162383 246.20208723 35.12103009 240.99594498 35.13422108 C240.17917416 35.13867892 239.36240334 35.14313676 238.52088189 35.14772969 C237.62391335 35.14754533 236.72694481 35.14736097 235.80279541 35.14717102 C234.84961984 35.15084771 233.89644428 35.1545244 232.9143846 35.1583125 C229.70626403 35.16936462 226.49817584 35.17319576 223.29003906 35.17700195 C220.99556373 35.1832654 218.70108941 35.1899121 216.40661621 35.19691467 C210.16272486 35.21433433 203.91884116 35.2248789 197.67493153 35.2331202 C193.77573577 35.2382679 189.8765424 35.24434371 185.97734833 35.25063133 C175.18052021 35.26750142 164.38369578 35.28213662 153.58685684 35.28938007 C150.78544361 35.29128994 147.98403039 35.29321028 145.18261719 35.29516602 C144.13821042 35.29589163 144.13821042 35.29589163 143.07270452 35.2966319 C131.79348475 35.30493227 120.51437103 35.3302698 109.23519757 35.36274669 C97.65356765 35.39582246 86.07199709 35.41349653 74.49031997 35.41702431 C67.98822939 35.41937749 61.48630645 35.42837306 54.98426056 35.45348549 C48.86769557 35.47672728 42.75140907 35.48101495 36.6348114 35.47072411 C34.38983485 35.47022771 32.14484477 35.47657869 29.89990997 35.49028015 C26.83465124 35.50794156 23.77039819 35.50092071 20.70513916 35.48774719 C19.37307068 35.50420106 19.37307068 35.50420106 18.01409173 35.52098733 C12.17704021 35.46043728 8.68331641 34.58615299 4 31 C0 24 0 24 0 0 Z " fill="#1A7423" transform="translate(126,426)"/>
<path d="M0 0 C10.73400941 7.93383304 18.56234355 18.40210887 21.24609375 31.66015625 C23.61527007 47.8467665 21.13880261 62.93653427 11.2421875 76.3828125 C3.00002319 86.15840273 -8.26611106 93.71870616 -21.23974609 94.88330078 C-38.6417386 95.8708894 -51.99281189 93.24997165 -65.78515625 82.00390625 C-76.63231156 71.91795482 -81.47035518 57.80712779 -82.06640625 43.28515625 C-81.64992146 28.94246114 -76.44271445 16.15636513 -66.75390625 5.66015625 C-48.53250695 -11.04279311 -20.78587247 -13.30147632 0 0 Z " fill="#197422" transform="translate(285.75390625,161.33984375)"/>
</svg>
