<?xml version="1.0" encoding="UTF-8"?>
<svg version="1.1" xmlns="http://www.w3.org/2000/svg" width="512" height="512">
<path d="M0 0 C1.53450793 -0.00417831 3.06901277 -0.00965854 4.60351193 -0.01631981 C8.79919869 -0.03072805 12.99468824 -0.02654422 17.19038558 -0.019153 C21.72356094 -0.01441214 26.2566942 -0.02693929 30.78985596 -0.03717041 C39.66259329 -0.05434584 48.53525976 -0.05520101 57.4080094 -0.04995751 C64.62163438 -0.04591219 71.83523847 -0.04736366 79.04886246 -0.05270576 C80.59028467 -0.0538284 80.59028467 -0.0538284 82.16284672 -0.05497371 C84.25060661 -0.05650523 86.3383665 -0.05804357 88.42612638 -0.05958868 C107.99442155 -0.07330921 127.56267671 -0.06787919 147.13097097 -0.05640347 C165.02161346 -0.04647183 182.91215252 -0.05941136 200.80277906 -0.08333766 C219.18620609 -0.10773721 237.56958495 -0.1173344 255.95302784 -0.11068493 C266.26860062 -0.10719459 276.58409387 -0.10941261 286.89965439 -0.12693596 C295.68112349 -0.14166863 304.46245705 -0.14227942 313.24392353 -0.12486505 C317.72140371 -0.11636144 322.19864185 -0.11418984 326.67610931 -0.1295166 C330.78073443 -0.14339277 334.88491084 -0.13856322 338.98951019 -0.11927737 C340.46855234 -0.11552599 341.94763068 -0.11841431 343.4266405 -0.12888902 C359.32709185 -0.23342725 370.82535548 3.86332431 382.50564575 14.70018005 C393.26287724 26.06631144 395.21061424 38.50996143 395.14332581 53.6320343 C395.14750411 55.16654223 395.15298435 56.70104707 395.15964562 58.23554623 C395.17405385 62.43123299 395.16987003 66.62672254 395.1624788 70.82241988 C395.15773795 75.35559524 395.1702651 79.8887285 395.18049622 84.42189026 C395.19767165 93.29462759 395.19852682 102.16729406 395.19328331 111.0400437 C395.189238 118.25366868 395.19068947 125.46727277 395.19603157 132.68089676 C395.19677999 133.70851157 395.19752841 134.73612637 395.19829952 135.79488102 C395.19983103 137.88264091 395.20136938 139.9704008 395.20291448 142.05816068 C395.21663502 161.62645585 395.211205 181.19471102 395.19972927 200.76300527 C395.18979764 218.65364776 395.20273717 236.54418683 395.22666346 254.43481337 C395.25106302 272.81824039 395.2606602 291.20161926 395.25401074 309.58506215 C395.25052039 319.90063493 395.25273841 330.21612817 395.27026176 340.53168869 C395.28499444 349.31315779 395.28560523 358.09449136 395.26819085 366.87595783 C395.25968724 371.35343801 395.25751565 375.83067616 395.27284241 380.30814362 C395.28671858 384.41276873 395.28188903 388.51694514 395.26260317 392.6215445 C395.2588518 394.10058664 395.26174011 395.57966499 395.27221482 397.0586748 C395.37675305 412.95912615 391.2800015 424.45738978 380.44314575 436.13768005 C369.07701437 446.89491154 356.63336438 448.84264854 341.5112915 448.77536011 C339.97678357 448.77953841 338.44227874 448.78501865 336.90777957 448.79167992 C332.71209282 448.80608815 328.51660327 448.80190433 324.32090592 448.79451311 C319.78773056 448.78977225 315.2545973 448.8022994 310.72143555 448.81253052 C301.84869822 448.82970595 292.97603174 448.83056112 284.10328211 448.82531761 C276.88965712 448.8212723 269.67605304 448.82272377 262.46242905 448.82806587 C260.92100684 448.82918851 260.92100684 448.82918851 259.34844478 448.83033382 C257.26068489 448.83186533 255.17292501 448.83340368 253.08516513 448.83494879 C233.51686996 448.84866932 213.94861479 448.8432393 194.38032053 448.83176357 C176.48967804 448.82183194 158.59913898 448.83477147 140.70851244 448.85869776 C122.32508542 448.88309732 103.94170655 448.89269451 85.55826366 448.88604504 C75.24269088 448.88255469 64.92719763 448.88477271 54.61163712 448.90229607 C45.83016801 448.91702874 37.04883445 448.91763953 28.26736797 448.90022516 C23.7898878 448.89172154 19.31264965 448.88954995 14.83518219 448.90487671 C10.73055707 448.91875288 6.62638066 448.91392333 2.52178131 448.89463747 C1.04273916 448.8908861 -0.43633918 448.89377442 -1.91534899 448.90424912 C-17.81580035 449.00878735 -29.31406398 444.9120358 -40.99435425 434.07518005 C-51.75158574 422.70904867 -53.69932273 410.26539868 -53.6320343 395.14332581 C-53.63621261 393.60881788 -53.64169284 392.07431304 -53.64835411 390.53981388 C-53.66276235 386.34412712 -53.65857853 382.14863757 -53.6511873 377.95294023 C-53.64644644 373.41976486 -53.65897359 368.8866316 -53.66920471 364.35346985 C-53.68638015 355.48073252 -53.68723532 346.60806605 -53.68199181 337.73531641 C-53.67794649 330.52169142 -53.67939796 323.30808734 -53.68474007 316.09446335 C-53.68548849 315.06684854 -53.68623691 314.03923373 -53.68700801 312.98047908 C-53.68853953 310.89271919 -53.69007787 308.80495931 -53.69162298 306.71719943 C-53.70534351 287.14890426 -53.6999135 267.58064909 -53.68843777 248.01235484 C-53.67850614 230.12171234 -53.69144566 212.23117328 -53.71537196 194.34054674 C-53.73977152 175.95711972 -53.7493687 157.57374085 -53.74271923 139.19029796 C-53.73922889 128.87472518 -53.74144691 118.55923193 -53.75897026 108.24367142 C-53.77370294 99.46220231 -53.77431373 90.68086875 -53.75689935 81.89940228 C-53.74839574 77.4219221 -53.74622415 72.94468395 -53.7615509 68.46721649 C-53.77542707 64.36259138 -53.77059752 60.25841497 -53.75131167 56.15381561 C-53.7475603 54.67477347 -53.75044861 53.19569512 -53.76092332 51.71668531 C-53.86546155 35.81623396 -49.76870999 24.31797033 -38.93185425 12.63768005 C-27.56572286 1.88044856 -15.12207287 -0.06728843 0 0 Z M121.81814575 90.88768005 C121.12849731 91.16611755 120.43884888 91.44455505 119.728302 91.73143005 C116.1904828 94.70179707 115.00620771 99.25915443 114.47956586 103.73298073 C114.37070508 106.37135552 114.35566116 108.99442693 114.37469482 111.63499451 C114.37001485 112.64073926 114.36533488 113.64648401 114.36051309 114.68270588 C114.34858647 118.0389268 114.35801142 121.39473765 114.36746216 124.7509613 C114.36339544 127.16277809 114.35805299 129.57459302 114.35153198 131.98640442 C114.339283 137.84881998 114.34106138 143.71112977 114.34976991 149.57354236 C114.35655576 154.33969235 114.35745928 159.10581006 114.35419846 163.8719635 C114.35373876 164.55130866 114.35327906 165.23065383 114.35280543 165.93058521 C114.35184621 167.31082909 114.35087357 168.69107297 114.34988765 170.07131684 C114.34134096 183.00209629 114.35115655 195.93281185 114.36728875 208.86358082 C114.38069129 219.94944536 114.378363 231.03521565 114.36453247 242.12107849 C114.3484639 255.0068107 114.34216487 267.89248697 114.35136926 280.77822781 C114.35232487 282.15328406 114.35326798 283.52834033 114.35419846 284.90339661 C114.35466128 285.57988213 114.35512411 286.25636766 114.35560096 286.95335275 C114.35818702 291.7116371 114.35382815 296.46988584 114.3467598 301.22816467 C114.33744853 307.63696387 114.34411463 314.04562713 114.36144257 320.45441055 C114.3654067 322.80538767 114.36427463 325.15637978 114.35765457 327.50735092 C114.34944641 330.71855737 114.35975248 333.92919528 114.37469482 337.1403656 C114.36800266 338.06877919 114.36131049 338.99719278 114.35441554 339.95374012 C114.40679059 345.76422672 115.32722477 350.08679192 117.75564575 355.38768005 C120.1226508 357.66206316 122.57972639 358.6143614 125.75564575 359.38768005 C137.07892871 358.75860878 146.79966781 344.493013 154.39993286 336.88865662 C155.52933482 335.76225459 156.65893877 334.63605507 157.78872681 333.51004028 C160.82577051 330.48174693 163.85964381 327.45029732 166.89263606 324.41794682 C168.79071033 322.52058713 170.68949645 320.62394281 172.5885334 318.72754669 C179.22105603 312.10424134 185.8510257 305.47839303 192.47854614 298.8500824 C198.64754083 292.68048495 204.82211505 286.51651046 210.99927896 280.35509324 C216.31685376 275.05058972 221.63057043 269.74224231 226.94129378 264.43087935 C230.10740566 261.26451276 233.27504439 258.09971185 236.44657707 254.93877411 C239.42318469 251.97184275 242.3949597 249.00015488 245.36309052 246.02474403 C246.4517911 244.93499767 247.54219816 243.84695304 248.63443947 242.76075554 C250.12641365 241.27650372 251.61207093 239.78619781 253.09632874 238.29423523 C253.92862472 237.46248402 254.7609207 236.6307328 255.61843777 235.77377701 C259.33658232 231.62263521 261.49283504 228.21908502 261.21691322 222.46353531 C259.30071196 213.83999969 249.31964391 206.65491325 243.27761841 200.61912537 C242.11691793 199.4524311 240.95662528 198.28533097 239.79670715 197.11785889 C236.66303833 193.96661674 233.52299921 190.82179944 230.38117266 187.67869282 C228.41573686 185.71183078 226.45173396 183.74354951 224.48823166 181.77475739 C217.6305927 174.89865205 210.76784382 168.02769532 203.900177 161.16160583 C197.50966289 154.77229458 191.13040414 148.37189643 184.75628817 141.96622968 C179.27109372 136.45485893 173.77819024 130.95125224 168.27925336 125.45359302 C165.0002947 122.17514326 161.72448815 118.89369154 158.45640945 115.60439301 C155.38394109 112.51251774 152.3019573 109.43045105 149.21251869 106.35553551 C148.08358534 105.22868776 146.95802726 104.09844625 145.83621407 102.96450996 C137.76617432 94.80327521 137.76617432 94.80327521 127.75564575 89.38768005 C125.39529265 89.38768005 123.98376982 89.95206593 121.81814575 90.88768005 Z " fill="#686262" transform="translate(85.24435424804688,31.612319946289063)"/>
</svg>
