<?xml version="1.0" encoding="UTF-8"?>
<svg version="1.1" xmlns="http://www.w3.org/2000/svg" width="512" height="512">
<path d="M0 0 C3.63195687 2.52657869 5.30264983 5.32478298 6.39453125 9.578125 C7.40931097 16.00177915 6.12124367 19.7478685 2.796875 25.25 C0.80219144 27.76072247 -1.41386594 29.98994434 -3.70021057 32.23483276 C-4.3507964 32.88954186 -5.00138223 33.54425095 -5.67168278 34.21879971 C-7.84018402 36.3961855 -10.02260566 38.55903979 -12.20532227 40.72216797 C-13.76837935 42.28573414 -15.33056227 43.85017461 -16.89193726 45.41542053 C-21.12448963 49.65338375 -25.3693273 53.87884228 -29.61663175 58.10201406 C-34.05971874 62.52378739 -38.49184267 66.95652314 -42.92527771 71.38796997 C-50.36764182 78.82389081 -57.8173024 86.25244579 -65.2722168 93.67578125 C-72.94225898 101.31335976 -80.6066597 108.95653628 -88.2644043 116.60644531 C-88.73658949 117.07814502 -89.20877468 117.54984472 -89.69526852 118.03583835 C-91.59327507 119.93191615 -93.49127331 121.82800226 -95.38925311 123.72410684 C-103.13211702 131.45898596 -110.87961765 139.18921973 -118.62767673 146.91889429 C-121.27277477 149.55792357 -123.91740909 152.197417 -126.56204414 154.83691025 C-130.71185294 158.97794707 -134.8644114 163.11620762 -139.01914597 167.25230217 C-140.54583719 168.77286381 -142.07168868 170.29426909 -143.59665108 171.81656456 C-145.67312957 173.88907036 -147.75264628 175.9584775 -149.83302307 178.02706909 C-150.44021685 178.63444723 -151.04741062 179.24182537 -151.67300421 179.8676089 C-156.43677979 184.59328356 -159.40768577 186.79697072 -166.203125 187.25 C-172.54822691 186.10417947 -175.67423816 183.49397102 -180.02301025 179.05830383 C-180.6720758 178.41633267 -181.32114135 177.77436151 -181.98987556 177.11293668 C-184.15665183 174.96372944 -186.30514745 172.7971433 -188.45410156 170.63012695 C-190.00585486 169.08351284 -191.55867774 167.53797123 -193.11248779 165.99342346 C-197.32628464 161.79814908 -201.5241851 157.58729518 -205.71888447 153.37293649 C-210.11127158 148.96416752 -214.5162434 144.5680034 -218.91937256 140.16996765 C-226.31217868 132.7816832 -233.69477962 125.38331201 -241.07128906 117.97875977 C-248.65537016 110.36584727 -256.25023113 102.76389496 -263.85644531 95.1730957 C-273.02940245 86.01870333 -282.19214525 76.85420924 -291.34630585 67.68102074 C-294.84016776 64.18028831 -298.33794772 60.68354096 -301.83893585 57.18993568 C-305.96195751 53.07457864 -310.07494972 48.9494517 -314.18042755 44.81659508 C-315.68827072 43.3018688 -317.19951779 41.79052218 -318.71440125 40.28283691 C-320.78272707 38.22320845 -322.83832081 36.15164832 -324.89117432 34.07661438 C-325.49243078 33.48359868 -326.09368725 32.89058298 -326.71316361 32.2795971 C-330.84267553 28.06744234 -333.88289931 23.88892828 -334.41796875 17.80859375 C-333.56127 11.25665825 -331.61973409 7.2369897 -326.390625 2.9375 C-322.20080993 0.71936261 -318.83965007 -0.31335695 -314.10050493 0.69927531 C-308.42617953 2.45771186 -304.87310437 4.7211558 -300.76792908 8.96366882 C-300.18445837 9.54201298 -299.60098766 10.12035714 -298.99983603 10.71622688 C-297.06471959 12.64152635 -295.15172159 14.58735032 -293.23803711 16.53393555 C-291.84885431 17.92481218 -290.4583462 19.3143662 -289.06661987 20.70269775 C-285.30372118 24.46387872 -281.55957769 28.24323809 -277.81857753 32.02618384 C-273.9015908 35.98074062 -269.9675457 39.91825302 -266.03529358 43.85762024 C-258.596767 51.31477705 -251.17366431 58.78709277 -243.75600773 66.26500303 C-235.30835176 74.77978029 -226.84360229 83.27747686 -218.37738788 91.77379549 C-200.96690685 109.24695036 -183.5779565 126.74140089 -166.203125 144.25 C-162.10198047 142.62650726 -159.36816992 139.6766486 -156.33364868 136.59411621 C-155.75051639 136.00987051 -155.1673841 135.4256248 -154.56658113 134.82367468 C-152.6120378 132.86305501 -150.66474271 130.89539053 -148.71728516 128.92773438 C-147.31804064 127.52137804 -145.918325 126.11549031 -144.51817322 124.71003723 C-141.50288172 121.68163923 -138.49062742 118.65026306 -135.48057938 115.61665344 C-130.72142272 110.8209411 -125.95360538 106.03390386 -121.18417358 101.24841309 C-107.62277923 87.63869243 -94.0731449 74.01729926 -80.53222656 60.38720703 C-73.0544117 52.86030081 -65.56943175 45.340594 -58.07668722 37.82854891 C-53.33332295 33.07209282 -48.59911918 28.30675867 -43.87146401 23.53469086 C-40.92866615 20.56844133 -37.9775482 17.61058073 -35.02400398 14.65503502 C-33.65553373 13.28226784 -32.29051053 11.90605447 -30.92920876 10.52617836 C-29.07078419 8.64338347 -27.2004129 6.77331447 -25.3265686 4.90588379 C-24.79036852 4.35666811 -24.25416845 3.80745242 -23.70171988 3.24159384 C-16.76148177 -3.60661736 -8.47893834 -4.7324307 0 0 Z " fill="#F75959" transform="translate(419.203125,87.75)"/>
<path d="M0 0 C4.67169236 3.41686392 7.28410907 7.26081054 8.1875 13 C8.74100736 18.55383658 5.96698674 23.52127927 2.5841924 27.78414607 C0.92731615 29.58135915 -0.77940097 31.30815215 -2.52159119 33.02279663 C-3.17484943 33.68158928 -3.82810768 34.34038192 -4.50116163 35.01913798 C-6.67880754 37.21032878 -8.87037475 39.38702092 -11.06225586 41.56396484 C-12.63190528 43.13739955 -14.20069562 44.71169166 -15.76869202 46.28677368 C-20.01976532 50.5517883 -24.28328129 54.80415793 -28.54957271 59.05394316 C-33.01382878 63.50433599 -37.46791041 67.96489167 -41.92347717 72.42398071 C-49.40415008 79.90735402 -56.89282453 87.38265459 -64.38647461 94.85302734 C-72.09393436 102.5365484 -79.79290003 110.22845741 -87.4831543 117.92919922 C-96.75893712 127.21760922 -106.04226043 136.49842549 -115.33224678 145.7726326 C-118.87831649 149.31294056 -122.42144454 152.8561547 -125.96226311 156.40171432 C-130.12913025 160.57334804 -134.30334991 164.73748211 -138.48340416 168.89590073 C-140.01745802 170.42438315 -141.54896247 171.9554291 -143.07773972 173.48918915 C-145.16211802 175.57950881 -147.25547752 177.66039564 -149.35142517 179.73910522 C-150.25931373 180.65600885 -150.25931373 180.65600885 -151.18554348 181.59143579 C-154.83401168 185.18538713 -157.89608584 187.68236426 -163.17578125 188.22265625 C-175.25318348 187.31740307 -184.67817886 173.49715336 -192.8137207 165.39501953 C-194.30738609 163.91090572 -195.801221 162.42696251 -197.29521179 160.94317627 C-202.17596388 156.09363041 -207.05132264 151.23868309 -211.92578125 146.3828125 C-212.75669777 145.55519331 -213.58761428 144.72757411 -214.44371009 143.87487555 C-222.28431818 136.06501667 -230.1228982 128.25312766 -237.95663166 120.43637276 C-247.95922927 110.45571509 -257.97176729 100.48526522 -267.99804622 90.52839577 C-275.05921246 83.51445542 -282.10886332 76.48907194 -289.15008801 69.45511329 C-293.35182692 65.2583282 -297.55846767 61.06674752 -301.77755165 56.88739395 C-305.74286726 52.958937 -309.69372524 49.01649805 -313.63400459 45.06293488 C-315.0804101 43.61658331 -316.53194543 42.17534047 -317.98898697 40.73970413 C-319.98105796 38.77534143 -321.95363335 36.79321528 -323.92256165 34.80569458 C-324.4997903 34.24526085 -325.07701896 33.68482712 -325.6717394 33.10741055 C-329.70419418 28.97946437 -331.97018974 24.72034343 -333 19 C-332.63173388 12.58258706 -330.6302335 8.4148738 -326 4 C-321.65383177 1.26812283 -315.97324626 1.14950281 -311 2 C-305.80332645 4.63932234 -301.94877062 7.62217094 -297.88124084 11.75799561 C-297.30764609 12.32902708 -296.73405134 12.90005856 -296.14307493 13.48839402 C-294.23671321 15.38984274 -292.34122313 17.30176021 -290.44555664 19.21386719 C-289.07572812 20.58454252 -287.70523749 21.95455642 -286.33413696 23.32395935 C-282.62337757 27.03385947 -278.9219284 30.75292377 -275.22209859 34.4737196 C-271.35042145 38.36417461 -267.47022375 42.24611256 -263.59092712 46.12896729 C-256.25048115 53.47873043 -248.91771488 60.83610616 -241.587686 68.19625688 C-233.24053321 76.57696379 -224.88484097 84.94913449 -216.52842534 93.32060385 C-199.34277396 110.53759683 -182.16785868 127.76526634 -165 145 C-160.9195395 143.38131842 -158.20480554 140.46088491 -155.18867493 137.3888092 C-154.61174288 136.80935262 -154.03481084 136.22989603 -153.44039601 135.63288015 C-151.50667725 133.68839906 -149.58021325 131.73688493 -147.65356445 129.78540039 C-146.26905473 128.39050471 -144.88405833 126.99609195 -143.49861145 125.60212708 C-140.51454216 122.59816908 -137.53341086 119.59133559 -134.55434608 116.58241463 C-129.84142994 111.82338677 -125.11877137 107.07410988 -120.39408875 102.32676697 C-106.95959299 88.82539282 -93.53330824 75.3159316 -80.12817383 61.78540039 C-72.72552789 54.31367169 -65.31218421 46.85273297 -57.88679475 39.40360445 C-53.95857379 35.46184893 -50.0362228 31.51461455 -46.12713051 27.55388069 C-42.4487989 23.82695884 -38.75674425 20.11420544 -35.05380058 16.41174126 C-33.69933017 15.05243595 -32.34999809 13.68798762 -31.00632477 12.31800842 C-29.16663884 10.44383053 -27.30914411 8.5892383 -25.44624329 6.73817444 C-24.92267268 6.19576254 -24.39910207 5.65335065 -23.85966569 5.09450203 C-17.23532339 -1.39071737 -8.6636929 -3.81088304 0 0 Z " fill="#F75959" transform="translate(418,240)"/>
</svg>
