<?xml version="1.0" encoding="UTF-8"?>
<svg version="1.1" xmlns="http://www.w3.org/2000/svg" width="512" height="512">
<path d="M0 0 C1.24934676 -0.00538554 2.49869353 -0.01077108 3.78589928 -0.01631981 C7.23747548 -0.03073238 10.68881204 -0.02654294 14.14040112 -0.019153 C17.86920725 -0.01441317 21.59796213 -0.0269384 25.32675171 -0.03717041 C32.62561281 -0.05434808 39.92438778 -0.05520054 47.22326384 -0.04995751 C53.15739763 -0.04591249 59.091506 -0.04736331 65.02563858 -0.05270576 C66.29357267 -0.0538284 66.29357267 -0.0538284 67.58712158 -0.05497371 C69.304454 -0.05650522 71.02178642 -0.05804357 72.73911883 -0.05958868 C88.83652022 -0.0733101 104.93387298 -0.06787865 121.03127326 -0.05640347 C135.74833813 -0.04647246 150.46527725 -0.05941009 165.18232273 -0.08333766 C180.30446331 -0.10773805 195.42654535 -0.11733416 210.54870522 -0.11068493 C219.03436765 -0.10719467 227.51993339 -0.10941196 236.0055809 -0.12693596 C243.22956315 -0.14166974 250.45338063 -0.14227811 257.67735969 -0.12486505 C261.360692 -0.1163621 265.04373012 -0.1141879 268.72704697 -0.1295166 C272.725821 -0.14595164 276.72388755 -0.13119514 280.72265625 -0.11352539 C281.87870106 -0.1231304 283.03474586 -0.1327354 284.22582233 -0.14263147 C291.90898022 -0.07287014 299.50024699 0.79450868 305.43063343 6.13767534 C310.83517521 11.99266444 311.95487269 17.54201827 311.80081177 25.37986755 C311.17999725 31.35520732 308.88072696 34.96361906 304.73831177 39.20018005 C296.93087714 44.45518413 290.15278095 44.82288172 280.97662354 44.77536011 C279.72727677 44.78074565 278.47793001 44.78613118 277.19072425 44.79167992 C273.73914806 44.80609249 270.28781149 44.80190305 266.83622241 44.79451311 C263.10741629 44.78977328 259.3786614 44.8022985 255.64987183 44.81253052 C248.35101073 44.82970819 241.05223575 44.83056064 233.75335969 44.82531761 C227.8192259 44.82127259 221.88511753 44.82272342 215.95098495 44.82806587 C215.10569556 44.82881429 214.26040617 44.82956272 213.38950195 44.83033382 C211.67216953 44.83186533 209.95483711 44.83340368 208.23750471 44.83494879 C192.14010332 44.84867021 176.04275055 44.84323876 159.94535027 44.83176357 C145.22828541 44.82183257 130.51134628 44.83477019 115.79430081 44.85869776 C100.67216023 44.88309816 85.55007819 44.89269426 70.42791831 44.88604504 C61.94225589 44.88255478 53.45669015 44.88477207 44.97104263 44.90229607 C37.74706039 44.91702984 30.52324291 44.91763822 23.29926385 44.90022516 C19.61593154 44.89172221 15.93289341 44.889548 12.24957657 44.90487671 C8.25080253 44.92131174 4.25273599 44.90655525 0.25396729 44.8888855 C-0.90207752 44.8984905 -2.05812233 44.90809551 -3.24919879 44.91799158 C-10.93235669 44.84823024 -18.52362345 43.98085143 -24.45400989 38.63768476 C-29.85855167 32.78269567 -30.97824915 27.23334183 -30.82418823 19.39549255 C-30.20337371 13.42015279 -27.90410343 9.81174105 -23.76168823 5.57518005 C-15.9542536 0.32017597 -9.17615742 -0.04752161 0 0 Z " fill="#000000" transform="translate(115.51168823242188,297.61231994628906)"/>
<path d="M0 0 C1.24934676 -0.00538554 2.49869353 -0.01077108 3.78589928 -0.01631981 C7.23747548 -0.03073238 10.68881204 -0.02654294 14.14040112 -0.019153 C17.86920725 -0.01441317 21.59796213 -0.0269384 25.32675171 -0.03717041 C32.62561281 -0.05434808 39.92438778 -0.05520054 47.22326384 -0.04995751 C53.15739763 -0.04591249 59.091506 -0.04736331 65.02563858 -0.05270576 C66.29357267 -0.0538284 66.29357267 -0.0538284 67.58712158 -0.05497371 C69.304454 -0.05650522 71.02178642 -0.05804357 72.73911883 -0.05958868 C88.83652022 -0.0733101 104.93387298 -0.06787865 121.03127326 -0.05640347 C135.74833813 -0.04647246 150.46527725 -0.05941009 165.18232273 -0.08333766 C180.30446331 -0.10773805 195.42654535 -0.11733416 210.54870522 -0.11068493 C219.03436765 -0.10719467 227.51993339 -0.10941196 236.0055809 -0.12693596 C243.22956315 -0.14166974 250.45338063 -0.14227811 257.67735969 -0.12486505 C261.360692 -0.1163621 265.04373012 -0.1141879 268.72704697 -0.1295166 C272.725821 -0.14595164 276.72388755 -0.13119514 280.72265625 -0.11352539 C281.87870106 -0.1231304 283.03474586 -0.1327354 284.22582233 -0.14263147 C291.90898022 -0.07287014 299.50024699 0.79450868 305.43063343 6.13767534 C310.83517521 11.99266444 311.95487269 17.54201827 311.80081177 25.37986755 C311.17999725 31.35520732 308.88072696 34.96361906 304.73831177 39.20018005 C296.93087714 44.45518413 290.15278095 44.82288172 280.97662354 44.77536011 C279.72727677 44.78074565 278.47793001 44.78613118 277.19072425 44.79167992 C273.73914806 44.80609249 270.28781149 44.80190305 266.83622241 44.79451311 C263.10741629 44.78977328 259.3786614 44.8022985 255.64987183 44.81253052 C248.35101073 44.82970819 241.05223575 44.83056064 233.75335969 44.82531761 C227.8192259 44.82127259 221.88511753 44.82272342 215.95098495 44.82806587 C215.10569556 44.82881429 214.26040617 44.82956272 213.38950195 44.83033382 C211.67216953 44.83186533 209.95483711 44.83340368 208.23750471 44.83494879 C192.14010332 44.84867021 176.04275055 44.84323876 159.94535027 44.83176357 C145.22828541 44.82183257 130.51134628 44.83477019 115.79430081 44.85869776 C100.67216023 44.88309816 85.55007819 44.89269426 70.42791831 44.88604504 C61.94225589 44.88255478 53.45669015 44.88477207 44.97104263 44.90229607 C37.74706039 44.91702984 30.52324291 44.91763822 23.29926385 44.90022516 C19.61593154 44.89172221 15.93289341 44.889548 12.24957657 44.90487671 C8.25080253 44.92131174 4.25273599 44.90655525 0.25396729 44.8888855 C-0.90207752 44.8984905 -2.05812233 44.90809551 -3.24919879 44.91799158 C-10.93235669 44.84823024 -18.52362345 43.98085143 -24.45400989 38.63768476 C-29.85855167 32.78269567 -30.97824915 27.23334183 -30.82418823 19.39549255 C-30.20337371 13.42015279 -27.90410343 9.81174105 -23.76168823 5.57518005 C-15.9542536 0.32017597 -9.17615742 -0.04752161 0 0 Z " fill="#000000" transform="translate(115.51168823242188,169.61231994628906)"/>
</svg>
