<?xml version="1.0" encoding="UTF-8"?>
<svg version="1.1" xmlns="http://www.w3.org/2000/svg" width="512" height="512">
<path d="M0 0 C1.53450793 -0.00417831 3.06901277 -0.00965854 4.60351193 -0.01631981 C8.79919869 -0.03072805 12.99468824 -0.02654422 17.19038558 -0.019153 C21.72356094 -0.01441214 26.2566942 -0.02693929 30.78985596 -0.03717041 C39.66259329 -0.05434584 48.53525976 -0.05520101 57.4080094 -0.04995751 C64.62163438 -0.04591219 71.83523847 -0.04736366 79.04886246 -0.05270576 C80.59028467 -0.0538284 80.59028467 -0.0538284 82.16284672 -0.05497371 C84.25060661 -0.05650523 86.3383665 -0.05804357 88.42612638 -0.05958868 C107.99442155 -0.07330921 127.56267671 -0.06787919 147.13097097 -0.05640347 C165.02161346 -0.04647183 182.91215252 -0.05941136 200.80277906 -0.08333766 C219.18620609 -0.10773721 237.56958495 -0.1173344 255.95302784 -0.11068493 C266.26860062 -0.10719459 276.58409387 -0.10941261 286.89965439 -0.12693596 C295.68112349 -0.14166863 304.46245705 -0.14227942 313.24392353 -0.12486505 C317.72140371 -0.11636144 322.19864185 -0.11418984 326.67610931 -0.1295166 C330.78073443 -0.14339277 334.88491084 -0.13856322 338.98951019 -0.11927737 C340.46855234 -0.11552599 341.94763068 -0.11841431 343.4266405 -0.12888902 C359.32709185 -0.23342725 370.82535548 3.86332431 382.50564575 14.70018005 C393.26287724 26.06631144 395.21061424 38.50996143 395.14332581 53.6320343 C395.14750411 55.16654223 395.15298435 56.70104707 395.15964562 58.23554623 C395.17405385 62.43123299 395.16987003 66.62672254 395.1624788 70.82241988 C395.15773795 75.35559524 395.1702651 79.8887285 395.18049622 84.42189026 C395.19767165 93.29462759 395.19852682 102.16729406 395.19328331 111.0400437 C395.189238 118.25366868 395.19068947 125.46727277 395.19603157 132.68089676 C395.19677999 133.70851157 395.19752841 134.73612637 395.19829952 135.79488102 C395.19983103 137.88264091 395.20136938 139.9704008 395.20291448 142.05816068 C395.21663502 161.62645585 395.211205 181.19471102 395.19972927 200.76300527 C395.18979764 218.65364776 395.20273717 236.54418683 395.22666346 254.43481337 C395.25106302 272.81824039 395.2606602 291.20161926 395.25401074 309.58506215 C395.25052039 319.90063493 395.25273841 330.21612817 395.27026176 340.53168869 C395.28499444 349.31315779 395.28560523 358.09449136 395.26819085 366.87595783 C395.25968724 371.35343801 395.25751565 375.83067616 395.27284241 380.30814362 C395.28671858 384.41276873 395.28188903 388.51694514 395.26260317 392.6215445 C395.2588518 394.10058664 395.26174011 395.57966499 395.27221482 397.0586748 C395.37675305 412.95912615 391.2800015 424.45738978 380.44314575 436.13768005 C369.07701437 446.89491154 356.63336438 448.84264854 341.5112915 448.77536011 C339.97678357 448.77953841 338.44227874 448.78501865 336.90777957 448.79167992 C332.71209282 448.80608815 328.51660327 448.80190433 324.32090592 448.79451311 C319.78773056 448.78977225 315.2545973 448.8022994 310.72143555 448.81253052 C301.84869822 448.82970595 292.97603174 448.83056112 284.10328211 448.82531761 C276.88965712 448.8212723 269.67605304 448.82272377 262.46242905 448.82806587 C260.92100684 448.82918851 260.92100684 448.82918851 259.34844478 448.83033382 C257.26068489 448.83186533 255.17292501 448.83340368 253.08516513 448.83494879 C233.51686996 448.84866932 213.94861479 448.8432393 194.38032053 448.83176357 C176.48967804 448.82183194 158.59913898 448.83477147 140.70851244 448.85869776 C122.32508542 448.88309732 103.94170655 448.89269451 85.55826366 448.88604504 C75.24269088 448.88255469 64.92719763 448.88477271 54.61163712 448.90229607 C45.83016801 448.91702874 37.04883445 448.91763953 28.26736797 448.90022516 C23.7898878 448.89172154 19.31264965 448.88954995 14.83518219 448.90487671 C10.73055707 448.91875288 6.62638066 448.91392333 2.52178131 448.89463747 C1.04273916 448.8908861 -0.43633918 448.89377442 -1.91534899 448.90424912 C-17.81580035 449.00878735 -29.31406398 444.9120358 -40.99435425 434.07518005 C-51.75158574 422.70904867 -53.69932273 410.26539868 -53.6320343 395.14332581 C-53.63621261 393.60881788 -53.64169284 392.07431304 -53.64835411 390.53981388 C-53.66276235 386.34412712 -53.65857853 382.14863757 -53.6511873 377.95294023 C-53.64644644 373.41976486 -53.65897359 368.8866316 -53.66920471 364.35346985 C-53.68638015 355.48073252 -53.68723532 346.60806605 -53.68199181 337.73531641 C-53.67794649 330.52169142 -53.67939796 323.30808734 -53.68474007 316.09446335 C-53.68548849 315.06684854 -53.68623691 314.03923373 -53.68700801 312.98047908 C-53.68853953 310.89271919 -53.69007787 308.80495931 -53.69162298 306.71719943 C-53.70534351 287.14890426 -53.6999135 267.58064909 -53.68843777 248.01235484 C-53.67850614 230.12171234 -53.69144566 212.23117328 -53.71537196 194.34054674 C-53.73977152 175.95711972 -53.7493687 157.57374085 -53.74271923 139.19029796 C-53.73922889 128.87472518 -53.74144691 118.55923193 -53.75897026 108.24367142 C-53.77370294 99.46220231 -53.77431373 90.68086875 -53.75689935 81.89940228 C-53.74839574 77.4219221 -53.74622415 72.94468395 -53.7615509 68.46721649 C-53.77542707 64.36259138 -53.77059752 60.25841497 -53.75131167 56.15381561 C-53.7475603 54.67477347 -53.75044861 53.19569512 -53.76092332 51.71668531 C-53.86546155 35.81623396 -49.76870999 24.31797033 -38.93185425 12.63768005 C-27.56572286 1.88044856 -15.12207287 -0.06728843 0 0 Z M197.05133057 101.57209778 C195.93263561 102.7017568 194.81414252 103.83161576 193.6958313 104.96165466 C192.49840598 106.15693165 191.30011467 107.35134162 190.10102844 108.54495239 C186.86080022 111.77552248 183.63315132 115.01839416 180.40793967 118.26394725 C177.02603062 121.66347645 173.63352788 125.05240404 170.24241638 128.44274902 C164.55239988 134.13463584 158.87016673 139.83419906 153.19290161 145.5388031 C146.63184629 152.13133646 140.06036888 158.7133308 133.48282403 165.28940958 C126.47304869 172.29783357 119.47091219 179.31385143 112.47100091 186.3321259 C110.45578867 188.35159768 108.43916149 190.36964724 106.42221642 192.38738823 C103.2532718 195.55834351 100.08948297 198.73435663 96.92959785 201.91433907 C95.76992722 203.07984492 94.60856759 204.24367306 93.44539642 205.40568542 C91.85697353 206.99312459 90.27484713 208.58658726 88.69416809 210.18173218 C87.36439705 211.51653075 87.36439705 211.51653075 86.00776196 212.87829494 C82.23619981 217.08069883 80.01447585 220.47324194 80.29437828 226.3118248 C82.21057955 234.93536042 92.1916476 242.12044686 98.2336731 248.15623474 C99.39437358 249.32292901 100.55466622 250.49002914 101.71458435 251.65750122 C104.84825317 254.80874337 107.9882923 257.95356067 111.13011885 261.09666729 C113.09555465 263.06352933 115.05955754 265.0318106 117.02305984 267.00060272 C123.88069881 273.87670805 130.74344769 280.74766479 137.6111145 287.61375427 C144.00162861 294.00306553 150.38088736 300.40346368 156.75500333 306.80913043 C162.24019778 312.32050118 167.73310126 317.82410787 173.23203814 323.32176709 C176.5109968 326.60021685 179.78680335 329.88166857 183.05488205 333.1709671 C186.12735041 336.26284237 189.2093342 339.34490906 192.29877281 342.4198246 C193.42770616 343.54667235 194.55326424 344.67691386 195.67507744 345.81085014 C203.73676776 353.98952881 203.73676776 353.98952881 213.75564575 359.38768005 C217.17703789 359.27144369 219.8125603 358.1139705 222.75564575 356.38768005 C226.05984823 352.36068329 226.87848134 348.18670778 226.88707352 343.07596207 C226.89091466 342.21601615 226.89475581 341.35607024 226.89871335 340.47006536 C226.89784687 339.5300004 226.89698039 338.58993544 226.89608765 337.62138367 C226.89905877 336.61905661 226.90202989 335.61672956 226.90509105 334.58402896 C226.913783 331.21551103 226.91528672 327.84702863 226.91677856 324.47850037 C226.92140638 322.06727523 226.92643099 319.65605082 226.93182373 317.24482727 C226.94495311 310.68688573 226.95143045 304.12895157 226.95583439 297.5710001 C226.95859833 293.47496728 226.96283597 289.37893681 226.96733856 285.28290558 C226.97953021 273.93873874 226.98982966 262.59457379 226.99321365 251.25040054 C226.99343322 250.52452116 226.99365279 249.79864177 226.99387901 249.05076604 C226.99409728 248.32316491 226.99431556 247.59556378 226.99454045 246.84591413 C226.99498392 245.37155485 226.99543048 243.89719558 226.99588013 242.4228363 C226.99610156 241.69150556 226.99632299 240.96017482 226.99655113 240.20668253 C227.0004983 228.35916993 227.01795031 216.51171886 227.04123965 204.66423002 C227.06496593 192.49608877 227.07741609 180.32797839 227.07858157 168.15981364 C227.07949763 161.32966049 227.08523237 154.49958752 227.10340118 147.66945648 C227.12043264 141.24431404 227.12204523 134.81928312 227.11326218 128.39412308 C227.11249093 126.03669197 227.11684599 123.67925274 227.12672043 121.32184219 C227.13941694 118.10168359 227.13357519 114.88206588 227.12313843 111.66191101 C227.13119483 110.73076894 227.13925124 109.79962687 227.14755177 108.84026837 C227.10350221 103.02226619 226.20662877 98.6889697 223.75564575 93.38768005 C221.89338986 91.65061605 221.89338986 91.65061605 219.69314575 90.88768005 C218.65480591 90.4390863 218.65480591 90.4390863 217.5954895 89.98143005 C209.54368827 87.38297191 202.16403358 96.46775534 197.05133057 101.57209778 Z " fill="#686262" transform="translate(85.24435424804688,31.612319946289063)"/>
</svg>
