<?xml version="1.0" encoding="UTF-8"?>
<svg version="1.1" xmlns="http://www.w3.org/2000/svg" width="512" height="512">
<path d="M0 0 C1.01545333 -0.00352835 1.01545333 -0.00352835 2.05142087 -0.00712797 C4.33031905 -0.01380935 6.6091601 -0.01336001 8.88806725 -0.01294994 C10.53431357 -0.0162491 12.18055908 -0.01997478 13.82680357 -0.02409142 C18.35909078 -0.03411359 22.89136475 -0.03782856 27.42366147 -0.04048073 C32.3086327 -0.04438313 37.19359343 -0.0539615 42.07855797 -0.0626936 C53.8797832 -0.08245958 65.68100929 -0.09252427 77.48224694 -0.10142139 C83.03873854 -0.10580397 88.59522919 -0.11117084 94.15172005 -0.11641026 C112.62106758 -0.13342248 131.09041451 -0.14791696 149.55976868 -0.155159 C154.35306995 -0.15706891 159.14637122 -0.15898924 163.93967247 -0.16094494 C165.13103327 -0.16142868 166.32239407 -0.16191242 167.54985671 -0.16241082 C186.85192442 -0.17071228 206.15393018 -0.1960512 225.45597084 -0.22852562 C245.26978444 -0.26158949 265.08356655 -0.27960714 284.89740789 -0.28280324 C296.0234393 -0.28496893 307.14938037 -0.29372628 318.2753849 -0.31926441 C327.75020305 -0.34096218 337.2249089 -0.34902634 346.69974907 -0.33929763 C351.53338954 -0.33475031 356.36679828 -0.33666436 361.20040703 -0.35605907 C365.62834824 -0.37367251 370.05588835 -0.3727078 374.48383372 -0.35716178 C376.08280965 -0.35478295 377.68181322 -0.35912356 379.28074689 -0.37099043 C390.52191676 -0.44922915 400.21633978 0.45393406 408.75754356 8.43109608 C415.08567721 15.46953044 418.12581411 23.71104565 418.28879356 33.13422108 C417.44202163 46.00515444 410.62722385 54.11176478 402.08566856 63.12640858 C399.49272835 65.87676467 397.09445026 68.74912178 394.72629356 71.69672108 C391.69521789 75.46260297 388.5629778 79.07751864 385.28879356 82.63422108 C381.17500448 87.10407228 377.3179206 91.72467001 373.50363731 96.45062733 C370.6239847 99.93973023 367.58185481 103.26419028 364.53488731 106.60687733 C362.22691759 109.203845 360.03323494 111.8682612 357.85129356 114.57172108 C353.99170753 119.34418311 349.91679366 123.86531216 345.76144981 128.38031483 C342.54169838 131.96629391 339.52974181 135.701236 336.50363731 139.45062733 C334.3324653 142.08130665 332.08637999 144.61364532 329.78879356 147.13422108 C326.67420688 150.5516148 323.69692736 154.03944457 320.78879356 157.63422108 C317.17730223 162.09842565 313.40218662 166.36424221 309.53488731 170.60687733 C307.22691759 173.203845 305.03323494 175.8682612 302.85129356 178.57172108 C298.99170753 183.34418311 294.91679366 187.86531216 290.76144981 192.38031483 C287.54169838 195.96629391 284.52974181 199.701236 281.50363731 203.45062733 C278.63277497 206.92907959 275.600747 210.24392125 272.56223106 213.57562733 C269.32946986 217.21387232 266.28066252 220.9920187 263.23410606 224.78656483 C261.28879356 227.13422108 261.28879356 227.13422108 259.69026756 228.30663013 C257.49328623 231.17160172 257.88315418 234.25885808 257.91989708 237.72333241 C257.9161306 238.49441837 257.91236412 239.26550434 257.90848351 240.05995655 C257.9020475 241.73452317 257.9023844 243.40912631 257.90866852 245.0836935 C257.917769 247.73641985 257.9075663 250.38843782 257.89204979 253.0411272 C257.85192607 260.58297057 257.85074492 268.12475947 257.85300255 275.66669178 C257.85305371 280.28036038 257.83385343 284.89364837 257.80366898 289.50721264 C257.79285448 292.11643511 257.8049694 294.72492753 257.81749535 297.33412647 C257.80858792 298.94173365 257.79851248 300.54933492 257.78708458 302.15692616 C257.79682808 302.87870045 257.80657158 303.60047474 257.81661034 304.34412098 C257.74516149 309.39501338 256.42464911 312.22367086 253.28879356 316.13422108 C251.19504356 318.00653553 251.19504356 318.00653553 248.78879356 319.68500233 C247.81297325 320.36643299 246.83715294 321.04786366 245.83176231 321.74994373 C238.96784567 326.39372226 232.04063426 330.94184792 225.1056881 335.47855091 C206.1885386 347.85655271 187.40081991 360.41668179 168.69894981 373.11737537 C167.8260128 373.70897449 166.95307579 374.30057362 166.05368614 374.91009998 C164.42576385 376.0135029 162.79920607 377.11892278 161.17429161 378.22675037 C160.09401695 378.95861561 160.09401695 378.95861561 158.99191856 379.705266 C158.36962364 380.12853672 157.74732872 380.55180744 157.10617638 380.98790455 C151.25083815 384.68116661 146.13834514 384.86875744 139.28879356 384.13422108 C134.65434679 381.98251365 131.19009881 378.93976058 129.28879356 374.13422108 C128.72962643 369.56279017 128.83888868 365.02386979 128.91745567 360.42474842 C128.92673778 359.02464364 128.9340928 357.62452495 128.93967247 356.22440052 C128.95479618 353.21554413 128.98157788 350.20709698 129.01689529 347.19841099 C129.07082105 342.43111026 129.08660761 337.66415158 129.09508324 332.8965807 C129.12413527 319.34173805 129.18891451 305.78754403 129.32614708 292.23334217 C129.40167021 284.74206933 129.43742759 277.25166797 129.43011862 269.76000655 C129.42806684 265.80159843 129.44647457 261.8456732 129.51475906 257.88780308 C130.74522386 239.89475176 130.74522386 239.89475176 124.49880123 223.92217922 C122.27483427 221.73956796 119.81219854 219.95517918 117.28879356 218.13422108 C115.69589925 216.30254185 114.14633968 214.431308 112.66379356 212.50922108 C109.79997574 208.95237972 106.86533028 205.50883056 103.78879356 202.13422108 C100.6932416 198.73823426 97.73728149 195.27250577 94.85129356 191.69672108 C91.77542768 187.89334605 88.6012619 184.23339456 85.28879356 180.63422108 C81.17500448 176.16436988 77.3179206 171.54377215 73.50363731 166.81781483 C71.3324653 164.18713551 69.08637999 161.65479683 66.78879356 159.13422108 C62.86988104 154.83430317 59.19708487 150.37502561 55.53879356 145.85297108 C52.64403645 142.35513957 49.59289818 139.01636704 46.53488731 135.66156483 C44.22691759 133.06459715 42.03323494 130.40018095 39.85129356 127.69672108 C36.77542768 123.89334605 33.6012619 120.23339456 30.28879356 116.63422108 C26.17500448 112.16436988 22.3179206 107.54377215 18.50363731 102.81781483 C16.3324653 100.18713551 14.08637999 97.65479683 11.78879356 95.13422108 C7.86988104 90.83430317 4.19708487 86.37502561 0.53879356 81.85297108 C-1.64622213 79.21274378 -3.90292034 76.66692387 -6.21120644 74.13422108 C-10.16738368 69.79207532 -13.89524134 65.30225443 -17.57448769 60.72406483 C-19.48051134 58.41383872 -21.46945248 56.24861706 -23.52370644 54.07172108 C-29.10253553 47.72920076 -31.84084386 39.56065383 -31.71120644 31.13422108 C-30.80439461 22.1916614 -27.56343527 13.25994854 -20.71120644 7.13422108 C-13.64372756 2.22720729 -8.61451964 0.01275295 0 0 Z " fill="#686262" transform="translate(62.71120643615723,79.86577892303467)"/>
</svg>
