<?xml version="1.0" encoding="UTF-8"?>
<svg version="1.1" xmlns="http://www.w3.org/2000/svg" width="20" height="20">
<path d="M0 0 C1.17825358 0.90172468 2.34231577 1.82201502 3.5 2.75 C4.1496875 3.26046875 4.799375 3.7709375 5.46875 4.296875 C7 6 7 6 7 10 C5.46875 11.703125 5.46875 11.703125 3.5 13.25 C2.8503125 13.77078125 2.200625 14.2915625 1.53125 14.828125 C1.0259375 15.21484375 0.520625 15.6015625 0 16 C-0.66 14.68 -1.32 13.36 -2 12 C-1.01 11.01 -0.02 10.02 1 9 C0.67 8.4225 0.34 7.845 0 7.25 C-1 5 -1 5 -1 1 C-0.67 0.67 -0.34 0.34 0 0 Z " fill="#F0F0F0" transform="translate(8,2)"/>
</svg>
