<?xml version="1.0" encoding="UTF-8"?>
<svg version="1.1" xmlns="http://www.w3.org/2000/svg" width="512" height="512">
<path d="M0 0 C1.34049408 -0.01475876 1.34049408 -0.01475876 2.70806885 -0.02981567 C51.76987081 -0.45857912 100.10866297 9.42460348 140.41015625 39.23828125 C141.43625 39.99367187 142.46234375 40.7490625 143.51953125 41.52734375 C160.16201757 53.97603368 175.7061933 67.72312941 188.41015625 84.23828125 C188.82587891 84.77227539 189.24160156 85.30626953 189.66992188 85.85644531 C220.38774802 125.51657196 236.97468582 173.68041982 236.72265625 223.86328125 C236.7205011 224.64442291 236.71834595 225.42556458 236.71612549 226.2303772 C236.49361379 276.8003417 219.71776691 326.08194113 187.41015625 365.23828125 C186.94641602 365.80353516 186.48267578 366.36878906 186.00488281 366.95117188 C175.83342411 379.27650661 165.0168689 390.38053233 152.41015625 400.23828125 C151.46140625 401.01558594 150.51265625 401.79289062 149.53515625 402.59375 C120.79572239 425.65128049 85.54781418 440.01108543 49.41015625 446.23828125 C48.33475586 446.42447021 47.25935547 446.61065918 46.15136719 446.80249023 C35.96851266 448.36721009 25.91887275 448.57780107 15.63330078 448.55395508 C12.80982282 448.55080874 9.98741096 448.57429999 7.1640625 448.59960938 C-9.2184415 448.65689865 -25.36367016 446.93515185 -41.27734375 442.92578125 C-42.13706787 442.7134082 -42.99679199 442.50103516 -43.88256836 442.28222656 C-78.89844517 433.40015049 -110.68770433 416.30121026 -137.58984375 392.23828125 C-138.15219727 391.7376416 -138.71455078 391.23700195 -139.29394531 390.72119141 C-145.80675267 384.89692257 -152.02189506 378.98846563 -157.58984375 372.23828125 C-158.29882812 371.44035156 -159.0078125 370.64242188 -159.73828125 369.8203125 C-199.45735222 324.25264047 -215.90750575 264.36607021 -212.38769531 204.81835938 C-210.21239397 178.53415216 -203.0090183 152.70334955 -191.96484375 128.80078125 C-191.60479248 128.0133252 -191.24474121 127.22586914 -190.8737793 126.41455078 C-188.08879917 120.6139346 -185.02351576 116.64232279 -179.33984375 113.36328125 C-173.37491408 111.57380235 -168.84892609 112.13005218 -163.27734375 114.86328125 C-159.44407828 118.25081817 -156.9738631 121.38720966 -156.28833008 126.47680664 C-156.13999214 133.13456231 -157.65823454 137.67243289 -160.65234375 143.55078125 C-168.40620934 159.79573507 -173.51889468 176.51726354 -176.58984375 194.23828125 C-176.92822266 196.09839844 -176.92822266 196.09839844 -177.2734375 197.99609375 C-183.47109708 238.25950981 -174.72953656 279.64500411 -155.58984375 315.23828125 C-155.27966309 315.82915527 -154.96948242 316.4200293 -154.64990234 317.02880859 C-146.74683584 332.02833565 -136.3421523 345.08871157 -124.58984375 357.23828125 C-124.11579102 357.73811523 -123.64173828 358.23794922 -123.15332031 358.75292969 C-89.40562882 394.30410503 -41.1795245 413.38673635 7.3828125 415.1640625 C55.64493277 416.21962277 103.55950297 399.17991322 139.109375 366.3515625 C141.18800859 364.4423252 143.31436371 362.61851481 145.47265625 360.80078125 C178.54955466 331.7512098 199.576965 283.68054704 202.41015625 240.23828125 C204.12876613 193.14426234 193.96470687 147.05072101 164.41015625 109.23828125 C163.683125 108.30113281 162.95609375 107.36398438 162.20703125 106.3984375 C153.24185486 95.15971817 143.77893724 85.06560598 132.41015625 76.23828125 C131.65863281 75.59761719 130.90710938 74.95695312 130.1328125 74.296875 C94.27988038 43.95977859 43.75997893 30.29232226 -2.546875 33.73828125 C-19.36812316 35.26596282 -35.63983148 38.71220891 -51.58984375 44.23828125 C-52.24178711 44.46209473 -52.89373047 44.6859082 -53.56542969 44.91650391 C-78.32024595 53.6164249 -102.28693515 68.28100069 -120.52734375 87.23828125 C-124.99962125 91.77584747 -128.76574582 93.39953969 -135.15234375 93.61328125 C-140.36150453 93.44410688 -143.29173004 92.64145159 -146.95703125 88.80859375 C-150.77075344 84.47775669 -151.96115924 81.1882295 -151.86767578 75.40673828 C-150.98233624 68.49673316 -146.42096107 63.48507797 -141.40234375 59.05078125 C-140.79358398 58.50180176 -140.18482422 57.95282227 -139.55761719 57.38720703 C-126.88744875 46.14155223 -113.2801831 36.64302308 -98.58984375 28.23828125 C-97.90486816 27.84157227 -97.21989258 27.44486328 -96.51416016 27.03613281 C-67.68160165 10.48706266 -33.34884152 0.30342038 0 0 Z " fill="#FFFFFF" transform="translate(244.58984375,31.76171875)"/>
<path d="M0 0 C1.05489624 -0.00935994 1.05489624 -0.00935994 2.13110352 -0.01890898 C4.47576936 -0.03479977 6.81938988 -0.02225106 9.1640625 -0.00964355 C10.84977828 -0.01506645 12.53548932 -0.02219005 14.22119141 -0.03088379 C18.79145963 -0.04910026 23.36136618 -0.04205658 27.93164062 -0.02936745 C32.71745774 -0.01923109 37.50324416 -0.02863489 42.2890625 -0.03491211 C50.32557731 -0.04218666 58.36194503 -0.03260586 66.3984375 -0.0135498 C75.68597197 0.00821857 84.97315519 0.00116706 94.26068115 -0.02085543 C102.23877974 -0.0390149 110.21677267 -0.04156507 118.19488525 -0.03110075 C122.95810706 -0.02486883 127.72116384 -0.02402189 132.484375 -0.0372467 C136.96279317 -0.04881255 141.44075904 -0.04076615 145.91912842 -0.01766968 C147.56141408 -0.0123865 149.20373788 -0.01388971 150.8460083 -0.02272034 C153.09055875 -0.03367555 155.33366615 -0.01991476 157.578125 0 C158.83318848 0.0015081 160.08825195 0.0030162 161.38134766 0.00457001 C166.5664884 0.77048389 169.61909387 3.27638864 173.1640625 7.00793457 C175.56209825 12.17293466 175.54287785 16.90816337 174.7890625 22.50793457 C172.47916652 27.48309515 169.50950231 29.82698187 164.7890625 32.50793457 C161.38134766 33.01129913 161.38134766 33.01129913 157.578125 33.01586914 C156.52322876 33.02522908 156.52322876 33.02522908 155.44702148 33.03477812 C153.10235564 33.05066891 150.75873512 33.0381202 148.4140625 33.0255127 C146.72834672 33.03093559 145.04263568 33.03805919 143.35693359 33.04675293 C138.78666537 33.0649694 134.21675882 33.05792572 129.64648438 33.04523659 C124.86066726 33.03510023 120.07488084 33.04450404 115.2890625 33.05078125 C107.25254769 33.0580558 99.21617997 33.048475 91.1796875 33.02941895 C81.89215303 33.00765057 72.60496981 33.01470208 63.31744385 33.03672457 C55.33934526 33.05488404 47.36135233 33.05743421 39.38323975 33.04696989 C34.62001794 33.04073798 29.85696116 33.03989103 25.09375 33.05311584 C20.61533183 33.06468169 16.13736596 33.05663529 11.65899658 33.03353882 C10.01671092 33.02825564 8.37438712 33.02975885 6.7321167 33.03858948 C4.48756625 33.04954469 2.24445885 33.0357839 0 33.01586914 C-1.25506348 33.01436104 -2.51012695 33.01285294 -3.80322266 33.01129913 C-8.9883634 32.24538525 -12.04096887 29.7394805 -15.5859375 26.00793457 C-17.98397325 20.84293448 -17.96475285 16.10770577 -17.2109375 10.50793457 C-13.71687306 2.98225731 -8.11362412 0.00974945 0 0 Z " fill="#FFFFFF" transform="translate(177.2109375,239.4920654296875)"/>
</svg>
