<?xml version="1.0" encoding="UTF-8"?>
<svg version="1.1" xmlns="http://www.w3.org/2000/svg" width="512" height="512">
<path d="M0 0 C0.67419133 -0.00380567 1.34838266 -0.00761134 2.04300404 -0.01153234 C4.31249521 -0.02187636 6.58173757 -0.01793683 8.85124588 -0.01409245 C10.4906696 -0.01854333 12.13009116 -0.02385689 13.76950955 -0.02996117 C18.28287014 -0.0441696 22.79616195 -0.04580392 27.3095417 -0.04536426 C32.17403342 -0.04700997 37.03849659 -0.06007188 41.90297318 -0.07155704 C52.54342957 -0.09442536 63.18386604 -0.10232962 73.82434368 -0.10738349 C80.46652588 -0.11063838 87.10870228 -0.11715959 93.7508812 -0.12438488 C112.136165 -0.14395319 130.52144339 -0.16035605 148.90673828 -0.16326141 C150.67217273 -0.16354277 150.67217273 -0.16354277 152.47327252 -0.16382981 C154.85932048 -0.16419606 157.24536845 -0.16455976 159.63141641 -0.16492092 C160.81587725 -0.16510373 162.00033809 -0.16528654 163.22069168 -0.16547489 C164.99954797 -0.16574572 164.99954797 -0.16574572 166.81434074 -0.16602201 C186.03371536 -0.16956425 205.25297797 -0.19658878 224.47231373 -0.23397278 C244.19798147 -0.27203505 263.92359361 -0.29141874 283.64929891 -0.29172093 C294.72721691 -0.29230596 305.80500132 -0.30082789 316.88288498 -0.32971859 C326.31532982 -0.35420464 335.74759234 -0.36153413 345.18006036 -0.34647106 C349.993246 -0.33929081 354.80607142 -0.34020763 359.61921692 -0.36288166 C364.02616466 -0.38344336 368.4324746 -0.38089774 372.83941522 -0.36000682 C374.43297191 -0.35650652 376.02657435 -0.36144482 377.62007102 -0.37571125 C387.04965479 -0.45468699 393.80263778 -0.02963271 400.81768489 6.70272928 C406.70072828 13.11360843 406.59466382 19.92547586 406.50975418 28.12724972 C406.50550934 29.67933636 406.50550934 29.67933636 406.50117874 31.26277828 C406.49002216 34.55365935 406.46492565 37.84426399 406.43944168 41.13506222 C406.42940605 43.37203744 406.42028122 45.60901695 406.41209793 47.84599972 C406.39009763 53.31744752 406.35666506 58.78873511 406.31444168 64.26006222 C405.55558576 64.26337236 404.79672983 64.26668251 404.01487827 64.27009296 C385.45606629 64.35170396 366.89733383 64.44391691 348.33863163 64.5475893 C339.36338145 64.59747733 330.38813932 64.64392056 321.41283035 64.68193722 C313.57993163 64.71512407 305.74710022 64.75509711 297.9142763 64.80285227 C293.77597362 64.82785541 289.63771406 64.84971004 285.49935722 64.86340618 C243.29103912 65.0088903 205.4152782 68.50302318 172.31444168 97.26006222 C171.68280106 97.75892941 171.05116043 98.25779659 170.40037918 98.77178097 C164.85532129 103.19010335 160.6421685 108.68193682 156.31444168 114.26006222 C155.28963699 115.56137081 155.28963699 115.56137081 154.24412918 116.88896847 C133.28044168 144.47060437 126.40136206 178.90984102 130.97069168 212.97099972 C134.86634788 236.38752463 145.3263351 257.08353095 160.31444168 275.26006222 C160.90869949 276.00771847 161.50295731 276.75537472 162.11522293 277.52568722 C166.83714235 283.25059191 172.46465551 287.73145225 178.31444168 292.26006222 C179.16909012 292.94197628 180.02373856 293.62389034 180.90428543 294.32646847 C195.38407109 305.45304061 213.11259285 312.6917297 230.87694168 316.57256222 C231.59535233 316.7320837 232.31376297 316.89160519 233.05394363 317.05596066 C245.42782608 319.54198738 258.31087943 319.41288134 270.87865067 319.46538448 C272.36853155 319.47499635 273.85840991 319.48500817 275.34828568 319.49538326 C279.34105526 319.52208083 283.33383623 319.54327731 287.32664371 319.56338525 C291.5186467 319.58546548 295.71061602 319.61274486 299.90259171 319.63944149 C307.8175423 319.68907392 315.73251188 319.73412019 323.64749914 319.77746385 C332.66825387 319.82709028 341.68897477 319.88191301 350.70969665 319.93714345 C369.24458015 320.05051054 387.7794957 320.15744561 406.31444168 320.26006222 C406.4163868 326.78865278 406.48613464 333.31703586 406.53416824 339.84624386 C406.55420568 342.06442085 406.58144342 344.28254554 406.61619949 346.50054073 C406.66506421 349.70046094 406.6874898 352.89967896 406.70506668 356.09990597 C406.72571182 357.08152203 406.74635696 358.06313808 406.76762772 359.07450008 C406.76993622 366.25920967 405.62417218 372.7561508 400.53471756 378.14420223 C395.41798655 382.7644642 391.61852662 384.50879087 384.62888336 384.52012444 C383.95469203 384.52393011 383.2805007 384.52773578 382.58587933 384.53165677 C380.31638815 384.54200079 378.04714579 384.53806127 375.77763748 384.53421688 C374.13821377 384.53866777 372.4987922 384.54398132 370.85937381 384.5500856 C366.34601322 384.56429403 361.83272141 384.56592836 357.31934166 384.5654887 C352.45484995 384.56713441 347.59038677 384.58019632 342.72591019 384.59168148 C332.08545379 384.61454979 321.44501732 384.62245406 310.80453968 384.62750793 C304.16235748 384.63076281 297.52018109 384.63728403 290.87800217 384.64450932 C272.49271837 384.66407762 254.10743997 384.68048048 235.72214508 384.68338585 C234.54518878 384.68357342 233.36823248 384.68376099 232.15561084 384.68395424 C229.76956288 384.6843205 227.38351492 384.68468419 224.99746695 384.68504535 C223.81300611 384.68522817 222.62854527 384.68541098 221.40819168 384.68559933 C219.6293354 384.68587015 219.6293354 384.68587015 217.81454262 384.68614645 C198.59516801 384.68968869 179.37590539 384.71671321 160.15656963 384.75409722 C140.43090189 384.79215949 120.70528975 384.81154317 100.97958446 384.81184536 C89.90166645 384.8124304 78.82388205 384.82095233 67.74599838 384.84984303 C58.31355354 384.87432907 48.88129102 384.88165856 39.448823 384.8665955 C34.63563736 384.85941524 29.82281194 384.86033207 25.00966644 384.8830061 C20.6027187 384.9035678 16.19640876 384.90102218 11.78946814 384.88013125 C10.19591145 384.87663096 8.60230901 384.88156926 7.00881234 384.89583569 C-2.42077143 384.97481142 -9.17375442 384.54975714 -16.18880153 377.81739515 C-20.74863836 372.84844271 -21.93404621 367.66299854 -21.94282722 361.08083534 C-21.94927612 359.85525089 -21.95572501 358.62966644 -21.96236932 357.36694306 C-21.95942735 356.01520953 -21.95629194 354.66347642 -21.95298386 353.31174374 C-21.95672169 351.86929709 -21.96132375 350.42685247 -21.9667145 348.98441106 C-21.97894339 345.02476857 -21.97868417 341.06521057 -21.97632575 337.10555351 C-21.97591756 332.83345004 -21.98695696 328.56137365 -21.99644089 324.2892828 C-22.01305114 315.92101503 -22.01855044 307.55277543 -22.01966564 299.18449255 C-22.02061608 292.38217198 -22.02472618 285.5798607 -22.03106689 278.77754307 C-22.0486792 259.49044327 -22.05790576 240.20336572 -22.05640595 220.91625782 C-22.05632603 219.8765663 -22.05624612 218.83687478 -22.05616379 217.76567745 C-22.05608203 216.72471608 -22.05600027 215.68375472 -22.05591603 214.61124907 C-22.05510308 197.74003819 -22.07424295 180.86891658 -22.10244052 163.99773153 C-22.13116714 146.67327164 -22.14498094 129.34885528 -22.14325297 112.02437097 C-22.142589 102.29848035 -22.14808429 92.57268332 -22.16960907 82.84681416 C-22.18781791 74.56619072 -22.19217063 66.28570329 -22.17859022 58.0050685 C-22.17205913 53.7811358 -22.17194839 49.55746407 -22.18929672 45.33355618 C-22.20502635 41.46393054 -22.20216524 37.59477282 -22.18472846 33.72515861 C-22.1816583 32.32814595 -22.18529164 30.93109838 -22.19644861 29.5341269 C-22.26037824 20.95893281 -22.10839 12.91267646 -15.90623987 6.38830155 C-10.80657287 1.74784428 -6.98452347 0.01132526 0 0 Z " fill="#FFFFFF" transform="translate(63.6855583190918,63.7399377822876)"/>
<path d="M0 0 C1.10056158 -0.00128164 1.10056158 -0.00128164 2.22335672 -0.00258917 C4.65841088 -0.00422374 7.09339467 0.00124396 9.52844238 0.00672913 C11.28329466 0.00701146 13.03814706 0.00685236 14.79299927 0.00628662 C19.54031843 0.00600046 24.28761218 0.01186798 29.03492546 0.01886058 C34.00236761 0.0251242 38.96981037 0.0257003 43.93725586 0.02688599 C53.33639276 0.02999044 62.73551799 0.03819187 72.13464975 0.04823548 C84.84095007 0.06151744 97.5472536 0.06690368 110.25355911 0.07273769 C130.26251332 0.08213236 150.27144289 0.10205721 170.28039551 0.12025452 C170.28039551 56.88025452 170.28039551 113.64025452 170.28039551 172.12025452 C126.32769764 172.24116362 126.32769764 172.24116362 107.83703613 172.26673889 C95.09554399 172.2845043 82.35411158 172.305331 69.6126709 172.34657288 C60.33103542 172.37660147 51.04944865 172.39585929 41.76776594 172.40252 C36.85934281 172.40640958 31.95105895 172.41546378 27.04268074 172.43744469 C22.40929704 172.4580232 17.77610809 172.46404583 13.14268303 172.45957756 C11.45501517 172.46039332 9.76733982 172.46623035 8.07971191 172.47787094 C-16.92620433 172.64168347 -39.51779958 167.01159835 -58.71960449 150.12025452 C-59.48144043 149.4538092 -60.24327637 148.78736389 -61.02819824 148.10072327 C-76.71999033 133.44235943 -85.72989284 111.76376804 -86.92272949 90.49916077 C-87.20963809 67.14001932 -80.32534132 45.8606023 -64.71960449 28.12025452 C-64.05315918 27.35841858 -63.38671387 26.59658264 -62.70007324 25.81166077 C-46.71847076 8.70334048 -23.13193224 -0.01633611 0 0 Z M-0.71960449 65.12025452 C-0.71960449 78.98025452 -0.71960449 92.84025452 -0.71960449 107.12025452 C20.40039551 107.12025452 41.52039551 107.12025452 63.28039551 107.12025452 C63.28039551 93.26025452 63.28039551 79.40025452 63.28039551 65.12025452 C42.16039551 65.12025452 21.04039551 65.12025452 -0.71960449 65.12025452 Z " fill="#FFFFFF" transform="translate(320.7196044921875,169.87974548339844)"/>
</svg>
