<?xml version="1.0" encoding="UTF-8"?>
<svg version="1.1" xmlns="http://www.w3.org/2000/svg" width="512" height="512">
<path d="M0 0 C2.40311639 1.59774766 4.70219245 3.31050198 6.98779297 5.0715332 C35.77967598 27.15283747 71.36576579 35.72365262 107.33007812 32.125 C113.37083506 31.28248414 119.27607162 30.00871528 125.16796875 28.44140625 C125.85487793 28.2594873 126.54178711 28.07756836 127.24951172 27.89013672 C137.50530139 25.05580018 146.85374461 20.48422206 156.16796875 15.44140625 C157.08320313 14.94769531 157.9984375 14.45398438 158.94140625 13.9453125 C162.67822053 11.81085386 166.1342218 9.50545017 169.48828125 6.8125 C170.06682861 6.35020996 170.64537598 5.88791992 171.24145508 5.41162109 C172.37878132 4.49096644 173.50432489 3.5555123 174.6159668 2.60400391 C176.95466003 0.69366539 178.51461085 -0.5427867 181.58984375 -0.6171875 C185.15663355 0.84735801 188.3672608 2.74680132 191.60546875 4.81640625 C192.30776611 5.26193848 193.01006348 5.7074707 193.73364258 6.16650391 C205.935145 14.042606 216.68925711 23.4299885 227.16796875 33.44140625 C227.895 34.11558594 228.62203125 34.78976562 229.37109375 35.484375 C243.21561552 48.68169351 254.17995039 65.71765272 263.16796875 82.44140625 C263.50183594 83.05854492 263.83570313 83.67568359 264.1796875 84.31152344 C273.88445432 102.42894732 279.83950844 121.38894204 284.16796875 141.44140625 C284.34875977 142.25109863 284.52955078 143.06079102 284.71582031 143.89501953 C287.49534347 156.91125572 287.44900222 170.06767173 287.48046875 183.31640625 C287.48611847 184.63872757 287.48611847 184.63872757 287.49188232 185.98776245 C287.55178852 213.6737667 287.55178852 213.6737667 284.16796875 220.44140625 C155.79796875 220.44140625 27.42796875 220.44140625 -104.83203125 220.44140625 C-111.98419484 158.45598844 -101.78980978 100.5273211 -62.4609375 50.6640625 C-58.17919682 45.34664882 -53.5515172 40.36946146 -48.83203125 35.44140625 C-48.36039551 34.94253906 -47.88875977 34.44367188 -47.40283203 33.9296875 C-11.79430325 -3.59613084 -11.79430325 -3.59613084 0 0 Z " fill="#FFFFFF" transform="translate(224.83203125,281.55859375)"/>
<path d="M0 0 C2.41319376 2.13953262 4.7383461 4.33048264 7.02734375 6.6015625 C7.87296875 7.4059375 8.71859375 8.2103125 9.58984375 9.0390625 C10.79640625 10.3075 10.79640625 10.3075 12.02734375 11.6015625 C12.68089844 12.26027344 13.33445312 12.91898438 14.0078125 13.59765625 C32.85707917 33.35532131 40.61637307 59.65573554 40.37695312 86.51220703 C39.64853271 114.73849826 27.63933857 140.38662357 7.5625 160.03515625 C-14.28249796 180.45934133 -41.94816954 188.74473218 -71.39453125 187.921875 C-78.49006617 187.58979441 -85.11777848 186.53558945 -91.97265625 184.6015625 C-93.19855469 184.26125 -94.42445313 183.9209375 -95.6875 183.5703125 C-109.33642281 179.40098211 -121.24359714 173.04819199 -131.97265625 163.6015625 C-132.77960938 162.93769531 -133.5865625 162.27382813 -134.41796875 161.58984375 C-148.69392843 149.48436696 -158.34368414 134.01877228 -164.34765625 116.4140625 C-164.58653564 115.71442383 -164.82541504 115.01478516 -165.0715332 114.29394531 C-168.31899546 104.13431312 -169.34233896 93.91510243 -169.28515625 83.2890625 C-169.2802417 82.19674316 -169.27532715 81.10442383 -169.27026367 79.97900391 C-169.14780066 71.50205147 -168.30979307 63.78623443 -165.97265625 55.6015625 C-165.62074219 54.35375 -165.26882812 53.1059375 -164.90625 51.8203125 C-157.19392035 26.08424888 -139.30878809 4.45150324 -116.01953125 -8.6875 C-107.05712574 -13.49605888 -97.79974888 -16.84070106 -87.97265625 -19.3984375 C-87.02777344 -19.64464844 -86.08289063 -19.89085938 -85.109375 -20.14453125 C-56.08165008 -26.23573257 -23.07991858 -18.62164258 0 0 Z " fill="#FFFFFF" transform="translate(378.97265625,95.3984375)"/>
<path d="M0 0 C2.07038615 1.43736486 4.06359779 2.90747609 6.0625 4.4375 C27.60054013 20.2339747 51.57874109 27.93647147 78.1875 28.625 C79.42564453 28.66367188 80.66378906 28.70234375 81.93945312 28.7421875 C84.95949626 28.83547069 87.9795486 28.92126406 91 29 C91.40089844 29.99257812 91.80179688 30.98515625 92.21484375 32.0078125 C95.55535561 40.06052954 99.23116213 47.44677328 104.15405273 54.65673828 C107 58.8319489 107 58.8319489 107 61 C105.38623047 62.15405273 105.38623047 62.15405273 103.1171875 63.43359375 C102.28638672 63.9119165 101.45558594 64.39023926 100.59960938 64.88305664 C99.70048828 65.39602295 98.80136719 65.90898926 97.875 66.4375 C84.81233254 74.08931519 73.47706594 83.06735878 62.54931641 93.52246094 C61.49292963 94.52990701 60.42978264 95.53030044 59.36083984 96.52441406 C32.53485996 121.51660184 15.56691002 154.04650064 4.72680664 188.70849609 C3.84718545 191.48179959 2.9200514 194.23984581 2 197 C-30.34 197 -62.68 197 -96 197 C-98.3082406 180.84231578 -98.3082406 180.84231578 -98.30078125 173.8046875 C-98.30642593 173.01276505 -98.31207062 172.22084259 -98.31788635 171.40492249 C-98.32969801 168.89473695 -98.32376115 166.38518205 -98.3125 163.875 C-98.31034485 163.01149933 -98.3081897 162.14799866 -98.30596924 161.2583313 C-98.25534947 148.62606569 -97.9310188 136.34293363 -95 124 C-94.80132324 123.13777832 -94.60264648 122.27555664 -94.39794922 121.38720703 C-82.33462464 70.34172347 -52.29985683 28.80986098 -8 1 C-4.87713929 -0.91960793 -3.43345741 -1.45528195 0 0 Z " fill="#FFFFFF" transform="translate(98,198)"/>
<path d="M0 0 C1.70586575 1.62652316 3.3777546 3.29006566 5 5 C5.54140625 5.50917969 6.0828125 6.01835938 6.640625 6.54296875 C11.15957279 10.83596915 15.07068187 15.46326684 18 21 C18 21.99 18 22.98 18 24 C17.05640625 24.47308594 16.1128125 24.94617187 15.140625 25.43359375 C2.32096855 31.98526576 -8.512055 40.11953392 -19 50 C-19.66386719 50.59941406 -20.32773438 51.19882813 -21.01171875 51.81640625 C-46.00235427 75.28631344 -57.82659923 110.52198815 -58.953125 144.05078125 C-59.07174304 150.10148755 -58.68486029 156.08051283 -58.15625 162.10546875 C-58.1046875 163.06066406 -58.053125 164.01585937 -58 165 C-59 166 -59 166 -62.3671875 166.0546875 C-90.24848421 165.19228165 -113.91680106 154.54066172 -133.17578125 134.234375 C-151.81993689 113.57343887 -157.3088707 87.03592057 -156 60 C-154.21511511 40.98119302 -145.25218339 23.34894879 -133 9 C-132.36578125 8.17242187 -131.7315625 7.34484375 -131.078125 6.4921875 C-118.29295039 -8.84040912 -97.37215731 -18.62270619 -78 -22 C-76.741875 -22.226875 -75.48375 -22.45375 -74.1875 -22.6875 C-47.22659897 -25.33846726 -20.49791795 -18.18176903 0 0 Z " fill="#FFFFFF" transform="translate(239,33)"/>
</svg>
