<?xml version="1.0" encoding="UTF-8"?>
<svg version="1.1" xmlns="http://www.w3.org/2000/svg" width="512" height="512">
<path d="M0 0 C15.95125623 6.21170613 27.53290571 20.40493204 39.29721451 32.3137455 C41.62444232 34.66804063 43.9563804 37.01757542 46.2897644 39.36576843 C52.91487452 46.03322321 59.53699997 52.70356252 66.14306641 59.38989258 C70.20711764 63.5026369 74.2810171 67.60540228 78.36138535 71.7019558 C79.90310859 73.25352042 81.44118401 74.80871926 82.97537613 76.36773109 C99.37452771 93.11796469 99.37452771 93.11796469 121.375 99.4375 C135.3812044 98.98758003 145.88921164 90.61955354 155.2668457 80.99438477 C156.03892365 80.21471344 156.81100159 79.43504211 157.60647583 78.63174438 C159.26953072 76.95068415 160.92916036 75.26622965 162.58565712 73.57870674 C165.21552158 70.90094209 167.8557742 68.23382472 170.49906921 65.56932068 C177.53556099 58.47294449 184.55685481 51.36163539 191.56865805 44.24087232 C196.62939616 39.10160983 201.70181671 33.97415205 206.78517723 28.85725212 C208.53019079 27.09555777 210.27038544 25.32907559 212.00545692 23.55758858 C233.17542782 1.94523761 251.73132596 -4.71485152 281.85516357 -5.16506958 C300.0294699 -4.89039959 309.86001872 1.98580386 322.20617676 14.70404053 C325.63875877 18.34302184 328.94269328 22.08477146 332.23327637 25.85192871 C335.61422306 29.66263074 339.14384091 33.3304851 342.65625 37.01953125 C364.00099994 59.67078733 381.84470534 81.24480873 381.2421875 114.08203125 C379.99678404 134.22944528 372.52936372 150.64184002 358.9140625 165.53466797 C355.50267077 169.29957135 352.17355782 173.12370936 348.890625 177.00048828 C307.93769721 225.14385583 307.93769721 225.14385583 287.0625 227.62109375 C275.20954565 228.42785963 263.49115119 226.83697742 252 224 C250.72511719 223.70464355 249.45023437 223.40928711 248.13671875 223.10498047 C232.67814063 218.96558741 222.99490098 208.52024449 212.11118698 197.44241142 C209.47911035 194.76347747 206.83477051 192.09719067 204.18716431 189.43360901 C199.04772543 184.25876809 193.92194006 179.07055999 188.79868317 173.87971497 C181.82698432 166.81726691 174.84590433 159.76421572 167.852314 152.72343636 C165.25733056 150.10539897 162.67204527 147.47805118 160.08724976 144.84996033 C158.4861559 143.23476438 156.88466498 141.61996192 155.28271484 140.00561523 C154.574944 139.28077438 153.86717316 138.55593353 153.13795471 137.80912781 C143.87197189 128.52050491 134.90202772 122.9790869 121.625 122.5625 C101.95146743 123.05384697 90.81882032 136.91421953 77.92533112 150.04660034 C75.40667094 152.60977509 72.87975712 155.16454197 70.35028076 157.71704102 C63.16488621 164.9691755 55.98793895 172.22950193 48.83203125 179.51074219 C44.43750549 183.98103982 40.02807713 188.43617845 35.60909271 192.8822937 C33.94032224 194.56704567 32.27709405 196.25730804 30.61985016 197.95339966 C18.25830744 210.59966143 7.09686883 221.08132125 -11 224 C-11.65667034 224.1161478 -12.31334068 224.23229561 -12.98991013 224.35196304 C-27.76708151 226.89120554 -45.05340159 228.86908021 -57.9460392 219.87525749 C-67.27484066 212.60910951 -75.18207393 203.79057198 -83.00653076 194.97320557 C-86.45161451 191.14316427 -90.02720159 187.43896458 -93.58789062 183.71679688 C-116.40570191 159.65502426 -132.16050432 138.51329344 -131.33984375 104.04296875 C-130.87791323 93.40870358 -127.87131192 84.31197233 -123.3125 74.75 C-122.87744141 73.82948853 -122.87744141 73.82948853 -122.43359375 72.89038086 C-114.59738256 57.60855474 -99.89078254 44.37409356 -88.1517458 32.01862049 C-84.9029515 28.59470477 -81.69998467 25.14516404 -78.57983398 21.60327148 C-55.1713501 -4.87998441 -34.09388051 -9.61652817 0 0 Z " fill="#FFFFFF" transform="translate(131,145)"/>
<path d="M0 0 C1.09892578 0.01160156 2.19785156 0.02320312 3.33007812 0.03515625 C14.71807305 0.26494368 23.90789749 2.41081197 34.25 7.0625 C34.92740234 7.36478516 35.60480469 7.66707031 36.30273438 7.97851562 C46.70558973 12.97389641 54.8373998 21.35672962 62.87744141 29.44702148 C63.86370514 30.43220919 64.85040241 31.41696305 65.8374939 32.40132141 C68.48601784 35.04505042 71.12833609 37.69489916 73.76934862 40.34612918 C76.54199908 43.12763123 79.31998917 45.90379154 82.09725952 48.68067932 C86.74876034 53.33311245 91.39639476 57.98937907 96.04150391 62.64819336 C101.41650694 68.03899598 106.79679409 73.42447872 112.18006766 78.80702156 C117.91923667 84.54551672 123.65460035 90.28780338 129.38883162 96.03123212 C131.04154763 97.68608209 132.69497575 99.34021773 134.34856033 100.99419975 C136.93650426 103.58314405 139.52189758 106.17460865 142.10528946 108.76809502 C143.51101715 110.17815943 144.91920885 111.58576606 146.32745361 112.99331665 C147.15441742 113.82454544 147.98138123 114.65577423 148.83340454 115.51219177 C149.55785074 116.23831382 150.28229694 116.96443586 151.02869606 117.71256161 C152.5625 119.375 152.5625 119.375 152.5625 120.375 C151.77713867 120.41987549 150.99177734 120.46475098 150.18261719 120.51098633 C146.55844713 120.72478361 142.93558359 120.95604546 139.3125 121.1875 C138.07757813 121.25775391 136.84265625 121.32800781 135.5703125 121.40039062 C124.50489294 122.12837875 114.33641223 123.9270518 104.4375 129.0625 C103.81230469 129.36349609 103.18710937 129.66449219 102.54296875 129.97460938 C90.12514812 136.25908452 80.68328163 147.00690796 71.02754784 156.75962257 C68.43841162 159.37450662 65.84288549 161.98289768 63.24568176 164.58976746 C57.74145492 170.11672543 52.24517207 175.6515412 46.75 181.1875 C40.3616091 187.62314231 33.96997684 194.05549545 27.56987953 200.47949791 C25.01488549 203.04744009 22.4659941 205.62133578 19.9172821 208.19551086 C18.35294699 209.76710991 16.78833104 211.33842947 15.22338867 212.90942383 C14.51836716 213.62477798 13.81334564 214.34013214 13.08695984 215.0771637 C7.67712209 220.48816214 3.50795869 223.95681796 -4.4375 224.375 C-13.36068755 222.85615957 -20.23713088 213.71352835 -26.33129883 207.53125 C-27.07557632 206.78069336 -27.81985382 206.03013672 -28.58668518 205.25683594 C-30.18964083 203.64011836 -31.79151607 202.02232898 -33.39240456 200.40356445 C-35.93392482 197.83519019 -38.47998233 195.27139782 -41.0275116 192.70898438 C-48.26622531 185.42773492 -55.50227305 178.14390773 -62.72192383 170.84375 C-67.15093329 166.36601783 -71.58981882 161.89828212 -76.03516197 157.43676758 C-77.71840027 155.74368292 -79.39798988 154.04696211 -81.07370949 152.34643555 C-93.10850985 139.90318574 -93.10850985 139.90318574 -107.4375 130.375 C-108.36436111 129.89256836 -109.29122223 129.41013672 -110.24617004 128.91308594 C-123.67508433 122.17287874 -137.72161698 121.75275845 -152.4375 121.375 C-150.96914417 117.99152937 -149.08648029 115.7666258 -146.49481201 113.15815735 C-145.67087952 112.32424973 -144.84694702 111.4903421 -143.99804688 110.63116455 C-142.63921387 109.27133453 -142.63921387 109.27133453 -141.25292969 107.8840332 C-140.28974767 106.91322658 -139.32696887 105.94201977 -138.36456299 104.97044373 C-135.74898709 102.33292617 -133.12687127 99.70200676 -130.50284481 97.0728991 C-128.85911186 95.42551752 -127.21668373 93.77684622 -125.57468414 92.12773705 C-119.83221003 86.36075476 -114.08402334 80.59953008 -108.33105469 74.84301758 C-102.99341814 69.5017605 -97.66900886 64.14756616 -92.35060573 58.78716403 C-87.76827053 54.1699343 -83.17616195 49.56257299 -78.57669377 44.96241063 C-75.83719015 42.22211969 -73.10168109 39.47812864 -70.37618256 36.72390175 C-50.1917295 16.33996615 -30.3380219 -0.41327336 0 0 Z " fill="#FFFFFF" transform="translate(255.4375,-0.375)"/>
<path d="M0 0 C1.05380859 -0.01546875 1.05380859 -0.01546875 2.12890625 -0.03125 C8.68950119 1.4784639 13.48415479 7.28256899 18.02832031 11.89550781 C18.76415848 12.63426651 19.49999664 13.37302521 20.25813293 14.13417053 C21.84976099 15.73338769 23.43907498 17.33491057 25.02631378 18.93848419 C27.54515152 21.48295196 30.07027359 24.02102995 32.59710693 26.55755615 C38.87399473 32.86112725 45.14002891 39.17545202 51.40631104 45.48956299 C56.70103346 50.82389889 61.99993128 56.15402121 67.30434418 61.47872162 C69.77992007 63.96716942 72.24934235 66.46161209 74.71856689 68.95635986 C92.52998741 86.88380287 110.86841888 101.82266899 137.2734375 102.81640625 C138.33691406 102.85830078 139.40039062 102.90019531 140.49609375 102.94335938 C141.59050781 102.98267578 142.68492187 103.02199219 143.8125 103.0625 C145.48892578 103.12727539 145.48892578 103.12727539 147.19921875 103.19335938 C149.94520199 103.29897411 152.69126881 103.4010797 155.4375 103.5 C153.98942594 106.8169016 152.18136718 109.00925359 149.63320923 111.56498718 C148.84004303 112.36523819 148.04687683 113.1654892 147.22967529 113.98999023 C146.35804749 114.85914063 145.48641968 115.72829102 144.58837891 116.6237793 C143.67101959 117.54624954 142.75366028 118.46871979 141.8085022 119.41914368 C139.29201358 121.94902359 136.76915492 124.47245856 134.24469805 126.99438453 C132.1312268 129.10678432 130.02074407 131.22215758 127.91020334 133.33748466 C122.92149056 138.337297 117.92746334 143.3317573 112.93017578 148.32299805 C107.79791109 153.44924695 102.67483567 158.58454713 97.5562712 163.7244727 C93.14710121 168.15135644 88.73203989 172.57230534 84.31238496 176.98872119 C81.67953121 179.61977452 79.04887491 182.25292729 76.42393875 184.89188194 C73.48465805 187.84626894 70.53316921 190.78817499 67.58056641 193.72924805 C66.30348816 195.0177919 66.30348816 195.0177919 65.00061035 196.33236694 C47.84498152 213.34148962 27.98305688 223.74942085 3.5 224 C-23.41698949 223.7019748 -42.13590888 212.28729685 -60.78564453 193.51977539 C-61.7620562 192.54443979 -62.73890141 191.56953806 -63.71614075 190.59503174 C-66.33780584 187.97816084 -68.95326602 185.3551719 -71.56741953 182.73079991 C-74.31204224 179.97732455 -77.06200563 177.22919202 -79.81124878 174.48033142 C-84.41567125 169.8749767 -89.01622749 165.26578899 -93.61425781 160.65405273 C-98.93472894 155.31778127 -104.26048476 149.98683064 -109.58922684 144.65881926 C-115.27049243 138.97822752 -120.94795269 133.2938444 -126.62428045 127.60831904 C-128.26024551 125.97022006 -129.89692264 124.33283538 -131.53375626 122.69560432 C-134.09543543 120.13292478 -136.65456383 117.56772509 -139.2116909 115.00050354 C-140.60310523 113.60475255 -141.99698353 112.21145926 -143.39091492 110.81822205 C-144.20946457 109.99540741 -145.02801422 109.17259277 -145.87136841 108.32484436 C-146.94697619 107.24672281 -146.94697619 107.24672281 -148.04431343 106.14682102 C-149.5625 104.5 -149.5625 104.5 -149.5625 103.5 C-148.94955078 103.46559814 -148.33660156 103.43119629 -147.70507812 103.39575195 C-113.18777786 101.31425806 -94.57018668 87.75260197 -70.80319786 63.75473213 C-68.39657802 61.32577697 -65.98574704 58.90107379 -63.57368469 56.4775238 C-56.7253367 49.59585578 -49.88143976 42.70980569 -43.04760742 35.8137207 C-38.84514552 31.5735752 -34.63537044 27.3408092 -30.42084694 23.11265373 C-28.82452356 21.50829994 -27.23097679 19.90117828 -25.64032555 18.29120064 C-23.42033591 16.04467334 -21.19115715 13.80765553 -18.9597168 11.57250977 C-18.31178162 10.91221771 -17.66384644 10.25192566 -16.99627686 9.57162476 C-12.315333 4.91107266 -7.01887175 -0.10340879 0 0 Z " fill="#FFFFFF" transform="translate(252.5625,287.5)"/>
</svg>
