<?xml version="1.0" encoding="UTF-8"?>
<svg version="1.1" xmlns="http://www.w3.org/2000/svg" width="512" height="512">
<path d="M0 0 C0.95315094 0.00215515 1.90630188 0.0043103 2.88833618 0.00653076 C16.76293652 0.05691343 30.32846728 0.36162265 43.9375 3.3125 C44.87932129 3.51117676 45.82114258 3.70985352 46.79150391 3.91455078 C81.38299949 11.40759745 113.43401849 25.95411075 140.9375 48.3125 C141.45344727 48.7254834 141.96939453 49.1384668 142.50097656 49.56396484 C157.00139929 61.20851713 169.92549884 74.32727292 180.9375 89.3125 C181.79666992 90.45327948 182.65604547 91.59390413 183.515625 92.734375 C189.78877765 101.1675888 195.09420321 109.99063091 199.9375 119.3125 C200.34500488 120.0947998 200.75250977 120.87709961 201.17236328 121.68310547 C217.55356688 153.55680557 225.39509706 187.6403867 225.25 223.375 C225.24784485 224.32815094 225.2456897 225.28130188 225.24346924 226.26333618 C225.19308657 240.13793652 224.88837735 253.70346728 221.9375 267.3125 C221.63948486 268.72523193 221.63948486 268.72523193 221.33544922 270.16650391 C213.24964324 307.49446066 196.92285152 341.38563154 171.9375 370.3125 C171.15761719 371.22257812 170.37773437 372.13265625 169.57421875 373.0703125 C167.40833724 375.53316132 165.19405306 377.93245399 162.9375 380.3125 C162.46908691 380.80814453 162.00067383 381.30378906 161.51806641 381.81445312 C153.57576073 390.15983145 145.17644802 397.44456378 135.9375 404.3125 C135.37981934 404.7362793 134.82213867 405.16005859 134.24755859 405.59667969 C124.68833113 412.8546633 114.58407863 418.78999079 103.9375 424.3125 C102.81432373 424.89862061 102.81432373 424.89862061 101.66845703 425.49658203 C81.61581142 435.82857219 60.14553988 442.48819397 37.9375 446.3125 C36.85629883 446.49868896 35.77509766 446.68487793 34.66113281 446.87670898 C24.62226947 448.41342309 14.72759701 448.65229047 4.58789062 448.62817383 C1.83683039 448.62502782 -0.91313517 448.64852038 -3.6640625 448.67382812 C-20.51284823 448.73472497 -36.9994551 446.70600356 -53.375 442.6875 C-54.92320435 442.30899902 -54.92320435 442.30899902 -56.50268555 441.92285156 C-89.40862664 433.51963393 -119.42310515 417.45832245 -145.0625 395.3125 C-145.97257812 394.53261719 -146.88265625 393.75273437 -147.8203125 392.94921875 C-150.28316132 390.78333724 -152.68245399 388.56905306 -155.0625 386.3125 C-155.55814453 385.84408691 -156.05378906 385.37567383 -156.56445312 384.89306641 C-164.90838859 376.9521339 -172.20250843 368.5558956 -179.0625 359.3125 C-179.49159668 358.74418457 -179.92069336 358.17586914 -180.36279297 357.59033203 C-186.66585001 349.2252374 -192.08123194 340.55014064 -197.00097656 331.30517578 C-197.68796266 330.01557584 -198.38217465 328.72978838 -199.08496094 327.44873047 C-226.91296995 276.6388584 -230.34982955 215.54537472 -214.97558594 160.41015625 C-203.35367127 120.80492348 -203.35367127 120.80492348 -192.0625 114.3125 C-187.21015268 112.04807125 -183.15411341 111.91739792 -178.0625 113.3125 C-173.27995967 115.7957421 -170.34040046 118.40625286 -168.0625 123.3125 C-166.26555896 131.74739489 -168.92548033 137.86462007 -172.64453125 145.1953125 C-193.81321445 187.45892042 -195.16010983 239.51586457 -180.72021484 284.04394531 C-170.78225464 312.92201569 -155.00095825 337.31101233 -134.0625 359.3125 C-133.41023438 360.01761719 -132.75796875 360.72273438 -132.0859375 361.44921875 C-98.5206632 396.65704903 -48.27114758 414.06585835 -0.58251953 415.27636719 C50.19331681 416.00440669 98.2909022 395.17971082 134.875 360.5625 C160.74304174 335.26930363 178.67339954 302.44607746 186.9375 267.3125 C187.14777832 266.43948242 187.35805664 265.56646484 187.57470703 264.66699219 C193.7117973 238.04863868 193.3241839 207.82824969 186.9375 181.3125 C186.72851074 180.42401367 186.51952148 179.53552734 186.30419922 178.62011719 C174.52024117 129.98370606 143.31094879 87.93532665 100.99169922 61.55517578 C58.29474009 35.72590053 6.99211523 26.91817688 -41.77636719 38.15405273 C-76.03191086 46.58659987 -105.84506878 62.58548343 -131.34375 86.90234375 C-137.39913422 92.27040706 -141.189314 93.99343512 -149.21875 93.6953125 C-154.5633298 92.97584983 -157.05523753 90.53754895 -160.375 86.5 C-162.95710948 81.62268208 -163.59650051 77.49572447 -162.375 72.125 C-157.93318378 60.3401813 -143.80755603 51.57949668 -134.0625 44.3125 C-133.50336914 43.88727051 -132.94423828 43.46204102 -132.36816406 43.02392578 C-122.81049756 35.76779893 -112.70692424 29.83389171 -102.0625 24.3125 C-101.31371582 23.92175293 -100.56493164 23.53100586 -99.79345703 23.12841797 C-68.70409727 7.10983541 -34.80981968 -0.14134202 0 0 Z " fill="#FFFFFF" transform="translate(255.0625,31.6875)"/>
<path d="M0 0 C4.97447267 2.3095766 7.31899945 5.280301 10 10 C10.48101807 13.3789978 10.48101807 13.3789978 10.45410156 17.10693359 C10.45468567 17.79055969 10.45526978 18.47418579 10.45587158 19.17852783 C10.45310371 21.41902975 10.42207681 23.65817051 10.390625 25.8984375 C10.38315791 27.45927199 10.37746719 29.02011589 10.37347412 30.58096313 C10.35825441 34.67468478 10.31900507 38.76783222 10.2746582 42.86132812 C10.23362584 47.04419183 10.21544617 51.22714898 10.1953125 55.41015625 C10.15250648 63.60703335 10.08430054 71.8034451 10 80 C10.86364166 79.99111755 11.72728333 79.98223511 12.61709595 79.9730835 C20.7679158 79.89283661 28.91860241 79.83198435 37.06972694 79.79275131 C41.26003538 79.77190282 45.45001659 79.74363584 49.64013672 79.69824219 C53.68612242 79.65468581 57.73179395 79.6308423 61.77799606 79.62049103 C63.31934935 79.61311714 64.86068602 79.59871743 66.40190506 79.57707977 C68.56599936 79.54791389 70.72880625 79.54404924 72.89306641 79.54589844 C74.12328522 79.53701599 75.35350403 79.52813354 76.6210022 79.51898193 C81.79530458 80.25557103 84.84228406 82.78135165 88.375 86.5 C90.77303575 91.66500009 90.75381535 96.4002288 90 102 C87.6904234 106.97447267 84.719699 109.31899945 80 112 C76.6210022 112.48101807 76.6210022 112.48101807 72.89306641 112.45410156 C72.20944031 112.45468567 71.52581421 112.45526978 70.82147217 112.45587158 C68.58097025 112.45310371 66.34182949 112.42207681 64.1015625 112.390625 C62.54072801 112.38315791 60.97988411 112.37746719 59.41903687 112.37347412 C55.32531522 112.35825441 51.23216778 112.31900507 47.13867188 112.2746582 C42.95580817 112.23362584 38.77285102 112.21544617 34.58984375 112.1953125 C26.39296665 112.15250648 18.1965549 112.08430054 10 112 C10.00888245 112.86364166 10.01776489 113.72728333 10.0269165 114.61709595 C10.10716339 122.7679158 10.16801565 130.91860241 10.20724869 139.06972694 C10.22809718 143.26003538 10.25636416 147.45001659 10.30175781 151.64013672 C10.34531419 155.68612242 10.3691577 159.73179395 10.37950897 163.77799606 C10.38688286 165.31934935 10.40128257 166.86068602 10.42292023 168.40190506 C10.45208611 170.56599936 10.45595076 172.72880625 10.45410156 174.89306641 C10.46298401 176.12328522 10.47186646 177.35350403 10.48101807 178.6210022 C9.74442897 183.79530458 7.21864835 186.84228406 3.5 190.375 C-1.66500009 192.77303575 -6.4002288 192.75381535 -12 192 C-16.97447267 189.6904234 -19.31899945 186.719699 -22 182 C-22.48101807 178.6210022 -22.48101807 178.6210022 -22.45410156 174.89306641 C-22.45468567 174.20944031 -22.45526978 173.52581421 -22.45587158 172.82147217 C-22.45310371 170.58097025 -22.42207681 168.34182949 -22.390625 166.1015625 C-22.38315791 164.54072801 -22.37746719 162.97988411 -22.37347412 161.41903687 C-22.35825441 157.32531522 -22.31900507 153.23216778 -22.2746582 149.13867188 C-22.23362584 144.95580817 -22.21544617 140.77285102 -22.1953125 136.58984375 C-22.15250648 128.39296665 -22.08430054 120.1965549 -22 112 C-22.86364166 112.00888245 -23.72728333 112.01776489 -24.61709595 112.0269165 C-32.7679158 112.10716339 -40.91860241 112.16801565 -49.06972694 112.20724869 C-53.26003538 112.22809718 -57.45001659 112.25636416 -61.64013672 112.30175781 C-65.68612242 112.34531419 -69.73179395 112.3691577 -73.77799606 112.37950897 C-75.31934935 112.38688286 -76.86068602 112.40128257 -78.40190506 112.42292023 C-80.56599936 112.45208611 -82.72880625 112.45595076 -84.89306641 112.45410156 C-86.12328522 112.46298401 -87.35350403 112.47186646 -88.6210022 112.48101807 C-93.79530458 111.74442897 -96.84228406 109.21864835 -100.375 105.5 C-102.77303575 100.33499991 -102.75381535 95.5997712 -102 90 C-99.6904234 85.02552733 -96.719699 82.68100055 -92 80 C-88.6210022 79.51898193 -88.6210022 79.51898193 -84.89306641 79.54589844 C-84.20944031 79.54531433 -83.52581421 79.54473022 -82.82147217 79.54412842 C-80.58097025 79.54689629 -78.34182949 79.57792319 -76.1015625 79.609375 C-74.54072801 79.61684209 -72.97988411 79.62253281 -71.41903687 79.62652588 C-67.32531522 79.64174559 -63.23216778 79.68099493 -59.13867188 79.7253418 C-54.95580817 79.76637416 -50.77285102 79.78455383 -46.58984375 79.8046875 C-38.39296665 79.84749352 -30.1965549 79.91569946 -22 80 C-22.00888245 79.13635834 -22.01776489 78.27271667 -22.0269165 77.38290405 C-22.10716339 69.2320842 -22.16801565 61.08139759 -22.20724869 52.93027306 C-22.22809718 48.73996462 -22.25636416 44.54998341 -22.30175781 40.35986328 C-22.34531419 36.31387758 -22.3691577 32.26820605 -22.37950897 28.22200394 C-22.38688286 26.68065065 -22.40128257 25.13931398 -22.42292023 23.59809494 C-22.45208611 21.43400064 -22.45595076 19.27119375 -22.45410156 17.10693359 C-22.46298401 15.87671478 -22.47186646 14.64649597 -22.48101807 13.3789978 C-21.74442897 8.20469542 -19.21864835 5.15771594 -15.5 1.625 C-10.33499991 -0.77303575 -5.5997712 -0.75381535 0 0 Z " fill="#FFFFFF" transform="translate(262,160)"/>
</svg>
