<?xml version="1.0" encoding="UTF-8"?>
<svg version="1.1" xmlns="http://www.w3.org/2000/svg" width="48" height="48">
<path d="M0 0 C11 1 11 1 20 4 C20 14.56 20 25.12 20 36 C11 39 11 39 0 40 C0 26.8 0 13.6 0 0 Z M3 4 C3 14.56 3 25.12 3 36 C9.93 34.515 9.93 34.515 17 33 C17 24.42 17 15.84 17 7 C12.38 6.01 7.76 5.02 3 4 Z " fill="#676161" transform="translate(20,4)"/>
<path d="M0 0 C3.3 0 6.6 0 10 0 C10 0.99 10 1.98 10 3 C7.69 3 5.38 3 3 3 C3 11.58 3 20.16 3 29 C5.31 29 7.62 29 10 29 C10 29.99 10 30.98 10 32 C6.7 32 3.4 32 0 32 C0 21.44 0 10.88 0 0 Z " fill="#686262" transform="translate(8,8)"/>
<path d="M0 0 C1.32 0 2.64 0 4 0 C4 1.32 4 2.64 4 4 C2.68 4 1.36 4 0 4 C0 2.68 0 1.36 0 0 Z " fill="#686262" transform="translate(26,22)"/>
</svg>
