<?xml version="1.0" encoding="UTF-8"?>
<svg version="1.1" xmlns="http://www.w3.org/2000/svg" width="512" height="512">
<path d="M0 0 C0.66 -0.0103125 1.32 -0.020625 2 -0.03125 C5.14492042 0.80411949 6.1671436 1.78258115 8 4.5 C7.84569864 6.95828182 7.28577152 9.18570211 6.69119263 11.57588196 C2.7970135 27.44459986 1.38888859 45.52822874 9 60.5 C18.71505455 75.94231685 32.84039924 88.73172176 45.9375 101.25 C46.81340412 102.09102894 47.68930824 102.93205788 48.59175491 103.79857254 C54.5436588 109.49853164 60.5623127 115.11978984 66.65234375 120.671875 C67.45500546 121.40470388 68.25766716 122.13753277 69.08465195 122.89256859 C71.37215854 124.9641451 73.6787171 127.01146581 75.99584961 129.04980469 C76.65961137 129.6488691 77.32337313 130.24793352 78.00724888 130.86515141 C82.28772949 134.56102378 86.3490104 136.71142799 91.70937443 138.52827835 C96.88931241 140.72569461 100.00379972 144.92536085 102.9375 149.5625 C105.35229457 156.23336999 105.37970194 165.34891293 102.5625 171.875 C99.72819729 176.63662855 95.27062692 180.06889803 91 183.5 C97.25456528 199.60688934 105.60864157 211.48040805 119 222.5 C132.54285869 214.76808422 143.07966469 201.31045653 148 186.5 C148.4668502 182.59288138 148.4668502 182.59288138 146.390625 180.859375 C145.68421875 180.32828125 144.9778125 179.7971875 144.25 179.25 C138.93261668 174.77170731 136.41089022 171.15949099 135.625 164.16015625 C135.33871017 155.7772322 136.01760026 149.8599636 141.73046875 143.60546875 C145.01222387 140.49402427 147.97606601 138.47402086 152.16809082 136.79486084 C157.11031049 134.61805248 160.79938852 131.72595081 164.79882812 128.14160156 C165.52012468 127.50813498 166.24142124 126.87466839 166.98457527 126.22200584 C176.34730347 117.9379432 185.47058456 109.39456725 194.5 100.75 C195.36614174 99.9239904 196.23228348 99.0979808 197.12467194 98.24694061 C224.48280048 73.14245225 224.48280048 73.14245225 236.27410889 39.3125 C236.46567881 29.03533695 235.06291255 18.88698752 232.62841797 8.92041016 C232.11956787 6.5211792 232.11956787 6.5211792 232 4.5 C233.83426546 1.78160324 234.85404252 0.80439496 238 -0.03125 C238.99 -0.01578125 238.99 -0.01578125 240 0 C240.99 -0.01546875 240.99 -0.01546875 242 -0.03125 C245.14492042 0.80411949 246.1671436 1.78258115 248 4.5 C247.84569864 6.95828182 247.28577152 9.18570211 246.69119263 11.57588196 C242.7970135 27.44459986 241.38888859 45.52822874 249 60.5 C258.71505455 75.94231685 272.84039924 88.73172176 285.9375 101.25 C286.81340412 102.09102894 287.68930824 102.93205788 288.59175491 103.79857254 C294.5436588 109.49853164 300.5623127 115.11978984 306.65234375 120.671875 C307.45500546 121.40470388 308.25766716 122.13753277 309.08465195 122.89256859 C311.37215854 124.9641451 313.6787171 127.01146581 315.99584961 129.04980469 C316.65961137 129.6488691 317.32337313 130.24793352 318.00724888 130.86515141 C322.28772949 134.56102378 326.3490104 136.71142799 331.70937443 138.52827835 C337.01466224 140.7788701 340.18358019 145.00323035 342.875 149.9375 C345.20381085 157.31206769 345.50773352 163.18123424 343 170.5 C340.34474926 175.51547362 336.67591993 179.31661701 332 182.5 C329.0625 183.375 329.0625 183.375 327 183.5 C326.938125 184.510625 326.87625 185.52125 326.8125 186.5625 C323.13477584 214.7915179 301.84094587 239.89403055 280.21337891 256.90527344 C248.13744976 281.42284603 209.45286979 294.76753624 170 301.5 C169.09878418 301.66516113 168.19756836 301.83032227 167.26904297 302.00048828 C101.02389406 313.81296458 22.9034759 300.87873578 -32.86035156 262.20996094 C-58.53125954 243.79543973 -80.22204 219.0322487 -87 187.5 C-87 186.18 -87 184.86 -87 183.5 C-87.74121094 183.39816406 -88.48242188 183.29632813 -89.24609375 183.19140625 C-94.95586855 181.75788832 -99.49978581 176.89159033 -102.5 171.9375 C-105.28718052 165.5543589 -105.08483809 157.72408829 -103.375 151.06640625 C-100.38387736 144.21620129 -94.64181226 139.52263979 -87.83190918 136.79486084 C-82.88968951 134.61805248 -79.20061148 131.72595081 -75.20117188 128.14160156 C-74.47987532 127.50813498 -73.75857876 126.87466839 -73.01542473 126.22200584 C-63.65269653 117.9379432 -54.52941544 109.39456725 -45.5 100.75 C-44.63385826 99.9239904 -43.76771652 99.0979808 -42.87532806 98.24694061 C-15.51719952 73.14245225 -15.51719952 73.14245225 -3.72589111 39.3125 C-3.53432119 29.03533695 -4.93708745 18.88698752 -7.37158203 8.92041016 C-7.88043213 6.5211792 -7.88043213 6.5211792 -8 4.5 C-5.78121091 1.211736 -3.98061585 -0.06219712 0 0 Z M-13.70336914 90.07397461 C-14.1911937 90.56004684 -14.67901825 91.04611908 -15.18162537 91.54692078 C-16.80200346 93.16287848 -18.41867402 94.78248957 -20.03515625 96.40234375 C-21.15459273 97.52110725 -22.27417767 98.63972221 -23.39390564 99.75819397 C-25.74348405 102.10629515 -28.09123654 104.45620326 -30.43774414 106.80737305 C-33.45313997 109.82846617 -36.47300166 112.84504899 -39.49424076 115.8602972 C-41.80793206 118.17038356 -44.11924676 120.48283587 -46.42983818 122.79602242 C-47.54273387 123.90958756 -48.65637938 125.02240382 -49.77076912 126.1344738 C-51.32494715 127.6861264 -52.87590695 129.24092415 -54.42602539 130.79663086 C-55.31125381 131.68265488 -56.19648224 132.56867889 -57.10853577 133.48155212 C-59.11396355 135.16058399 -59.11396355 135.16058399 -59 136.5 C-42.17 136.5 -25.34 136.5 -8 136.5 C-8 119.67 -8 102.84 -8 85.5 C-10.1377607 85.5 -12.35779669 88.72961039 -13.70336914 90.07397461 Z M8 85.5 C8.33 102.33 8.66 119.16 9 136.5 C25.5 136.5 42 136.5 59 136.5 C55.46095488 132.37111402 52.10454104 128.47910608 48.2956543 124.66625977 C46.97980598 123.34568321 46.97980598 123.34568321 45.63737488 121.99842834 C44.70903336 121.07211105 43.78069183 120.14579376 42.82421875 119.19140625 C41.84855308 118.21506577 40.8730358 117.23857699 39.8976593 116.26194763 C37.86787998 114.23070388 35.83632746 112.20125551 33.8034668 110.1730957 C31.19280951 107.56818085 28.58672907 104.95874011 25.9819212 102.34797764 C23.97551864 100.3379743 21.96675646 98.33034284 19.95725441 96.32343864 C18.99440855 95.36126104 18.03230822 94.39833682 17.07095909 93.43466377 C15.73550903 92.09669027 14.3965332 90.76223863 13.05737305 89.42797852 C12.29603561 88.66743668 11.53469818 87.90689484 10.75028992 87.12330627 C9.27566311 85.3866651 9.27566311 85.3866651 8 85.5 Z M248 85.5 C248 102.33 248 119.16 248 136.5 C264.83 136.5 281.66 136.5 299 136.5 C295.46095488 132.37111402 292.10454104 128.47910608 288.2956543 124.66625977 C286.97980598 123.34568321 286.97980598 123.34568321 285.63737488 121.99842834 C284.70903336 121.07211105 283.78069183 120.14579376 282.82421875 119.19140625 C281.84855308 118.21506577 280.8730358 117.23857699 279.8976593 116.26194763 C277.86787998 114.23070388 275.83632746 112.20125551 273.8034668 110.1730957 C271.19280951 107.56818085 268.58672907 104.95874011 265.9819212 102.34797764 C263.97551864 100.3379743 261.96675646 98.33034284 259.95725441 96.32343864 C258.99440855 95.36126104 258.03230822 94.39833682 257.07095909 93.43466377 C255.73550903 92.09669027 254.3965332 90.76223863 253.05737305 89.42797852 C252.29603561 88.66743668 251.53469818 87.90689484 250.75028992 87.12330627 C249.27566311 85.3866651 249.27566311 85.3866651 248 85.5 Z M225.38842773 90.98217773 C224.91035675 91.4584964 224.43228577 91.93481506 223.93972778 92.42556763 C222.35181518 94.00905995 220.76761053 95.59620498 219.18359375 97.18359375 C218.08657751 98.279937 216.98941282 99.37613171 215.8921051 100.47218323 C213.58960508 102.77320604 211.28893112 105.07603554 208.98950195 107.38012695 C206.03464013 110.34068608 203.07531289 113.29673443 200.11460781 116.25144863 C197.8472396 118.51521186 195.58224814 120.78134099 193.31797981 123.04820442 C192.22741281 124.13944086 191.13609601 125.22992847 190.04403496 126.31966972 C188.52098964 127.84018954 187.00116342 129.36385388 185.48217773 130.88842773 C184.18098244 132.19081642 184.18098244 132.19081642 182.85350037 133.51951599 C180.88611461 135.16960055 180.88611461 135.16960055 181 136.5 C197.5 136.5 214 136.5 231 136.5 C231 120 231 103.5 231 86.5 C228.87678358 86.5 226.73019752 89.64163743 225.38842773 90.98217773 Z " fill="#696363" transform="translate(136,103.5)"/>
<path d="M0 0 C47.52 0 95.04 0 144 0 C146.64 6.6 149.28 13.2 152 20 C170.37381171 49.82415813 198.88177771 66.4857991 232.375 74.8125 C257.59095091 80.71589988 284.29671762 80.61621766 309.40283203 74.23339844 C314.71508294 72.90502765 314.71508294 72.90502765 318 74 C292.35924041 87.170865 266.43604543 96.02793902 238 101 C236.99340332 101.17789063 235.98680664 101.35578125 234.94970703 101.5390625 C205.05320795 106.53420108 171.8288319 106.27149518 142 101 C140.89414551 100.80664062 139.78829102 100.61328125 138.64892578 100.4140625 C98.26492153 93.08898629 59.61036376 77.87884405 29 50 C27.88238281 48.98873047 27.88238281 48.98873047 26.7421875 47.95703125 C14.19069827 36.0208111 4.66472176 20.68121698 0 4 C0 2.68 0 1.36 0 0 Z " fill="#110E00" transform="translate(66,288)"/>
</svg>
