<?xml version="1.0" encoding="UTF-8"?>
<svg version="1.1" xmlns="http://www.w3.org/2000/svg" width="48" height="48">
<path d="M0 0 C5.21124298 4.67420649 8.48207214 9.20711202 9.24609375 16.27734375 C9.61779168 23.58740305 8.11594846 29.52604895 3.1640625 35.046875 C-2.84718933 40.62052612 -8.24143835 42.52556923 -16.4140625 42.3046875 C-23.95110828 41.41663679 -28.97250979 37.85869138 -33.625 32 C-37.42458825 26.47332619 -37.76781852 20.51661357 -37 14 C-35.14192232 6.77936901 -31.07107696 2.17386541 -25 -2 C-16.9546304 -6.0226848 -7.38364072 -4.89508033 0 0 Z M-28.875 6.9375 C-32.49158132 12.14963191 -33.94370523 16.6063971 -33 23 C-30.77715004 29.84536749 -26.89027944 33.85010873 -20.625 37.3125 C-14.28004881 38.97427293 -9.48362976 38.4161193 -3.82421875 35.26953125 C0.51626923 32.24884904 3.65099599 28.15074258 5 23 C5.62355795 16.66049417 4.66416377 12.26512148 1 7 C-3.28114461 2.36698049 -7.58392715 0.23764651 -13.8125 -0.375 C-19.88621109 -0.19164268 -24.87755545 2.40081073 -28.875 6.9375 Z " fill="#686262" transform="translate(38,5)"/>
<path d="M0 0 C1.32 0 2.64 0 4 0 C4.00257812 0.72445313 4.00515625 1.44890625 4.0078125 2.1953125 C4.24065797 9.14574333 4.24065797 9.14574333 8.0625 14.6875 C9.031875 15.450625 10.00125 16.21375 11 17 C10.34 18.32 9.68 19.64 9 21 C4.99913677 19.37001868 2.47386444 17.57335975 0 14 C-0.43163092 9.30534761 -0.2862523 4.70089891 0 0 Z " fill="#656060" transform="translate(22,12)"/>
</svg>
