<?xml version="1.0" encoding="UTF-8"?>
<svg version="1.1" xmlns="http://www.w3.org/2000/svg" width="512" height="512">
<path d="M0 0 C0.8494519 -0.00974854 1.69890381 -0.01949707 2.57409668 -0.02954102 C21.69269555 -0.20373444 40.09401832 0.07726441 58.84765625 4.23828125 C59.69150879 4.4202002 60.53536133 4.60211914 61.40478516 4.78955078 C80.4106545 9.00679603 98.75727281 15.95553212 115.84765625 25.23828125 C116.50958984 25.59003418 117.17152344 25.94178711 117.85351562 26.30419922 C136.85434865 36.418279 153.21459327 49.50543679 168.84765625 64.23828125 C169.57984375 64.92792969 170.31203125 65.61757812 171.06640625 66.328125 C207.22251347 101.4081576 232.22026209 156.54927025 233.06298828 206.99743652 C233.07056152 207.78718872 233.07813477 208.57694092 233.0859375 209.390625 C233.09568604 210.2400769 233.10543457 211.08952881 233.11547852 211.96472168 C233.28967194 231.08332055 233.00867309 249.48464332 228.84765625 268.23828125 C228.6657373 269.08213379 228.48381836 269.92598633 228.29638672 270.79541016 C224.07914147 289.8012795 217.13040538 308.14789781 207.84765625 325.23828125 C207.32002686 326.23118164 207.32002686 326.23118164 206.78173828 327.24414062 C196.6676585 346.24497365 183.58050071 362.60521827 168.84765625 378.23828125 C167.81318359 379.3365625 167.81318359 379.3365625 166.7578125 380.45703125 C131.6777799 416.61313847 76.53666725 441.61088709 26.08850098 442.45361328 C25.29874878 442.46118652 24.50899658 442.46875977 23.6953125 442.4765625 C22.8458606 442.48631104 21.99640869 442.49605957 21.12121582 442.50610352 C2.00261695 442.68029694 -16.39870582 442.39929809 -35.15234375 438.23828125 C-35.99619629 438.0563623 -36.84004883 437.87444336 -37.70947266 437.68701172 C-56.715342 433.46976647 -75.06196031 426.52103038 -92.15234375 417.23828125 C-93.14524414 416.71065186 -93.14524414 416.71065186 -94.15820312 416.17236328 C-113.15903615 406.0582835 -129.51928077 392.97112571 -145.15234375 378.23828125 C-146.250625 377.20380859 -146.250625 377.20380859 -147.37109375 376.1484375 C-183.52720097 341.0684049 -208.52494959 285.92729225 -209.36767578 235.47912598 C-209.37524902 234.68937378 -209.38282227 233.89962158 -209.390625 233.0859375 C-209.40037354 232.2364856 -209.41012207 231.38703369 -209.42016602 230.51184082 C-209.59435944 211.39324195 -209.31336059 192.99191918 -205.15234375 174.23828125 C-204.9704248 173.39442871 -204.78850586 172.55057617 -204.60107422 171.68115234 C-200.38382897 152.675283 -193.43509288 134.32866469 -184.15234375 117.23828125 C-183.80059082 116.57634766 -183.44883789 115.91441406 -183.08642578 115.23242188 C-172.972346 96.23158885 -159.88518821 79.87134423 -145.15234375 64.23828125 C-144.46269531 63.50609375 -143.77304688 62.77390625 -143.0625 62.01953125 C-107.25554629 25.11420473 -51.40295683 0.49292302 0 0 Z M-56.35473633 139.07446289 C-56.94794678 139.68539795 -57.54115723 140.29633301 -58.15234375 140.92578125 C-58.76811279 141.55282959 -59.38388184 142.17987793 -60.01831055 142.82592773 C-67.16435074 150.0727128 -67.16435074 150.0727128 -72.21484375 158.80078125 C-72.02233763 166.30851991 -66.84896399 171.15413228 -61.90234375 176.17578125 C-60.45019569 177.68328061 -58.99838042 179.1911006 -57.546875 180.69921875 C-56.44400146 181.83568848 -56.44400146 181.83568848 -55.31884766 182.99511719 C-52.03645132 186.39365872 -48.81353673 189.84667152 -45.58984375 193.30078125 C-44.36614091 194.60701023 -43.14218148 195.91299888 -41.91796875 197.21875 C-39.26128227 200.05427889 -36.60520354 202.89037635 -33.94921875 205.7265625 C-33.26158447 206.46060303 -32.5739502 207.19464355 -31.86547852 207.95092773 C-30.54275702 209.36292535 -29.22031604 210.77518581 -27.89819336 212.18774414 C-27.30530518 212.82059326 -26.71241699 213.45344238 -26.1015625 214.10546875 C-25.57908936 214.66347168 -25.05661621 215.22147461 -24.51831055 215.79638672 C-23.4146838 216.96135894 -22.28705787 218.10356713 -21.15234375 219.23828125 C-21.28255768 223.51673882 -24.34885345 225.69544309 -27.27734375 228.48828125 C-31.20879488 232.29301357 -34.92524654 236.18218404 -38.4765625 240.34375 C-40.91888559 243.1048845 -43.55788636 245.65296936 -46.18359375 248.23828125 C-48.70865041 250.80341817 -51.03215608 253.51543213 -53.375 256.24609375 C-55.20285677 258.29490023 -57.12007953 260.20111248 -59.08984375 262.11328125 C-67.81177158 270.13885404 -67.81177158 270.13885404 -72.21484375 280.67578125 C-71.54035772 287.19200218 -66.49396819 291.72916267 -62.15234375 296.23828125 C-61.37431396 297.05159912 -61.37431396 297.05159912 -60.58056641 297.88134766 C-53.89163228 305.63773088 -53.89163228 305.63773088 -45.02734375 309.73828125 C-39.4094236 309.01338833 -37.0442738 306.1641723 -33.15234375 302.23828125 C-32.25902344 301.36945313 -31.36570313 300.500625 -30.4453125 299.60546875 C-25.6939904 294.95955001 -21.14348742 290.18971691 -16.828125 285.1328125 C-14.38580191 282.371678 -11.74680114 279.82359314 -9.12109375 277.23828125 C-6.60318771 274.68040845 -4.28587571 271.97643316 -1.94921875 269.25390625 C0.59111062 266.40431939 3.30874814 263.7519443 6.05078125 261.09765625 C7.91470748 259.25795216 7.91470748 259.25795216 9.45703125 257.00390625 C9.9159375 256.42125 10.37484375 255.83859375 10.84765625 255.23828125 C11.50765625 255.23828125 12.16765625 255.23828125 12.84765625 255.23828125 C14.29296875 256.70703125 14.29296875 256.70703125 15.97265625 258.73828125 C18.49023527 261.70505486 21.06934601 264.51402374 23.84765625 267.23828125 C26.44747808 269.79818259 28.91034023 272.40607665 31.28515625 275.17578125 C33.85430896 278.16629841 36.54082881 280.96944809 39.34765625 283.73828125 C42.77307442 287.11733167 45.96109676 290.61301359 49.09375 294.26171875 C51.61319705 297.10100652 54.28946099 299.76221804 57.01171875 302.40625 C58.84765625 304.23828125 58.84765625 304.23828125 61.34765625 307.23828125 C64.15897347 309.48733502 66.14489296 310.10657318 69.76171875 309.82421875 C74.12681279 308.59806874 76.79500931 305.44786361 79.84765625 302.23828125 C80.63342041 301.4179541 80.63342041 301.4179541 81.43505859 300.58105469 C91.20139006 291.44115471 91.20139006 291.44115471 95.30859375 279.46875 C94.0127677 273.1982697 88.38617252 268.40153004 84.09765625 263.92578125 C82.74869153 262.50261022 81.39973342 261.07943293 80.05078125 259.65625 C79.35662109 258.92712402 78.66246094 258.19799805 77.94726562 257.44677734 C73.9015391 253.19123756 69.88222759 248.91063224 65.8684082 244.625 C62.43602191 240.96513846 58.97758192 237.33675402 55.46875 233.75 C54.76685547 233.02425781 54.06496094 232.29851562 53.34179688 231.55078125 C51.99772439 230.16203399 50.64389478 228.78264657 49.27929688 227.4140625 C48.68181641 226.79273438 48.08433594 226.17140625 47.46875 225.53125 C46.93693115 224.99008545 46.4051123 224.4489209 45.85717773 223.89135742 C44.84765625 222.23828125 44.84765625 222.23828125 45.08374023 220.14868164 C46.0877597 217.63783079 47.50052094 216.33097138 49.47265625 214.48828125 C52.23751486 211.83165554 54.85689587 209.15373349 57.34765625 206.23828125 C59.74442213 203.44931732 62.22725016 200.8183734 64.84765625 198.23828125 C67.44747808 195.67837991 69.91034023 193.07048585 72.28515625 190.30078125 C74.85430896 187.31026409 77.54082881 184.50711441 80.34765625 181.73828125 C84.39108518 177.74315266 88.2257343 173.62024381 91.84765625 169.23828125 C92.39808594 168.58214844 92.94851563 167.92601562 93.515625 167.25 C95.20218585 164.70284798 95.25239157 162.44233138 95.34375 159.43359375 C93.91483702 153.11037254 88.21486661 148.1674743 83.91015625 143.61328125 C83.30236328 142.9584375 82.69457031 142.30359375 82.06835938 141.62890625 C76.61168875 135.72875088 76.61168875 135.72875088 69.97265625 131.30078125 C65.18009091 131.15982345 61.47412717 133.65904072 58.1015625 136.77734375 C57.19306182 137.79596572 56.2964978 138.82532033 55.41015625 139.86328125 C54.36584629 141.03888354 53.32020325 142.21330258 52.2734375 143.38671875 C51.44513428 144.32402832 51.44513428 144.32402832 50.60009766 145.28027344 C47.49905969 148.74507205 44.29384842 152.11148034 41.09765625 155.48828125 C39.74056122 156.92547519 38.38379441 158.36297913 37.02734375 159.80078125 C36.34381836 160.52523437 35.66029297 161.2496875 34.95605469 161.99609375 C32.79026831 164.29931076 30.63433083 166.61141271 28.48046875 168.92578125 C27.76729492 169.68987305 27.05412109 170.45396484 26.31933594 171.24121094 C24.96042393 172.69759497 23.60413427 174.15643204 22.25097656 175.61816406 C18.64773101 179.47223294 14.98116954 182.95690762 10.84765625 186.23828125 C10.27917969 185.59761719 9.71070313 184.95695312 9.125 184.296875 C5.0365286 179.71696797 0.90410042 175.2454115 -3.4765625 170.9453125 C-5.26287818 169.12568557 -6.9271221 167.23374208 -8.58984375 165.30078125 C-11.00852154 162.49251778 -13.51134058 159.83857532 -16.15234375 157.23828125 C-18.77274984 154.6581891 -21.25557787 152.02724518 -23.65234375 149.23828125 C-26.71505774 145.67909992 -29.94967089 142.3503146 -33.3046875 139.06640625 C-34.86351068 137.52406112 -36.35961476 135.91870596 -37.83984375 134.30078125 C-44.79746702 128.09533347 -50.8941144 133.62290549 -56.35473633 139.07446289 Z " fill="#FF4848" transform="translate(244.15234375,34.76171875)"/>
</svg>
