<?xml version="1.0" encoding="UTF-8"?>
<svg version="1.1" xmlns="http://www.w3.org/2000/svg" width="512" height="512">
<path d="M0 0 C3.26701612 2.66358727 6.39330111 5.45632415 9.50390625 8.30078125 C10.303125 9.0175 11.10234375 9.73421875 11.92578125 10.47265625 C23.25289034 21.15709249 31.22417267 34.17323423 37.50390625 48.30078125 C38.22707031 49.89986328 38.22707031 49.89986328 38.96484375 51.53125 C46.88548727 70.46878859 47.0271982 89.27370071 46.75390625 109.48828125 C46.73379301 112.09959554 46.71555086 114.71092495 46.69921875 117.32226562 C46.65564723 123.64877348 46.58912416 129.97470427 46.50390625 136.30078125 C47.48394623 136.2918988 48.46398621 136.28301636 49.47372437 136.27386475 C58.74171458 136.19252805 68.0096317 136.13269597 77.27789879 136.09353256 C82.0420261 136.07272083 86.80586363 136.04452136 91.56982422 135.99902344 C96.17343593 135.95533561 100.77677014 135.93159598 105.38057327 135.92127228 C107.13073719 135.91392186 108.88088713 135.89956879 110.63093185 135.87786102 C122.46708848 135.73697744 132.87261384 136.09856004 141.97265625 144.59765625 C149.08423314 152.50747136 150.80387994 160.448965 150.77133179 170.8299408 C150.7758629 171.89029102 150.78039401 172.95064125 150.78506243 174.0431233 C150.79772298 177.59642012 150.79608494 181.14956398 150.79443359 184.70288086 C150.80041801 187.25082598 150.80722335 189.79876929 150.81478882 192.34671021 C150.83063283 198.55128749 150.83689791 204.75580877 150.83801357 210.96040439 C150.83896515 216.00876529 150.84308096 221.05711371 150.84941483 226.10547066 C150.86702812 240.43713808 150.8762542 254.76877558 150.87475388 269.10045391 C150.87467397 269.87272648 150.87459405 270.64499905 150.87451172 271.44067383 C150.87442996 272.21389662 150.8743482 272.98711941 150.87426396 273.78377319 C150.87345225 286.29573862 150.89256049 298.80758331 150.92078845 311.31951385 C150.94958331 324.18497598 150.96332495 337.05037939 150.9616009 349.91587454 C150.96093901 357.13133024 150.96634205 364.34665956 150.987957 371.56208611 C151.00817894 378.35586758 151.00742786 385.14933931 150.99292374 391.94314957 C150.99084069 394.42825905 150.9955062 396.9133854 151.00764465 399.39846611 C151.08161139 415.59914646 150.47230508 430.07388845 142.69140625 444.67578125 C142.34883789 445.34005127 142.00626953 446.00432129 141.65332031 446.6887207 C138.82011257 452.03329946 135.4637006 456.72816159 131.50390625 461.30078125 C130.90707031 462.09355469 130.31023437 462.88632812 129.6953125 463.703125 C121.6400504 473.25169772 110.20760158 480.20157943 98.50390625 484.30078125 C97.63540543 484.63299934 96.7669046 484.96521744 95.87208557 485.30750275 C82.73149659 489.59261998 69.10394719 488.87218549 55.43630886 488.82367992 C51.62436059 488.81455007 47.81248306 488.82863808 44.00054932 488.83959961 C36.5518818 488.85730558 29.1033763 488.85358042 21.65470266 488.84194905 C15.59634678 488.83288361 9.53803603 488.83170411 3.47967529 488.83604431 C2.61457506 488.83665724 1.74947482 488.83727018 0.85815942 488.83790168 C-0.89974961 488.83918069 -2.65765863 488.84047755 -4.41556764 488.84179205 C-20.8660704 488.85317463 -37.31648373 488.84012069 -53.76697183 488.81859058 C-67.85576034 488.80072171 -81.94441699 488.80382647 -96.03320312 488.82226562 C-112.42831527 488.84371347 -128.82334921 488.85207622 -145.21847343 488.83981657 C-146.96960321 488.83854249 -148.72073299 488.837285 -150.47186279 488.83604431 C-151.33325792 488.83542721 -152.19465305 488.83481011 -153.08215106 488.83417431 C-159.12715396 488.83073313 -165.17210689 488.83652305 -171.21710205 488.84596252 C-178.59265965 488.85722751 -185.96804716 488.85404852 -193.34358549 488.83283955 C-197.10048745 488.82238924 -200.85710672 488.81810316 -204.61400604 488.83143616 C-222.11254837 488.88840375 -238.06599214 488.91132135 -253.87109375 480.48828125 C-254.53608887 480.14498779 -255.20108398 479.80169434 -255.88623047 479.44799805 C-261.22933318 476.61342793 -265.93763775 473.27825757 -270.49609375 469.30078125 C-271.46417969 468.52863281 -272.43226563 467.75648438 -273.4296875 466.9609375 C-282.82333081 459.11965849 -289.46974555 447.74227248 -293.49609375 436.30078125 C-293.82944481 435.37562367 -294.16279587 434.4504661 -294.50624847 433.49727345 C-298.40115665 421.06102362 -298.05993059 408.72596724 -298.01367188 395.79760742 C-298.01910016 393.24022016 -298.02622677 390.68283604 -298.03491211 388.12545776 C-298.05118087 381.93374705 -298.04890775 375.74229114 -298.03726155 369.55057742 C-298.02818796 364.51620348 -298.02702006 359.48188384 -298.03135681 354.44750404 C-298.03196974 353.72805434 -298.03258268 353.00860463 -298.03321418 352.26735342 C-298.0344932 350.80537673 -298.03579006 349.34340005 -298.03710455 347.88142339 C-298.0484771 334.2127819 -298.03544695 320.5442482 -298.01390308 306.8756244 C-297.99601597 295.16450635 -297.99915589 283.45354686 -298.01757812 271.74243164 C-298.03901084 258.11133208 -298.04739881 244.48032652 -298.03512907 230.84921247 C-298.03385498 229.3944682 -298.0325975 227.93972392 -298.03135681 226.48497963 C-298.03043116 225.41157836 -298.03043116 225.41157836 -298.02948681 224.31649223 C-298.02604252 219.2895513 -298.03184188 214.26267038 -298.04127502 209.23573875 C-298.05369989 202.46645103 -298.04478574 195.69750823 -298.021698 188.9282341 C-298.01641835 186.44747603 -298.01791186 183.9666927 -298.02674866 181.48594475 C-298.03771594 178.09394525 -298.02392512 174.70289806 -298.00402832 171.31095886 C-298.01295121 170.33478157 -298.02187409 169.35860427 -298.03106737 168.35284585 C-297.92938331 159.38613498 -295.39901729 151.47019939 -289.19921875 144.83203125 C-282.19497318 138.53463615 -274.86179813 135.9807851 -265.47119141 136.07373047 C-264.6900296 136.07343842 -263.9088678 136.07314636 -263.10403442 136.07284546 C-260.53929272 136.07423133 -257.97484678 136.08975727 -255.41015625 136.10546875 C-253.62511351 136.10920153 -251.84006872 136.11204725 -250.05502319 136.11404419 C-245.36967252 136.12165982 -240.68444695 136.14129046 -235.99914551 136.16345215 C-231.21298922 136.18395526 -226.4268126 136.19305544 -221.640625 136.203125 C-212.25905979 136.22453836 -202.8775872 136.25864922 -193.49609375 136.30078125 C-193.5049762 135.6414006 -193.51385864 134.98201996 -193.52301025 134.30265808 C-193.6125928 127.34142876 -193.67227997 120.38036717 -193.71582031 113.41870117 C-193.73574112 110.83237032 -193.7628877 108.24608334 -193.79785156 105.65991211 C-194.04856904 86.61644452 -193.36146166 68.78672422 -185.80859375 51.05078125 C-185.46610596 50.22634521 -185.12361816 49.40190918 -184.77075195 48.55249023 C-179.03439031 35.15294111 -171.29994578 24.02195276 -161.49609375 13.30078125 C-160.779375 12.5015625 -160.06265625 11.70234375 -159.32421875 10.87890625 C-148.63472588 -0.45356364 -135.62250476 -8.4051261 -121.49609375 -14.69921875 C-120.44164062 -15.18132813 -119.3871875 -15.6634375 -118.30078125 -16.16015625 C-80.31158865 -32.19140121 -32.31783025 -25.47213687 0 0 Z M-125.30859375 46.55078125 C-149.02637947 71.40784925 -145.49609375 103.29846505 -145.49609375 136.30078125 C-97.97609375 136.30078125 -50.45609375 136.30078125 -1.49609375 136.30078125 C0.04871861 84.81016014 0.04871861 84.81016014 -24.49609375 44.30078125 C-53.41608804 15.83266187 -97.14355134 19.97195689 -125.30859375 46.55078125 Z M-188.1875 185.375 C-192.59376013 192.16641518 -193.19884793 198.29549455 -192.49609375 206.30078125 C-190.74032954 212.9436089 -186.04046682 217.48063593 -180.49609375 221.30078125 C-174.49722371 224.24140382 -167.61325845 224.39961913 -161.18359375 222.68359375 C-155.05476514 219.9782905 -150.25656583 214.8921443 -147.32421875 208.91015625 C-145.41803518 202.90387973 -145.43170688 195.79786567 -147.99609375 189.98828125 C-151.48127733 184.04734554 -156.93052405 179.38539834 -163.49609375 177.30078125 C-173.28239689 175.96686837 -181.71171783 177.43356737 -188.1875 185.375 Z M2.94921875 187.203125 C-1.1758727 193.19008206 -1.21217517 199.25013337 -0.49609375 206.30078125 C1.27733058 212.94551039 5.95057095 217.47446084 11.50390625 221.30078125 C17.50277629 224.24140382 24.38674155 224.39961913 30.81640625 222.68359375 C36.94523486 219.9782905 41.74343417 214.8921443 44.67578125 208.91015625 C46.58196482 202.90387973 46.56829312 195.79786567 44.00390625 189.98828125 C40.51928487 184.04830388 35.06934795 179.38442442 28.50390625 177.30078125 C17.06945528 175.94441879 10.32573136 178.57432071 2.94921875 187.203125 Z " fill="#686262" transform="translate(329.49609375,23.69921875)"/>
</svg>
