<?xml version="1.0" encoding="UTF-8"?>
<svg version="1.1" xmlns="http://www.w3.org/2000/svg" width="512" height="512">
<path d="M0 0 C18.98153344 15.65122968 31.75148158 35.98501536 37.53955078 59.86572266 C37.813396 60.97210083 37.813396 60.97210083 38.09277344 62.10083008 C40.10754543 71.47488893 39.99393875 81.00872334 40.16455078 90.55322266 C40.20281223 92.33383901 40.24186843 94.11443847 40.28173828 95.89501953 C40.37683771 100.21844706 40.46118598 104.54196076 40.53955078 108.86572266 C43.83254742 109.84976171 46.82449101 109.99803419 50.25439453 110.01098633 C51.40238525 110.01736618 52.55037598 110.02374603 53.7331543 110.03031921 C54.96864014 110.03143204 56.20412598 110.03254486 57.47705078 110.03369141 C58.7492749 110.03701981 60.02149902 110.04034821 61.33227539 110.04377747 C64.02217103 110.0488401 66.7119656 110.05161856 69.40185547 110.05102539 C72.84515216 110.05092366 76.28824318 110.06459281 79.73149109 110.0817976 C83.02166997 110.09559859 86.31184687 110.09500636 89.60205078 110.09619141 C90.83753662 110.10337692 92.07302246 110.11056244 93.34594727 110.1179657 C94.49393799 110.11488907 95.64192871 110.11181244 96.82470703 110.10864258 C97.83412354 110.1100676 98.84354004 110.11149261 99.88354492 110.11296082 C102.58778392 109.8612328 104.22885848 109.25090611 106.53955078 107.86572266 C106.06909352 99.9179978 103.23483941 92.89444766 100.47705078 85.49072266 C99.54433537 82.96363004 98.61749893 80.43450338 97.69189453 77.90478516 C97.27931396 76.79312988 96.8667334 75.68147461 96.44165039 74.53613281 C95.53955078 71.86572266 95.53955078 71.86572266 95.53955078 69.86572266 C94.73324219 69.85637695 93.92693359 69.84703125 93.09619141 69.83740234 C89.41004493 69.78341226 85.72512837 69.69981818 82.03955078 69.61572266 C80.77111328 69.60154297 79.50267578 69.58736328 78.19580078 69.57275391 C70.89232857 69.38255932 65.70845594 68.89666791 59.53955078 64.86572266 C55.45458013 60.36178066 54.29707775 55.82651809 54.53955078 49.86572266 C55.69766513 43.65199376 58.40724682 40.39418163 63.53955078 36.86572266 C68.88478134 35.08397914 74.6623782 35.60013609 80.26074219 35.57055664 C81.76572119 35.55910887 83.27066194 35.53877287 84.77539062 35.5090332 C97.08095062 35.26607101 107.64628517 36.43743278 117.34683228 44.75462341 C127.57644725 54.60346282 131.63920034 68.55538922 136.39990234 81.54589844 C137.36585421 84.16952424 138.36844664 86.77218578 139.41845703 89.36328125 C150.63447504 117.14895506 153.30730567 146.49474187 156.69056988 176.00715542 C158.22203764 189.34226771 159.87844801 202.65929123 161.58056641 215.97363281 C161.7139806 217.01791498 161.84739479 218.06219715 161.98485184 219.13812423 C162.53363469 223.43300876 163.08258416 227.72787188 163.6320343 232.0226711 C165.3218664 245.24150758 166.97859938 258.46449045 168.63643456 271.68737054 C169.05739659 275.04476831 169.47847529 278.40215141 169.8996582 281.75952148 C170.03914792 282.87143762 170.17863764 283.98335375 170.32235432 285.1289643 C171.32572813 293.11996234 172.33752514 301.10986917 173.3527832 309.09936523 C174.63917393 319.22257304 175.91546404 329.34699487 177.17975992 339.47298676 C177.84093988 344.76596856 178.50667621 350.05827152 179.18474007 355.34911919 C188.24001852 426.09608493 188.24001852 426.09608493 166.78955078 454.74072266 C152.77813631 472.53174602 132.68739813 482.13282522 110.53955078 484.86572266 C105.53836069 485.13592141 100.54407137 485.14104125 95.53717041 485.12641907 C94.05328675 485.12944568 92.56940466 485.13333771 91.08552527 485.13801163 C87.03893343 485.14823481 82.99243074 485.14612441 78.94583178 485.14183104 C74.56940808 485.1393534 70.19300528 485.14839086 65.81658936 485.15586853 C57.25428378 485.16858921 48.6920096 485.17041248 40.12969616 485.16806827 C33.16596648 485.16628185 26.2022463 485.16804167 19.23851776 485.17229271 C18.24563316 485.1728879 17.25274856 485.17348309 16.22977655 485.17409631 C14.21240665 485.17530813 12.19503676 485.17652226 10.17766687 485.17773869 C-8.72310011 485.18860427 -27.62384924 485.1864565 -46.52461722 485.18035384 C-63.79162651 485.17518662 -81.05857935 485.18643674 -98.32557747 485.20545206 C-116.0807948 485.22485421 -133.83598547 485.23308223 -151.59121346 485.22932881 C-161.54916762 485.22742024 -171.50707375 485.22987066 -181.46501923 485.24404335 C-189.9432751 485.25598851 -198.42145339 485.25732706 -206.89971039 485.24525318 C-211.21969481 485.23938621 -215.53953755 485.23820419 -219.85951233 485.25025558 C-223.82480045 485.2611883 -227.78982985 485.25792442 -231.75510624 485.2439939 C-233.17897964 485.2413671 -234.6028738 485.24364896 -236.02672669 485.25172976 C-261.17347437 485.38438165 -282.37295772 478.04399274 -300.85888672 460.62353516 C-318.4367112 441.98998548 -323.27558607 419.90933892 -322.61036634 395.19754624 C-322.15892979 385.16462333 -320.75945332 375.21599095 -319.46289062 365.26489258 C-319.13974755 362.69811172 -318.81791274 360.13116589 -318.49726868 357.56407166 C-317.72269416 351.38178457 -316.93261532 345.20157995 -316.13703538 339.02196487 C-315.20860623 331.80497376 -314.29689494 324.58589825 -313.38586514 317.36669365 C-311.75954259 304.48325105 -310.11958257 291.60158336 -308.47119141 278.72094727 C-306.8757129 266.25360027 -305.2882512 253.78527057 -303.71044922 241.31567383 C-303.61300917 240.54560579 -303.51556912 239.77553774 -303.41517635 238.9821343 C-303.02339029 235.8856933 -302.63162608 232.78924953 -302.23989896 229.69280107 C-300.54730742 216.31516861 -298.84811313 202.93837371 -297.14807886 189.56168535 C-296.87423479 187.40651192 -296.60054655 185.25131875 -296.32689714 183.0961206 C-295.28770975 174.91293865 -294.24522903 166.73019039 -293.19791222 158.5480442 C-292.88168225 156.07427248 -292.56643183 153.6003753 -292.25224876 151.12634277 C-291.82220453 147.7417179 -291.38846511 144.35758624 -290.95376587 140.97355652 C-290.83119026 140.00254019 -290.70861465 139.03152387 -290.58232462 138.03108281 C-288.21607753 119.73224517 -288.21607753 119.73224517 -284.94873047 112.45947266 C-284.44567383 111.32026367 -283.94261719 110.18105469 -283.42431641 109.00732422 C-282.87936523 107.8055957 -282.33441406 106.60386719 -281.77294922 105.36572266 C-280.59291876 102.72698482 -279.41955212 100.08529652 -278.24560547 97.44384766 C-277.93928192 96.75804626 -277.63295837 96.07224487 -277.31735229 95.36566162 C-274.97833974 90.10589435 -272.76371333 84.80156424 -270.58154297 79.47509766 C-269.60793882 77.12148197 -268.63272895 74.76853769 -267.65707397 72.41577148 C-267.03412259 70.90216371 -266.41789839 69.38576679 -265.80899048 67.86645508 C-260.50807014 54.66337432 -253.96943204 44.29454736 -240.67016602 38.02124023 C-233.74533721 35.31605269 -226.75669945 35.40974243 -219.43920898 35.47460938 C-217.26662162 35.49076972 -215.09587266 35.47465591 -212.92333984 35.45556641 C-211.52554933 35.45754774 -210.12775995 35.46138914 -208.72998047 35.46728516 C-206.85209839 35.47236084 -206.85209839 35.47236084 -204.9362793 35.47753906 C-200.50919126 35.97195994 -197.12352809 37.34880511 -193.81591797 40.36572266 C-190.34570519 44.82245077 -189.08846953 47.96461503 -189.18310547 53.67431641 C-189.87623467 59.15101334 -192.25771281 62.90844266 -196.52294922 66.30322266 C-200.70884056 68.52976061 -203.65527001 68.98489207 -208.33544922 69.00634766 C-209.48529297 69.02568359 -210.63513672 69.04501953 -211.81982422 69.06494141 C-214.24673993 69.09879323 -216.67392383 69.11702467 -219.10107422 69.11962891 C-220.25091797 69.14412109 -221.40076172 69.16861328 -222.58544922 69.19384766 C-223.63990234 69.20319336 -224.69435547 69.21253906 -225.78076172 69.22216797 C-228.61763778 69.61084948 -228.61763778 69.61084948 -230.14526367 72.00537109 C-230.5792749 72.94928711 -231.01328613 73.89320312 -231.46044922 74.86572266 C-232.17430786 76.37972656 -232.17430786 76.37972656 -232.90258789 77.92431641 C-234.21273173 80.92388476 -235.52115347 83.92397073 -236.8137207 86.93115234 C-237.64718297 88.86394574 -238.49399772 90.79053016 -239.34130859 92.71728516 C-239.87534295 93.95390569 -240.40857373 95.19087362 -240.94091797 96.42822266 C-241.42455811 97.54326172 -241.90819824 98.65830078 -242.40649414 99.80712891 C-243.41704386 102.73975965 -243.69068554 104.79876071 -243.46044922 107.86572266 C-240.07319989 109.91179282 -237.47215333 110.11398116 -233.54614258 110.10864258 C-231.7592527 110.11325752 -231.7592527 110.11325752 -229.93626404 110.1179657 C-228.65389359 110.11078018 -227.37152313 110.10359467 -226.05029297 110.09619141 C-224.73130508 110.09573318 -223.4123172 110.09527496 -222.05335999 110.09480286 C-219.26509311 110.09324086 -216.47695515 110.08497242 -213.6887207 110.0715332 C-210.11533873 110.05452728 -206.54209808 110.05071953 -202.96868038 110.05147839 C-199.55836565 110.0511411 -196.14809726 110.04230338 -192.73779297 110.03369141 C-190.81120094 110.03202217 -190.81120094 110.03202217 -188.84568787 110.03031921 C-187.06352623 110.02074944 -187.06352623 110.02074944 -185.24536133 110.01098633 C-184.19819443 110.00717453 -183.15102753 110.00336273 -182.0721283 109.99943542 C-179.34757592 109.97660209 -179.34757592 109.97660209 -176.46044922 108.86572266 C-174.99836079 105.94154581 -175.29486419 103.312822 -175.24951172 100.04931641 C-175.22394914 98.63898258 -175.19754999 97.22866373 -175.17041016 95.81835938 C-175.15715698 95.08035095 -175.14390381 94.34234253 -175.13024902 93.58197021 C-174.56097155 64.6256015 -169.36828184 37.11791394 -149.46044922 14.86572266 C-148.75146484 14.02654297 -148.04248047 13.18736328 -147.31201172 12.32275391 C-136.25402132 -0.50063496 -122.157456 -9.85547463 -106.46044922 -16.13427734 C-105.57486328 -16.49263672 -104.68927734 -16.85099609 -103.77685547 -17.22021484 C-69.15593071 -29.9929832 -28.7232034 -22.81402574 0 0 Z M-115.96435547 42.72119141 C-120.86558865 48.96279478 -124.83351755 55.35883399 -127.46044922 62.86572266 C-127.71793945 63.5829248 -127.97542969 64.30012695 -128.24072266 65.0390625 C-130.78886165 73.02131242 -130.9862527 80.75784432 -130.96142578 89.05712891 C-130.9604388 91.39036158 -131.00250096 93.72045059 -131.04638672 96.05322266 C-131.05158468 97.5427992 -131.05428206 99.03238705 -131.05419922 100.52197266 C-131.07059448 101.2156897 -131.08698975 101.90940674 -131.10388184 102.62414551 C-131.12757686 104.81570212 -131.12757686 104.81570212 -130.46044922 107.86572266 C-125.87211481 112.0606667 -120.07195645 111.30166654 -114.23193359 111.28564453 C-113.09806717 111.29411407 -111.96420074 111.30258362 -110.79597473 111.31130981 C-107.0486021 111.33470586 -103.30163935 111.33570141 -99.55419922 111.33447266 C-96.95015294 111.34157189 -94.34610824 111.34927054 -91.74206543 111.35754395 C-86.28471544 111.3721396 -80.82747974 111.37273575 -75.37011719 111.36669922 C-69.0663688 111.36005478 -62.763205 111.38294214 -56.45957518 111.42001295 C-50.38813419 111.45441937 -44.31696932 111.46104626 -38.24543762 111.45692444 C-35.66500607 111.45861971 -33.0845671 111.46830104 -30.50419617 111.48606873 C-26.89864485 111.50816573 -23.29451068 111.49860216 -19.68896484 111.48095703 C-18.62076004 111.49422028 -17.55255524 111.50748352 -16.45198059 111.52114868 C-10.43489744 111.46248621 -10.43489744 111.46248621 -5.29711914 108.49031067 C-3.21482384 105.51472577 -2.83896078 104.06804743 -2.86669922 100.47119141 C-2.86706177 98.9255249 -2.86706177 98.9255249 -2.86743164 97.34863281 C-2.89812744 96.26114746 -2.92882324 95.17366211 -2.96044922 94.05322266 C-2.97889893 92.9347998 -2.99734863 91.81637695 -3.01635742 90.6640625 C-3.51814617 71.4799735 -8.17780565 53.4466034 -21.77294922 39.11572266 C-36.00457066 25.86668533 -52.89278217 19.99189832 -72.13232422 20.58837891 C-89.03167708 21.47298882 -104.88615394 30.08754817 -115.96435547 42.72119141 Z M-146.64013672 248.52587891 C-154.60880854 258.76887123 -157.43378202 270.10593793 -156.46044922 282.86572266 C-153.3994979 299.67704122 -140.81863375 310.74012695 -129.14013672 322.14990234 C-126.32044661 324.92128558 -123.65086042 327.76024108 -121.06982422 330.75634766 C-117.39835359 335.0029411 -113.466325 338.93658779 -109.46044922 342.86572266 C-104.85640829 347.38156357 -100.45583601 351.96641413 -96.24658203 356.85253906 C-93.09597721 360.4036445 -89.71175756 363.71840014 -86.33544922 367.05322266 C-85.64580078 367.73835937 -84.95615234 368.42349609 -84.24560547 369.12939453 C-82.91552714 370.45057176 -81.58078642 371.76707705 -80.24072266 373.078125 C-79.13711458 374.18627343 -78.06073574 375.32322109 -77.03173828 376.50097656 C-75.68737411 378.09244116 -75.68737411 378.09244116 -73.46044922 379.86572266 C-69.31659474 379.59396682 -67.35373624 378.24967596 -64.49951172 375.33056641 C-63.78021484 374.60289062 -63.06091797 373.87521484 -62.31982422 373.12548828 C-61.58248047 372.35914063 -60.84513672 371.59279297 -60.08544922 370.80322266 C-59.35583984 370.06394531 -58.62623047 369.32466797 -57.87451172 368.56298828 C-54.44773228 365.06583747 -51.11892036 361.51521599 -47.92138672 357.80712891 C-43.68007673 352.89738457 -39.05028485 348.40594458 -34.42138672 343.86572266 C-31.14344288 340.62574728 -27.96909361 337.35875197 -24.96044922 333.86572266 C-20.7101211 328.93110135 -16.06786584 324.42318877 -11.42138672 319.86572266 C-6.87733367 315.37430342 -2.60808412 310.72453403 1.53955078 305.86572266 C2.22404297 305.08583984 2.90853516 304.30595703 3.61376953 303.50244141 C11.37034827 294.13069131 14.22394165 283.40351025 13.35595703 271.30712891 C11.75824704 261.01260575 6.36683848 250.76670412 -1.46044922 243.86572266 C-11.35855919 236.75398734 -22.19821245 232.68442169 -34.46044922 233.86572266 C-48.81168221 236.90992359 -58.27566228 244.68093572 -68.46044922 254.86572266 C-71.730464 255.37851146 -74.24192755 255.72879555 -77.05566406 253.73583984 C-78.66822107 252.13110319 -80.16121329 250.46256166 -81.64794922 248.74072266 C-90.24390948 239.48209201 -100.42082392 234.06074747 -113.21044922 233.55322266 C-126.3703318 233.89634843 -137.60050639 238.99217971 -146.64013672 248.52587891 Z " fill="#FFFFFF" transform="translate(325.46044921875,25.13427734375)"/>
</svg>
