<?xml version="1.0" encoding="UTF-8"?>
<svg version="1.1" xmlns="http://www.w3.org/2000/svg" width="512" height="512">
<path d="M0 0 C0.48952148 0.42925781 0.97904297 0.85851562 1.48339844 1.30078125 C18.0178789 15.8536404 30.91511734 32.45353984 41 52 C41.47928955 52.9276416 41.47928955 52.9276416 41.96826172 53.87402344 C52.28743756 74.16714393 58.98878904 97.21510551 59.23828125 120.06640625 C59.25310799 121.18786041 59.25310799 121.18786041 59.26823425 122.33197021 C59.61295224 155.2045835 54.01249744 183.70662059 38.81274414 213.18261719 C37.9381101 215.13839243 37.32057787 216.87845655 37 219 C38.6309489 221.20395723 38.6309489 221.20395723 41 223.25 C43.92553507 226.01800626 46.75554021 228.7522043 49.375 231.8125 C56.36376527 239.92074712 63.63643526 247.72787497 71.1875 255.3125 C71.7451001 255.87469238 72.3027002 256.43688477 72.87719727 257.01611328 C75.63663508 259.7654403 78.44286013 262.40141137 81.41308594 264.921875 C87.47532793 270.20827281 93.13889506 275.91303753 98.84765625 281.57421875 C99.44835875 282.16959757 100.04906124 282.76497639 100.66796684 283.37839699 C103.83414306 286.51804865 106.99677647 289.66122454 110.15698242 292.80688477 C112.76990782 295.40637357 115.38995305 297.99836008 118.01635742 300.58422852 C121.2007518 303.71950345 124.37288102 306.86669229 127.53637505 310.02305031 C128.74147749 311.22142442 129.95084298 312.41552712 131.16447639 313.60526085 C132.85207386 315.26144535 134.52342893 316.93248671 136.19165039 318.6081543 C136.69696793 319.0970665 137.20228546 319.5859787 137.72291565 320.08970642 C140.95406073 323.38060179 140.95406073 323.38060179 141.14611816 325.97010803 C139.40010727 329.0624711 136.9847252 331.40532831 134.47045898 333.87011719 C133.89485229 334.44616196 133.31924561 335.02220673 132.72619629 335.6157074 C130.82318708 337.51662777 128.90977485 339.40670358 126.99609375 341.296875 C125.67407568 342.61329748 124.35271872 343.93038417 123.03199768 345.24810791 C119.55497311 348.71368093 116.06903342 352.17015039 112.58117676 355.62481689 C109.02331141 359.15198828 105.4739288 362.68767287 101.92382812 366.22265625 C94.9575066 373.15680811 87.98173961 380.08137469 81 387 C75.00682179 382.04436018 69.56182761 376.65891034 64.10498047 371.12329102 C63.12712043 370.135308 62.14898356 369.14759891 61.17059326 368.16014099 C59.07688847 366.04644609 56.9845536 363.93140781 54.89312363 361.81546211 C51.58606621 358.47082785 48.27235656 355.13283846 44.95706177 351.79637146 C44.3962075 351.23187981 43.83535324 350.66738815 43.25750339 350.08579069 C42.11154098 348.93242414 40.9655627 347.77907336 39.81956887 346.62573802 C32.10971982 338.86598225 24.40433475 331.1019287 16.71728516 323.31958008 C11.51902374 318.05697485 6.31027282 312.80500907 1.08904564 307.56518501 C-1.67064013 304.79481072 -4.42456798 302.01920016 -7.16571426 299.23047066 C-9.73851518 296.61316082 -12.32484341 294.01004123 -14.92237091 291.41727638 C-16.3282488 290.0065895 -17.7191114 288.58098862 -19.10952759 287.15505981 C-19.9477002 286.32369003 -20.7858728 285.49232025 -21.64944458 284.63575745 C-22.37317827 283.90519418 -23.09691196 283.17463091 -23.84257698 282.42192936 C-25.92701957 280.7359026 -25.92701957 280.7359026 -28.5573101 281.1726675 C-32.00970508 282.34198439 -35.19280148 283.98429751 -38.4375 285.625 C-57.73943264 295.02036801 -79.6651756 301.0691733 -101.20703125 301.203125 C-101.9657402 301.21018463 -102.72444916 301.21724426 -103.50614929 301.22451782 C-135.12691081 301.45198933 -135.12691081 301.45198933 -149 298 C-150.24160889 297.70198486 -150.24160889 297.70198486 -151.50830078 297.39794922 C-164.30295819 294.25288061 -176.18829316 289.80707472 -188 284 C-188.65693848 283.68305176 -189.31387695 283.36610352 -189.99072266 283.03955078 C-205.70712212 275.38955468 -219.04669419 264.62625102 -232 253 C-232.67417969 252.39929688 -233.34835938 251.79859375 -234.04296875 251.1796875 C-264.46231249 222.42220814 -281.81120624 177.77838286 -283.16015625 136.50390625 C-284.26521471 87.51298128 -266.29420187 43.82518261 -232.82104492 8.484375 C-173.63015565 -52.27547757 -71.12357726 -57.48818617 0 0 Z " fill="#BDC3C7" transform="translate(325,83)"/>
<path d="M0 0 C18.23747058 15.55337504 30.74854736 34.28531036 36.97265625 57.53515625 C37.56046875 59.36046875 37.56046875 59.36046875 38.16015625 61.22265625 C44.48287057 86.99987617 38.99152162 115.53763211 25.78515625 138.16015625 C21.26288064 145.60228055 15.82273282 152.10995695 9.97265625 158.53515625 C9.39128906 159.19902344 8.80992187 159.86289062 8.2109375 160.546875 C-0.89074671 170.38219623 -12.96600356 177.06206636 -25.02734375 182.53515625 C-26.21457031 183.11716797 -26.21457031 183.11716797 -27.42578125 183.7109375 C-50.74838223 194.30840005 -79.62602454 193.15521868 -103.30517578 184.72412109 C-130.58789194 174.36336548 -152.53268965 153.82676175 -164.68334961 127.38720703 C-175.90202881 101.37395813 -176.68400025 70.86669312 -166.56738281 44.45605469 C-162.06013575 33.34832761 -155.88666052 23.59436871 -148.02734375 14.53515625 C-147.351875 13.7153125 -146.67640625 12.89546875 -145.98046875 12.05078125 C-109.82520125 -30.43825574 -43.00275216 -33.74240177 0 0 Z " fill="#EBEFF0" transform="translate(280.02734375,129.46484375)"/>
<path d="M0 0 C7.10968167 3.12132366 12.06690962 9.99271744 17.046875 15.7578125 C23.51434382 23.1824667 30.24174654 30.33587653 37.1875 37.3125 C37.7451001 37.87469238 38.3027002 38.43688477 38.87719727 39.01611328 C41.63663508 41.7654403 44.44286013 44.40141137 47.41308594 46.921875 C53.47532793 52.20827281 59.13889506 57.91303753 64.84765625 63.57421875 C65.44835875 64.16959757 66.04906124 64.76497639 66.66796684 65.37839699 C69.83414306 68.51804865 72.99677647 71.66122454 76.15698242 74.80688477 C78.76990782 77.40637357 81.38995305 79.99836008 84.01635742 82.58422852 C87.2007518 85.71950345 90.37288102 88.86669229 93.53637505 92.02305031 C94.74147749 93.22142442 95.95084298 94.41552712 97.16447639 95.60526085 C98.85207386 97.26144535 100.52342893 98.93248671 102.19165039 100.6081543 C102.69696793 101.0970665 103.20228546 101.5859787 103.72291565 102.08970642 C106.95406073 105.38060179 106.95406073 105.38060179 107.14611816 107.97010803 C105.40010727 111.0624711 102.9847252 113.40532831 100.47045898 115.87011719 C99.89485229 116.44616196 99.31924561 117.02220673 98.72619629 117.6157074 C96.82318708 119.51662777 94.90977485 121.40670358 92.99609375 123.296875 C91.67407568 124.61329748 90.35271872 125.93038417 89.03199768 127.24810791 C85.55497311 130.71368093 82.06903342 134.17015039 78.58117676 137.62481689 C75.02331141 141.15198828 71.4739288 144.68767287 67.92382812 148.22265625 C60.9575066 155.15680811 53.98173961 162.08137469 47 169 C40.97938309 164.00891514 35.46015637 158.60814447 29.93383789 153.07910156 C28.93794139 152.08620247 27.94184195 151.09350688 26.94555664 150.10099792 C24.25975219 147.42396945 21.57714413 144.74376056 18.8954041 142.06266117 C17.21932042 140.38729059 15.54252579 138.71263498 13.86547661 137.0382309 C8.01448445 131.19646443 2.16605487 125.35214673 -3.67993164 119.50537109 C-9.13149346 114.05320626 -14.58863357 108.60666883 -20.04836267 103.16268373 C-24.73992159 98.48417312 -29.42764489 93.80184302 -34.11236387 89.11648345 C-36.90898358 86.31960836 -39.70714654 83.52432041 -42.50916862 80.73285675 C-45.13770054 78.11396249 -47.76144674 75.49036885 -50.38150787 72.86300087 C-51.80704639 71.435909 -53.23755185 70.01378416 -54.66816711 68.59178162 C-55.50788055 67.74787369 -56.34759399 66.90396576 -57.2127533 66.03448486 C-57.9484703 65.29931263 -58.6841873 64.5641404 -59.44219875 63.80669022 C-61 62 -61 62 -61 60 C-58.63060245 58.44574821 -56.254821 56.99384327 -53.8125 55.5625 C-44.75010409 50.08782943 -36.64293316 43.78864575 -29.26171875 36.17578125 C-27 34 -27 34 -25 34 C-24.73678955 33.40703125 -24.4735791 32.8140625 -24.20239258 32.203125 C-22.94790985 29.90455603 -21.67010954 28.5260994 -19.76171875 26.75 C-16.01755678 23.11153958 -12.9040763 19.1971465 -9.8125 15 C-9.30525391 14.32710938 -8.79800781 13.65421875 -8.27539062 12.9609375 C-5.17292793 8.79212901 -2.48885498 4.5619108 0 0 Z " fill="#95A4A5" transform="translate(359,301)"/>
<path d="M0 0 C8.37166939 3.67536705 14.91718496 12.74267653 20.42578125 19.8359375 C21 22 21 22 19.61328125 24.9609375 C18.86538157 26.11155239 18.09676612 27.24885826 17.3125 28.375 C16.89605225 28.99149414 16.47960449 29.60798828 16.05053711 30.24316406 C14.72367021 32.17968581 13.367684 34.09213002 12 36 C11.59587891 36.57073242 11.19175781 37.14146484 10.77539062 37.72949219 C-1.68407782 55.09754404 -19.55216726 75.32296279 -40 83 C-42.99707817 80.05226582 -45.98760494 77.09808792 -48.97216797 74.13769531 C-49.98893399 73.13100272 -51.00748562 72.12611034 -52.02783203 71.12304688 C-53.49201218 69.68305629 -54.94970205 68.23676744 -56.40625 66.7890625 C-57.72592773 65.48509521 -57.72592773 65.48509521 -59.07226562 64.15478516 C-61 62 -61 62 -61 60 C-58.63060245 58.44574821 -56.254821 56.99384327 -53.8125 55.5625 C-44.75010409 50.08782943 -36.64293316 43.78864575 -29.26171875 36.17578125 C-27 34 -27 34 -25 34 C-24.73678955 33.40703125 -24.4735791 32.8140625 -24.20239258 32.203125 C-22.94790985 29.90455603 -21.67010954 28.5260994 -19.76171875 26.75 C-16.01755678 23.11153958 -12.9040763 19.1971465 -9.8125 15 C-9.30525391 14.32710938 -8.79800781 13.65421875 -8.27539062 12.9609375 C-5.17292793 8.79212901 -2.48885498 4.5619108 0 0 Z " fill="#7F8C8D" transform="translate(359,301)"/>
</svg>
