<?xml version="1.0" encoding="UTF-8"?>
<svg version="1.1" xmlns="http://www.w3.org/2000/svg" width="512" height="512">
<path d="M0 0 C2.5064016 1.05657217 3.91226446 2.35824516 5.83233261 4.28663731 C6.56986267 5.02004337 7.30739273 5.75344944 8.06727219 6.50907993 C8.86640533 7.31899891 9.66553848 8.12891788 10.48888779 8.96337986 C11.33803253 9.81208652 12.18717728 10.66079319 13.06205368 11.53521824 C15.38748998 13.86238664 17.70606916 16.196013 20.02186489 18.53275132 C22.44416302 20.97380125 24.87495756 23.40636005 27.30486679 25.83982944 C31.9042225 30.44851001 36.49587733 35.06478462 41.08482003 39.68383116 C46.30984358 44.94238497 51.54338666 50.19242436 56.77766562 55.44176304 C67.54410968 66.23956612 78.29979541 77.04802093 89.0484581 87.86352634 C92.2217791 86.46230257 94.33689433 84.81436172 96.76745224 82.35139561 C97.49078751 81.62358387 98.21412277 80.89577213 98.95937729 80.14590549 C99.74287552 79.34736149 100.52637375 78.54881748 101.33361435 77.72607517 C102.58306335 76.46501705 102.58306335 76.46501705 103.85775375 75.17848301 C106.13782839 72.87614391 108.41354923 70.5695901 110.68820953 68.26190495 C113.07023106 65.8487446 115.45993289 63.44322371 117.84948349 61.03752232 C125.98575852 52.84368517 134.11186462 44.63985399 142.22326279 36.42138767 C146.7056058 31.88003931 151.19679736 27.34763789 155.69795132 22.82493132 C158.07933115 20.431294 160.45565037 18.03305254 162.82094955 15.62351513 C165.4571669 12.94185272 168.10823397 10.27577459 170.76330185 7.61279392 C171.54680008 6.80817722 172.33029831 6.00356052 173.13753891 5.1745615 C173.86087418 4.45520924 174.58420944 3.73585697 175.32946396 2.99470615 C175.95477509 2.36218843 176.58008621 1.7296707 177.22434616 1.07798576 C179.0484581 -0.13647366 179.0484581 -0.13647366 181.18439484 0.09387493 C183.29928551 0.96709025 184.4687702 1.92138816 186.07287216 3.54736423 C186.63315109 4.10786976 187.19343002 4.66837528 187.7706871 5.24586582 C188.36250778 5.85317036 188.95432846 6.46047489 189.5640831 7.08618259 C190.17991257 7.7062569 190.79574203 8.32633121 191.430233 8.96519566 C193.39346445 10.94520539 195.34600246 12.93539554 197.2984581 14.92602634 C198.62849558 16.27111169 199.95921688 17.61552122 201.2906456 18.95922947 C204.55123347 22.2528754 207.80226998 25.55568973 211.0484581 28.86352634 C209.48797999 32.59439015 207.19188102 34.97897386 204.35512924 37.83100986 C203.87438348 38.31699231 203.39363771 38.80297475 202.89832389 39.30368394 C201.28791152 40.92908543 199.67044162 42.54727111 198.05285263 44.1655283 C196.89610669 45.32989611 195.73976484 46.4946655 194.58379745 47.65980625 C191.44411647 50.8214282 188.2978901 53.97645625 185.14976358 57.12966657 C183.18448723 59.098585 181.22051576 61.06879557 179.2569809 63.03945065 C172.41080174 69.91011665 165.55892769 76.77504995 158.70226669 83.63525486 C152.30335907 90.03780379 145.91772025 96.45338265 139.53794014 102.87498599 C134.06391651 108.38363795 128.58037557 113.88269308 123.08936012 119.37440747 C119.80804352 122.65651901 116.53087098 125.94253094 113.2633667 129.23839855 C110.19303558 132.33478454 107.11110175 135.41911985 104.01967239 138.49443722 C102.88494882 139.62733662 101.75451819 140.76455402 100.62866211 141.90626621 C99.09559503 143.4596063 97.54806257 144.99688538 95.99575424 146.53096104 C95.13186647 147.39686013 94.26797871 148.26275923 93.37791252 149.15489769 C91.0484581 150.86352634 91.0484581 150.86352634 89.04971981 150.92012882 C86.24743577 149.44061205 84.32820643 147.5280279 82.08097458 145.290452 C81.35200091 144.57061499 81.35200091 144.57061499 80.60830051 143.83623582 C78.98047208 142.22506703 77.36357424 140.60335949 75.74645615 138.98144627 C74.58230309 137.82463162 73.41752828 136.66844237 72.25217819 135.5128336 C69.08829539 132.37119478 65.93414917 129.21994995 62.78231788 126.06622577 C60.15291036 123.43669873 57.51917886 120.81152352 54.88554507 118.18623048 C48.67553559 111.99546395 42.47374573 105.79654511 36.27672958 99.59277439 C29.8756379 93.18503465 23.4599156 86.79221295 17.03699845 80.40635699 C11.52822306 74.92822218 6.02910294 69.44052484 0.53757697 63.9450987 C-2.744779 60.6606701 -6.03084147 57.38017183 -9.32641411 54.10900021 C-12.42291249 51.03467428 -15.50723781 47.94864501 -18.58245277 44.85303402 C-19.71535378 43.71670655 -20.85257115 42.5846644 -21.99428177 41.45718861 C-23.54763762 39.92187711 -25.08491653 38.37210769 -26.61897659 36.81755161 C-27.48487569 35.95236503 -28.35077478 35.08717844 -29.24291325 34.19577408 C-30.9515419 31.86352634 -30.9515419 31.86352634 -30.79459763 29.65082073 C-29.85849434 27.66626372 -28.86886895 26.38772772 -27.33118057 24.82324314 C-26.78358582 24.25973652 -26.23599106 23.6962299 -25.67180252 23.11564732 C-25.0770462 22.52068958 -24.48228989 21.92573185 -23.86951065 21.31274509 C-23.25892303 20.69454395 -22.64833542 20.07634281 -22.01924515 19.4394083 C-20.72769107 18.13706011 -19.43214963 16.83865585 -18.13293839 15.54394627 C-16.14274694 13.55472957 -14.17484137 11.54513912 -12.20740128 9.53344822 C-10.95024017 8.2710821 -9.69181831 7.00997003 -8.43201065 5.75024509 C-7.84332703 5.14516621 -7.2546434 4.54008732 -6.64812088 3.91667271 C-2.48796719 -0.17398652 -2.48796719 -0.17398652 0 0 Z " fill="#686262" transform="translate(158.95154190063477,278.1364736557007)"/>
<path d="M0 0 C3.74139139 1.56076754 6.11300533 3.86643725 8.96075439 6.72024536 C9.68866971 7.4455974 9.68866971 7.4455974 10.43129039 8.18560302 C12.05436072 9.805382 13.67018444 11.43220018 15.28613281 13.05908203 C16.44883999 14.2223534 17.61198784 15.38518446 18.77554321 16.54760742 C21.93259237 19.70408237 25.08343377 22.86668921 28.23320866 26.03042078 C31.52614489 29.33585294 34.82473942 32.63562851 38.1227417 35.93600464 C44.36691777 42.18639881 50.60597774 48.44187411 56.84322238 54.6991843 C63.94443451 61.82274512 71.05132124 68.940633 78.15869379 76.05804658 C92.77879208 90.69905436 107.39173815 105.34718287 122 120 C120.65518458 122.78690044 119.4054697 124.84142643 117.20263672 127.02441406 C116.64220673 127.58469299 116.08177673 128.14497192 115.50436401 128.722229 C114.90222076 129.31404968 114.30007751 129.90587036 113.6796875 130.515625 C113.06102814 131.13145447 112.44236877 131.74728394 111.80496216 132.3817749 C109.83296186 134.34260336 107.85411263 136.29635301 105.875 138.25 C104.53469836 139.58026799 103.19484917 140.910992 101.85546875 142.2421875 C98.57553411 145.5001015 95.28944058 148.75168533 92 152 C86.58486346 147.48231594 81.55929816 142.6966332 76.58618164 137.69970703 C75.7756131 136.88928452 74.96504456 136.078862 74.12991333 135.24388123 C71.47094833 132.58422366 68.81553569 129.92104946 66.16015625 127.2578125 C64.30949913 125.40528887 62.45862003 123.55298696 60.60752869 121.70089722 C56.24604323 117.3363152 51.88711114 112.96919248 47.52911133 108.60113037 C42.56368329 103.62448894 37.5953839 98.65071823 32.62685215 93.67717576 C22.41472413 83.45462131 12.20617123 73.22850167 2 63 C-1.18963306 64.40813427 -3.3280734 66.08046668 -5.78387451 68.54336548 C-6.52140457 69.27814621 -7.25893463 70.01292694 -8.01881409 70.76997375 C-8.81794724 71.57629745 -9.61708038 72.38262115 -10.44042969 73.21337891 C-11.28957443 74.0622316 -12.13871918 74.91108429 -13.01359558 75.78565979 C-15.33717119 78.11038921 -17.65625126 80.43949345 -19.97340679 82.77061892 C-22.39749135 85.20721389 -24.82724848 87.63813871 -27.25640869 90.06967163 C-31.85374743 94.67322422 -36.44596453 99.28185087 -41.03636193 103.89232385 C-46.26335793 109.1416818 -51.49604043 114.38535552 -56.72920752 119.6285603 C-67.49247673 130.41272936 -78.24858507 141.20401184 -89 152 C-90.10520574 151.0612573 -91.20917517 150.12105894 -92.31263733 149.18026733 C-93.23499979 148.39514802 -93.23499979 148.39514802 -94.17599583 147.59416771 C-96.87935153 145.23145252 -99.40923826 142.71507062 -101.93359375 140.1640625 C-102.71779442 139.37773941 -102.71779442 139.37773941 -103.51783752 138.57553101 C-105.16012345 136.9277213 -106.7988665 135.27644099 -108.4375 133.625 C-109.56161467 132.49586045 -110.68596174 131.36695222 -111.81054688 130.23828125 C-114.54305235 127.49484812 -117.27239009 124.74830015 -120 122 C-118.43923246 118.25860861 -116.13356275 115.88699467 -113.27975464 113.03924561 C-112.79618661 112.55396873 -112.31261858 112.06869185 -111.81439698 111.56870961 C-110.194618 109.94563928 -108.56779982 108.32981556 -106.94091797 106.71386719 C-105.7776466 105.55116001 -104.61481554 104.38801216 -103.45239258 103.22445679 C-100.29591763 100.06740763 -97.13331079 96.91656623 -93.96957922 93.76679134 C-90.66414706 90.47385511 -87.36437149 87.17526058 -84.06399536 83.8772583 C-77.81360119 77.63308223 -71.55812589 71.39402226 -65.3008157 65.15677762 C-58.17725488 58.05556549 -51.059367 50.94867876 -43.94195342 43.84130621 C-29.30094564 29.22120792 -14.65281713 14.60826185 0 0 Z " fill="#686262" transform="translate(248,85)"/>
</svg>
