<?xml version="1.0" encoding="UTF-8"?>
<svg version="1.1" xmlns="http://www.w3.org/2000/svg" width="512" height="512">
<path d="M0 0 C9.08152527 7.02395692 17.02093188 15.85893622 25.13256836 23.95556641 C26.63636593 25.45308696 28.14034854 26.95042171 29.64450073 28.44758606 C34.54648618 33.32870176 39.44328988 38.21499909 44.33984375 43.1015625 C46.03179811 44.78946496 47.72378501 46.47733481 49.41580391 48.16517258 C57.35636711 56.08673342 65.29455165 64.01066836 73.22979826 71.93755496 C82.37723656 81.07519454 91.53291984 90.20446895 100.69558424 99.32684004 C107.79154262 106.39266366 114.87983139 113.46612231 121.96239573 120.54537141 C126.18788487 124.76851012 130.41661567 128.98827798 134.65348625 133.20000076 C138.63250115 137.15577193 142.60192927 141.12091518 146.56418991 145.09346581 C148.01879886 146.54857087 149.4768323 148.00026192 150.93852806 149.44824791 C152.93442751 151.42646939 154.91757777 153.41666573 156.89805603 155.41030884 C157.4778114 155.97909496 158.05756677 156.54788108 158.65489048 157.13390315 C162.81289317 161.35887594 165.72203582 165.55829806 166.21484375 171.66015625 C165.59238978 177.051835 164.81869749 180.88755654 161 185 C156.19069287 188.34560496 151.90928058 189.75209026 146 189 C140.33266746 187.01485306 136.85892044 184.42987453 132.69142151 180.17243958 C132.097409 179.58184476 131.50339648 178.99124995 130.89138359 178.38275832 C128.91349495 176.41143152 126.95019707 174.42620131 124.98657227 172.44067383 C123.56769809 171.02067081 122.14794144 169.60154909 120.72737122 168.1832428 C116.8800579 164.33707612 113.04519382 160.47871015 109.21245313 156.61802888 C105.20242688 152.58298103 101.18105423 148.55927372 97.16087341 144.53434753 C89.5527931 136.91383974 81.95496593 129.28319379 74.36077303 121.64884919 C65.71330124 112.95665282 57.05445537 104.275825 48.39463723 95.59593165 C30.58374348 77.74323871 12.78717509 59.87632245 -5 42 C-9.03587036 43.61256647 -11.73570862 46.46774988 -14.7310791 49.50402832 C-15.29928832 50.07193982 -15.86749753 50.63985131 -16.45292521 51.22497225 C-18.35686329 53.13029996 -20.25355619 55.04268027 -22.15039062 56.95507812 C-23.51348672 58.32201225 -24.87703867 59.68849195 -26.24101257 61.05455017 C-29.17784556 63.99770784 -32.11154163 66.94394509 -35.04289246 69.89256287 C-39.67632995 74.55301549 -44.31735962 79.20585677 -48.95959473 83.85754395 C-58.81231118 93.73247343 -68.65657615 103.61580884 -78.5 113.5 C-89.12604769 124.1700563 -99.7535057 134.8386835 -110.39074659 145.49758291 C-115.00711424 150.12392899 -119.61855761 154.7551121 -124.22632599 159.39002228 C-127.09140415 162.26999745 -129.96060024 165.14584261 -132.83094215 168.02057076 C-134.16301035 169.35638962 -135.49334519 170.69393951 -136.82182884 172.03332329 C-138.63295085 173.85883787 -140.45011433 175.67811809 -142.2689209 177.49597168 C-143.05861385 178.29644952 -143.05861385 178.29644952 -143.8642602 179.11309862 C-148.62173955 183.84387354 -152.23912248 185.66749783 -159 186 C-163.76147292 185.16694642 -167.69925034 183.82176288 -170.9375 180.125 C-174.44733067 174.80707474 -175.24019056 171.64533048 -174.6796875 165.37890625 C-172.92159404 159.22557912 -168.05421551 154.76202427 -163.64372253 150.36956787 C-163.00820963 149.72881829 -162.37269672 149.0880687 -161.71792585 148.42790246 C-159.59557298 146.29059495 -157.46617785 144.1604503 -155.33666992 142.03027344 C-153.81011858 140.49609784 -152.28397004 138.96152134 -150.75819397 137.42657471 C-146.61845161 133.26491308 -142.47217836 129.10981918 -138.3240068 124.95656109 C-135.73254718 122.36145635 -133.14239019 119.76505863 -130.55266762 117.16822052 C-121.51795935 108.10903143 -112.47755681 99.05556525 -103.43237305 90.00683594 C-94.99992154 81.57074522 -86.58070457 73.12160147 -78.16738051 64.66643882 C-70.94213759 57.40652731 -63.70732784 50.15624292 -56.46507913 42.91329598 C-52.1402164 38.58763961 -47.81943988 34.25808219 -43.50841331 29.91863251 C-39.45562859 25.83972492 -35.3910995 21.77290121 -31.31720543 17.71508026 C-29.82414389 16.22383748 -28.33534868 14.7283091 -26.85116959 13.22822571 C-24.82454959 11.1812186 -22.78311518 9.15022217 -20.73722839 7.12249756 C-20.15335883 6.52542803 -19.56948926 5.92835849 -18.96792668 5.31319594 C-13.54151282 -0.00379937 -7.5135863 -2.41962949 0 0 Z " fill="#1DB471" transform="translate(260,238)"/>
<path d="M0 0 C8.57211943 5.67674574 15.83249045 14.66866576 23.08911133 21.91210938 C24.61231619 23.42904099 26.13570782 24.94578508 27.65927124 26.46235657 C32.63708818 31.41925212 37.60967559 36.38137719 42.58203125 41.34375 C44.29812559 43.05579384 46.01425314 44.76780438 47.73041344 46.4797821 C55.7863209 54.51667273 63.83983992 62.55594729 71.89041883 70.59817553 C81.17597488 79.87393921 90.46976866 89.14134656 99.77056867 98.40182447 C106.96839727 105.56951719 114.15855551 112.74484616 121.34298915 119.92596483 C125.63110629 124.21173085 129.92246979 128.49412327 134.22196388 132.76847839 C138.26168959 136.78495961 142.29182922 140.81081546 146.31480026 144.84407616 C147.79198324 146.32175529 149.27259137 147.79601959 150.75686073 149.26658058 C152.78351735 151.27556194 154.79743386 153.29652066 156.80867004 155.32092285 C157.39757155 155.89885511 157.98647305 156.47678737 158.59322006 157.07223272 C162.79320154 161.33883503 165.56533145 165.48554577 166.3203125 171.58984375 C165.83382658 177.43740454 164.32068238 181.22334578 160.15234375 185.42578125 C156.4017043 188.16898941 152.62597493 189.22425086 148 189 C141.39561537 187.47599899 137.12596975 185.00048152 132.45091248 180.17243958 C131.55733043 179.28654735 131.55733043 179.28654735 130.64569622 178.38275832 C128.66912604 176.41600805 126.71466243 174.4287103 124.75952148 172.44067383 C123.34078237 171.02024095 121.92071811 169.60113059 120.49943542 168.1832428 C116.65596318 164.34148854 112.83124221 160.48154751 109.00966525 156.61802888 C105.00859441 152.57939226 100.99046948 148.55779609 96.97413635 144.53434753 C89.37623989 136.91781959 81.79376475 129.2861297 74.21673495 121.64884919 C65.5877016 112.95269845 56.94157831 104.27362513 48.29399002 95.59593165 C30.51026957 77.74953453 12.74807714 59.88183946 -5 42 C-9.01566442 43.60817707 -11.70014239 46.43481966 -14.67965698 49.45933533 C-15.24237151 50.02245771 -15.80508604 50.58558008 -16.38485253 51.16576678 C-18.27030204 53.05494845 -20.14850232 54.95117656 -22.02685547 56.84741211 C-23.37684687 58.20287862 -24.7273019 59.55788352 -26.07818604 60.91246033 C-28.9871299 63.83111936 -31.89298579 66.75280677 -34.79656601 69.67680168 C-39.38811825 74.30014745 -43.98780366 78.91534271 -48.58889771 83.52919006 C-60.01695743 94.99134853 -71.43572338 106.4627538 -82.84960938 117.93902588 C-91.71796618 126.85582933 -100.5894792 135.76943397 -109.47160256 144.67252737 C-114.04582109 149.25827129 -118.61300481 153.85087403 -123.1750524 158.44872463 C-126.0156583 161.30852614 -128.86250525 164.16205078 -131.71112823 167.01386452 C-133.03034147 168.33709593 -134.34696838 169.66291166 -135.6607933 170.99149323 C-137.45577495 172.80590424 -139.25982026 174.61080404 -141.06637573 176.41368103 C-141.58312107 176.94052913 -142.09986641 177.46737723 -142.63227069 178.01019043 C-146.42277126 181.76403972 -150.20894472 184.56602494 -155.5625 185.3984375 C-162.08179477 185.33575197 -166.35273682 184.500193 -171.25 179.875 C-173.89563677 175.52859673 -175.68779884 171.14350799 -174.56650913 166.01877826 C-172.75548738 159.96138379 -170.16469037 156.30800253 -165.67459106 151.93287659 C-165.03035435 151.28139662 -164.38611763 150.62991666 -163.72235858 149.95869488 C-161.57385259 147.79336799 -159.40469764 145.65004081 -157.23486328 143.50610352 C-155.68463523 141.95265461 -154.13570743 140.39790722 -152.58798218 138.84196472 C-148.39085833 134.63032735 -144.17527071 130.43763306 -139.95567942 126.24852109 C-135.54122001 121.86044773 -131.14261965 117.45652968 -126.74191284 113.05467224 C-119.35261969 105.66818649 -111.9518877 98.2933131 -104.54345703 90.92602539 C-96.92382298 83.34868522 -89.31480852 75.76088746 -81.71728516 68.16137695 C-81.24895504 67.69292697 -80.78062493 67.22447699 -80.29810299 66.74183155 C-79.8305744 66.27418189 -79.36304581 65.80653224 -78.88134968 65.32471138 C-70.66230574 57.10383724 -62.43472583 48.89156503 -54.20232773 40.68406487 C-50.69850125 37.19083487 -47.1972382 33.69506478 -43.69791031 30.19732857 C-39.5796755 26.08210469 -35.45388382 21.97460801 -31.32208633 17.87300301 C-29.80578661 16.36547339 -28.29202115 14.8553899 -26.78096771 13.34260178 C-24.72061933 11.28078333 -22.65130302 9.22841133 -20.57937622 7.17823792 C-19.98121696 6.57543284 -19.38305769 5.97262777 -18.76677239 5.35155588 C-12.97613893 -0.33877928 -7.97736473 -2.26138848 0 0 Z " fill="#1DB472" transform="translate(260,85)"/>
</svg>
