<?xml version="1.0" encoding="UTF-8"?>
<svg version="1.1" xmlns="http://www.w3.org/2000/svg" width="1920" height="1848">
<path d="M0 0 C633.6 0 1267.2 0 1920 0 C1920 609.84 1920 1219.68 1920 1848 C1286.4 1848 652.8 1848 0 1848 C0 1238.16 0 628.32 0 0 Z " fill="#DCDCDC" transform="translate(0,0)"/>
<path d="M0 0 C2.44460177 -0.00151708 4.88917867 -0.0064309 7.33377457 -0.01184845 C68.98276581 -0.11405484 68.98276581 -0.11405484 81.28357315 9.31096649 C83.0999794 12.06877899 83.0999794 12.06877899 84.84607315 15.43596649 C91.84114307 28.3753889 100.76836823 40.12898248 110.28357315 51.31096649 C111.1034169 52.31514618 111.92326065 53.31932587 112.76794815 54.35393524 C119.06860097 61.99779914 125.86330875 69.10000424 132.84607315 76.12346649 C133.7081337 76.99471161 134.57019424 77.86595673 135.45837784 78.76360321 C141.42502011 84.70200503 147.69896337 90.0726453 154.28357315 95.31096649 C155.54964213 96.34790075 156.8141971 97.38668919 158.0765419 98.42815399 C217.58541462 146.98457877 294.70764941 175.46226322 371.28357315 179.31096649 C372.761473 182.79670619 373.82654125 186.19592157 374.6859169 189.88127899 C375.06200089 191.47456024 375.06200089 191.47456024 375.44568253 193.10002899 C375.70156143 194.20088837 375.95744034 195.30174774 376.22107315 196.43596649 C378.34835836 205.54574596 378.34835836 205.54574596 380.7406044 214.58831024 C382.76775497 221.91323049 384.39358866 229.32953618 386.03357315 236.74846649 C386.20687149 237.53195465 386.38016983 238.31544281 386.55871964 239.12267303 C401.56550797 307.1784239 412.16574404 376.56866305 414.28357315 446.31096649 C414.43391006 445.60415741 414.58424698 444.89734833 414.73913956 444.16912079 C416.43738357 436.19327861 418.14646682 428.21980189 419.86572647 420.24846649 C420.26417945 418.40089252 420.66207418 416.55319818 421.05994034 414.70549774 C422.74783017 406.8948703 424.48353857 399.09654115 426.28357315 391.31096649 C426.60696671 389.90862762 426.60696671 389.90862762 426.93689346 388.47795868 C446.45709112 305.38968264 446.45709112 305.38968264 476.15857315 285.37346649 C482.73640826 283.13700255 488.2903416 283.51457037 494.53357315 286.56096649 C496.13276176 287.44968355 497.71786458 288.36451053 499.28357315 289.31096649 C499.89587784 289.67963837 500.50818253 290.04831024 501.1390419 290.42815399 C503.79196345 292.11816328 506.28373834 293.86672394 508.28357315 296.31096649 C508.28357315 296.97096649 508.28357315 297.63096649 508.28357315 298.31096649 C508.94357315 298.31096649 509.60357315 298.31096649 510.28357315 298.31096649 C510.28357315 298.97096649 510.28357315 299.63096649 510.28357315 300.31096649 C510.94357315 300.31096649 511.60357315 300.31096649 512.28357315 300.31096649 C513.42517471 301.74114227 513.42517471 301.74114227 514.67419815 303.75627899 C515.1335878 304.4961203 515.59297745 305.23596161 516.06628799 305.99822235 C516.5504921 306.80267792 517.0346962 307.60713348 517.53357315 308.43596649 C518.02937881 309.25911346 518.52518448 310.08226044 519.03601456 310.93035126 C538.98397994 344.63790141 542.12198408 387.79407121 532.64099503 425.38860321 C523.61648958 458.59210918 503.95541921 488.79637805 477.03357315 510.24846649 C476.44277969 510.72171356 475.85198624 511.19496063 475.24328995 511.68254852 C472.06110739 514.16003097 469.12375894 516.04774748 465.28357315 517.31096649 C465.28357315 517.97096649 465.28357315 518.63096649 465.28357315 519.31096649 C463.36609268 520.6962204 463.36609268 520.6962204 460.66638565 522.28752899 C459.18090225 523.16429291 459.18090225 523.16429291 457.66540909 524.05876923 C456.0532753 524.98798187 456.0532753 524.98798187 454.40857315 525.93596649 C453.31319229 526.56897675 452.21781143 527.201987 451.08923721 527.85417938 C415.19094294 548.31096649 415.19094294 548.31096649 401.28357315 548.31096649 C401.20880753 549.17592743 401.1340419 550.04088837 401.05701065 550.93206024 C399.7903942 563.064259 396.99248389 574.70124336 393.99011612 586.51018524 C393.41140184 588.80424543 392.85612028 591.10076443 392.3187294 593.40471649 C386.61907227 616.72865904 376.18478721 638.95623185 365.3187294 660.27288055 C363.45477426 663.94276204 361.62139072 667.62794727 359.78357315 671.31096649 C359.10661426 672.66519537 358.42954302 674.0193681 357.75232315 675.37346649 C357.26763565 676.34284149 356.78294815 677.31221649 356.28357315 678.31096649 C355.62357315 678.31096649 354.96357315 678.31096649 354.28357315 678.31096649 C354.04251846 679.16174774 353.80146378 680.01252899 353.5531044 680.88909149 C352.15238327 684.66457368 350.23715403 687.76906383 347.97107315 691.06096649 C347.54028458 691.69711884 347.109496 692.33327118 346.66565323 692.98870087 C341.51538928 700.53623481 336.13384441 707.92186073 330.74304581 715.29851532 C329.33343024 717.24221909 327.94989859 719.20246501 326.5687294 721.16643524 C324.36000954 724.2057848 321.97109897 726.69809417 319.28357315 729.31096649 C318.95357315 729.97096649 318.62357315 730.63096649 318.28357315 731.31096649 C317.62357315 731.31096649 316.96357315 731.31096649 316.28357315 731.31096649 C316.03994034 731.87299774 315.79630753 732.43502899 315.5452919 733.01409149 C314.04176379 735.75116434 312.21657567 737.7689259 310.09607315 740.06096649 C307.22043453 743.19467524 304.37216562 746.33871631 301.59607315 749.56096649 C298.61908422 752.96719569 295.59764237 756.22811141 292.28357315 759.31096649 C291.62357315 759.31096649 290.96357315 759.31096649 290.28357315 759.31096649 C290.28357315 759.97096649 290.28357315 760.63096649 290.28357315 761.31096649 C289.62357315 761.31096649 288.96357315 761.31096649 288.28357315 761.31096649 C288.28357315 761.97096649 288.28357315 762.63096649 288.28357315 763.31096649 C286.9906044 764.65081024 286.9906044 764.65081024 285.09607315 766.24846649 C284.37806534 766.85690399 283.66005753 767.46534149 282.9202919 768.09221649 C282.05017471 768.82440399 281.18005753 769.55659149 280.28357315 770.31096649 C279.1640625 771.27853634 278.0456385 772.24736441 276.9281044 773.21721649 C275.75521584 774.22796806 274.58203856 775.2383847 273.40857315 776.24846649 C272.55162857 776.99374603 272.55162857 776.99374603 271.67737198 777.75408173 C267.51119739 781.31096649 267.51119739 781.31096649 265.28357315 781.31096649 C265.28357315 781.97096649 265.28357315 782.63096649 265.28357315 783.31096649 C263.7015419 784.74040985 263.7015419 784.74040985 261.47107315 786.40081024 C260.24142838 787.32144257 260.24142838 787.32144257 258.98694229 788.26067352 C258.09483047 788.9166452 257.20271866 789.57261688 256.28357315 790.24846649 C255.3701918 790.92506317 254.45681046 791.60165985 253.51575089 792.29875946 C235.64417715 805.47286729 217.10935028 818.2375953 197.28357315 828.31096649 C196.47742569 828.72088837 195.67127823 829.13081024 194.84070206 829.55315399 C177.11047001 838.54715504 177.11047001 838.54715504 168.58874893 842.2743454 C165.07683905 843.8536262 161.63466704 845.57056251 158.17956924 847.26970673 C147.76276674 852.36394642 137.45386377 857.1389647 126.28357315 860.31096649 C125.23387344 860.62203339 125.23387344 860.62203339 124.16296768 860.93938446 C111.2712214 864.57876385 98.26289443 864.6777422 84.97107315 864.68596649 C83.69198578 864.68895752 83.69198578 864.68895752 82.38705826 864.69200897 C68.13303566 864.6882402 53.88300859 864.16191727 40.15857315 859.93596649 C39.41268936 859.71682587 38.66680557 859.49768524 37.89831924 859.27190399 C36.39851363 858.83121799 34.89992314 858.38637062 33.40271378 857.93694305 C30.25308419 857.0065686 27.07836013 856.16974138 23.90857315 855.31096649 C17.45549643 853.44723543 11.41219559 851.04570648 5.28357315 848.31096649 C3.8331633 847.67789965 2.38263337 847.0451079 0.93201065 846.41252899 C-25.19601783 834.92577984 -50.15558505 821.81672814 -73.71056747 805.6805954 C-75.52181197 804.44385226 -77.34283271 803.22389341 -79.16955185 802.01018524 C-87.45413675 796.42931339 -95.15988906 790.25753928 -102.83214951 783.8705368 C-104.50345452 782.48723849 -106.18919052 781.1256873 -107.8843956 779.77190399 C-115.14647666 773.85326096 -121.82113983 767.41278997 -128.46642685 760.81096649 C-129.34194199 759.94471649 -130.21745712 759.07846649 -131.11950302 758.18596649 C-137.07242411 752.20433085 -142.48061418 745.92543233 -147.71642685 739.31096649 C-148.46118271 738.42086884 -149.20593857 737.53077118 -149.97326279 736.61370087 C-151.71642685 734.31096649 -151.71642685 734.31096649 -151.71642685 732.31096649 C-152.37642685 732.31096649 -153.03642685 732.31096649 -153.71642685 732.31096649 C-155.3453331 730.36174774 -155.3453331 730.36174774 -157.27892685 727.62346649 C-157.99693466 726.60768524 -158.71494247 725.59190399 -159.4547081 724.54534149 C-160.20107529 723.47799774 -160.94744247 722.41065399 -161.71642685 721.31096649 C-162.41123154 720.34674774 -163.10603622 719.38252899 -163.8218956 718.38909149 C-176.99888158 699.85970501 -188.30413606 679.85359835 -197.1734581 658.92034149 C-198.43537962 655.96840356 -199.76695204 653.07972124 -201.15392685 650.18596649 C-216.68248281 616.03329276 -225.50820256 578.29978532 -230.71642685 541.31096649 C-231.7998436 541.12594574 -231.7998436 541.12594574 -232.90514755 540.93718719 C-238.00786456 540.0422203 -242.96675862 539.09878999 -247.90392685 537.49846649 C-248.98802841 537.15041962 -250.07212997 536.80237274 -251.1890831 536.44377899 C-252.35310654 536.06995087 -253.51712997 535.69612274 -254.71642685 535.31096649 C-256.04763305 534.90978106 -257.37969918 534.51144025 -258.7125206 534.11565399 C-266.67974295 531.73333072 -274.25092811 529.0066531 -281.71642685 525.31096649 C-282.77990341 524.80952118 -283.84337997 524.30807587 -284.9390831 523.79143524 C-296.7733752 518.09443104 -308.27865634 511.31101253 -318.71642685 503.31096649 C-318.71642685 502.65096649 -318.71642685 501.99096649 -318.71642685 501.31096649 C-319.37642685 501.12534149 -320.03642685 500.93971649 -320.71642685 500.74846649 C-327.4644097 497.51505804 -332.40760176 491.74225956 -337.1734581 486.10393524 C-338.80403669 484.15617011 -338.80403669 484.15617011 -341.15392685 481.93596649 C-342.71642685 480.31096649 -342.71642685 480.31096649 -342.71642685 478.31096649 C-343.37642685 478.31096649 -344.03642685 478.31096649 -344.71642685 478.31096649 C-346.19086387 476.29814583 -347.5276177 474.30116314 -348.84142685 472.18596649 C-349.23886093 471.55142548 -349.63629501 470.91688446 -350.04577255 470.26311493 C-350.87249534 468.93444744 -351.69477516 467.60300617 -352.51281357 466.2689743 C-353.27494143 465.02916388 -354.04397125 463.79354757 -354.82238388 462.56389618 C-360.91197054 452.93450811 -364.55049469 443.19239259 -367.71642685 432.31096649 C-368.03482529 431.23846649 -368.35322372 430.16596649 -368.6812706 429.06096649 C-376.90094462 398.96305566 -372.79381609 366.89983009 -364.71642685 337.31096649 C-364.52210068 336.58812469 -364.32777451 335.8652829 -364.12755966 335.1205368 C-360.12604485 320.52721198 -354.16428217 306.41163426 -348.71642685 292.31096649 C-348.05642685 292.31096649 -347.39642685 292.31096649 -346.71642685 292.31096649 C-346.59267685 291.50659149 -346.46892685 290.70221649 -346.34142685 289.87346649 C-346.13517685 289.02784149 -345.92892685 288.18221649 -345.71642685 287.31096649 C-340.98738636 284.94644625 -334.29583989 285.70016148 -329.2750206 286.88909149 C-314.7883337 292.59047095 -304.58170728 307.7418482 -296.79699326 320.53752899 C-295.80936966 322.15842773 -294.80104432 323.7666661 -293.7906456 325.37346649 C-276.35579713 354.2510623 -264.44593397 388.74212681 -255.68200302 421.20989227 C-253.98301694 427.47756339 -252.07988761 433.67229052 -250.15392685 439.87346649 C-247.87184366 447.25849909 -245.81905632 454.62764527 -244.13415146 462.17058563 C-242.98988019 467.26812759 -241.64573456 472.286309 -240.21642685 477.31096649 C-238.50727516 483.34612145 -236.9106316 489.39415123 -235.46642685 495.49846649 C-235.30336044 496.18102509 -235.14029404 496.86358368 -234.97228622 497.56682587 C-233.98930332 501.79574382 -233.30924523 506.01239027 -232.71642685 510.31096649 C-234.10464281 486.62691949 -234.10464281 486.62691949 -236.01867294 462.98088837 C-237.71450156 444.10990661 -237.89166167 425.2405628 -237.91955185 406.30706024 C-237.9238614 404.29799635 -237.92817149 402.28893246 -237.93252635 400.27986866 C-237.94425618 394.67788663 -237.95184387 389.07591429 -237.95532155 383.47392124 C-237.95931987 377.07895995 -237.97148718 370.68414895 -237.99767685 364.28923798 C-238.13011143 331.19892973 -237.88492121 298.28322469 -234.71642685 265.31096649 C-234.59811508 264.05967957 -234.47980331 262.80839264 -234.35790634 261.51918793 C-233.67634828 254.51696093 -232.86618421 247.53820355 -231.96642685 240.56096649 C-231.84114609 239.56274872 -231.71586533 238.56453094 -231.58678818 237.53606415 C-227.97536132 208.85615964 -223.23971282 180.24708434 -215.71642685 152.31096649 C-215.4539415 151.33240692 -215.19145615 150.35384735 -214.92101669 149.34563446 C-200.9222257 97.87187105 -180.12981404 48.69368301 -132.29552841 20.8602829 C-92.32898539 -1.58411442 -44.51299308 0.01734502 0 0 Z " fill="#F3F2F0" transform="translate(886.7164268493652,419.6890335083008)"/>
<path d="M0 0 C12.19502476 8.91009732 19.6805422 25.40000208 22 40 C23.39452426 57.0399403 17.99300717 72.08705187 7.125 85.1875 C6.36445312 86.04730469 5.60390625 86.90710938 4.8203125 87.79296875 C2.81543086 89.95425176 2.81543086 89.95425176 2 93 C3.34964844 93.65742188 3.34964844 93.65742188 4.7265625 94.328125 C30.82229841 107.14429214 55.52390113 121.83535782 79 139 C79.66692871 139.48678223 80.33385742 139.97356445 81.02099609 140.47509766 C99.03276067 153.67618567 117.33628903 167.60961099 132.77734375 183.8046875 C134.71284675 185.71637939 136.69396223 187.47310119 138.7578125 189.2421875 C143.08979574 193.00376368 147.02889749 197.05499538 150.9375 201.25 C151.63697754 201.99725342 152.33645508 202.74450684 153.05712891 203.5144043 C157.54671012 208.34536881 161.84550903 213.25457553 165.9453125 218.421875 C168.15239399 221.1912168 170.4484825 223.87126867 172.75 226.5625 C198.22286531 257.16148372 217.60166315 292.5880314 230.55712891 330.16162109 C233.94794166 339.98838685 236.8688179 348.25942597 244 356 C245.24910156 357.47919922 245.24910156 357.47919922 246.5234375 358.98828125 C259.06683797 373.61578788 277.28733357 386.48731243 297.00683594 388.17138672 C313.77318198 389.23011554 327.94507573 385.05699575 343 378 C340.54090167 400.33262765 328.37956106 424.67555249 311 439 C295.67217966 450.30661802 281.68968857 454.12992952 262.75 454.25 C261.71987793 454.2593457 260.68975586 454.26869141 259.62841797 454.27832031 C253.73646192 454.25354418 248.64575044 453.70182908 243 452 C247.20958118 473.25227001 247.20958118 473.25227001 253.30957031 494.01269531 C254.09009374 496.25932214 254.8375955 498.51589442 255.5859375 500.7734375 C266.28115351 532.6285852 281.24217358 566.77679415 311.984375 583.63671875 C321.85503047 588.09897103 332.35008826 587.92296901 343 588 C341.79723557 596.82449274 337.9352234 602.96159792 331.05078125 608.5625 C321.18105539 615.48070784 307.46057927 615.35781943 295.90771484 613.69970703 C291.48924349 612.82093834 287.25856736 611.45001703 283 610 C281.21529297 609.43345703 281.21529297 609.43345703 279.39453125 608.85546875 C265.41661578 604.06097132 251.29208979 597.19472652 239 589 C238.59817505 590.28015991 238.59817505 590.28015991 238.18823242 591.58618164 C236.98071486 595.05540664 235.55150721 598.29772797 233.98828125 601.62109375 C233.69696823 602.24291031 233.40565521 602.86472687 233.10551453 603.50538635 C232.17761385 605.48423289 231.24518539 607.46090485 230.3125 609.4375 C229.70607141 610.7283706 229.0999494 612.01938528 228.49414062 613.31054688 C227.28353874 615.88985665 226.07128353 618.46837967 224.85791016 621.04638672 C221.88971909 627.35698035 218.94577356 633.6789197 216 640 C207.25 637.125 207.25 637.125 205 636 C198.00426619 634.93718659 193.14230242 636.26108449 187.30859375 640.18359375 C154.5694768 665.94279744 145.82142792 727.6393361 137.73974609 765.53369141 C136.9450944 769.25727713 136.13918012 772.97832299 135.33203125 776.69921875 C134.28434558 781.54484171 133.23667439 786.39045683 132.19921875 791.23828125 C131.99127686 792.20805908 131.78333496 793.17783691 131.5690918 794.17700195 C130.97804575 797.10890473 130.47540886 800.04733141 130 803 C129.67 803 129.34 803 129 803 C128.9906543 802.36763428 128.98130859 801.73526855 128.97167969 801.08374023 C127.63779349 726.7588167 115.01453652 653.32248256 99.25 580.875 C99.06545258 580.02177155 98.88090515 579.16854309 98.69076538 578.28945923 C96.69972835 569.11063929 94.54219621 560.05747027 91.88378906 551.04638672 C90.6916667 546.93718704 89.69596845 542.79656579 88.75 538.625 C88.57726563 537.87734375 88.40453125 537.1296875 88.2265625 536.359375 C87.81447439 534.57365988 87.40671427 532.78694673 87 531 C85.70191406 530.90203125 84.40382813 530.8040625 83.06640625 530.703125 C19.09182026 525.56390887 -45.72198527 506.56131833 -99 470 C-99.99459229 469.3198584 -99.99459229 469.3198584 -101.00927734 468.62597656 C-110.96553127 461.78433684 -120.6577693 454.66009686 -130 447 C-130.56299805 446.54141602 -131.12599609 446.08283203 -131.70605469 445.61035156 C-140.37379298 438.49445763 -148.42643709 430.77759523 -156.375 422.875 C-157.29023437 421.96903076 -158.20546875 421.06306152 -159.1484375 420.12963867 C-165.19099306 414.05908798 -170.66962891 407.69913843 -176 401 C-177.03604739 399.74490084 -178.07472515 398.49196361 -179.1171875 397.2421875 C-187.65983905 386.86670501 -195.82901948 375.89620502 -201.5625 363.6875 C-203.81334016 359.61716535 -206.36358429 358.20160694 -210.73828125 356.76953125 C-227.49433414 352.8163068 -244.49629294 351.84931277 -261.6640625 351.76171875 C-262.39764544 351.75689547 -263.13122837 351.75207218 -263.88704109 351.74710274 C-269.46635413 351.71098153 -275.04558174 351.69517992 -280.625 351.6875 C-281.85410284 351.68533226 -281.85410284 351.68533226 -283.10803604 351.68312073 C-305.19334037 351.65163626 -327.15971275 351.98832367 -349.1875 353.75 C-350.21329163 353.82850189 -351.23908325 353.90700378 -352.29595947 353.98788452 C-363.95516998 354.90910872 -374.8222518 356.50319138 -386 360 C-386.75933838 360.21817383 -387.51867676 360.43634766 -388.30102539 360.66113281 C-410.90775455 367.16961922 -429.90472094 380.1360392 -447 396 C-447.59425781 396.52851563 -448.18851563 397.05703125 -448.80078125 397.6015625 C-474.67167376 421.68186818 -487.84550452 461.63650935 -496.40527344 494.77441406 C-497.01294359 497.04843752 -497.67495343 499.30027556 -498.3515625 501.5546875 C-507.71174039 533.24602877 -512.36383765 566.23079554 -516 599 C-516.07778687 599.69202515 -516.15557373 600.38405029 -516.23571777 601.0970459 C-519.49661234 630.12406722 -521.31887975 659.0188416 -521.265625 688.2265625 C-521.26697972 690.922396 -521.26892629 693.61822422 -521.27142334 696.3140564 C-521.27501535 701.91560895 -521.27039525 707.51710801 -521.26074219 713.11865234 C-521.25109713 718.77884382 -521.251093 724.4389297 -521.26074219 730.09912109 C-521.34184148 775.58577743 -521.34184148 775.58577743 -519 821 C-518.92378418 822.01284058 -518.84756836 823.02568115 -518.76904297 824.06921387 C-518.35741066 829.48911743 -517.88842007 834.90139132 -517.375 840.3125 C-517.17196177 842.49491689 -516.97089437 844.67747645 -516.77334595 846.86039734 C-516.60081 848.76187498 -516.42250299 850.66282662 -516.24365234 852.5637207 C-515.99612385 856.05466614 -515.95810221 859.50153446 -516 863 C-518.47221574 860.52778426 -518.37998744 859.42207742 -518.8125 856 C-519.61755828 850.71051552 -520.83376116 845.69171728 -522.3125 840.5625 C-524.19123511 834.03564018 -525.85584817 827.49456228 -527.375 820.875 C-529.88790488 810.03412879 -532.99310671 799.39263998 -536.18310547 788.734375 C-537.12199276 785.59165602 -538.04452838 782.44437888 -538.96386719 779.29589844 C-539.56153778 777.25328851 -540.16488614 775.21243015 -540.76953125 773.171875 C-541.63521413 770.2487177 -542.48323434 767.32097763 -543.32421875 764.390625 C-551.53137549 736.05789339 -562.07566835 708.04289446 -576 682 C-576.34740234 681.3385498 -576.69480469 680.67709961 -577.05273438 679.99560547 C-585.82056824 663.37686111 -597.2531468 644.24895107 -616 638 C-618.01906808 637.90583222 -620.04124313 637.87008808 -622.0625 637.875 C-623.12597656 637.87242187 -624.18945312 637.86984375 -625.28515625 637.8671875 C-627.96704384 637.81561545 -627.96704384 637.81561545 -630 639 C-630.33 639.99 -630.66 640.98 -631 642 C-631.66 642 -632.32 642 -633 642 C-648.05381623 600.38737088 -662.14750298 558.56411124 -662.16796875 513.83984375 C-662.17119318 512.16524733 -662.17455808 510.49065117 -662.17805481 508.8160553 C-662.18402103 505.30859732 -662.18589771 501.80116386 -662.18530273 498.29370117 C-662.18522205 494.74970329 -662.19207391 491.20583625 -662.20581055 487.66186523 C-662.28213101 467.67776301 -662.17181976 447.89225726 -660 428 C-659.8950975 427.02311722 -659.79019501 426.04623444 -659.68211365 425.03974915 C-653.75331395 370.64909281 -636.42389813 308.80466463 -592.07885742 272.78491211 C-573.07851928 258.07411992 -547.60967393 244.67832201 -523 245 C-523.02356567 243.86908936 -523.02356567 243.86908936 -523.04760742 242.71533203 C-523.56524174 214.02048135 -519.51484083 189.93876606 -507 164 C-506.69868164 163.3714209 -506.39736328 162.7428418 -506.08691406 162.09521484 C-501.12680739 151.9046888 -494.96598192 142.91755073 -488 134 C-487.55881836 133.43104004 -487.11763672 132.86208008 -486.66308594 132.27587891 C-481.46040306 125.60099752 -481.46040306 125.60099752 -479 123 C-478.34 123 -477.68 123 -477 123 C-476.66162109 122.16275391 -476.66162109 122.16275391 -476.31640625 121.30859375 C-456.96311326 87.36854581 -398.6403508 67.98248229 -363.5 57.98828125 C-355.37244358 55.77078689 -347.17792624 53.92885158 -338.9375 52.1875 C-338.27128632 52.04642822 -337.60507263 51.90535645 -336.91867065 51.76000977 C-320.74906717 48.36562067 -304.56083141 45.77207143 -288.12084961 44.11962891 C-285.67043283 43.87328421 -283.22094266 43.61896583 -280.77148438 43.36328125 C-253.16444479 40.50493896 -227.16663641 39.3735465 -200 46 C-198.11384241 46.4373232 -196.22713272 46.8722729 -194.33984375 47.3046875 C-187.88806682 48.79839468 -181.44530547 50.32346739 -175.0546875 52.0625 C-162.53460076 55.40815992 -149.82669466 57.2438075 -137 59 C-136.12907715 59.12149414 -135.2581543 59.24298828 -134.36083984 59.36816406 C-99.16331138 64.14288447 -56.6746467 62.58048171 -27.0625 40.5625 C-25.68876241 39.39769588 -24.33434164 38.20973386 -23 37 C-22.25492188 36.35804687 -21.50984375 35.71609375 -20.7421875 35.0546875 C-11.32013041 26.39917064 -6.1338328 15.31846574 -1.91015625 3.44921875 C-1 1 -1 1 0 0 Z " fill="#7C7C7C" transform="translate(1171,69)"/>
<path d="M0 0 C0.66 0.33 1.32 0.66 2 1 C1.74750488 1.63671631 1.49500977 2.27343262 1.23486328 2.92944336 C-1.60118509 10.35791858 -3.50359713 17.78617704 -5.125 25.5625 C-5.51401489 27.40859863 -5.51401489 27.40859863 -5.91088867 29.29199219 C-7.86937687 38.83626214 -9.32376351 48.27922008 -10 58 C-10.12701294 59.67968872 -10.12701294 59.67968872 -10.2565918 61.39331055 C-11.00334175 72.03831405 -11.20108673 82.64327186 -11.1875 93.3125 C-11.18689575 94.20083527 -11.1862915 95.08917053 -11.18566895 96.00442505 C-11.1298107 126.62802933 -8.57984498 156.94799217 -5.46728516 187.39599609 C-5.07907684 191.19601974 -4.71344668 194.99777842 -4.35546875 198.80078125 C-2.80886391 214.54607779 -0.41353691 230.1712673 1.9375 245.8125 C2.1068103 246.94217194 2.27612061 248.07184387 2.45056152 249.23574829 C4.44410673 262.48372514 6.61321118 275.68082675 9.0559082 288.85327148 C10.51823217 296.75923554 11.81811084 304.69216555 13.125 312.625 C13.37874679 314.15757849 13.63265325 315.69013056 13.88671875 317.22265625 C14.01085144 317.97214539 14.13498413 318.72163452 14.26287842 319.49383545 C14.50646133 320.96397346 14.75031024 322.43406743 14.9944458 323.90411377 C15.52495131 327.10350845 16.0479061 330.30340528 16.55371094 333.50683594 C16.7190332 334.54356445 16.88435547 335.58029297 17.0546875 336.6484375 C17.25940674 337.96207275 17.25940674 337.96207275 17.46826172 339.30224609 C17.9799063 342.11043163 17.9799063 342.11043163 18.9440918 345.23022461 C20.18936215 349.67605571 21.02646093 354.12684293 21.83984375 358.66796875 C22.00746719 359.58403397 22.17509064 360.50009918 22.34779358 361.44392395 C23.05903389 365.33087919 23.76240287 369.21924445 24.46557617 373.10766602 C26.9798855 387.05842517 26.9798855 387.05842517 30.22827148 400.85131836 C31.24730349 405.00900763 32.0618628 409.19779624 32.8828125 413.3984375 C34.99974682 424.19116726 37.41417294 434.90625706 39.875 445.625 C40.31582614 447.55512242 40.75641624 449.48529877 41.19677734 451.41552734 C43.11167125 459.80116801 45.03857995 468.18397525 46.984375 476.5625 C47.40807373 478.3885376 47.40807373 478.3885376 47.84033203 480.25146484 C48.34933908 482.43984675 48.86059696 484.62770681 49.37451172 486.81494141 C49.59381348 487.75515137 49.81311523 488.69536133 50.0390625 489.6640625 C50.22678223 490.46279785 50.41450195 491.2615332 50.60791016 492.08447266 C51 494 51 494 51 496 C-184.95 496 -420.9 496 -664 496 C-664 361.90652557 -664 361.90652557 -641 337 C-640.08389744 335.99285828 -639.1685768 334.98500493 -638.25390625 333.9765625 C-631.52045058 326.56518068 -624.73426505 319.39142168 -617.1328125 312.859375 C-615.69010448 311.60162954 -614.26846124 310.3193742 -612.8671875 309.015625 C-605.03605357 301.74196162 -596.56457173 295.37329561 -588 289 C-587.24557617 288.43667969 -586.49115234 287.87335938 -585.71386719 287.29296875 C-575.79815231 279.91659257 -565.75428772 273.08955193 -555 267 C-554.29375488 266.5968457 -553.58750977 266.19369141 -552.85986328 265.77832031 C-523.00321462 248.77525622 -491.64527729 234.74985067 -458.18017578 226.54956055 C-452.08217815 225.03705034 -446.02473956 223.3917578 -439.96484375 221.734375 C-426.3657554 218.04533878 -412.69571198 214.6837923 -399 211.375 C-380.34095137 206.87725556 -380.34095137 206.87725556 -361.80943298 201.88882446 C-352.40373005 199.23488533 -342.90781916 196.93101489 -333.42233276 194.58221436 C-327.64729614 193.15176566 -321.87445017 191.71253013 -316.1015625 190.2734375 C-314.39204659 189.84745773 -314.39204659 189.84745773 -312.647995 189.41287231 C-303.40094687 187.10608849 -294.16502412 184.75857581 -284.9375 182.375 C-284.264841 182.20137939 -283.59218201 182.02775879 -282.8991394 181.84887695 C-280.15469947 181.14042249 -277.41036339 180.43156788 -274.66618347 179.72210693 C-265.92408804 177.46216951 -257.17913184 175.21340883 -248.43264771 172.97052002 C-246.6061887 172.50180015 -244.77990536 172.03239506 -242.9538269 171.56219482 C-232.34507749 168.83060886 -221.72287208 166.18121727 -211.05435181 163.6918335 C-205.12173206 162.30010955 -199.29459482 160.68732735 -193.44921875 158.96484375 C-189.5094382 157.86277603 -185.54831737 156.91836021 -181.5625 156 C-175.91756351 154.69702625 -170.29110451 153.3466118 -164.6875 151.875 C-163.49511719 151.56304688 -162.30273438 151.25109375 -161.07421875 150.9296875 C-154.65282376 148.98776627 -152.68387744 146.39681412 -149.3125 140.625 C-139.79304667 124.89865925 -127.95393182 111.15826318 -115.49609375 97.71484375 C-113.39140514 95.42570668 -111.3393133 93.1077216 -109.3125 90.75 C-105.75375581 86.65830378 -102.10686428 82.54984131 -98 79 C-97.34 79 -96.68 79 -96 79 C-95.60554687 78.10087891 -95.60554687 78.10087891 -95.203125 77.18359375 C-93.92828007 74.86983299 -92.78090523 73.72695929 -90.75 72.0625 C-86.77171654 68.70514644 -82.9774881 65.1905101 -79.1875 61.625 C-74.19879497 56.95823238 -69.10406073 52.5105911 -63.76953125 48.23828125 C-61.23242362 46.18784025 -58.74657328 44.09200477 -56.26953125 41.97021484 C-49.36677561 36.06147241 -42.25452954 30.46941196 -35 25 C-33.8555542 24.1325415 -33.8555542 24.1325415 -32.68798828 23.24755859 C-5.91671407 2.95835703 -5.91671407 2.95835703 0 0 Z " fill="#7C7C7C" transform="translate(719,1352)"/>
<path d="M0 0 C4.44703348 2.08997219 8.41648731 4.54911981 12.375 7.4375 C12.96571289 7.86345459 13.55642578 8.28940918 14.16503906 8.72827148 C19.77964323 12.79586057 25.32189312 16.96166058 30.84521484 21.15209961 C34.2771165 23.80215104 34.2771165 23.80215104 38 26 C38 26.66 38 27.32 38 28 C38.79277344 28.34417969 38.79277344 28.34417969 39.6015625 28.6953125 C42.78788356 30.42858813 45.54616757 32.6240419 48.375 34.875 C48.98569336 35.3582373 49.59638672 35.84147461 50.22558594 36.33935547 C59.68718521 43.88005145 68.78642425 51.84160322 77.75 59.96484375 C79.94515044 61.95038781 82.15353035 63.91896331 84.375 65.875 C85.28378906 66.67550781 85.28378906 66.67550781 86.2109375 67.4921875 C88.02855765 69.06789556 88.02855765 69.06789556 90.2265625 70.5703125 C90.81179688 71.04210938 91.39703125 71.51390625 92 72 C92 72.66 92 73.32 92 74 C92.58031982 74.25507324 93.16063965 74.51014648 93.75854492 74.77294922 C96.23265718 76.12736466 97.87721002 77.63412266 99.86328125 79.6328125 C100.58580078 80.35726563 101.30832031 81.08171875 102.05273438 81.828125 C103.17131836 82.96507812 103.17131836 82.96507812 104.3125 84.125 C105.04662109 84.85976562 105.78074219 85.59453125 106.53710938 86.3515625 C110.66976996 90.5172257 114.63026573 94.78192955 118.46069336 99.2265625 C120.45366216 101.52266485 122.54071108 103.72432396 124.625 105.9375 C135.40793993 117.78724525 146.06787151 131.18094018 153.28173828 145.55371094 C155.40332595 148.57421512 156.79279491 149.05524 160.296875 150.09375 C161.9046582 150.57521484 161.9046582 150.57521484 163.54492188 151.06640625 C169.422779 152.65465707 175.32082907 154.11618742 181.25 155.5 C183.82561677 156.11157529 186.40113851 156.72355091 188.9765625 157.3359375 C190.19633789 157.62436523 191.41611328 157.91279297 192.67285156 158.20996094 C202.94399449 160.64886749 213.15981156 163.29362725 223.36254883 166.00219727 C229.99636799 167.7554447 236.6519924 169.41396216 243.3125 171.0625 C250.82691452 172.92462465 258.28186053 174.88829487 265.7109375 177.06640625 C271.37068665 178.67291462 277.08428603 180.05778628 282.79833984 181.45703125 C285.36245785 182.08938859 287.92322986 182.73461479 290.484375 183.37890625 C295.23586943 184.56845528 299.99447436 185.72614728 304.7578125 186.8671875 C330.80361731 193.1117911 330.80361731 193.1117911 342.07397461 196.3449707 C348.15332286 198.07970995 354.28254927 199.52057445 360.44921875 200.91015625 C364.97460586 201.96078768 369.45250204 203.18103471 373.9382782 204.38792419 C380.70184143 206.20101675 387.49387739 207.89281234 394.29046631 209.57705688 C407.65382182 212.89104059 421.00476505 216.25353657 434.34350586 219.66522217 C436.00592305 220.09028568 437.66851546 220.51466465 439.33129883 220.93829346 C449.26929279 223.47137365 459.15686792 226.11646813 469 229 C469.72525879 229.20971436 470.45051758 229.41942871 471.19775391 229.63549805 C515.46531296 242.54637613 558.16450331 263.84486304 594.25634766 292.61035156 C595.80179139 293.84203257 597.35904921 295.05885762 598.91796875 296.2734375 C603.92239504 300.19939053 608.69096911 304.33481429 613.3828125 308.62890625 C616.88107605 311.7982286 620.44751498 314.89157561 624 318 C666.35891615 360.35891615 640 437.09544629 640 497 C412.3 497 184.6 497 -50 497 C-47.71933548 485.5966774 -45.45561019 474.29104628 -42.75 463 C-42.14039628 460.41831572 -41.53192017 457.83640274 -40.92578125 455.25390625 C-40.76980972 454.58976212 -40.6138382 453.92561798 -40.45314026 453.24134827 C-32.71375106 420.18769144 -25.84169078 386.96318259 -19.6640625 353.58447266 C-18.74378807 348.61702073 -17.8147206 343.65130884 -16.875 338.6875 C-16.63885986 337.4356189 -16.63885986 337.4356189 -16.39794922 336.15844727 C-15.6533661 332.2542385 -14.87236094 328.36388865 -14.0078125 324.484375 C-11.61147396 313.7049171 -9.92781736 302.92014954 -8.4296875 291.97875977 C-7.48357132 285.14316349 -6.34042642 278.49705517 -4.78125 271.77734375 C-2.74628454 261.93828573 -1.45541492 251.93838668 0 242 C0.10957031 241.26929291 0.21914062 240.53858582 0.33203125 239.78573608 C18.83254375 121.44789707 18.83254375 121.44789707 0.55078125 4.83325195 C0 3 0 3 0 0 Z " fill="#7C7C7C" transform="translate(1225,1351)"/>
<path d="M0 0 C4.44703348 2.08997219 8.41648731 4.54911981 12.375 7.4375 C12.96571289 7.86345459 13.55642578 8.28940918 14.16503906 8.72827148 C19.77964323 12.79586057 25.32189312 16.96166058 30.84521484 21.15209961 C34.2771165 23.80215104 34.2771165 23.80215104 38 26 C38 26.66 38 27.32 38 28 C38.79277344 28.34417969 38.79277344 28.34417969 39.6015625 28.6953125 C42.78788356 30.42858813 45.54616757 32.6240419 48.375 34.875 C48.98569336 35.3582373 49.59638672 35.84147461 50.22558594 36.33935547 C59.68718521 43.88005145 68.78642425 51.84160322 77.75 59.96484375 C79.94515044 61.95038781 82.15353035 63.91896331 84.375 65.875 C85.28378906 66.67550781 85.28378906 66.67550781 86.2109375 67.4921875 C88.02855765 69.06789556 88.02855765 69.06789556 90.2265625 70.5703125 C90.81179688 71.04210938 91.39703125 71.51390625 92 72 C92 72.66 92 73.32 92 74 C92.58031982 74.25507324 93.16063965 74.51014648 93.75854492 74.77294922 C96.23265718 76.12736466 97.87721002 77.63412266 99.86328125 79.6328125 C100.58580078 80.35726563 101.30832031 81.08171875 102.05273438 81.828125 C103.17131836 82.96507812 103.17131836 82.96507812 104.3125 84.125 C105.04662109 84.85976562 105.78074219 85.59453125 106.53710938 86.3515625 C110.66976996 90.5172257 114.63026573 94.78192955 118.46069336 99.2265625 C120.45366216 101.52266485 122.54071108 103.72432396 124.625 105.9375 C135.6534773 118.05707475 145.52083108 131.47424223 153.5546875 145.765625 C154.9573545 148.25854904 154.9573545 148.25854904 158 150 C158.97631836 151.65039062 158.97631836 151.65039062 159.83984375 153.65625 C160.17419434 154.41768311 160.50854492 155.17911621 160.85302734 155.96362305 C161.38984131 157.21912964 161.38984131 157.21912964 161.9375 158.5 C162.73938538 160.33008509 163.54285003 162.15947877 164.34765625 163.98828125 C164.98985107 165.45322021 164.98985107 165.45322021 165.64501953 166.94775391 C167.9878885 172.2253301 170.43909489 177.45240291 172.875 182.6875 C178.75047669 195.38721893 184.48864053 208.13777768 190 221 C190.27197205 221.63419861 190.54394409 222.26839722 190.82415771 222.92181396 C218.86639765 288.41495363 218.86639765 288.41495363 218 305 C217.01 305.33 216.02 305.66 215 306 C214.67 306.99 214.34 307.98 214 309 C212.20703125 310.65625 212.20703125 310.65625 209.8125 312.5 C208.91144531 313.19996094 208.01039063 313.89992188 207.08203125 314.62109375 C206.06496094 315.40613281 205.04789063 316.19117188 204 317 C202.85663065 317.90573439 201.71475517 318.81335712 200.57421875 319.72265625 C193.87118473 325.05796883 187.10615339 330.20723669 180 335 C178.84764338 335.78904371 177.69530063 336.57810767 176.54296875 337.3671875 C168.24763857 343.01082951 159.80419852 348.17937089 151 353 C150.03006104 353.53923096 150.03006104 353.53923096 149.04052734 354.08935547 C118.8716195 370.82565693 85.19078709 383.2475908 50.375 383.125 C49.26898437 383.12886719 48.16296875 383.13273437 47.0234375 383.13671875 C45.4146875 383.13478516 45.4146875 383.13478516 43.7734375 383.1328125 C42.32590088 383.13112061 42.32590088 383.13112061 40.84912109 383.12939453 C37.83335902 382.9924319 34.96548801 382.55249703 32 382 C32 382.66 32 383.32 32 384 C32.8815979 384.39723267 32.8815979 384.39723267 33.78100586 384.80249023 C36.0736135 386.03972651 37.63663896 387.35313177 39.50390625 389.16015625 C40.48230469 390.09601563 40.48230469 390.09601563 41.48046875 391.05078125 C42.16753906 391.71464844 42.85460938 392.37851563 43.5625 393.0625 C48.08861229 397.37695955 52.59626279 401.61134385 57.5 405.5 C63.00300919 409.87909657 68.07725717 414.6650549 73.16796875 419.50976562 C77.08560261 423.23388733 81.07137054 426.85109899 85.15454102 430.39306641 C88.45330166 433.26546256 91.66885625 436.23006995 94.8984375 439.1796875 C96.86723421 441.03676667 96.86723421 441.03676667 99 442 C99 442.66 99 443.32 99 444 C99.59474121 444.27255615 100.18948242 444.5451123 100.80224609 444.82592773 C102.94009989 445.96800049 104.41611757 447.12292732 106.1640625 448.78515625 C106.72867187 449.31560547 107.29328125 449.84605469 107.875 450.39257812 C108.4525 450.94365234 109.03 451.49472656 109.625 452.0625 C113.49326309 455.96570729 113.49326309 455.96570729 118 459 C118 459.66 118 460.32 118 461 C118.54398438 461.22558594 119.08796875 461.45117188 119.6484375 461.68359375 C122.73640119 463.41223787 125.04454974 465.64550144 127.625 468.0625 C131.04209753 471.41533647 131.04209753 471.41533647 135 474 C135 474.66 135 475.32 135 476 C135.8818396 476.39964966 135.8818396 476.39964966 136.78149414 476.80737305 C139.04693219 478.02522986 140.63202601 479.31971108 142.49609375 481.08203125 C143.13740234 481.68466797 143.77871094 482.28730469 144.43945312 482.90820312 C145.42848633 483.85083008 145.42848633 483.85083008 146.4375 484.8125 C147.09298828 485.42931641 147.74847656 486.04613281 148.42382812 486.68164062 C152.01086207 490.06719623 155.51014339 493.51014339 159 497 C90.03 497 21.06 497 -50 497 C-47.71933548 485.5966774 -45.45561019 474.29104628 -42.75 463 C-42.14039628 460.41831572 -41.53192017 457.83640274 -40.92578125 455.25390625 C-40.76980972 454.58976212 -40.6138382 453.92561798 -40.45314026 453.24134827 C-32.71375106 420.18769144 -25.84169078 386.96318259 -19.6640625 353.58447266 C-18.74378807 348.61702073 -17.8147206 343.65130884 -16.875 338.6875 C-16.63885986 337.4356189 -16.63885986 337.4356189 -16.39794922 336.15844727 C-15.6533661 332.2542385 -14.87236094 328.36388865 -14.0078125 324.484375 C-11.61147396 313.7049171 -9.92781736 302.92014954 -8.4296875 291.97875977 C-7.48357132 285.14316349 -6.34042642 278.49705517 -4.78125 271.77734375 C-2.74628454 261.93828573 -1.45541492 251.93838668 0 242 C0.10957031 241.26929291 0.21914062 240.53858582 0.33203125 239.78573608 C18.83254375 121.44789707 18.83254375 121.44789707 0.55078125 4.83325195 C0 3 0 3 0 0 Z " fill="#A4A7A8" transform="translate(1225,1351)"/>
<path d="M0 0 C0.99 0.495 0.99 0.495 2 1 C1.74750488 1.63671631 1.49500977 2.27343262 1.23486328 2.92944336 C-1.60118509 10.35791858 -3.50359713 17.78617704 -5.125 25.5625 C-5.51401489 27.40859863 -5.51401489 27.40859863 -5.91088867 29.29199219 C-7.86937687 38.83626214 -9.32376351 48.27922008 -10 58 C-10.08467529 59.11979248 -10.16935059 60.23958496 -10.2565918 61.39331055 C-11.00334175 72.03831405 -11.20108673 82.64327186 -11.1875 93.3125 C-11.18659363 94.6450029 -11.18659363 94.6450029 -11.18566895 96.00442505 C-11.1298107 126.62802933 -8.57984498 156.94799217 -5.46728516 187.39599609 C-5.07907684 191.19601974 -4.71344668 194.99777842 -4.35546875 198.80078125 C-2.80886391 214.54607779 -0.41353691 230.1712673 1.9375 245.8125 C2.19146545 247.5070079 2.19146545 247.5070079 2.45056152 249.23574829 C4.44410673 262.48372514 6.61321118 275.68082675 9.0559082 288.85327148 C10.51823217 296.75923554 11.81811084 304.69216555 13.125 312.625 C13.37874679 314.15757849 13.63265325 315.69013056 13.88671875 317.22265625 C14.01085144 317.97214539 14.13498413 318.72163452 14.26287842 319.49383545 C14.50646133 320.96397346 14.75031024 322.43406743 14.9944458 323.90411377 C15.52495131 327.10350845 16.0479061 330.30340528 16.55371094 333.50683594 C16.7190332 334.54356445 16.88435547 335.58029297 17.0546875 336.6484375 C17.25940674 337.96207275 17.25940674 337.96207275 17.46826172 339.30224609 C17.9799063 342.11043163 17.9799063 342.11043163 18.9440918 345.23022461 C20.18936215 349.67605571 21.02646093 354.12684293 21.83984375 358.66796875 C22.00746719 359.58403397 22.17509064 360.50009918 22.34779358 361.44392395 C23.05903389 365.33087919 23.76240287 369.21924445 24.46557617 373.10766602 C26.9798855 387.05842517 26.9798855 387.05842517 30.22827148 400.85131836 C31.24730349 405.00900763 32.0618628 409.19779624 32.8828125 413.3984375 C34.99974682 424.19116726 37.41417294 434.90625706 39.875 445.625 C40.31582614 447.55512242 40.75641624 449.48529877 41.19677734 451.41552734 C43.11167125 459.80116801 45.03857995 468.18397525 46.984375 476.5625 C47.40807373 478.3885376 47.40807373 478.3885376 47.84033203 480.25146484 C48.34933908 482.43984675 48.86059696 484.62770681 49.37451172 486.81494141 C49.59381348 487.75515137 49.81311523 488.69536133 50.0390625 489.6640625 C50.22678223 490.46279785 50.41450195 491.2615332 50.60791016 492.08447266 C51 494 51 494 51 496 C-17.64 496 -86.28 496 -157 496 C-155.68 494.35 -154.36 492.7 -153 491 C-152.34 491 -151.68 491 -151 491 C-151 490.34 -151 489.68 -151 489 C-149.30096977 487.48259024 -147.53927277 486.034872 -145.75 484.625 C-142.94686688 482.40770687 -140.26298803 480.2694248 -137.765625 477.7109375 C-136 476 -136 476 -134 476 C-134 475.34 -134 474.68 -134 474 C-132.6015625 472.58984375 -132.6015625 472.58984375 -130.625 470.9375 C-127.49359559 468.27690114 -124.41328793 465.57915292 -121.375 462.8125 C-117.41639568 459.23464694 -113.38180756 455.76241754 -109.3125 452.3125 C-103.58231288 447.44551916 -98.07684393 442.37712872 -92.61108398 437.21655273 C-87.91368409 432.80152019 -83.08281901 428.58006032 -78.15527344 424.42480469 C-73.31544334 420.32573671 -68.66571692 416.04255375 -64.08544922 411.65576172 C-60.21341387 408 -60.21341387 408 -58 408 C-58 407.34 -58 406.68 -58 406 C-56.52931586 404.69136629 -54.99398682 403.4553144 -53.4375 402.25 C-45.90864692 396.24460936 -38.98263524 389.62455138 -32 383 C-32.73935791 383.01047363 -33.47871582 383.02094727 -34.24047852 383.03173828 C-58.17032071 383.32585847 -80.31926424 381.29557855 -103.125 373.6875 C-103.75608673 373.47779572 -104.38717346 373.26809143 -105.03738403 373.05203247 C-125.4051782 366.21834577 -144.96267304 356.66287895 -163 345 C-163.90234375 344.44570312 -164.8046875 343.89140625 -165.734375 343.3203125 C-178.01734364 335.72522242 -189.93013929 327.27427701 -201 318 C-201.8051001 317.32807617 -201.8051001 317.32807617 -202.62646484 316.64257812 C-206.441181 313.45535896 -210.24623261 310.25888081 -214 307 C-214.64066406 306.56300781 -215.28132813 306.12601563 -215.94140625 305.67578125 C-218.1220565 302.22375557 -216.36793784 297.63736085 -215.52050781 293.86621094 C-208.30701445 264.8697807 -196.02506555 237.25142067 -184 210 C-183.32275879 208.46448486 -183.32275879 208.46448486 -182.63183594 206.89794922 C-180.12882388 201.24634727 -177.57580601 195.61873284 -175 190 C-174.07415863 187.97398581 -173.14838119 185.94794239 -172.22265625 183.921875 C-164.46769638 166.97001944 -164.46769638 166.97001944 -161.96875 161.6953125 C-161.4221875 160.53773438 -160.875625 159.38015625 -160.3125 158.1875 C-159.62607422 156.75470703 -159.62607422 156.75470703 -158.92578125 155.29296875 C-157.81280765 152.94849783 -157.81280765 152.94849783 -158 150 C-157.43667969 149.82210938 -156.87335937 149.64421875 -156.29296875 149.4609375 C-152.88437739 147.28919445 -151.30559267 144.03718407 -149.3125 140.625 C-139.79304667 124.89865925 -127.95393182 111.15826318 -115.49609375 97.71484375 C-113.39140514 95.42570668 -111.3393133 93.1077216 -109.3125 90.75 C-105.75375581 86.65830378 -102.10686428 82.54984131 -98 79 C-97.34 79 -96.68 79 -96 79 C-95.73703125 78.40058594 -95.4740625 77.80117187 -95.203125 77.18359375 C-93.92828007 74.86983299 -92.78090523 73.72695929 -90.75 72.0625 C-86.77171654 68.70514644 -82.9774881 65.1905101 -79.1875 61.625 C-74.19879497 56.95823238 -69.10406073 52.5105911 -63.76953125 48.23828125 C-61.23242362 46.18784025 -58.74657328 44.09200477 -56.26953125 41.97021484 C-49.36677561 36.06147241 -42.25452954 30.46941196 -35 25 C-34.23703613 24.42169434 -33.47407227 23.84338867 -32.68798828 23.24755859 C-5.91671407 2.95835703 -5.91671407 2.95835703 0 0 Z " fill="#A4A7A8" transform="translate(719,1352)"/>
<path d="M0 0 C1.27932987 2.17331942 2.37124224 4.2858956 3.4375 6.5625 C4.14384809 8.02246613 4.85092683 9.48207891 5.55859375 10.94140625 C5.94515137 11.74594238 6.33170898 12.55047852 6.72998047 13.37939453 C9.10375041 18.2775196 11.55896114 23.13515584 14 28 C15.03027118 30.05973417 16.06022365 32.11962779 17.08984375 34.1796875 C17.58339355 35.16678711 18.07694336 36.15388672 18.58544922 37.17089844 C23.29272461 46.58544922 23.29272461 46.58544922 28 56 C28.58652344 57.02867188 29.17304687 58.05734375 29.77734375 59.1171875 C31.22399389 62.52813894 31.12993007 63.52368362 30 67 C29.79922852 67.63212402 29.59845703 68.26424805 29.39160156 68.91552734 C28.66062222 71.18176834 27.89612235 73.43461772 27.125 75.6875 C25.45138165 80.62373389 23.79894009 85.54706659 22.375 90.5625 C21.2498911 94.41155677 19.77199869 97.97798531 18.07885742 101.61010742 C17.05317264 103.88221158 16.12908226 106.16882553 15.2265625 108.4921875 C0.00079893 146.76967963 0.00079893 146.76967963 -9.75390625 158.0234375 C-11.56548897 160.89698251 -11.17412516 162.8905944 -10.875 166.25 C-10.81932861 166.89275879 -10.76365723 167.53551758 -10.70629883 168.19775391 C-10.49658777 170.46852738 -10.25228082 172.7335637 -10 175 C-9.90412598 175.87301758 -9.80825195 176.74603516 -9.70947266 177.64550781 C-8.34593203 189.76727824 -6.59909712 201.80799132 -4.61523438 213.84228516 C-3.15503418 222.79211814 -1.90718378 231.76517568 -0.6875 240.75 C1.48884265 256.77476826 3.9409367 272.75002319 6.5012207 288.71777344 C8.6294594 302.1336818 10.31248199 315.49985595 12 329 C-48.72 329 -109.44 329 -172 329 C-170.87124464 315.45493562 -170.87124464 315.45493562 -170.203125 309.359375 C-170.12951752 308.68730011 -170.05591003 308.01522522 -169.98007202 307.32278442 C-169.7389615 305.13160075 -169.49483028 302.94077101 -169.25 300.75 C-169.16385437 299.97545471 -169.07770874 299.20090942 -168.98895264 298.40289307 C-167.44633648 284.56769673 -165.74798379 270.75456776 -164.00146484 256.94384766 C-161.57819627 237.76588524 -159.28008233 218.57310034 -156.99902344 199.37776184 C-156.40423213 194.37563673 -155.80422417 189.37426039 -155.19076538 184.37438965 C-154.83117277 181.43761664 -154.4787695 178.49997929 -154.125 175.5625 C-154.00495605 174.60682129 -153.88491211 173.65114258 -153.76123047 172.66650391 C-152.04141396 161.35140244 -152.04141396 161.35140244 -154.80078125 150.6796875 C-155.62964844 149.75414062 -156.45851563 148.82859375 -157.3125 147.875 C-158.23403971 146.7916811 -159.14911701 145.70284075 -160.05859375 144.609375 C-160.53925293 144.03638672 -161.01991211 143.46339844 -161.51513672 142.87304688 C-164.22077186 139.46008522 -166.53498314 135.7939104 -168.875 132.125 C-169.55236206 131.0728833 -169.55236206 131.0728833 -170.2434082 129.99951172 C-172.96474726 125.73636765 -175.52445026 121.41022306 -178 117 C-178.49242187 116.13117188 -178.98484375 115.26234375 -179.4921875 114.3671875 C-185.03337505 104.38052745 -190.42322068 93.87707761 -194 83 C-194.30421875 82.12601563 -194.6084375 81.25203125 -194.921875 80.3515625 C-195.04495387 75.07147885 -192.46854757 71.34174302 -189.9375 66.8125 C-188.82068671 64.74659508 -187.7048407 62.68016703 -186.58984375 60.61328125 C-186.00058105 59.53256348 -185.41131836 58.4518457 -184.80419922 57.33837891 C-181.79239033 51.76551357 -178.90327464 46.1299196 -176 40.5 C-174.82575667 38.24206484 -173.65127804 35.98425203 -172.4765625 33.7265625 C-170.14658447 29.23741066 -167.85360609 24.73186432 -165.5859375 20.2109375 C-165.04453125 19.14294922 -164.503125 18.07496094 -163.9453125 16.97460938 C-162.92108403 14.95290467 -161.90752357 12.92574932 -160.90625 10.89257812 C-160.44992187 9.99732422 -159.99359375 9.10207031 -159.5234375 8.1796875 C-159.13075684 7.39319824 -158.73807617 6.60670898 -158.33349609 5.79638672 C-157 4 -157 4 -155.15527344 3.1809082 C-152.56139562 2.96318466 -150.52919603 3.33675732 -147.9921875 3.92578125 C-146.50912109 4.25545898 -146.50912109 4.25545898 -144.99609375 4.59179688 C-142.96985255 5.05968361 -140.94379946 5.52838599 -138.91796875 5.99804688 C-122.54664237 9.63495485 -106.28354196 10.37859394 -89.5625 10.3125 C-88.60088959 10.31067719 -87.63927917 10.30885437 -86.64852905 10.30697632 C-58.99065574 10.21903714 -32.23023732 6.80361973 -5.51147461 -0.52929688 C-3 -1 -3 -1 0 0 Z " fill="#7C7C7C" transform="translate(1049,1519)"/>
<path d="M0 0 C7.07142857 5.89285714 7.07142857 5.89285714 9 9 C9 9.66 9 10.32 9 11 C6.69 11.66 4.38 12.32 2 13 C1.67 30.16 1.34 47.32 1 65 C0.67 65 0.34 65 0 65 C0 43.55 0 22.1 0 0 Z " fill="#CDCDCB" transform="translate(736,1156)"/>
<path d="M0 0 C0.66 0.33 1.32 0.66 2 1 C-0.83660739 5.69131223 -3.68463207 8.62275553 -8 12 C-8.66 12.66 -9.32 13.32 -10 14 C-10.66 14 -11.32 14 -12 14 C-12 13.34 -12 12.68 -12 12 C-10.390625 10.44921875 -10.390625 10.44921875 -8.25 8.6875 C-5.09829823 6.01637687 -2.44230671 3.35817172 0 0 Z M-14 14 C-13.01 14.33 -12.02 14.66 -11 15 C-11.763125 15.556875 -12.52625 16.11375 -13.3125 16.6875 C-15.98421552 18.986418 -17.25630271 20.98815922 -19 24 C-19.99 24.66 -20.98 25.32 -22 26 C-22.66 25.34 -23.32 24.68 -24 24 C-22.71451591 22.66070495 -21.42141845 21.32871357 -20.125 20 C-19.04605469 18.88625 -19.04605469 18.88625 -17.9453125 17.75 C-16 16 -16 16 -14 16 C-14 15.34 -14 14.68 -14 14 Z M-26 25 C-25.34 25.33 -24.68 25.66 -24 26 C-24.99 26.66 -25.98 27.32 -27 28 C-26.67 27.01 -26.34 26.02 -26 25 Z " fill="#C8C7C5" transform="translate(1189,1167)"/>
<path d="M0 0 C0.33 0 0.66 0 1 0 C0.85970858 4.14604002 0.71175506 8.29177376 0.5625 12.4375 C0.52318359 13.60216797 0.48386719 14.76683594 0.44335938 15.96679688 C0.20922499 22.36046672 -0.19215648 28.65265809 -1 35 C-6.95759907 26.06360139 -1.89600632 9.95403317 0 0 Z " fill="#818383" transform="translate(708,1400)"/>
<path d="M0 0 C3.26078391 5.65202545 3.18159009 11.75411933 3.1875 18.125 C3.19974609 18.82753906 3.21199219 19.53007813 3.22460938 20.25390625 C3.23524207 24.00370405 3.08489719 26.81908966 1 30 C0.27095441 19.97562315 -0.14141393 10.05610192 0 0 Z " fill="#7F8180" transform="translate(1237,1406)"/>
<path d="M0 0 C6.78082192 5.42465753 6.78082192 5.42465753 9 9 C9 9.66 9 10.32 9 11 C6.36 11.66 3.72 12.32 1 13 C0.67 8.71 0.34 4.42 0 0 Z " fill="#C0BFBD" transform="translate(736,1156)"/>
<path d="M0 0 C2.99529289 0.99843096 4.15840327 1.51384442 6 4 C5.6875 6.1875 5.6875 6.1875 5 8 C5.66 8.33 6.32 8.66 7 9 C7.40729228 11.32156597 7.74438677 13.6568787 8 16 C8.66 16 9.32 16 10 16 C10 16.66 10 17.32 10 18 C7 17 7 17 5.17578125 13.9453125 C4.54428471 12.67700156 3.92357235 11.40327661 3.3125 10.125 C2.99216797 9.48691406 2.67183594 8.84882812 2.34179688 8.19140625 C0.91709056 5.28123856 0 3.28002036 0 0 Z " fill="#F2F2F1" transform="translate(1054,1528)"/>
<path d="M0 0 C1.31538327 4.15771494 0.34433068 6.8879297 -1 11 C-1.66 11 -2.32 11 -3 11 C-3.33 13.97 -3.66 16.94 -4 20 C-5.32 20 -6.64 20 -8 20 C-6.54884678 15.42111848 -4.79418096 11.02350565 -2.875 6.625 C-2.59785156 5.98433594 -2.32070312 5.34367187 -2.03515625 4.68359375 C-1.35899615 3.12143075 -0.67981293 1.56057685 0 0 Z " fill="#C6C5C3" transform="translate(1063,1628)"/>
<path d="M0 0 C1.98 0 3.96 0 6 0 C6.33 0.66 6.66 1.32 7 2 C6.0625 4.625 6.0625 4.625 5 7 C5.66 7.33 6.32 7.66 7 8 C6.67 8.99 6.34 9.98 6 11 C3.02753198 8.45217026 1.58464712 5.54659117 0 2 C0 1.34 0 0.68 0 0 Z " fill="#F3F2F1" transform="translate(1070,1561)"/>
<path d="M0 0 C3.11728368 1.36508501 5.08663738 2.86919698 7.3125 5.4375 C7.84488281 6.03433594 8.37726562 6.63117188 8.92578125 7.24609375 C9.45751953 8.11427734 9.45751953 8.11427734 10 9 C9.67 9.99 9.34 10.98 9 12 C7.68 12 6.36 12 5 12 C5 10 5 10 7 8 C6.34 8 5.68 8 5 8 C4.34 7.01 3.68 6.02 3 5 C2.01 4.34 1.02 3.68 0 3 C0 2.01 0 1.02 0 0 Z " fill="#C7C6C4" transform="translate(756,1179)"/>
<path d="M0 0 C1 3 1 3 -0.21484375 5.69921875 C-0.78332031 6.68535156 -1.35179687 7.67148438 -1.9375 8.6875 C-2.50339844 9.68136719 -3.06929687 10.67523437 -3.65234375 11.69921875 C-4.31943359 12.83810547 -4.31943359 12.83810547 -5 14 C-5.58203125 12.12109375 -5.58203125 12.12109375 -6 10 C-4.6875 8.0625 -4.6875 8.0625 -3 6 C-2.30686092 4.34416775 -1.63525576 2.67889021 -1 1 C-0.67 0.67 -0.34 0.34 0 0 Z " fill="#F0EFEE" transform="translate(867,1568)"/>
<path d="M0 0 C0.08159574 4.16138263 -0.01751476 7.9472484 -1 12 C-3 10 -3 10 -3.1953125 7.8359375 C-3.17210937 7.02382813 -3.14890625 6.21171875 -3.125 5.375 C-3.10695313 4.55773437 -3.08890625 3.74046875 -3.0703125 2.8984375 C-3.04710937 2.27195312 -3.02390625 1.64546875 -3 1 C-1 0 -1 0 0 0 Z " fill="#848381" transform="translate(1304,851)"/>
<path d="M0 0 C0 3 0 3 -2 6 C-1.01 6.33 -0.02 6.66 1 7 C0.67 7.66 0.34 8.32 0 9 C-0.99 8.67 -1.98 8.34 -3 8 C-4.1875 4.9375 -4.1875 4.9375 -5 2 C-3.35 1.34 -1.7 0.68 0 0 Z " fill="#F3F3F1" transform="translate(1068,1545)"/>
<path d="M0 0 C2.17854707 3.2678206 3.49760034 6.38058265 5 10 C3.68 10.33 2.36 10.66 1 11 C0.67 7.37 0.34 3.74 0 0 Z " fill="#C6C6C5" transform="translate(723,1613)"/>
<path d="M0 0 C0.33 1.32 0.66 2.64 1 4 C0.34 4 -0.32 4 -1 4 C-0.731875 4.556875 -0.46375 5.11375 -0.1875 5.6875 C-0.125625 6.450625 -0.06375 7.21375 0 8 C-2.4375 10.75 -2.4375 10.75 -5 13 C-4.54803755 11.39402675 -4.08817673 9.79027492 -3.625 8.1875 C-3.36976562 7.29417969 -3.11453125 6.40085937 -2.8515625 5.48046875 C-2 3 -2 3 0 0 Z " fill="#BBBBBA" transform="translate(1076,1595)"/>
<path d="M0 0 C0.66 0.66 1.32 1.32 2 2 C-0.97 4.31 -3.94 6.62 -7 9 C-7.66 8.67 -8.32 8.34 -9 8 C-7.68 7.34 -6.36 6.68 -5 6 C-5 5.34 -5 4.68 -5 4 C-3.37373596 2.61767557 -1.7074998 1.28062485 0 0 Z " fill="#EFF0EF" transform="translate(714,1352)"/>
<path d="M0 0 C2.15377564 2.62198774 3.40072174 4.64404172 4 8 C2.68 8 1.36 8 0 8 C-0.38063221 5.6739143 -0.71269945 3.33944736 -1 1 C-0.67 0.67 -0.34 0.34 0 0 Z " fill="#F2F2F0" transform="translate(1220,1344)"/>
<path d="M0 0 C0.99 0.99 1.98 1.98 3 3 C2.01 3.33 1.02 3.66 0 4 C0.33 5.32 0.66 6.64 1 8 C-0.98 8.99 -0.98 8.99 -3 10 C-2.01 6.7 -1.02 3.4 0 0 Z " fill="#C3C3C1" transform="translate(1068,1615)"/>
<path d="M0 0 C2.15229884 3.22844826 2.60309873 5.18974777 3 9 C2.67 9.99 2.34 10.98 2 12 C-0.60018816 8.09971775 -0.15085514 4.52565431 0 0 Z " fill="#F1F1F0" transform="translate(722,1603)"/>
<path d="M0 0 C2.31 1.98 4.62 3.96 7 6 C6.67 6.66 6.34 7.32 6 8 C4.02 7.01 2.04 6.02 0 5 C0 3.35 0 1.7 0 0 Z " fill="#C1C0BE" transform="translate(747,1169)"/>
<path d="M0 0 C0.33 0 0.66 0 1 0 C1.3125 3.3125 1.3125 3.3125 1 7 C-1.5 8.9375 -1.5 8.9375 -4 10 C-2.8905928 6.51329166 -1.73662334 3.22515763 0 0 Z " fill="#E9E8E6" transform="translate(700,495)"/>
<path d="M0 0 C0.66 0.33 1.32 0.66 2 1 C2.625 3.5625 2.625 3.5625 3 6 C2.38125 6.12375 1.7625 6.2475 1.125 6.375 C-1.19120832 6.87197356 -1.19120832 6.87197356 -3 9 C-2.44271087 5.65626525 -1.64826111 2.96687001 0 0 Z " fill="#C0C0BE" transform="translate(853,1598)"/>
<path d="M0 0 C0.66 0.66 1.32 1.32 2 2 C1.63318342 4.93453261 1.13562754 5.86437246 -1 8 C-1 7.34 -1 6.68 -1 6 C-1.66 5.67 -2.32 5.34 -3 5 C-2.34 5 -1.68 5 -1 5 C-1.33 3.68 -1.66 2.36 -2 1 C-1.34 0.67 -0.68 0.34 0 0 Z " fill="#F1F0EF" transform="translate(885,1530)"/>
<path d="M0 0 C0.66 0.33 1.32 0.66 2 1 C-0.475 5.455 -0.475 5.455 -3 10 C-3.33 9.34 -3.66 8.68 -4 8 C-1.48571429 1.48571429 -1.48571429 1.48571429 0 0 Z " fill="#EFEFED" transform="translate(722,1351)"/>
<path d="M0 0 C0.33 0 0.66 0 1 0 C1.05389087 1.95803507 1.09274217 3.91648909 1.125 5.875 C1.14820313 6.96554687 1.17140625 8.05609375 1.1953125 9.1796875 C1 12 1 12 -1 14 C-1 13.34 -1 12.68 -1 12 C-1.66 11.67 -2.32 11.34 -3 11 C-2.34 10.34 -1.68 9.68 -1 9 C-0.53993654 6.79749008 -0.53993654 6.79749008 -0.375 4.375 C-0.30023437 3.55773437 -0.22546875 2.74046875 -0.1484375 1.8984375 C-0.09945312 1.27195312 -0.05046875 0.64546875 0 0 Z " fill="#939391" transform="translate(652,898)"/>
<path d="M0 0 C0.99 0.66 1.98 1.32 3 2 C2.34 2 1.68 2 1 2 C1 2.66 1 3.32 1 4 C-0.62626404 5.38232443 -2.2925002 6.71937515 -4 8 C-4.33 7.34 -4.66 6.68 -5 6 C-3.35 4.02 -1.7 2.04 0 0 Z " fill="#E8E7E5" transform="translate(1354,712)"/>
<path d="M0 0 C0.66 0.66 1.32 1.32 2 2 C0.35 3.65 -1.3 5.3 -3 7 C-3.66 6.34 -4.32 5.68 -5 5 C-3.35 3.35 -1.7 1.7 0 0 Z " fill="#D4D4D4" transform="translate(1508,671)"/>
<path d="M0 0 C0.66 0 1.32 0 2 0 C1.3001048 3.14952839 0.34839851 6.0652503 -1 9 C-1.99 9.495 -1.99 9.495 -3 10 C-2.01 6.7 -1.02 3.4 0 0 Z " fill="#B8B8B6" transform="translate(1079,1584)"/>
<path d="M0 0 C1.9375 0.75 1.9375 0.75 4 2 C4.75 4.125 4.75 4.125 5 6 C2.03 5.505 2.03 5.505 -1 5 C-0.67 3.35 -0.34 1.7 0 0 Z " fill="#D3D3D3" transform="translate(1225,1347)"/>
<path d="M0 0 C1.32 1.65 2.64 3.3 4 5 C3.01 6.485 3.01 6.485 2 8 C0 7 0 7 -0.6875 5.125 C-1 3 -1 3 0 0 Z " fill="#EDECEA" transform="translate(586,735)"/>
<path d="M0 0 C1.98 1.65 3.96 3.3 6 5 C5.34 5.66 4.68 6.32 4 7 C2.35 5.02 0.7 3.04 -1 1 C-0.67 0.67 -0.34 0.34 0 0 Z " fill="#ECEBEA" transform="translate(1019,496)"/>
</svg>
