<?xml version="1.0" encoding="UTF-8"?>
<svg version="1.1" xmlns="http://www.w3.org/2000/svg" width="48" height="48">
<path d="M0 0 C2.29315465 1.1507467 4.50387285 2.30856035 6.3359375 4.140625 C6.3359375 7.770625 6.3359375 11.400625 6.3359375 15.140625 C-4.2240625 15.140625 -14.7840625 15.140625 -25.6640625 15.140625 C-25.6640625 11.510625 -25.6640625 7.880625 -25.6640625 4.140625 C-19.06020986 -2.0229708 -8.43270557 -2.7202276 0 0 Z " fill="#FFFFFF" transform="translate(33.6640625,25.859375)"/>
<path d="M0 0 C2.5 1.5 2.5 1.5 4 4 C4.791013 8.02098277 4.62153384 10.96411027 2.5 14.5 C-1.03588973 16.62153384 -3.97901723 16.791013 -8 16 C-10.5 14.5 -10.5 14.5 -12 12 C-12.791013 7.97901723 -12.62153384 5.03588973 -10.5 1.5 C-6.96411027 -0.62153384 -4.02098277 -0.791013 0 0 Z " fill="#FFFFFF" transform="translate(28,7)"/>
</svg>
