<?xml version="1.0" encoding="UTF-8"?>
<svg version="1.1" xmlns="http://www.w3.org/2000/svg" width="526" height="568">
<path d="M0 0 C173.58 0 347.16 0 526 0 C526 187.44 526 374.88 526 568 C352.42 568 178.84 568 0 568 C0 380.56 0 193.12 0 0 Z " fill="#A1A1A1" transform="translate(0,0)"/>
<path d="M0 0 C173.58 0 347.16 0 526 0 C526 187.44 526 374.88 526 568 C518.74 568 511.48 568 504 568 C503.6596875 563.6996875 503.6596875 563.6996875 503.3125 559.3125 C502.6067987 551.67641739 501.39123652 544.27479886 499.625 536.8125 C499.42817627 535.96534424 499.23135254 535.11818848 499.02856445 534.24536133 C497.60595326 528.51365688 495.54524758 523.32073523 493 518 C488.56338028 508.36619718 488.56338028 508.36619718 488 504 C487.34 504 486.68 504 486 504 C485.76667969 503.50113281 485.53335937 503.00226563 485.29296875 502.48828125 C482.20298146 496.40657481 478.24683955 491.50246786 473.74682617 486.4309082 C471.56411037 483.9529567 470.05659423 482.1697827 469 479 C468.319375 478.7525 467.63875 478.505 466.9375 478.25 C463.99278418 476.99692944 462.46253031 475.75828009 460.125 473.625 C457.20641141 470.98411293 454.38381202 468.86009113 450.875 467.01953125 C449 466 449 466 446.9375 464.63671875 C435.81358104 457.36483254 422.70835967 454.01845539 409.9765625 450.64819336 C406.20369374 449.64709693 402.58445323 448.55232227 399 447 C399.99 444.03 400.98 441.06 402 438 C402.66 438 403.32 438 404 438 C405.1434356 435.79480277 406.13225922 433.64455335 407 431.3125 C408 429 408 429 410 428 C410.99259036 426.19527837 410.99259036 426.19527837 411.875 424 C412.225625 423.17628906 412.57625 422.35257812 412.9375 421.50390625 C413.288125 420.67761719 413.63875 419.85132813 414 419 C414.62401055 417.6453771 415.24900774 416.29120826 415.875 414.9375 C418.92724376 408.10047399 421.41477674 401.02318985 424 394 C424.66 394 425.32 394 426 394 C426.12375 393.030625 426.2475 392.06125 426.375 391.0625 C427.9830988 379.91905479 427.9830988 379.91905479 430.00390625 376.10546875 C431.27565526 373.41734046 431.59591677 370.94403498 432 368 C432.92905734 361.36387616 432.92905734 361.36387616 433.49902344 358.44042969 C435.09127664 350.0307216 435.31538949 341.77739001 435.25 333.25 C435.24723053 332.54411743 435.24446106 331.83823486 435.24160767 331.11096191 C435.18032173 317.80757737 434.35676029 305.24534471 430.8515625 292.33984375 C429.54590379 287.21902632 428.54083481 282.03544087 427.53369141 276.84838867 C426.48248718 271.64411075 424.97911488 266.92941345 423 262 C421.3745204 257.92116573 419.93740851 254.00064545 419.0625 249.6875 C418.38454969 246.41349608 417.45953162 243.42841274 416.25 240.3125 C414.07922295 234.55379712 412.43712055 228.68045009 410.8125 222.75 C410.55049805 221.80294189 410.28849609 220.85588379 410.01855469 219.88012695 C408.67755685 214.91957138 407.70104937 210.0963241 407 205 C406.67257812 203.8759375 406.34515625 202.751875 406.0078125 201.59375 C404.88345122 197.5843997 404.37188897 193.6193563 403.875 189.5 C402.43025522 178.570103 400.2642214 167.79681056 398.0625 157 C397.89337097 156.15928955 397.72424194 155.3185791 397.54998779 154.45239258 C395.52798834 144.43296175 393.21838665 134.71171447 390 125 C389.41346554 123.12599891 388.82961709 121.25115213 388.25 119.375 C388.00765625 118.59898438 387.7653125 117.82296875 387.515625 117.0234375 C387 115 387 115 387 112 C386.34 112 385.68 112 385 112 C384.34 109.03 383.68 106.06 383 103 C382.34 103 381.68 103 381 103 C380.35089846 101.41800369 379.70585306 99.83434276 379.0625 98.25 C378.70285156 97.36828125 378.34320313 96.4865625 377.97265625 95.578125 C377 93 377 93 376.55859375 90.734375 C376.37425781 90.16203125 376.18992187 89.5896875 376 89 C375.01 88.67 374.02 88.34 373 88 C371.7890625 86.3984375 371.7890625 86.3984375 370.625 84.375 C366.786314 77.20268199 366.786314 77.20268199 361 72 C361 71.34 361 70.68 361 70 C360.34 70 359.68 70 359 70 C359 69.34 359 68.68 359 68 C358.01 67.67 357.02 67.34 356 67 C354.90061396 65.86625815 353.80201753 64.73174178 352.70703125 63.59375 C346.55667618 57.85154207 339.55606881 53.58385964 332 50 C331.09471558 49.55926147 331.09471558 49.55926147 330.17114258 49.10961914 C321.1547501 44.80469398 312.1062051 42.08903531 302.3125 40.125 C301.30453369 39.92205322 300.29656738 39.71910645 299.25805664 39.51000977 C285.3862768 36.9159903 271.36827534 36.73891296 257.29858398 36.64990234 C255.40360171 36.63340877 253.50867993 36.60620675 251.61401367 36.56787109 C227.43448141 36.0849104 204.70984996 41.70119556 183.98828125 54.265625 C181.36267359 55.78950709 178.84652126 56.96490136 176 58 C176 58.66 176 59.32 176 60 C174.906875 60.598125 173.81375 61.19625 172.6875 61.8125 C170.05560905 63.31568421 168.05549634 64.75764036 166 67 C165.21625 67.61875 164.4325 68.2375 163.625 68.875 C160.89531586 71.000658 160.89531586 71.000658 158.3125 73.75 C156 76 156 76 154 76 C153.731875 76.58394531 153.46375 77.16789062 153.1875 77.76953125 C151.98523238 80.02773787 150.64717559 81.73543855 149 83.6875 C141.06149617 93.78501114 134.82064776 104.86687249 131.03515625 117.14453125 C130 120 130 120 128.5625 121.8515625 C126.18958194 125.11432484 125.17221953 128.74816885 123.9375 132.5625 C123.67437012 133.36155762 123.41124023 134.16061523 123.14013672 134.98388672 C121.23511935 140.91446561 119.79065384 146.8110889 119 153 C118.34 153 117.68 153 117 153 C117.04640625 153.97066406 117.0928125 154.94132813 117.140625 155.94140625 C117.13605881 160.49960317 115.96199492 164.57160354 114.75 168.9375 C111.39596867 181.70342646 109.43168832 194.63675838 107.43847656 207.67236328 C104.8424234 224.62014127 101.79043333 241.31403951 97.73193359 257.98486328 C94.93908729 269.48975051 92.21989486 281.00963558 90.25 292.6875 C90.13438721 293.36941406 90.01877441 294.05132812 89.8996582 294.75390625 C88.05015394 306.30312652 87.78501877 317.79580121 87.75976562 329.46801758 C87.75008244 332.16454188 87.71898155 334.86029485 87.6875 337.55664062 C87.62121143 348.43008631 88.53059237 358.39639146 91 369 C91.18385254 369.84006592 91.36770508 370.68013184 91.55712891 371.5456543 C94.82423334 386.76347765 94.82423334 386.76347765 101.1875 400.8125 C103.26432112 404.46484059 103.66280995 406.86942184 104 411 C104.66 411 105.32 411 106 411 C107.85776765 414.13498292 108.20140476 416.37471432 108 420 C108.66 420 109.32 420 110 420 C110.42410156 421.00933594 110.84820312 422.01867187 111.28515625 423.05859375 C112.88464651 426.78761064 114.63068719 430.42875398 116.4375 434.0625 C117.01371094 435.22910156 117.58992188 436.39570313 118.18359375 437.59765625 C119.94563359 441.04803 119.94563359 441.04803 122.22265625 444.24609375 C124 447 124 447 124 450 C123.030625 450.21914063 122.06125 450.43828125 121.0625 450.6640625 C92.99754008 457.21726599 65.77346718 470.24110668 49.6875 495.25 C45.48023267 502.53383156 42.11777654 510.19763545 39 518 C38.73348633 518.66435059 38.46697266 519.32870117 38.19238281 520.01318359 C36.52710495 524.29165089 35.30743842 528.49150654 34.375 533 C34.01535156 534.7015625 34.01535156 534.7015625 33.6484375 536.4375 C32.31014333 543.79005592 31.76827172 551.04619834 31.4375 558.5 C31.293125 561.635 31.14875 564.77 31 568 C20.77 568 10.54 568 0 568 C0 380.56 0 193.12 0 0 Z " fill="#DADADA" transform="translate(0,0)"/>
<path d="M0 0 C0.99 0.495 0.99 0.495 2 1 C2.6081365 2.83344124 3.13441936 4.6941672 3.625 6.5625 C5.51132439 13.05663971 8.21386254 18.81758251 11.35791016 24.79321289 C14 29.82942339 14 29.82942339 14 32 C14.66 32 15.32 32 16 32 C16.33 33.65 16.66 35.3 17 37 C17.66 37 18.32 37 19 37 C20.17118301 38.68449748 21.26242662 40.42495999 22.3125 42.1875 C24.87421561 46.34695924 27.43782364 49.63572233 31 53 C31.69222656 54.16402344 31.69222656 54.16402344 32.3984375 55.3515625 C34.01614625 58.02670038 35.78019801 60.18512153 37.875 62.5 C38.58011719 63.28503906 39.28523437 64.07007813 40.01171875 64.87890625 C42.05464229 67.11565414 42.05464229 67.11565414 44.6875 69.4375 C49.69341919 74.98459964 52.51548452 81.57076262 53 89 C53.66 89 54.32 89 55 89 C55.48229332 91.49943204 55.96089426 93.99948243 56.4375 96.5 C56.57220703 97.19609375 56.70691406 97.8921875 56.84570312 98.609375 C57.75371019 103.39302198 58.43896713 108.1631341 59 113 C61.28310162 110.71689838 61.52749644 109.5149066 62.3125 106.4375 C63.59372104 101.94028472 65.36273257 98.20210462 67.7265625 94.18359375 C69.65773806 90.87216081 71.31117235 87.44020447 73 84 C73.66 84 74.32 84 75 84 C75.3403125 82.8553125 75.3403125 82.8553125 75.6875 81.6875 C77.3342405 78.31560279 78.55878802 77.45295617 82 76 C86.57486683 75.33456482 88.38087407 75.58328062 92.25 78.1875 C96.1484659 82.1745674 98 84.34466001 98 90 C98.66 90 99.32 90 100 90 C101.0144768 105.8934698 97.18922701 117.80409582 88 131 C87.51789063 131.84820312 87.03578125 132.69640625 86.5390625 133.5703125 C84.92821388 136.11332733 83.28006552 137.79812573 81 139.75 C79.9790625 140.63945312 79.9790625 140.63945312 78.9375 141.546875 C77 143 77 143 74 144 C73.71125 144.66 73.4225 145.32 73.125 146 C72 148 72 148 69.375 148.75 C68.59125 148.8325 67.8075 148.915 67 149 C67 149.66 67 150.32 67 151 C66.41992188 150.97035156 65.83984375 150.94070313 65.2421875 150.91015625 C62.28422857 151.10051994 60.57489788 151.48287523 58 153 C55.61349068 157.20108831 54.12574798 161.55247925 52.63330078 166.13378906 C51.78251086 168.64089707 50.72778391 171.03212465 49.625 173.4375 C49.08875 174.613125 48.5525 175.78875 48 177 C47.34 177 46.68 177 46 177 C45.89945313 177.71671875 45.79890625 178.4334375 45.6953125 179.171875 C43.69516782 187.30729495 36.67920866 195.93118863 31 202 C30.34 202 29.68 202 29 202 C28.75121094 202.57621094 28.50242187 203.15242187 28.24609375 203.74609375 C26.82221852 206.32156712 25.17571857 208.02011557 23.0625 210.0625 C22.37285156 210.73410156 21.68320312 211.40570313 20.97265625 212.09765625 C19 214 19 214 17.2890625 215.27734375 C15.21907336 218.04360196 15.42358653 221.16740409 15.3125 224.5 C15.27833984 225.17675781 15.24417969 225.85351562 15.20898438 226.55078125 C14.83622963 234.26452235 15.16295611 241.97119782 15.37231445 249.68554688 C15.41548338 251.30106733 15.45717027 252.91662812 15.49731445 254.53222656 C15.79196191 266.79715171 15.79196191 266.79715171 17 279 C17.99 279.33 18.98 279.66 20 280 C23 284.33333333 23 284.33333333 23 287 C23.804375 287.309375 23.804375 287.309375 24.625 287.625 C27 289 27 289 29.5 291.75 C38.95888091 301.5699069 53.19651675 303.33075253 66 305 C67.4233204 325.51953582 59.36271099 350.63412544 47 367 C46.52046875 367.69609375 46.0409375 368.3921875 45.546875 369.109375 C34.25860222 385.11143202 18.98419117 393.9238197 0 398 C-3.52247617 398.44433549 -7.01482084 398.59966113 -10.5625 398.6875 C-12.03734863 398.73656494 -12.03734863 398.73656494 -13.54199219 398.78662109 C-87.84207524 400.99668022 -87.84207524 400.99668022 -109.921875 382.96484375 C-113.72338006 379.37056359 -117.1722724 375.40724846 -120 371 C-120 370.01 -120 369.02 -120 368 C-120.66 368 -121.32 368 -122 368 C-127.29896199 357.49210694 -131.5232552 347.56248758 -134 336 C-134.33644531 334.54787109 -134.33644531 334.54787109 -134.6796875 333.06640625 C-136.55691081 323.79600896 -136.17718168 314.4103157 -136 305 C-135.10861328 304.76216797 -135.10861328 304.76216797 -134.19921875 304.51953125 C-124.07007345 301.66824774 -115.42996491 297.68424567 -106.99609375 291.35546875 C-105 290 -105 290 -103 290 C-102.61328125 289.10087891 -102.61328125 289.10087891 -102.21875 288.18359375 C-100.56405431 285.21893064 -98.32429569 283.68945371 -95.65625 281.66015625 C-91.32039451 277.31407469 -91.67970609 271.75647709 -91.62109375 266.015625 C-91.59560204 264.73132599 -91.59560204 264.73132599 -91.56959534 263.42108154 C-91.51663244 260.69746176 -91.47621984 257.97385658 -91.4375 255.25 C-91.39360077 252.51193534 -91.3469819 249.77398939 -91.29469299 247.03607178 C-91.26267801 245.33454333 -91.23580606 243.63290914 -91.21446228 241.93121338 C-91.11178956 236.11178956 -91.11178956 236.11178956 -90 235 C-89.76924918 233.65252916 -89.58846937 232.29622435 -89.4375 230.9375 C-89.293125 229.638125 -89.14875 228.33875 -89 227 C-89.66 227 -90.32 227 -91 227 C-91 223.33333333 -91 219.66666667 -91 216 C-91.33 215.01 -91.66 214.02 -92 213 C-92.7425 212.731875 -93.485 212.46375 -94.25 212.1875 C-97.32577659 210.85932375 -98.72796055 209.18561953 -100.75390625 206.56640625 C-102.11418129 204.7889229 -102.11418129 204.7889229 -104.4375 202.625 C-118 188.73170732 -118 188.73170732 -118 182 C-118.66 182 -119.32 182 -120 182 C-121.49024067 178.62978414 -122.96517664 175.25307726 -124.4375 171.875 C-124.85837891 170.92367187 -125.27925781 169.97234375 -125.71289062 168.9921875 C-127.73230067 164.33946677 -129.52695587 160.10887659 -130 155 C-130.556875 154.97421875 -131.11375 154.9484375 -131.6875 154.921875 C-138.94418904 154.38252649 -144.00487353 151.99675098 -150 148 C-150 147.34 -150 146.68 -150 146 C-150.804375 145.731875 -151.60875 145.46375 -152.4375 145.1875 C-153.7059375 144.5996875 -153.7059375 144.5996875 -155 144 C-155.33 143.01 -155.66 142.02 -156 141 C-156.99 140.67 -157.98 140.34 -159 140 C-162 136.55555556 -162 136.55555556 -162 134 C-162.99 133.67 -163.98 133.34 -165 133 C-166.44393989 130.35277687 -167.72978345 127.72828204 -169 125 C-170.27874524 122.52724564 -171.56245525 120.05721145 -172.8515625 117.58984375 C-176.65677244 109.00870705 -177.94218762 98.27742785 -175.125 89.171875 C-172.57968605 84.24870196 -168.95574904 79.62595467 -164 77 C-160.81531141 76.24486765 -158.17752493 76.19813872 -155 77 C-152.1875 79.1875 -152.1875 79.1875 -150 82 C-149.319375 82.78375 -148.63875 83.5675 -147.9375 84.375 C-143.5780186 90.28139415 -141.163423 95.92001427 -139.25 102.9375 C-138.5075 105.598125 -137.765 108.25875 -137 111 C-136.67 101.1 -136.34 91.2 -136 81 C-133.298125 80.113125 -130.59625 79.22625 -127.8125 78.3125 C-121.1160903 76.09508569 -114.50536072 73.73232306 -107.94140625 71.14453125 C-105.14541681 70.05658317 -102.33182367 69.05261964 -99.5 68.0625 C-94.14373851 66.14618357 -89.06038562 63.75166133 -83.9453125 61.26953125 C-81.25473839 60.10980103 -78.88447165 59.44171798 -76 59 C-76 58.34 -76 57.68 -76 57 C-74.78828125 56.49726563 -73.5765625 55.99453125 -72.328125 55.4765625 C-65.86136322 52.59710915 -59.82397014 48.99336856 -53.75 45.375 C-52.85225357 44.84243088 -52.85225357 44.84243088 -51.93637085 44.29910278 C-40.55885086 37.53127414 -30.2122467 30.21652049 -20.48828125 21.1796875 C-19 20 -19 20 -17 20 C-17 19.34 -17 18.68 -17 18 C-15.50390625 16.5625 -15.50390625 16.5625 -13.5625 15 C-10.84811762 12.85474956 -10.84811762 12.85474956 -9 10 C-8.34 10 -7.68 10 -7 10 C-7 9.34 -7 8.68 -7 8 C-6.34 8 -5.68 8 -5 8 C-4.731875 7.236875 -4.46375 6.47375 -4.1875 5.6875 C-3.05575888 3.12619116 -2.08776599 1.80307062 0 0 Z " fill="#F3F2F0" transform="translate(300,133)"/>
<path d="M0 0 C5.78654782 0.81128964 11.36019907 2.32202373 17 3.8125 C18.02585205 4.08167236 19.0517041 4.35084473 20.10864258 4.62817383 C26.75318997 6.38054166 33.36529665 8.21621143 39.9609375 10.14453125 C42.89751509 10.97115142 45.84186474 11.68238558 48.8125 12.375 C60.59511335 15.29305016 71.92447278 19.12134238 82 26 C82.75410156 26.48339844 83.50820313 26.96679688 84.28515625 27.46484375 C94.34581215 33.97061952 102.86215944 41.32042764 110.625 50.4375 C111.10195313 50.98470703 111.57890625 51.53191406 112.0703125 52.09570312 C119 60.22846137 119 60.22846137 119 65 C119.66 65 120.32 65 121 65 C127.08485235 76.49361 130.88228365 88.43383322 134 101 C134.66 103.64 135.32 106.28 136 109 C136.33 115.6 136.66 122.2 137 129 C-19.09 129 -175.18 129 -336 129 C-336 115.64481436 -335.792566 104.70292814 -333 92 C-332.79503906 90.94554687 -332.59007812 89.89109375 -332.37890625 88.8046875 C-329.77552686 76.67714376 -323.79533837 65.29429308 -317 55 C-316.57589844 54.35160156 -316.15179688 53.70320313 -315.71484375 53.03515625 C-298.39737586 28.34640465 -271.18370086 15.75206019 -242.46289062 9.69873047 C-241.55474609 9.50553223 -240.64660156 9.31233398 -239.7109375 9.11328125 C-238.89931152 8.94610596 -238.08768555 8.77893066 -237.25146484 8.60668945 C-234.96596318 7.99082829 -233.10565284 7.06314026 -231 6 C-228.9257375 5.71519194 -226.83928561 5.51125776 -224.75 5.375 C-223.67234375 5.30023438 -222.5946875 5.22546875 -221.484375 5.1484375 C-220.66453125 5.09945313 -219.8446875 5.05046875 -219 5 C-219 4.34 -219 3.68 -219 3 C-217.62705778 2.65828994 -216.25149882 2.32708883 -214.875 2 C-213.72644531 1.7215625 -213.72644531 1.7215625 -212.5546875 1.4375 C-209.66526648 0.9426756 -206.92602801 0.93215008 -204 1 C-203.92483154 1.59312988 -203.84966309 2.18625977 -203.7722168 2.79736328 C-200.26726729 31.38853957 -200.26726729 31.38853957 -189.953125 58.07421875 C-189 60 -189 60 -189 62 C-188.34 62 -187.68 62 -187 62 C-186.443125 63.03125 -185.88625 64.0625 -185.3125 65.125 C-178.51348486 76.82399502 -166.94206771 84.67205297 -154.2109375 88.93359375 C-133.86228559 94.21010523 -110.85971351 92.276094 -90 92 C-88.97293945 91.99274902 -87.94587891 91.98549805 -86.88769531 91.97802734 C-74.09401854 91.85787024 -62.89535517 90.86688445 -51 86 C-49.40478516 85.36771484 -49.40478516 85.36771484 -47.77734375 84.72265625 C-35.72626034 79.35798041 -26.51271344 69.7006477 -19.5 58.6875 C-18.64921875 57.36298828 -18.64921875 57.36298828 -17.78125 56.01171875 C-13.90305922 49.4545146 -10.99387646 42.75447235 -8.5 35.5625 C-8.04826416 34.2645752 -8.04826416 34.2645752 -7.58740234 32.94042969 C-3.92613319 22.16735691 -1.28208691 11.31253155 0 0 Z " fill="#7C7C7C" transform="translate(367,439)"/>
<path d="M0 0 C0.66 0 1.32 0 2 0 C2 0.66 2 1.32 2 2 C2.57363281 2.28230469 3.14726562 2.56460937 3.73828125 2.85546875 C5.91940137 3.95921347 8.05407763 5.11949332 10.1875 6.3125 C11.35925781 6.96412109 11.35925781 6.96412109 12.5546875 7.62890625 C14.18935868 8.54547108 15.81958061 9.47001508 17.4453125 10.40234375 C18.61707031 11.06943359 18.61707031 11.06943359 19.8125 11.75 C20.52019531 12.15734375 21.22789062 12.5646875 21.95703125 12.984375 C23.96895991 13.98456898 25.80623208 14.54645697 28 15 C28 15.66 28 16.32 28 17 C28.804375 17.103125 29.60875 17.20625 30.4375 17.3125 C33.26103567 17.85739285 35.47389213 18.52261491 38.125 19.52734375 C43.02697072 21.18562011 47.42549509 21.38332048 52.5625 21.25 C53.36107422 21.24484375 54.15964844 21.2396875 54.98242188 21.234375 C60.05780312 21.16819236 64.97568948 20.71364777 70 20 C70 19.34 70 18.68 70 18 C73.99000166 16.57499941 77.80530429 15.59924224 82 15 C82 14.34 82 13.68 82 13 C84.60295276 11.68504458 87.20728033 10.37295014 89.8125 9.0625 C90.55048828 8.68931641 91.28847656 8.31613281 92.04882812 7.93164062 C92.76103516 7.57392578 93.47324219 7.21621094 94.20703125 6.84765625 C95.18893433 6.3527771 95.18893433 6.3527771 96.19067383 5.84790039 C98 5 98 5 101 4 C101 3.34 101 2.68 101 2 C101.99 2 102.98 2 104 2 C104 1.34 104 0.68 104 0 C104.99 0.495 104.99 0.495 106 1 C105.9278125 2.04800781 105.855625 3.09601563 105.78125 4.17578125 C105.6874471 5.5546839 105.59370001 6.93359035 105.5 8.3125 C105.45230469 9.00279297 105.40460938 9.69308594 105.35546875 10.40429688 C104.83009022 18.17239376 105.16130232 25.91025973 105.37231445 33.68554688 C105.41548338 35.30106733 105.45717027 36.91662812 105.49731445 38.53222656 C105.79196191 50.79715171 105.79196191 50.79715171 107 63 C107.99 63.33 108.98 63.66 110 64 C113 68.33333333 113 68.33333333 113 71 C113.53625 71.20625 114.0725 71.4125 114.625 71.625 C117 73 117 73 119.5 75.75 C128.95888091 85.5699069 143.19651675 87.33075253 156 89 C157.4233204 109.51953582 149.36271099 134.63412544 137 151 C136.52046875 151.69609375 136.0409375 152.3921875 135.546875 153.109375 C124.25860222 169.11143202 108.98419117 177.9238197 90 182 C86.47752383 182.44433549 82.98517916 182.59966113 79.4375 182.6875 C77.96265137 182.73656494 77.96265137 182.73656494 76.45800781 182.78662109 C2.15792476 184.99668022 2.15792476 184.99668022 -19.921875 166.96484375 C-23.72338006 163.37056359 -27.1722724 159.40724846 -30 155 C-30 154.01 -30 153.02 -30 152 C-30.66 152 -31.32 152 -32 152 C-37.29896199 141.49210694 -41.5232552 131.56248758 -44 120 C-44.22429687 119.03191406 -44.44859375 118.06382812 -44.6796875 117.06640625 C-46.55691081 107.79600896 -46.17718168 98.4103157 -46 89 C-45.40574219 88.84144531 -44.81148437 88.68289063 -44.19921875 88.51953125 C-34.07007345 85.66824774 -25.42996491 81.68424567 -16.99609375 75.35546875 C-15 74 -15 74 -13 74 C-12.7421875 73.40058594 -12.484375 72.80117188 -12.21875 72.18359375 C-10.56405431 69.21893064 -8.32429569 67.68945371 -5.65625 65.66015625 C-1.32039451 61.31407469 -1.67970609 55.75647709 -1.62109375 50.015625 C-1.60409927 49.15942566 -1.5871048 48.30322632 -1.56959534 47.42108154 C-1.51663244 44.69746176 -1.47621984 41.97385658 -1.4375 39.25 C-1.39360077 36.51193534 -1.3469819 33.77398939 -1.29469299 31.03607178 C-1.26267801 29.33454333 -1.23580606 27.63290914 -1.21446228 25.93121338 C-1.11178956 20.11178956 -1.11178956 20.11178956 0 19 C0.23075082 17.65252916 0.41153063 16.29622435 0.5625 14.9375 C0.706875 13.638125 0.85125 12.33875 1 11 C0.34 11 -0.32 11 -1 11 C-1.0270043 9.54176788 -1.04639787 8.08339325 -1.0625 6.625 C-1.07410156 5.81289063 -1.08570313 5.00078125 -1.09765625 4.1640625 C-1 2 -1 2 0 0 Z " fill="#E8E7E5" transform="translate(210,349)"/>
<path d="M0 0 C1.65 0 3.3 0 5 0 C5.99 2.64 6.98 5.28 8 8 C11.63 8.33 15.26 8.66 19 9 C18.67 10.32 18.34 11.64 18 13 C10.84286477 13.91758144 5.69753422 9.79835615 0 6 C-0.1875 2.875 -0.1875 2.875 0 0 Z " fill="#EEEDEC" transform="translate(194,513)"/>
<path d="M0 0 C0.33 0.99 0.66 1.98 1 3 C2.32 2.67 3.64 2.34 5 2 C7.02878875 8.25543198 4.39023396 13.23471465 2 19 C-0.2249236 15.6626146 -0.39081861 13.99717615 -0.6875 10.0625 C-0.77386719 9.02222656 -0.86023438 7.98195312 -0.94921875 6.91015625 C-0.99415079 4.33520501 -0.77952037 2.432338 0 0 Z " fill="#A9A8A8" transform="translate(358,230)"/>
<path d="M0 0 C3.73639216 1.24546405 4.18756513 2.63404953 6 6 C5.34 6 4.68 6 4 6 C4.33 6.99 4.66 7.98 5 9 C4.72428861 11.00875442 4.39764263 13.01178687 4 15 C4.66 15 5.32 15 6 15 C6.09765625 21.15234375 6.09765625 21.15234375 6 23 C5.67 23.33 5.34 23.66 5 24 C4.63239269 26.32817964 4.29758419 28.6618385 4 31 C3.67 31 3.34 31 3 31 C2.67 21.43 2.34 11.86 2 2 C1.34 2 0.68 2 0 2 C0 1.34 0 0.68 0 0 Z " fill="#BDBDBD" transform="translate(205,345)"/>
<path d="M0 0 C0.66 0 1.32 0 2 0 C1.01 3.3 0.02 6.6 -1 10 C-1.99 10 -2.98 10 -4 10 C-4.8125 8.375 -4.8125 8.375 -5 6 C-2.6875 2.75 -2.6875 2.75 0 0 Z " fill="#F3F3F2" transform="translate(346,493)"/>
<path d="M0 0 C0.33 1.32 0.66 2.64 1 4 C0.01 4.495 0.01 4.495 -1 5 C-2.13350534 7.01669827 -2.13350534 7.01669827 -3 9 C-3.99 9 -4.98 9 -6 9 C-6 6 -6 6 -4.6875 4.39453125 C-4.130625 3.87246094 -3.57375 3.35039063 -3 2.8125 C-2.443125 2.28269531 -1.88625 1.75289063 -1.3125 1.20703125 C-0.6628125 0.60955078 -0.6628125 0.60955078 0 0 Z " fill="#888786" transform="translate(339,509)"/>
<path d="M0 0 C0.66 0 1.32 0 2 0 C3.13643966 3.40931897 2.86747764 4.00335456 1.5625 7.1875 C1.27503906 7.90292969 0.98757812 8.61835937 0.69140625 9.35546875 C0.46324219 9.89816406 0.23507813 10.44085937 0 11 C-2 9 -2 9 -2.25 5.5 C-2 2 -2 2 0 0 Z " fill="#D4D4D4" transform="translate(39,507)"/>
<path d="M0 0 C-4.42778844 2.74522883 -7.71862571 4.48474397 -13 5 C-9.87424425 1.2490931 -4.91888327 -2.45944164 0 0 Z " fill="#F1F0EE" transform="translate(323,522)"/>
<path d="M0 0 C0.66 0 1.32 0 2 0 C3.2890625 1.53125 3.2890625 1.53125 4.625 3.5 C5.07101562 4.1496875 5.51703125 4.799375 5.9765625 5.46875 C6.31429688 5.9740625 6.65203125 6.479375 7 7 C6.34 7 5.68 7 5 7 C4.67 7.66 4.34 8.32 4 9 C3.01 8.34 2.02 7.68 1 7 C0.3125 3.375 0.3125 3.375 0 0 Z " fill="#898989" transform="translate(467,479)"/>
<path d="M0 0 C1.32 0.33 2.64 0.66 4 1 C4 4.96 4 8.92 4 13 C3.67 13 3.34 13 3 13 C2.01 8.71 1.02 4.42 0 0 Z " fill="#AFAEAD" transform="translate(160,236)"/>
<path d="M0 0 C1.98 1.65 3.96 3.3 6 5 C3.66785852 6.20628008 1.50357861 7.1654738 -1 8 C-1 7.34 -1 6.68 -1 6 C-0.34 6 0.32 6 1 6 C1 5.34 1 4.68 1 4 C0.34 4 -0.32 4 -1 4 C-0.67 2.68 -0.34 1.36 0 0 Z " fill="#EAE9E7" transform="translate(334,192)"/>
<path d="M0 0 C0.66 0.33 1.32 0.66 2 1 C1.0919838 2.13199353 0.17316174 3.25532363 -0.75 4.375 C-1.26046875 5.00148438 -1.7709375 5.62796875 -2.296875 6.2734375 C-4.08199481 8.08312318 -5.67949644 9.00117455 -8 10 C-6.44303593 6.17836093 -3.96591316 3.81381505 -1 1 C-0.67 0.67 -0.34 0.34 0 0 Z " fill="#AEAEAE" transform="translate(157,74)"/>
<path d="M0 0 C0.33 0 0.66 0 1 0 C1 5.94 1 11.88 1 18 C0.01 17.67 -0.98 17.34 -2 17 C-1.505 15.515 -1.505 15.515 -1 14 C-0.77439324 11.60745424 -0.59151405 9.21071877 -0.4375 6.8125 C-0.35371094 5.54019531 -0.26992188 4.26789063 -0.18359375 2.95703125 C-0.12300781 1.98121094 -0.06242187 1.00539063 0 0 Z " fill="#BCBCBC" transform="translate(315,350)"/>
<path d="M0 0 C0.66 0.33 1.32 0.66 2 1 C-0.21928194 3.90802461 -1.92969143 5.95312762 -5 8 C-6.32 7.67 -7.64 7.34 -9 7 C-6.03 4.69 -3.06 2.38 0 0 Z " fill="#E5E4E3" transform="translate(274,159)"/>
<path d="M0 0 C0.33 0 0.66 0 1 0 C2.125 6.625 2.125 6.625 1 10 C0.01 9.67 -0.98 9.34 -2 9 C-1.125 2.25 -1.125 2.25 0 0 Z " fill="#F1F0EE" transform="translate(176,484)"/>
<path d="M0 0 C3.79588866 0.54226981 5.47211993 2.20127563 8 5 C7.67 5.66 7.34 6.32 7 7 C1.125 3.375 1.125 3.375 0 0 Z " fill="#E8E7E5" transform="translate(323,181)"/>
<path d="M0 0 C0.66 0 1.32 0 2 0 C2.125 3.375 2.125 3.375 2 7 C1.34 7.66 0.68 8.32 0 9 C-0.66 8.67 -1.32 8.34 -2 8 C-1.47731534 5.23723823 -0.89130413 2.6739124 0 0 Z " fill="#888888" transform="translate(39,515)"/>
<path d="M0 0 C1.65 0 3.3 0 5 0 C5.33 1.32 5.66 2.64 6 4 C4.68 4.33 3.36 4.66 2 5 C1.34 3.35 0.68 1.7 0 0 Z " fill="#F4F2F3" transform="translate(194,513)"/>
<path d="M0 0 C0.66 0.33 1.32 0.66 2 1 C2.36923077 6.53846154 2.36923077 6.53846154 0.5 8.875 C-0.2425 9.431875 -0.2425 9.431875 -1 10 C-2.46726798 6.18510326 -1.43336419 3.70988378 0 0 Z " fill="#888888" transform="translate(361,467)"/>
<path d="M0 0 C-0.99 0.495 -0.99 0.495 -2 1 C-1.01 1.33 -0.02 1.66 1 2 C1 2.66 1 3.32 1 4 C-1.97 3.505 -1.97 3.505 -5 3 C-5 2.34 -5 1.68 -5 1 C-5.66 0.67 -6.32 0.34 -7 0 C-3.86650268 -1.04449911 -3.01031744 -0.93423645 0 0 Z " fill="#8A8A8A" transform="translate(122,451)"/>
<path d="M0 0 C-1.65 1.32 -3.3 2.64 -5 4 C-7.475 3.01 -7.475 3.01 -10 2 C-10 1.67 -10 1.34 -10 1 C-8.71073008 0.63720544 -7.41846728 0.28503302 -6.125 -0.0625 C-5.40570313 -0.25972656 -4.68640625 -0.45695312 -3.9453125 -0.66015625 C-2 -1 -2 -1 0 0 Z " fill="#D2D2D0" transform="translate(282,369)"/>
<path d="M0 0 C0.66 0.33 1.32 0.66 2 1 C1.67 2.32 1.34 3.64 1 5 C1.66 5.33 2.32 5.66 3 6 C1.35 5.67 -0.3 5.34 -2 5 C-2 4.34 -2 3.68 -2 3 C-2.66 2.67 -3.32 2.34 -4 2 C-2.125 0.9375 -2.125 0.9375 0 0 Z " fill="#868686" transform="translate(94,458)"/>
<path d="M0 0 C0.99 0.99 1.98 1.98 3 3 C2.34 4.32 1.68 5.64 1 7 C0.01 6.01 -0.98 5.02 -2 4 C-1.34 2.68 -0.68 1.36 0 0 Z " fill="#A9A8A7" transform="translate(150,210)"/>
<path d="M0 0 C2 1 2 1 2 1 Z M-3 1 C-2.01 1.33 -1.02 1.66 0 2 C-0.99 3.485 -0.99 3.485 -2 5 C-4.97 4.505 -4.97 4.505 -8 4 C-5 2 -5 2 -3 1 Z " fill="#ECEBE9" transform="translate(222,192)"/>
<path d="M0 0 C2 3 2 3 1.7578125 5.26171875 C1.54898437 6.06222656 1.34015625 6.86273437 1.125 7.6875 C0.92132813 8.49574219 0.71765625 9.30398438 0.5078125 10.13671875 C0.25644531 11.05904297 0.25644531 11.05904297 0 12 C-0.33 12 -0.66 12 -1 12 C-1.14285714 3.42857143 -1.14285714 3.42857143 0 0 Z " fill="#D2D2D2" transform="translate(504,549)"/>
<path d="M0 0 C2.31 0.66 4.62 1.32 7 2 C5 4 5 4 2.375 4.125 C1.59125 4.08375 0.8075 4.0425 0 4 C0 2.68 0 1.36 0 0 Z " fill="#E3E2E2" transform="translate(360,281)"/>
<path d="M0 0 C0.66 0.33 1.32 0.66 2 1 C1.625 2.9375 1.625 2.9375 1 5 C0.01 5.495 0.01 5.495 -1 6 C-1.66 5.34 -2.32 4.68 -3 4 C-2.01 2.68 -1.02 1.36 0 0 Z M3 1 C5 2 5 2 5 2 Z " fill="#E8E7E5" transform="translate(291,143)"/>
<path d="M0 0 C0.33 0.66 0.66 1.32 1 2 C4.02934491 2.65772428 4.02934491 2.65772428 7 3 C6.67 4.32 6.34 5.64 6 7 C5.34 7 4.68 7 4 7 C4 6.34 4 5.68 4 5 C3.34 5 2.68 5 2 5 C2 4.34 2 3.68 2 3 C1.01 2.67 0.02 2.34 -1 2 C-0.67 1.34 -0.34 0.68 0 0 Z " fill="#CECECE" transform="translate(357,65)"/>
</svg>
