<?xml version="1.0" encoding="UTF-8"?>
<svg version="1.1" xmlns="http://www.w3.org/2000/svg" width="2200" height="2200">
<path d="M0 0 C726 0 1452 0 2200 0 C2200 726 2200 1452 2200 2200 C1474 2200 748 2200 0 2200 C0 1474 0 748 0 0 Z " fill="#C4CCDE" transform="translate(0,0)"/>
<path d="M0 0 C726 0 1452 0 2200 0 C2200 0.33 2200 0.66 2200 1 C1474.33 1 748.66 1 1 1 C1 683.11 1 1365.22 1 2068 C1.99 2068 2.98 2068 4 2068 C4 2066.68 4 2065.36 4 2064 C6.97 2063.505 6.97 2063.505 10 2063 C10.33 2061.35 10.66 2059.7 11 2058 C12.65 2058 14.3 2058 16 2058 C16 2056.35 16 2054.7 16 2053 C17.65 2053 19.3 2053 21 2053 C21 2051.68 21 2050.36 21 2049 C22.98 2049 24.96 2049 27 2049 C27.33 2047.35 27.66 2045.7 28 2044 C29.32 2044 30.64 2044 32 2044 C32.33 2043.01 32.66 2042.02 33 2041 C33.66 2041 34.32 2041 35 2041 C35 2040.34 35 2039.68 35 2039 C36.32 2039 37.64 2039 39 2039 C39.33 2037.68 39.66 2036.36 40 2035 C41.65 2035 43.3 2035 45 2035 C45 2034.01 45 2033.02 45 2032 C46.32 2032 47.64 2032 49 2032 C49 2031.34 49 2030.68 49 2030 C50.65 2029.67 52.3 2029.34 54 2029 C54 2028.34 54 2027.68 54 2027 C54.66 2027 55.32 2027 56 2027 C56 2026.34 56 2025.68 56 2025 C56.99 2025 57.98 2025 59 2025 C59 2024.34 59 2023.68 59 2023 C61.31 2022.67 63.62 2022.34 66 2022 C66 2021.34 66 2020.68 66 2020 C66.99 2020 67.98 2020 69 2020 C69 2019.01 69 2018.02 69 2017 C70.65 2017 72.3 2017 74 2017 C74 2016.34 74 2015.68 74 2015 C75.98 2015 77.96 2015 80 2015 C80 2014.01 80 2013.02 80 2012 C81.65 2012 83.3 2012 85 2012 C85.33 2010.68 85.66 2009.36 86 2008 C87.32 2008 88.64 2008 90 2008 C90.33 2007.01 90.66 2006.02 91 2005 C91.66 2005 92.32 2005 93 2005 C93 2004.34 93 2003.68 93 2003 C95.97 2003 98.94 2003 102 2003 C102 2002.34 102 2001.68 102 2001 C103.1875 1999.375 103.1875 1999.375 105 1998 C107.6875 1997.8125 107.6875 1997.8125 110 1998 C110 1997.34 110 1996.68 110 1996 C110.66 1996 111.32 1996 112 1996 C112 1995.34 112 1994.68 112 1994 C114.64 1993.67 117.28 1993.34 120 1993 C120 1991.68 120 1990.36 120 1989 C121.4540625 1988.814375 121.4540625 1988.814375 122.9375 1988.625 C123.948125 1988.41875 124.95875 1988.2125 126 1988 C126.33 1987.34 126.66 1986.68 127 1986 C129.31 1986 131.62 1986 134 1986 C134 1985.34 134 1984.68 134 1984 C136.31 1983.67 138.62 1983.34 141 1983 C141 1982.34 141 1981.68 141 1981 C141.99 1981 142.98 1981 144 1981 C144 1980.34 144 1979.68 144 1979 C145.65 1979 147.3 1979 149 1979 C149 1978.34 149 1977.68 149 1977 C152.67410785 1975.82428549 156.16929183 1975.92633254 160 1976 C160 1974.68 160 1973.36 160 1972 C161.65 1972 163.3 1972 165 1972 C165 1971.01 165 1970.02 165 1969 C166.65 1969 168.3 1969 170 1969 C170 1968.34 170 1967.68 170 1967 C171.65 1967 173.3 1967 175 1967 C175 1966.34 175 1965.68 175 1965 C177.97 1964.67 180.94 1964.34 184 1964 C184.33 1962.68 184.66 1961.36 185 1960 C187.97 1959.67 190.94 1959.34 194 1959 C194 1958.34 194 1957.68 194 1957 C194.99 1957 195.98 1957 197 1957 C197 1956.34 197 1955.68 197 1955 C199.97 1954.67 202.94 1954.34 206 1954 C206 1953.34 206 1952.68 206 1952 C207.65 1952 209.3 1952 211 1952 C211 1951.34 211 1950.68 211 1950 C211.99 1950 212.98 1950 214 1950 C214 1949.34 214 1948.68 214 1948 C218.0527516 1947.01751476 221.83861737 1946.91840426 226 1947 C226 1946.34 226 1945.68 226 1945 C227.32 1945 228.64 1945 230 1945 C230 1944.34 230 1943.68 230 1943 C232.31 1942.67 234.62 1942.34 237 1942 C237 1941.34 237 1940.68 237 1940 C238.65 1940 240.3 1940 242 1940 C242 1939.34 242 1938.68 242 1938 C243.65 1938 245.3 1938 247 1938 C247 1937.34 247 1936.68 247 1936 C248.65 1936 250.3 1936 252 1936 C252 1935.01 252 1934.02 252 1933 C254.31 1933 256.62 1933 259 1933 C259 1932.34 259 1931.68 259 1931 C261.64 1930.67 264.28 1930.34 267 1930 C267 1929.34 267 1928.68 267 1928 C268.32 1928 269.64 1928 271 1928 C271 1927.34 271 1926.68 271 1926 C273.64 1925.67 276.28 1925.34 279 1925 C279 1924.34 279 1923.68 279 1923 C280.32 1923 281.64 1923 283 1923 C283 1922.34 283 1921.68 283 1921 C284.65 1921 286.3 1921 288 1921 C288 1920.34 288 1919.68 288 1919 C291.3 1918.67 294.6 1918.34 298 1918 C298 1917.34 298 1916.68 298 1916 C298.66 1916 299.32 1916 300 1916 C300 1915.34 300 1914.68 300 1914 C302.52475462 1912.73762269 304.31200466 1912.90143596 307.125 1912.9375 C308.03507812 1912.94652344 308.94515625 1912.95554687 309.8828125 1912.96484375 C310.58148438 1912.97644531 311.28015625 1912.98804688 312 1913 C312 1912.34 312 1911.68 312 1911 C312.99 1911 313.98 1911 315 1911 C315 1910.34 315 1909.68 315 1909 C315.99 1909 316.98 1909 318 1909 C318 1908.34 318 1907.68 318 1907 C320.31 1906.67 322.62 1906.34 325 1906 C325 1905.34 325 1904.68 325 1904 C329.96993194 1901.56574762 333.34605369 1900.65384002 339 1901 C339 1900.34 339 1899.68 339 1899 C339.99 1899 340.98 1899 342 1899 C342 1898.34 342 1897.68 342 1897 C343.65 1897 345.3 1897 347 1897 C347 1896.34 347 1895.68 347 1895 C349.97 1894.67 352.94 1894.34 356 1894 C356 1893.34 356 1892.68 356 1892 C356.99 1892 357.98 1892 359 1892 C359 1891.34 359 1890.68 359 1890 C361.31 1890 363.62 1890 366 1890 C366 1889.01 366 1888.02 366 1887 C367.65 1887 369.3 1887 371 1887 C371 1886.34 371 1885.68 371 1885 C375.0527516 1884.01751476 378.83861737 1883.91840426 383 1884 C383 1883.34 383 1882.68 383 1882 C384.65 1882 386.3 1882 388 1882 C388 1881.34 388 1880.68 388 1880 C388.66 1880 389.32 1880 390 1880 C390 1879.34 390 1878.68 390 1878 C392.31 1877.67 394.62 1877.34 397 1877 C397 1876.34 397 1875.68 397 1875 C397.99 1875 398.98 1875 400 1875 C400 1874.34 400 1873.68 400 1873 C403.63 1872.67 407.26 1872.34 411 1872 C411 1871.34 411 1870.68 411 1870 C411.99 1870 412.98 1870 414 1870 C414 1869.34 414 1868.68 414 1868 C414.66 1868 415.32 1868 416 1868 C416 1867.34 416 1866.68 416 1866 C420.40914783 1864.89771304 424.48382401 1864.92345464 429 1865 C429 1864.34 429 1863.68 429 1863 C429.66 1863 430.32 1863 431 1863 C431 1862.34 431 1861.68 431 1861 C433.31 1860.67 435.62 1860.34 438 1860 C438 1859.34 438 1858.68 438 1858 C439.65 1858 441.3 1858 443 1858 C443 1857.34 443 1856.68 443 1856 C445.31 1855.67 447.62 1855.34 450 1855 C450 1854.34 450 1853.68 450 1853 C450.99 1853 451.98 1853 453 1853 C453 1852.34 453 1851.68 453 1851 C454.65 1851 456.3 1851 458 1851 C458 1850.34 458 1849.68 458 1849 C460.31 1848.67 462.62 1848.34 465 1848 C465 1847.34 465 1846.68 465 1846 C466.65 1846 468.3 1846 470 1846 C470 1845.34 470 1844.68 470 1844 C473.67410785 1842.82428549 477.16929183 1842.92633254 481 1843 C481 1842.34 481 1841.68 481 1841 C481.99 1841 482.98 1841 484 1841 C484 1840.34 484 1839.68 484 1839 C484.66 1839 485.32 1839 486 1839 C486 1838.34 486 1837.68 486 1837 C489.3 1836.67 492.6 1836.34 496 1836 C496 1835.34 496 1834.68 496 1834 C496.66 1834 497.32 1834 498 1834 C498 1833.34 498 1832.68 498 1832 C500.64 1831.67 503.28 1831.34 506 1831 C506 1830.34 506 1829.68 506 1829 C507.65 1829 509.3 1829 511 1829 C511 1828.34 511 1827.68 511 1827 C513.97 1826.67 516.94 1826.34 520 1826 C520 1825.34 520 1824.68 520 1824 C520.99 1824 521.98 1824 523 1824 C523 1823.34 523 1822.68 523 1822 C523.66 1822 524.32 1822 525 1822 C525 1821.34 525 1820.68 525 1820 C527.97 1819.67 530.94 1819.34 534 1819 C534 1818.34 534 1817.68 534 1817 C534.99 1817 535.98 1817 537 1817 C537 1816.34 537 1815.68 537 1815 C539.31 1815 541.62 1815 544 1815 C544 1814.01 544 1813.02 544 1812 C546.31 1812 548.62 1812 551 1812 C551.33 1810.68 551.66 1809.36 552 1808 C554.97 1807.67 557.94 1807.34 561 1807 C561 1806.34 561 1805.68 561 1805 C561.99 1805 562.98 1805 564 1805 C564 1804.34 564 1803.68 564 1803 C567.3 1802.67 570.6 1802.34 574 1802 C574 1801.34 574 1800.68 574 1800 C575.32 1800 576.64 1800 578 1800 C578 1799.34 578 1798.68 578 1798 C578.99 1798 579.98 1798 581 1798 C581 1797.01 581 1796.02 581 1795 C582.65 1795 584.3 1795 586 1795 C586 1794.34 586 1793.68 586 1793 C586.66 1793 587.32 1793 588 1793 C588 1792.34 588 1791.68 588 1791 C592.0527516 1790.01751476 595.83861737 1789.91840426 600 1790 C600 1789.34 600 1788.68 600 1788 C601.65 1788 603.3 1788 605 1788 C605 1787.01 605 1786.02 605 1785 C608 1783 608 1783 612 1783 C612 1782.34 612 1781.68 612 1781 C613.65 1781 615.3 1781 617 1781 C617 1780.34 617 1779.68 617 1779 C618.4540625 1778.814375 618.4540625 1778.814375 619.9375 1778.625 C621.4534375 1778.315625 621.4534375 1778.315625 623 1778 C623.33 1777.34 623.66 1776.68 624 1776 C624.66 1776 625.32 1776 626 1776 C626 1775.34 626 1774.68 626 1774 C629.3 1773.67 632.6 1773.34 636 1773 C636 1772.34 636 1771.68 636 1771 C636.99 1771 637.98 1771 639 1771 C639 1769.68 639 1768.36 639 1767 C642.63 1766.67 646.26 1766.34 650 1766 C650.33 1764.68 650.66 1763.36 651 1762 C653.97 1761.67 656.94 1761.34 660 1761 C660 1760.34 660 1759.68 660 1759 C660.66 1759 661.32 1759 662 1759 C662 1758.34 662 1757.68 662 1757 C664.64 1756.67 667.28 1756.34 670 1756 C670 1755.34 670 1754.68 670 1754 C670.99 1754 671.98 1754 673 1754 C673 1753.34 673 1752.68 673 1752 C675.31 1752 677.62 1752 680 1752 C680 1751.01 680 1750.02 680 1749 C681.32 1749 682.64 1749 684 1749 C684.33 1747.68 684.66 1746.36 685 1745 C688.9813783 1743.6728739 692.85045227 1743.93084087 697 1744 C697 1742.68 697 1741.36 697 1740 C698.65 1740 700.3 1740 702 1740 C702 1738.35 702 1736.7 702 1735 C702.66 1735 703.32 1735 704 1735 C704 1734.01 704 1733.02 704 1732 C704.66 1732 705.32 1732 706 1732 C706 1730.68 706 1729.36 706 1728 C706.66 1728 707.32 1728 708 1728 C708.33 1725.69 708.66 1723.38 709 1721 C709.66 1721 710.32 1721 711 1721 C711 1720.01 711 1719.02 711 1718 C711.66 1718 712.32 1718 713 1718 C712.979375 1716.906875 712.95875 1715.81375 712.9375 1714.6875 C713 1711 713 1711 714 1708 C714.66 1708 715.32 1708 716 1708 C716 1706.68 716 1705.36 716 1704 C716.66 1704 717.32 1704 718 1704 C718 1702.35 718 1700.7 718 1699 C718.66 1699 719.32 1699 720 1699 C720.33 1695.7 720.66 1692.4 721 1689 C721.66 1689 722.32 1689 723 1689 C723 1686.03 723 1683.06 723 1680 C723.66 1680 724.32 1680 725 1680 C724.979375 1678.783125 724.95875 1677.56625 724.9375 1676.3125 C724.93175884 1673.08022678 725.21233685 1670.15065259 726 1667 C726.66 1667 727.32 1667 728 1667 C728 1664.36 728 1661.72 728 1659 C728.66 1659 729.32 1659 730 1659 C730.33 1654.38 730.66 1649.76 731 1645 C731.66 1645 732.32 1645 733 1645 C733 1640.38 733 1635.76 733 1631 C733.66 1631 734.32 1631 735 1631 C735 1627.7 735 1624.4 735 1621 C735.66 1621 736.32 1621 737 1621 C736.98259766 1620.14728516 736.98259766 1620.14728516 736.96484375 1619.27734375 C736.90776806 1614.39329516 737.18043228 1609.81496035 738 1605 C738.66 1605 739.32 1605 740 1605 C740 1600.05 740 1595.1 740 1590 C740.66 1590 741.32 1590 742 1590 C742 1589.34 742 1588.68 742 1588 C746.29 1587.67 750.58 1587.34 755 1587 C755 1586.34 755 1585.68 755 1585 C757.31 1585 759.62 1585 762 1585 C762 1584.34 762 1583.68 762 1583 C764.97 1583 767.94 1583 771 1583 C771 1582.34 771 1581.68 771 1581 C773.64 1580.67 776.28 1580.34 779 1580 C779 1579.34 779 1578.68 779 1578 C779.66 1578 780.32 1578 781 1578 C781 1575.69 781 1573.38 781 1571 C781.66 1571 782.32 1571 783 1571 C782.98839844 1570.22398438 782.97679687 1569.44796875 782.96484375 1568.6484375 C782.89581971 1560.38527392 783.30878069 1552.23291573 784 1544 C784.66 1544 785.32 1544 786 1544 C786 1539.38 786 1534.76 786 1530 C786.66 1530 787.32 1530 788 1530 C788 1525.71 788 1521.42 788 1517 C788.66 1517 789.32 1517 790 1517 C789.98259766 1515.60201172 789.98259766 1515.60201172 789.96484375 1514.17578125 C789.90504641 1505.727271 790.20482038 1497.42038418 791 1489 C791.66 1489 792.32 1489 793 1489 C793 1484.71 793 1480.42 793 1476 C793.66 1476 794.32 1476 795 1476 C794.98839844 1475.23558594 794.97679687 1474.47117187 794.96484375 1473.68359375 C794.89227265 1465.06836707 795.33511636 1456.58412275 796 1448 C796.66 1448 797.32 1448 798 1448 C798 1443.38 798 1438.76 798 1434 C798.33 1434 798.66 1434 799 1434 C799.33 1419.15 799.66 1404.3 800 1389 C799.34 1389 798.68 1389 798 1389 C798 1384.38 798 1379.76 798 1375 C797.34 1375 796.68 1375 796 1375 C795.67 1371.7 795.34 1368.4 795 1365 C794.34 1365 793.68 1365 793 1365 C793 1363.35 793 1361.7 793 1360 C792.34 1360 791.68 1360 791 1360 C790.67 1358.68 790.34 1357.36 790 1356 C789.34 1356 788.68 1356 788 1356 C788 1355.01 788 1354.02 788 1353 C786.68 1353 785.36 1353 784 1353 C783.814375 1352.0409375 783.814375 1352.0409375 783.625 1351.0625 C783.41875 1350.381875 783.2125 1349.70125 783 1349 C782.34 1348.67 781.68 1348.34 781 1348 C781 1347.34 781 1346.68 781 1346 C780.34 1346 779.68 1346 779 1346 C778.67 1343.69 778.34 1341.38 778 1339 C777.34 1339 776.68 1339 776 1339 C776 1338.01 776 1337.02 776 1336 C774.35 1335.67 772.7 1335.34 771 1335 C771 1333.68 771 1332.36 771 1331 C770.34 1331 769.68 1331 769 1331 C769 1330.34 769 1329.68 769 1329 C768.34 1329 767.68 1329 767 1329 C766.67 1326.69 766.34 1324.38 766 1322 C765.34 1322 764.68 1322 764 1322 C764 1321.34 764 1320.68 764 1320 C763.34 1320 762.68 1320 762 1320 C761.67 1317.36 761.34 1314.72 761 1312 C760.34 1312 759.68 1312 759 1312 C759 1311.01 759 1310.02 759 1309 C757.68 1308.67 756.36 1308.34 755 1308 C754.67 1304.7 754.34 1301.4 754 1298 C753.34 1298 752.68 1298 752 1298 C752 1297.34 752 1296.68 752 1296 C751.34 1296 750.68 1296 750 1296 C749.67 1292.7 749.34 1289.4 749 1286 C748.34 1286 747.68 1286 747 1286 C747 1285.34 747 1284.68 747 1284 C746.34 1284 745.68 1284 745 1284 C745 1282.02 745 1280.04 745 1278 C744.34 1278 743.68 1278 743 1278 C742.67 1275.69 742.34 1273.38 742 1271 C741.34 1271 740.68 1271 740 1271 C740 1269.35 740 1267.7 740 1266 C739.34 1266 738.68 1266 738 1266 C736.6728739 1262.0186217 736.93084087 1258.14954773 737 1254 C736.34 1254 735.68 1254 735 1254 C735 1252.68 735 1251.36 735 1250 C734.34 1250 733.68 1250 733 1250 C733 1248.02 733 1246.04 733 1244 C732.34 1244 731.68 1244 731 1244 C730.67 1241.36 730.34 1238.72 730 1236 C729.34 1236 728.68 1236 728 1236 C728 1234.68 728 1233.36 728 1232 C727.34 1232 726.68 1232 726 1232 C725.67 1228.37 725.34 1224.74 725 1221 C724.34 1221 723.68 1221 723 1221 C723 1218.36 723 1215.72 723 1213 C722.34 1213 721.68 1213 721 1213 C719.79431947 1208.32798795 719.90617574 1203.78503708 720 1199 C719.34 1199 718.68 1199 718 1199 C718 1196.69 718 1194.38 718 1192 C717.34 1192 716.68 1192 716 1192 C716 1189.69 716 1187.38 716 1185 C715.34 1185 714.68 1185 714 1185 C713.67 1181.37 713.34 1177.74 713 1174 C712.34 1174 711.68 1174 711 1174 C711 1172.02 711 1170.04 711 1168 C710.34 1168 709.68 1168 709 1168 C708.67 1163.71 708.34 1159.42 708 1155 C707.34 1155 706.68 1155 706 1155 C706 1151.7 706 1148.4 706 1145 C705.34 1145 704.68 1145 704 1145 C704 1141.37 704 1137.74 704 1134 C703.34 1134 702.68 1134 702 1134 C701.67 1129.71 701.34 1125.42 701 1121 C700.34 1121 699.68 1121 699 1121 C699 1118.03 699 1115.06 699 1112 C698.34 1112 697.68 1112 697 1112 C697 1109.36 697 1106.72 697 1104 C692.71 1104 688.42 1104 684 1104 C684 1103.34 684 1102.68 684 1102 C683.34 1102 682.68 1102 682 1102 C682 1101.34 682 1100.68 682 1100 C681.34 1100 680.68 1100 680 1100 C678.375 1098.75 678.375 1098.75 677 1097 C677 1095.68 677 1094.36 677 1093 C676.34 1093 675.68 1093 675 1093 C675 1092.01 675 1091.02 675 1090 C674.01 1090 673.02 1090 672 1090 C672 1087.69 672 1085.38 672 1083 C671.34 1083 670.68 1083 670 1083 C670 1082.01 670 1081.02 670 1080 C669.34 1080 668.68 1080 668 1080 C667.00749455 1074.29309366 666.89522488 1068.78591511 667 1063 C666.34 1063 665.68 1063 665 1063 C665 1060.69 665 1058.38 665 1056 C664.34 1056 663.68 1056 663 1056 C662.67 1050.39 662.34 1044.78 662 1039 C661.34 1039 660.68 1039 660 1039 C660 1034.38 660 1029.76 660 1025 C659.34 1025 658.68 1025 658 1025 C658 1020.38 658 1015.76 658 1011 C657.34 1011 656.68 1011 656 1011 C654.9287172 1004.97403427 654.90054585 999.11090483 655 993 C654.34 993 653.68 993 653 993 C653 987.39 653 981.78 653 976 C652.34 976 651.68 976 651 976 C650.15976812 971.64667264 649.89229005 967.55557481 649.9375 963.125 C649.94652344 961.97257813 649.95554687 960.82015625 649.96484375 959.6328125 C649.98224609 958.32957031 649.98224609 958.32957031 650 957 C649.34 957 648.68 957 648 957 C648 955.35 648 953.7 648 952 C647.34 952 646.68 952 646 952 C646 949.03 646 946.06 646 943 C645.34 943 644.68 943 644 943 C643.67 936.4 643.34 929.8 643 923 C642.34 923 641.68 923 641 923 C641 918.05 641 913.1 641 908 C640.34 908 639.68 908 639 908 C639 898.76 639 889.52 639 880 C639.66 880 640.32 880 641 880 C641 877.69 641 875.38 641 873 C641.66 873 642.32 873 643 873 C643.33 870.69 643.66 868.38 644 866 C645.32 865.67 646.64 865.34 648 865 C648 864.34 648 863.68 648 863 C648.66 863 649.32 863 650 863 C650 862.34 650 861.68 650 861 C650.99 861 651.98 861 653 861 C653 860.34 653 859.68 653 859 C655.97 858.67 658.94 858.34 662 858 C662 857.34 662 856.68 662 856 C663.65 856 665.3 856 667 856 C667 855.34 667 854.68 667 854 C670.96 854 674.92 854 679 854 C679 847.4 679 840.8 679 834 C678.34 834 677.68 834 677 834 C677 825.09 677 816.18 677 807 C676.34 807 675.68 807 675 807 C674.96241577 805.73555054 674.96241577 805.73555054 674.92407227 804.44555664 C674.82911845 801.32758326 674.72987552 798.20978497 674.62768555 795.09204102 C674.58428777 793.74085853 674.5426163 792.38961947 674.50268555 791.03833008 C674.44510048 789.09963299 674.38085702 787.16113724 674.31640625 785.22265625 C674.26141968 783.47094116 674.26141968 783.47094116 674.20532227 781.68383789 C674.29923812 779.08220205 674.29923812 779.08220205 673 778 C672.84068465 776.39244934 672.7484609 774.7781854 672.68359375 773.1640625 C672.64161865 772.1313623 672.59964355 771.09866211 672.55639648 770.03466797 C672.49754272 768.34688232 672.49754272 768.34688232 672.4375 766.625 C672.3950415 765.47789551 672.35258301 764.33079102 672.30883789 763.14892578 C671.88051288 750.43361964 671.90228754 737.72065901 672 725 C671.34 725 670.68 725 670 725 C669.96241577 724.05362671 669.96241577 724.05362671 669.92407227 723.08813477 C669.80845863 720.24603175 669.68557684 717.40428917 669.5625 714.5625 C669.50352539 713.07266602 669.50352539 713.07266602 669.44335938 711.55273438 C669.40146484 710.60849609 669.35957031 709.66425781 669.31640625 708.69140625 C669.26141968 707.37958374 669.26141968 707.37958374 669.20532227 706.04125977 C669.21818934 704.0072598 669.21818934 704.0072598 668 703 C667.84030792 700.72842296 667.74836948 698.45204308 667.68359375 696.17578125 C667.66281265 695.47793015 667.64203156 694.78007904 667.62062073 694.06108093 C667.57724171 692.57227936 667.53621445 691.08340775 667.49731445 689.59448242 C667.43892444 687.36684367 667.37348993 685.13950848 667.30664062 682.91210938 C667.04767734 673.93859932 666.9437271 664.97776089 667 656 C666.34 656 665.68 656 665 656 C664.97666971 641.80543958 664.9590866 627.61088213 664.94818783 613.4163065 C664.94295828 606.82595215 664.93585933 600.23561063 664.92456055 593.64526367 C664.91373422 587.29107982 664.90772371 580.93690835 664.90512276 574.58271599 C664.90326805 572.15250389 664.89964657 569.72229251 664.89426994 567.29208565 C664.88706289 563.90117019 664.88600892 560.51030659 664.88647461 557.11938477 C664.88287933 556.10374954 664.87928406 555.08811432 664.87557983 554.04170227 C664.8769545 553.12318481 664.87832916 552.20466736 664.87974548 551.25831604 C664.87882369 550.45543435 664.8779019 549.65255266 664.87695217 548.82534122 C665 547 665 547 666 546 C666.23105121 543.55602113 666.40325269 541.13347472 666.53515625 538.68359375 C666.57813339 537.95253922 666.62111053 537.22148468 666.66539001 536.46827698 C666.80213845 534.12491396 666.93238542 531.78123983 667.0625 529.4375 C667.15387007 527.85218888 667.24566141 526.26690199 667.33789062 524.68164062 C667.56348956 520.78802501 667.78325697 516.89411823 668 513 C668.33 513 668.66 513 669 513 C669.33 508.38 669.66 503.76 670 499 C670.66 499 671.32 499 672 499 C671.98839844 498.14277344 671.97679687 497.28554688 671.96484375 496.40234375 C671.9181959 490.49139448 671.91750084 484.81843296 673 479 C673.66 479 674.32 479 675 479 C675 477.35 675 475.7 675 474 C675.66 474 676.32 474 677 474 C677 471.03 677 468.06 677 465 C677.66 465 678.32 465 679 465 C679 462.03 679 459.06 679 456 C679.99 455.67 680.98 455.34 682 455 C682 452.69 682 450.38 682 448 C682.66 448 683.32 448 684 448 C684.33 443.71 684.66 439.42 685 435 C685.66 435 686.32 435 687 435 C687 433.02 687 431.04 687 429 C688.32 429 689.64 429 691 429 C691.33 424.71 691.66 420.42 692 416 C692.66 416 693.32 416 694 416 C694 414.35 694 412.7 694 411 C694.66 411 695.32 411 696 411 C696.33 409.02 696.66 407.04 697 405 C697.66 405 698.32 405 699 405 C699 403.35 699 401.7 699 400 C699.66 400 700.32 400 701 400 C701.33 398.02 701.66 396.04 702 394 C702.66 394 703.32 394 704 394 C704 393.34 704 392.68 704 392 C704.66 392 705.32 392 706 392 C706 390.68 706 389.36 706 388 C706.66 387.67 707.32 387.34 708 387 C708.65213292 384.97536745 708.65213292 384.97536745 709 383 C709.66 383 710.32 383 711 383 C711 381.35 711 379.7 711 378 C711.66 378 712.32 378 713 378 C713.33 377.01 713.66 376.02 714 375 C715.32 375 716.64 375 718 375 C718 373.35 718 371.7 718 370 C718.66 370 719.32 370 720 370 C720 368.68 720 367.36 720 366 C720.99 366 721.98 366 723 366 C723 365.01 723 364.02 723 363 C723.66 363 724.32 363 725 363 C725.33 360.69 725.66 358.38 726 356 C727.32 356 728.64 356 730 356 C730 355.01 730 354.02 730 353 C730.99 353 731.98 353 733 353 C733 352.34 733 351.68 733 351 C733.66 351 734.32 351 735 351 C735 350.34 735 349.68 735 349 C735.66 349 736.32 349 737 349 C737.33 346.69 737.66 344.38 738 342 C739.32 342 740.64 342 742 342 C742.33 340.02 742.66 338.04 743 336 C744.32 336 745.64 336 747 336 C747 335.34 747 334.68 747 334 C747.66 334 748.32 334 749 334 C749 332.35 749 330.7 749 329 C750.65 329 752.3 329 754 329 C754.33 327.68 754.66 326.36 755 325 C756.32 324.67 757.64 324.34 759 324 C759 323.34 759 322.68 759 322 C759.66 322 760.32 322 761 322 C761.33 320.68 761.66 319.36 762 318 C763.32 318 764.64 318 766 318 C766 317.01 766 316.02 766 315 C766.99 315 767.98 315 769 315 C769 314.34 769 313.68 769 313 C769.66 312.67 770.32 312.34 771 312 C771.65213292 309.97536745 771.65213292 309.97536745 772 308 C772.969375 307.87625 773.93875 307.7525 774.9375 307.625 C775.948125 307.41875 776.95875 307.2125 778 307 C778.33 306.34 778.66 305.68 779 305 C780.32 305 781.64 305 783 305 C783 303.68 783 302.36 783 301 C783.99 301 784.98 301 786 301 C786 300.01 786 299.02 786 298 C787.32 298 788.64 298 790 298 C790.33 297.01 790.66 296.02 791 295 C791.66 295 792.32 295 793 295 C793 294.34 793 293.68 793 293 C793.99 293 794.98 293 796 293 C796 292.34 796 291.68 796 291 C796.66 291 797.32 291 798 291 C798 290.34 798 289.68 798 289 C799.65 288.67 801.3 288.34 803 288 C803 286.68 803 285.36 803 284 C803.639375 283.87625 804.27875 283.7525 804.9375 283.625 C805.618125 283.41875 806.29875 283.2125 807 283 C807.33 282.34 807.66 281.68 808 281 C809.65 281 811.3 281 813 281 C813 279.68 813 278.36 813 277 C814.32 277 815.64 277 817 277 C817 276.01 817 275.02 817 274 C817.99 274 818.98 274 820 274 C820 273.34 820 272.68 820 272 C821.32 272 822.64 272 824 272 C824 271.01 824 270.02 824 269 C825.98 269 827.96 269 830 269 C830 268.01 830 267.02 830 266 C830.66 266 831.32 266 832 266 C832 265.34 832 264.68 832 264 C832.66 264 833.32 264 834 264 C834 263.34 834 262.68 834 262 C834.99 262 835.98 262 837 262 C837 261.34 837 260.68 837 260 C839.97 259.67 842.94 259.34 846 259 C846 258.34 846 257.68 846 257 C846.66 257 847.32 257 848 257 C848 256.34 848 255.68 848 255 C849.65 254.67 851.3 254.34 853 254 C853.33 252.68 853.66 251.36 854 250 C854.66 250 855.32 250 856 250 C856 249.34 856 248.68 856 248 C858.31 247.67 860.62 247.34 863 247 C863 246.34 863 245.68 863 245 C863.99 245 864.98 245 866 245 C866 244.34 866 243.68 866 243 C867.65 242.67 869.3 242.34 871 242 C871 241.34 871 240.68 871 240 C871.66 240 872.32 240 873 240 C873 239.34 873 238.68 873 238 C876.3 237.67 879.6 237.34 883 237 C883 235.68 883 234.36 883 233 C884.32 233 885.64 233 887 233 C887 232.34 887 231.68 887 231 C889.64 230.67 892.28 230.34 895 230 C895 228.68 895 227.36 895 226 C897.97 225.67 900.94 225.34 904 225 C904 224.34 904 223.68 904 223 C904.66 223 905.32 223 906 223 C906 222.34 906 221.68 906 221 C906.99 221 907.98 221 909 221 C909 220.34 909 219.68 909 219 C911.31 218.67 913.62 218.34 916 218 C916 217.34 916 216.68 916 216 C916.99 216 917.98 216 919 216 C919 215.34 919 214.68 919 214 C919.639375 213.87625 920.27875 213.7525 920.9375 213.625 C921.618125 213.41875 922.29875 213.2125 923 213 C923.33 212.34 923.66 211.68 924 211 C925.32 211 926.64 211 928 211 C928 210.34 928 209.68 928 209 C930.64 209 933.28 209 936 209 C936 208.01 936 207.02 936 206 C937.32 206 938.64 206 940 206 C940.33 204.68 940.66 203.36 941 202 C944.63 201.67 948.26 201.34 952 201 C952 200.34 952 199.68 952 199 C952.99 199 953.98 199 955 199 C955 198.34 955 197.68 955 197 C957.97 196.67 960.94 196.34 964 196 C964.33 194.68 964.66 193.36 965 192 C966.65 192 968.3 192 970 192 C970 191.34 970 190.68 970 190 C972.31 189.67 974.62 189.34 977 189 C977 188.34 977 187.68 977 187 C978.32 187 979.64 187 981 187 C981 186.34 981 185.68 981 185 C984.3 184.67 987.6 184.34 991 184 C991 183.34 991 182.68 991 182 C991.99 182 992.98 182 994 182 C994 181.34 994 180.68 994 180 C996.97 179.67 999.94 179.34 1003 179 C1003 178.34 1003 177.68 1003 177 C1004.65 177 1006.3 177 1008 177 C1008 176.34 1008 175.68 1008 175 C1008.99 175 1009.98 175 1011 175 C1011 174.34 1011 173.68 1011 173 C1014.63 172.67 1018.26 172.34 1022 172 C1022 171.34 1022 170.68 1022 170 C1023.98 170 1025.96 170 1028 170 C1028 169.01 1028 168.02 1028 167 C1030.31 167 1032.62 167 1035 167 C1035 166.34 1035 165.68 1035 165 C1037.31 165 1039.62 165 1042 165 C1042 164.34 1042 163.68 1042 163 C1043.32 163 1044.64 163 1046 163 C1046 162.34 1046 161.68 1046 161 C1049.47325181 159.8422494 1052.36067448 159.93133348 1056 160 C1056 159.34 1056 158.68 1056 158 C1057.65 158 1059.3 158 1061 158 C1061 157.34 1061 156.68 1061 156 C1063.70879335 154.64560332 1066.00933268 154.93498549 1069 155 C1069 154.34 1069 153.68 1069 153 C1071.31 153 1073.62 153 1076 153 C1076 152.34 1076 151.68 1076 151 C1078.31 151 1080.62 151 1083 151 C1083 150.34 1083 149.68 1083 149 C1086.21451269 147.39274365 1089.43612536 147.94251815 1093 148 C1093 147.34 1093 146.68 1093 146 C1094.65 146 1096.3 146 1098 146 C1098 145.34 1098 144.68 1098 144 C1101.63 143.67 1105.26 143.34 1109 143 C1109 142.34 1109 141.68 1109 141 C1111.31 141 1113.62 141 1116 141 C1116 140.34 1116 139.68 1116 139 C1120.29 138.67 1124.58 138.34 1129 138 C1129 137.34 1129 136.68 1129 136 C1130.65 136 1132.3 136 1134 136 C1134 135.34 1134 134.68 1134 134 C1138.62 134 1143.24 134 1148 134 C1148 133.01 1148 132.02 1148 131 C1152.62 131 1157.24 131 1162 131 C1162 129.68 1162 128.36 1162 127 C1170.415 126.505 1170.415 126.505 1179 126 C1179 125.34 1179 124.68 1179 124 C1182.3 124 1185.6 124 1189 124 C1189 123.34 1189 122.68 1189 122 C1191.64 122 1194.28 122 1197 122 C1197 121.34 1197 120.68 1197 120 C1204.92 119.505 1204.92 119.505 1213 119 C1213 118.34 1213 117.68 1213 117 C1216.96 117 1220.92 117 1225 117 C1225 116.34 1225 115.68 1225 115 C1229.15626368 113.99073521 1233.04365094 113.89760421 1237.3125 113.9375 C1238.56675781 113.94652344 1239.82101562 113.95554687 1241.11328125 113.96484375 C1242.06589844 113.97644531 1243.01851562 113.98804687 1244 114 C1244 113.34 1244 112.68 1244 112 C1249.61 112 1255.22 112 1261 112 C1261 111.34 1261 110.68 1261 110 C1269.25026468 109.07191062 1277.3903828 108.8769371 1285.6875 108.9375 C1286.87794922 108.94201172 1288.06839844 108.94652344 1289.29492188 108.95117188 C1292.19666936 108.96282548 1295.09830626 108.97918441 1298 109 C1298 108.34 1298 107.68 1298 107 C1310.54 107 1323.08 107 1336 107 C1336 107.66 1336 108.32 1336 109 C1336.99 109.33 1337.98 109.66 1339 110 C1338.01 110 1337.02 110 1336 110 C1336 111.32 1336 112.64 1336 114 C1334.68 114.33 1333.36 114.66 1332 115 C1332 115.66 1332 116.32 1332 117 C1331.01 117 1330.02 117 1329 117 C1329 117.99 1329 118.98 1329 120 C1327.68 120 1326.36 120 1325 120 C1324.67 121.32 1324.34 122.64 1324 124 C1322.68 124 1321.36 124 1320 124 C1319.67 125.65 1319.34 127.3 1319 129 C1317.68 129 1316.36 129 1315 129 C1315 129.66 1315 130.32 1315 131 C1313.75 132.625 1313.75 132.625 1312 134 C1310.68 134 1309.36 134 1308 134 C1307.67 135.65 1307.34 137.3 1307 139 C1306.34 139 1305.68 139 1305 139 C1305 139.66 1305 140.32 1305 141 C1304.34 141 1303.68 141 1303 141 C1302.67 141.99 1302.34 142.98 1302 144 C1301.34 144 1300.68 144 1300 144 C1300 144.66 1300 145.32 1300 146 C1299.34 146 1298.68 146 1298 146 C1298 147.65 1298 149.3 1298 151 C1297.34 151 1296.68 151 1296 151 C1295.67 152.32 1295.34 153.64 1295 155 C1294.34 155 1293.68 155 1293 155 C1293 155.99 1293 156.98 1293 158 C1292.34 158 1291.68 158 1291 158 C1290.67 160.31 1290.34 162.62 1290 165 C1289.34 165 1288.68 165 1288 165 C1288 166.65 1288 168.3 1288 170 C1287.34 170 1286.68 170 1286 170 C1286 172.97 1286 175.94 1286 179 C1286.66 179 1287.32 179 1288 179 C1288 182.3 1288 185.6 1288 189 C1288.99 189 1289.98 189 1291 189 C1291 191.31 1291 193.62 1291 196 C1292.65 196.33 1294.3 196.66 1296 197 C1296 198.32 1296 199.64 1296 201 C1297.32 201.33 1298.64 201.66 1300 202 C1300 203.32 1300 204.64 1300 206 C1300.99 206 1301.98 206 1303 206 C1303 206.66 1303 207.32 1303 208 C1304.32 208.33 1305.64 208.66 1307 209 C1307.33 210.32 1307.66 211.64 1308 213 C1309.32 213.33 1310.64 213.66 1312 214 C1312.33 215.32 1312.66 216.64 1313 218 C1314.98 218.33 1316.96 218.66 1319 219 C1319.33 220.32 1319.66 221.64 1320 223 C1320.66 223 1321.32 223 1322 223 C1322 223.99 1322 224.98 1322 226 C1322.99 226 1323.98 226 1325 226 C1325 226.66 1325 227.32 1325 228 C1326.32 228 1327.64 228 1329 228 C1329 228.66 1329 229.32 1329 230 C1329.99 230.33 1330.98 230.66 1332 231 C1332 231.66 1332 232.32 1332 233 C1333.32 233 1334.64 233 1336 233 C1336 233.66 1336 234.32 1336 235 C1336.99 235 1337.98 235 1339 235 C1339 235.99 1339 236.98 1339 238 C1340.32 238 1341.64 238 1343 238 C1343.33 239.32 1343.66 240.64 1344 242 C1345.65 242.33 1347.3 242.66 1349 243 C1349 244.32 1349 245.64 1349 247 C1350.65 247 1352.3 247 1354 247 C1354 247.99 1354 248.98 1354 250 C1355.32 250 1356.64 250 1358 250 C1358 250.66 1358 251.32 1358 252 C1358.99 252 1359.98 252 1361 252 C1361 252.66 1361 253.32 1361 254 C1362.32 254.33 1363.64 254.66 1365 255 C1365.33 256.32 1365.66 257.64 1366 259 C1367.98 259.33 1369.96 259.66 1372 260 C1372.33 261.32 1372.66 262.64 1373 264 C1373.66 264 1374.32 264 1375 264 C1375 264.66 1375 265.32 1375 266 C1376.65 266.33 1378.3 266.66 1380 267 C1380 267.66 1380 268.32 1380 269 C1380.66 269 1381.32 269 1382 269 C1382.33 269.66 1382.66 270.32 1383 271 C1385.02463255 271.65213292 1385.02463255 271.65213292 1387 272 C1387 272.66 1387 273.32 1387 274 C1387.99 274 1388.98 274 1390 274 C1390 274.66 1390 275.32 1390 276 C1391.32 276.33 1392.64 276.66 1394 277 C1394.33 278.32 1394.66 279.64 1395 281 C1395.66 281 1396.32 281 1397 281 C1397 281.66 1397 282.32 1397 283 C1398.32 283.33 1399.64 283.66 1401 284 C1401.33 285.32 1401.66 286.64 1402 288 C1403.32 288 1404.64 288 1406 288 C1406 288.99 1406 289.98 1406 291 C1406.99 291 1407.98 291 1409 291 C1409 291.66 1409 292.32 1409 293 C1409.99 293 1410.98 293 1412 293 C1412 293.99 1412 294.98 1412 296 C1413.32 296 1414.64 296 1416 296 C1416 296.66 1416 297.32 1416 298 C1416.66 298 1417.32 298 1418 298 C1418.33 298.66 1418.66 299.32 1419 300 C1421.02463255 300.65213292 1421.02463255 300.65213292 1423 301 C1423.33 302.32 1423.66 303.64 1424 305 C1424.66 305 1425.32 305 1426 305 C1426 305.66 1426 306.32 1426 307 C1427.32 307.33 1428.64 307.66 1430 308 C1430.33 309.32 1430.66 310.64 1431 312 C1432.65 312.33 1434.3 312.66 1436 313 C1436 314.32 1436 315.64 1436 317 C1437.32 317.33 1438.64 317.66 1440 318 C1440.33 319.32 1440.66 320.64 1441 322 C1442.32 322 1443.64 322 1445 322 C1445 322.66 1445 323.32 1445 324 C1445.99 324 1446.98 324 1448 324 C1448 324.99 1448 325.98 1448 327 C1448.66 327 1449.32 327 1450 327 C1450 327.66 1450 328.32 1450 329 C1450.66 329 1451.32 329 1452 329 C1452.33 330.65 1452.66 332.3 1453 334 C1454.32 334 1455.64 334 1457 334 C1457 334.66 1457 335.32 1457 336 C1457.99 336.33 1458.98 336.66 1460 337 C1460 337.66 1460 338.32 1460 339 C1460.66 339 1461.32 339 1462 339 C1462 339.99 1462 340.98 1462 342 C1462.66 342 1463.32 342 1464 342 C1464.33 343.32 1464.66 344.64 1465 346 C1465.66 346 1466.32 346 1467 346 C1467 346.99 1467 347.98 1467 349 C1467.66 349 1468.32 349 1469 349 C1469 349.66 1469 350.32 1469 351 C1469.99 351 1470.98 351 1472 351 C1472 351.66 1472 352.32 1472 353 C1472.66 353 1473.32 353 1474 353 C1474 353.99 1474 354.98 1474 356 C1474.66 356 1475.32 356 1476 356 C1476.33 357.65 1476.66 359.3 1477 361 C1477.66 361 1478.32 361 1479 361 C1479 361.66 1479 362.32 1479 363 C1479.66 363 1480.32 363 1481 363 C1481 363.99 1481 364.98 1481 366 C1481.99 366 1482.98 366 1484 366 C1484 367.32 1484 368.64 1484 370 C1484.66 370 1485.32 370 1486 370 C1486 370.99 1486 371.98 1486 373 C1486.66 373 1487.32 373 1488 373 C1488.33 374.65 1488.66 376.3 1489 378 C1489.66 378 1490.32 378 1491 378 C1491 379.65 1491 381.3 1491 383 C1491.99 383 1492.98 383 1494 383 C1494 384.32 1494 385.64 1494 387 C1494.66 387 1495.32 387 1496 387 C1496 387.99 1496 388.98 1496 390 C1496.66 390 1497.32 390 1498 390 C1498 391.65 1498 393.3 1498 395 C1498.99 395 1499.98 395 1501 395 C1501 396.32 1501 397.64 1501 399 C1501.66 399 1502.32 399 1503 399 C1503 400.65 1503 402.3 1503 404 C1503.66 404 1504.32 404 1505 404 C1505.33 406.31 1505.66 408.62 1506 411 C1506.66 411 1507.32 411 1508 411 C1508 411.99 1508 412.98 1508 414 C1508.66 414 1509.32 414 1510 414 C1510.33 416.31 1510.66 418.62 1511 421 C1511.66 421 1512.32 421 1513 421 C1513 423.64 1513 426.28 1513 429 C1513.66 429 1514.32 429 1515 429 C1515 430.32 1515 431.64 1515 433 C1515.66 433 1516.32 433 1517 433 C1518.60725635 436.21451269 1518.05748185 439.43612536 1518 443 C1518.66 443 1519.32 443 1520 443 C1520 444.65 1520 446.3 1520 448 C1520.66 448 1521.32 448 1522 448 C1522.33 451.3 1522.66 454.6 1523 458 C1523.66 458 1524.32 458 1525 458 C1525 460.31 1525 462.62 1525 465 C1525.66 465 1526.32 465 1527 465 C1527 467.31 1527 469.62 1527 472 C1527.66 472 1528.32 472 1529 472 C1529.74805717 479.02639415 1530.13794954 485.93391809 1530 493 C1530.66 493 1531.32 493 1532 493 C1532 497.29 1532 501.58 1532 506 C1532.66 506 1533.32 506 1534 506 C1534.79822348 515.37912587 1535.12873737 524.58786748 1535 534 C1535.66 534 1536.32 534 1537 534 C1537.33 539.61 1537.66 545.22 1538 551 C1538.33 551 1538.66 551 1539 551 C1539 582.68 1539 614.36 1539 647 C1538.67 647 1538.34 647 1538 647 C1537.67 654.26 1537.34 661.52 1537 669 C1536.34 669 1535.68 669 1535 669 C1535.00523682 669.66604248 1535.01047363 670.33208496 1535.01586914 671.01831055 C1535.1370831 689.04543434 1534.74018133 706.98957705 1534 725 C1533.34 725 1532.68 725 1532 725 C1532 733.91 1532 742.82 1532 752 C1531.34 752 1530.68 752 1530 752 C1530.00523682 752.64098633 1530.01047363 753.28197266 1530.01586914 753.94238281 C1530.1372695 771.31953759 1529.73860613 788.63882716 1529 806 C1528.34 806 1527.68 806 1527 806 C1527 814.91 1527 823.82 1527 833 C1526.34 833 1525.68 833 1525 833 C1525 839.93 1525 846.86 1525 854 C1529.95 854 1534.9 854 1540 854 C1540 854.66 1540 855.32 1540 856 C1541.32 856 1542.64 856 1544 856 C1544 856.66 1544 857.32 1544 858 C1546.64 858.33 1549.28 858.66 1552 859 C1552 859.66 1552 860.32 1552 861 C1552.66 861 1553.32 861 1554 861 C1554 861.66 1554 862.32 1554 863 C1554.66 863 1555.32 863 1556 863 C1556 863.66 1556 864.32 1556 865 C1556.99 865.33 1557.98 865.66 1559 866 C1559 867.65 1559 869.3 1559 871 C1559.66 871 1560.32 871 1561 871 C1561 871.66 1561 872.32 1561 873 C1561.66 873 1562.32 873 1563 873 C1563.77725057 877.81169819 1564.12835896 882.42470459 1564.1328125 887.296875 C1564.13376923 887.9711554 1564.13472595 888.64543579 1564.13571167 889.34014893 C1564.13638776 890.75866795 1564.13457362 892.17719017 1564.13037109 893.59570312 C1564.12504851 895.73054219 1564.13031819 897.86516765 1564.13671875 900 C1564.14008175 907.71203992 1563.89586675 915.3310541 1563 923 C1562.34 923 1561.68 923 1561 923 C1561 924.98 1561 926.96 1561 929 C1560.34 929 1559.68 929 1559 929 C1559.01160156 929.65484375 1559.02320313 930.3096875 1559.03515625 930.984375 C1559.10495147 938.0436634 1558.68648769 944.97575988 1558 952 C1557.34 952 1556.68 952 1556 952 C1556 953.65 1556 955.3 1556 957 C1555.34 957 1554.68 957 1554 957 C1554 961.29 1554 965.58 1554 970 C1553.34 970 1552.68 970 1552 970 C1552.01160156 970.94101562 1552.02320313 971.88203125 1552.03515625 972.8515625 C1552.04869141 974.71941406 1552.04869141 974.71941406 1552.0625 976.625 C1552.07410156 977.85476563 1552.08570313 979.08453125 1552.09765625 980.3515625 C1552.00863924 983.67723791 1551.63686087 986.74047588 1551 990 C1550.34 990 1549.68 990 1549 990 C1549 993.96 1549 997.92 1549 1002 C1548.34 1002 1547.68 1002 1547 1002 C1546.67 1009.26 1546.34 1016.52 1546 1024 C1545.34 1024 1544.68 1024 1544 1024 C1544 1028.95 1544 1033.9 1544 1039 C1543.34 1039 1542.68 1039 1542 1039 C1542.020625 1039.804375 1542.04125 1040.60875 1542.0625 1041.4375 C1542 1044 1542 1044 1541 1045 C1540.77329092 1046.55753051 1540.60564908 1048.12377359 1540.46484375 1049.69140625 C1540.37783203 1050.63564453 1540.29082031 1051.57988281 1540.20117188 1052.55273438 C1540.11416016 1053.54595703 1540.02714844 1054.53917969 1539.9375 1055.5625 C1539.80118164 1057.05813477 1539.80118164 1057.05813477 1539.66210938 1058.58398438 C1539.43741186 1061.05565702 1539.21689649 1063.52763256 1539 1066 C1538.34 1066 1537.68 1066 1537 1066 C1537 1068.97 1537 1071.94 1537 1075 C1536.34 1075 1535.68 1075 1535 1075 C1535 1076.65 1535 1078.3 1535 1080 C1534.01 1080.33 1533.02 1080.66 1532 1081 C1532 1082.65 1532 1084.3 1532 1086 C1531.34 1086 1530.68 1086 1530 1086 C1529.67 1088.97 1529.34 1091.94 1529 1095 C1528.34 1095 1527.68 1095 1527 1095 C1527 1095.99 1527 1096.98 1527 1098 C1525.68 1098 1524.36 1098 1523 1098 C1522.67 1099.32 1522.34 1100.64 1522 1102 C1520.68 1102 1519.36 1102 1518 1102 C1518 1102.66 1518 1103.32 1518 1104 C1514.04 1104 1510.08 1104 1506 1104 C1505.67 1109.61 1505.34 1115.22 1505 1121 C1504.34 1121 1503.68 1121 1503 1121 C1503 1123.97 1503 1126.94 1503 1130 C1502.34 1130 1501.68 1130 1501 1130 C1501.02320313 1130.59167969 1501.04640625 1131.18335938 1501.0703125 1131.79296875 C1501.09738281 1132.97826172 1501.09738281 1132.97826172 1501.125 1134.1875 C1501.14820313 1134.96480469 1501.17140625 1135.74210937 1501.1953125 1136.54296875 C1500.97167115 1139.35637697 1500.05034891 1141.3900421 1499 1144 C1498.7240522 1145.92903132 1498.51550097 1147.8689032 1498.375 1149.8125 C1498.26285156 1151.27623047 1498.26285156 1151.27623047 1498.1484375 1152.76953125 C1498.09945313 1153.50558594 1498.05046875 1154.24164062 1498 1155 C1497.34 1155 1496.68 1155 1496 1155 C1496 1157.31 1496 1159.62 1496 1162 C1495.34 1162 1494.68 1162 1494 1162 C1493.67 1165.96 1493.34 1169.92 1493 1174 C1492.34 1174 1491.68 1174 1491 1174 C1491 1175.65 1491 1177.3 1491 1179 C1490.34 1179 1489.68 1179 1489 1179 C1489.01160156 1179.68707031 1489.02320313 1180.37414063 1489.03515625 1181.08203125 C1489.04869141 1182.43361328 1489.04869141 1182.43361328 1489.0625 1183.8125 C1489.07410156 1184.70582031 1489.08570313 1185.59914063 1489.09765625 1186.51953125 C1489 1189 1489 1189 1488 1192 C1487.34 1192 1486.68 1192 1486 1192 C1486 1194.31 1486 1196.62 1486 1199 C1485.34 1199 1484.68 1199 1484 1199 C1484 1201.31 1484 1203.62 1484 1206 C1483.34 1206 1482.68 1206 1482 1206 C1481.67 1209.3 1481.34 1212.6 1481 1216 C1480.34 1216 1479.68 1216 1479 1216 C1479 1217.65 1479 1219.3 1479 1221 C1478.34 1221 1477.68 1221 1477 1221 C1477.01160156 1221.81984375 1477.02320313 1222.6396875 1477.03515625 1223.484375 C1477.04869141 1225.10085938 1477.04869141 1225.10085938 1477.0625 1226.75 C1477.07410156 1227.81734375 1477.08570313 1228.8846875 1477.09765625 1229.984375 C1477.01510087 1232.53368501 1476.74617558 1234.57933591 1476 1237 C1474.68 1237.33 1473.36 1237.66 1472 1238 C1471.67 1242.62 1471.34 1247.24 1471 1252 C1470.34 1252 1469.68 1252 1469 1252 C1469 1253.65 1469 1255.3 1469 1257 C1468.34 1257 1467.68 1257 1467 1257 C1467 1258.32 1467 1259.64 1467 1261 C1466.34 1261 1465.68 1261 1465 1261 C1464.67 1264.3 1464.34 1267.6 1464 1271 C1463.34 1271 1462.68 1271 1462 1271 C1462 1271.66 1462 1272.32 1462 1273 C1461.34 1273 1460.68 1273 1460 1273 C1459.67 1276.63 1459.34 1280.26 1459 1284 C1458.34 1284 1457.68 1284 1457 1284 C1457 1285.32 1457 1286.64 1457 1288 C1456.34 1288 1455.68 1288 1455 1288 C1455 1289.65 1455 1291.3 1455 1293 C1454.34 1293 1453.68 1293 1453 1293 C1452.67 1294.65 1452.34 1296.3 1452 1298 C1451.34 1298 1450.68 1298 1450 1298 C1450 1299.32 1450 1300.64 1450 1302 C1449.34 1302 1448.68 1302 1448 1302 C1447.67 1303.65 1447.34 1305.3 1447 1307 C1446.34 1307 1445.68 1307 1445 1307 C1445 1308.65 1445 1310.3 1445 1312 C1444.34 1312 1443.68 1312 1443 1312 C1443 1313.65 1443 1315.3 1443 1317 C1442.34 1317 1441.68 1317 1441 1317 C1440.67 1319.31 1440.34 1321.62 1440 1324 C1438.68 1324.33 1437.36 1324.66 1436 1325 C1435.67 1326.98 1435.34 1328.96 1435 1331 C1433.68 1331 1432.36 1331 1431 1331 C1430.67 1333.64 1430.34 1336.28 1430 1339 C1428.68 1339 1427.36 1339 1426 1339 C1426 1339.66 1426 1340.32 1426 1341 C1425.34 1341 1424.68 1341 1424 1341 C1423.67 1342.65 1423.34 1344.3 1423 1346 C1422.34 1346 1421.68 1346 1421 1346 C1421 1346.99 1421 1347.98 1421 1349 C1420.34 1349 1419.68 1349 1419 1349 C1419 1350.32 1419 1351.64 1419 1353 C1418.01 1353 1417.02 1353 1416 1353 C1416 1353.99 1416 1354.98 1416 1356 C1415.34 1356 1414.68 1356 1414 1356 C1414 1356.66 1414 1357.32 1414 1358 C1413.34 1358 1412.68 1358 1412 1358 C1411.67 1359.65 1411.34 1361.3 1411 1363 C1410.34 1363 1409.68 1363 1409 1363 C1409 1365.31 1409 1367.62 1409 1370 C1408.34 1370 1407.68 1370 1407 1370 C1407.01160156 1370.56847656 1407.02320313 1371.13695312 1407.03515625 1371.72265625 C1407.09218101 1376.60234647 1406.9002286 1381.19878078 1406 1386 C1405.67 1386.33 1405.34 1386.66 1405 1387 C1404.91148471 1389.59359322 1404.88474055 1392.16039691 1404.90234375 1394.75390625 C1404.9037587 1395.52935287 1404.90517365 1396.3047995 1404.90663147 1397.10374451 C1404.91224655 1399.59003494 1404.92480154 1402.0762366 1404.9375 1404.5625 C1404.94251306 1406.24413933 1404.9470763 1407.92578006 1404.95117188 1409.60742188 C1404.96222087 1413.73831566 1404.97949555 1417.86914276 1405 1422 C1405.33 1422 1405.66 1422 1406 1422 C1406.17102625 1426.06232836 1406.33598818 1430.12488287 1406.5 1434.1875 C1406.54769531 1435.31865234 1406.59539062 1436.44980469 1406.64453125 1437.61523438 C1406.95561906 1445.41465028 1407.05818215 1453.19470332 1407 1461 C1407.66 1461 1408.32 1461 1409 1461 C1409 1465.95 1409 1470.9 1409 1476 C1409.66 1476 1410.32 1476 1411 1476 C1411.66 1486.89 1412.32 1497.78 1413 1509 C1413.33 1509 1413.66 1509 1414 1509 C1414 1511.64 1414 1514.28 1414 1517 C1414.66 1517 1415.32 1517 1416 1517 C1416 1521.29 1416 1525.58 1416 1530 C1416.66 1530 1417.32 1530 1418 1530 C1418.79822348 1539.37912587 1419.12873737 1548.58786748 1419 1558 C1419.66 1558 1420.32 1558 1421 1558 C1421 1562.29 1421 1566.58 1421 1571 C1421.66 1571 1422.32 1571 1423 1571 C1423.33 1573.64 1423.66 1576.28 1424 1579 C1427.63 1579.66 1431.26 1580.32 1435 1581 C1435 1581.66 1435 1582.32 1435 1583 C1436.65 1583 1438.3 1583 1440 1583 C1440 1583.66 1440 1584.32 1440 1585 C1442.64 1585 1445.28 1585 1448 1585 C1448 1585.66 1448 1586.32 1448 1587 C1448.67546875 1587.04898437 1449.3509375 1587.09796875 1450.046875 1587.1484375 C1451.38492187 1587.26058594 1451.38492187 1587.26058594 1452.75 1587.375 C1453.63171875 1587.44460938 1454.5134375 1587.51421875 1455.421875 1587.5859375 C1457.99066382 1587.99850055 1459.75841015 1588.71160957 1462 1590 C1462 1590.66 1462 1591.32 1462 1592 C1462.66 1592 1463.32 1592 1464 1592 C1464.33 1598.6 1464.66 1605.2 1465 1612 C1465.66 1612 1466.32 1612 1467 1612 C1467 1614.64 1467 1617.28 1467 1620 C1467.66 1620 1468.32 1620 1469 1620 C1469.33 1624.62 1469.66 1629.24 1470 1634 C1470.33 1634 1470.66 1634 1471 1634 C1471.74507544 1640.37305598 1472.10349817 1646.58311325 1472 1653 C1472.66 1653 1473.32 1653 1474 1653 C1474 1654.32 1474 1655.64 1474 1657 C1474.66 1657 1475.32 1657 1476 1657 C1476.74507544 1663.37305598 1477.10349817 1669.58311325 1477 1676 C1477.66 1676 1478.32 1676 1479 1676 C1479 1677.32 1479 1678.64 1479 1680 C1479.66 1680 1480.32 1680 1481 1680 C1481.33 1684.62 1481.66 1689.24 1482 1694 C1482.66 1694 1483.32 1694 1484 1694 C1484 1695.32 1484 1696.64 1484 1698 C1484.66 1698 1485.32 1698 1486 1698 C1486 1699.98 1486 1701.96 1486 1704 C1486.66 1704 1487.32 1704 1488 1704 C1488.33 1706.31 1488.66 1708.62 1489 1711 C1489.66 1711 1490.32 1711 1491 1711 C1491 1713.31 1491 1715.62 1491 1718 C1491.66 1718 1492.32 1718 1493 1718 C1493.33 1720.97 1493.66 1723.94 1494 1727 C1495.32 1727.33 1496.64 1727.66 1498 1728 C1498 1729.32 1498 1730.64 1498 1732 C1498.66 1732 1499.32 1732 1500 1732 C1500.33 1734.64 1500.66 1737.28 1501 1740 C1502.32 1740 1503.64 1740 1505 1740 C1505.33 1741.32 1505.66 1742.64 1506 1744 C1507.0725 1743.979375 1508.145 1743.95875 1509.25 1743.9375 C1512.14790424 1743.9857984 1514.28612141 1744.13155885 1517 1745 C1517 1745.66 1517 1746.32 1517 1747 C1517.99 1747 1518.98 1747 1520 1747 C1520 1747.66 1520 1748.32 1520 1749 C1522.31 1749.33 1524.62 1749.66 1527 1750 C1527 1751.32 1527 1752.64 1527 1754 C1528.65 1754 1530.3 1754 1532 1754 C1532 1754.66 1532 1755.32 1532 1756 C1534.31 1756 1536.62 1756 1539 1756 C1539 1756.99 1539 1757.98 1539 1759 C1540.65 1759 1542.3 1759 1544 1759 C1544 1759.66 1544 1760.32 1544 1761 C1546.64 1761.33 1549.28 1761.66 1552 1762 C1552 1762.66 1552 1763.32 1552 1764 C1553.98 1764 1555.96 1764 1558 1764 C1558 1764.99 1558 1765.98 1558 1767 C1559.65 1767 1561.3 1767 1563 1767 C1563.33 1768.32 1563.66 1769.64 1564 1771 C1565.32 1771 1566.64 1771 1568 1771 C1568 1771.66 1568 1772.32 1568 1773 C1570.64 1773.33 1573.28 1773.66 1576 1774 C1576 1774.66 1576 1775.32 1576 1776 C1577.65 1776 1579.3 1776 1581 1776 C1581 1776.66 1581 1777.32 1581 1778 C1583.31 1778.33 1585.62 1778.66 1588 1779 C1588 1780.32 1588 1781.64 1588 1783 C1589.65 1783 1591.3 1783 1593 1783 C1593 1783.66 1593 1784.32 1593 1785 C1595.31 1785.33 1597.62 1785.66 1600 1786 C1600 1786.66 1600 1787.32 1600 1788 C1601.65 1788 1603.3 1788 1605 1788 C1605 1788.66 1605 1789.32 1605 1790 C1607.31 1790.33 1609.62 1790.66 1612 1791 C1612 1791.66 1612 1792.32 1612 1793 C1613.32 1793 1614.64 1793 1616 1793 C1616 1793.66 1616 1794.32 1616 1795 C1617.918125 1794.938125 1617.918125 1794.938125 1619.875 1794.875 C1622.0546875 1794.8046875 1622.0546875 1794.8046875 1624 1795 C1624.66 1795.66 1625.32 1796.32 1626 1797 C1626.99 1797.33 1627.98 1797.66 1629 1798 C1629 1798.66 1629 1799.32 1629 1800 C1629.66 1800 1630.32 1800 1631 1800 C1631 1800.66 1631 1801.32 1631 1802 C1633.31 1802 1635.62 1802 1638 1802 C1638.33 1802.99 1638.66 1803.98 1639 1805 C1640.32 1805 1641.64 1805 1643 1805 C1643 1805.66 1643 1806.32 1643 1807 C1645.31 1807.33 1647.62 1807.66 1650 1808 C1650 1808.66 1650 1809.32 1650 1810 C1652.31 1810 1654.62 1810 1657 1810 C1657.33 1811.32 1657.66 1812.64 1658 1814 C1660.97 1814.33 1663.94 1814.66 1667 1815 C1667 1815.66 1667 1816.32 1667 1817 C1667.99 1817 1668.98 1817 1670 1817 C1670 1817.66 1670 1818.32 1670 1819 C1671.65 1819 1673.3 1819 1675 1819 C1675 1819.99 1675 1820.98 1675 1822 C1676.65 1822 1678.3 1822 1680 1822 C1680 1822.66 1680 1823.32 1680 1824 C1681.32 1824 1682.64 1824 1684 1824 C1684 1824.66 1684 1825.32 1684 1826 C1685.093125 1825.979375 1686.18625 1825.95875 1687.3125 1825.9375 C1691 1826 1691 1826 1694 1827 C1694 1827.66 1694 1828.32 1694 1829 C1695.32 1829 1696.64 1829 1698 1829 C1698 1829.66 1698 1830.32 1698 1831 C1699.98 1831.33 1701.96 1831.66 1704 1832 C1704 1833.32 1704 1834.64 1704 1836 C1708.62 1836.33 1713.24 1836.66 1718 1837 C1718 1837.66 1718 1838.32 1718 1839 C1719.65 1839 1721.3 1839 1723 1839 C1723 1839.66 1723 1840.32 1723 1841 C1723.66 1841 1724.32 1841 1725 1841 C1725 1841.66 1725 1842.32 1725 1843 C1727.64 1843.33 1730.28 1843.66 1733 1844 C1733 1844.66 1733 1845.32 1733 1846 C1734.65 1846 1736.3 1846 1738 1846 C1738 1846.99 1738 1847.98 1738 1849 C1739.98 1849 1741.96 1849 1744 1849 C1744 1849.66 1744 1850.32 1744 1851 C1745.65 1851 1747.3 1851 1749 1851 C1749.33 1852.32 1749.66 1853.64 1750 1855 C1751.051875 1854.979375 1752.10375 1854.95875 1753.1875 1854.9375 C1756.32704904 1854.98896802 1758.96883396 1855.26517187 1762 1856 C1762 1856.66 1762 1857.32 1762 1858 C1763.32 1858 1764.64 1858 1766 1858 C1766 1858.66 1766 1859.32 1766 1860 C1768.31 1860.33 1770.62 1860.66 1773 1861 C1773 1861.66 1773 1862.32 1773 1863 C1774.65 1863 1776.3 1863 1778 1863 C1778 1863.66 1778 1864.32 1778 1865 C1780.31 1865.33 1782.62 1865.66 1785 1866 C1785 1866.66 1785 1867.32 1785 1868 C1786.65 1868 1788.3 1868 1790 1868 C1790 1868.66 1790 1869.32 1790 1870 C1790.99 1870 1791.98 1870 1793 1870 C1793 1870.66 1793 1871.32 1793 1872 C1796.3 1872.33 1799.6 1872.66 1803 1873 C1803 1873.66 1803 1874.32 1803 1875 C1804.32 1875 1805.64 1875 1807 1875 C1807.33 1875.66 1807.66 1876.32 1808 1877 C1811.02934491 1877.65772428 1811.02934491 1877.65772428 1814 1878 C1814 1878.66 1814 1879.32 1814 1880 C1815.98 1880 1817.96 1880 1820 1880 C1820 1880.66 1820 1881.32 1820 1882 C1820.66 1882 1821.32 1882 1822 1882 C1822 1882.66 1822 1883.32 1822 1884 C1824.97 1884.33 1827.94 1884.66 1831 1885 C1831 1885.66 1831 1886.32 1831 1887 C1831.99 1887 1832.98 1887 1834 1887 C1834 1887.66 1834 1888.32 1834 1889 C1835.093125 1888.979375 1836.18625 1888.95875 1837.3125 1888.9375 C1841 1889 1841 1889 1844 1890 C1844 1890.66 1844 1891.32 1844 1892 C1845.32 1892 1846.64 1892 1848 1892 C1848 1892.66 1848 1893.32 1848 1894 C1850.31 1894.33 1852.62 1894.66 1855 1895 C1855 1895.66 1855 1896.32 1855 1897 C1856.65 1897 1858.3 1897 1860 1897 C1860 1897.66 1860 1898.32 1860 1899 C1861.98 1899 1863.96 1899 1866 1899 C1866 1899.66 1866 1900.32 1866 1901 C1867.98 1901 1869.96 1901 1872 1901 C1872 1901.99 1872 1902.98 1872 1904 C1873.65 1904 1875.3 1904 1877 1904 C1877 1904.66 1877 1905.32 1877 1906 C1879.31 1906 1881.62 1906 1884 1906 C1884.33 1906.99 1884.66 1907.98 1885 1909 C1886.32 1909 1887.64 1909 1889 1909 C1889 1909.66 1889 1910.32 1889 1911 C1890.98 1911 1892.96 1911 1895 1911 C1895 1911.66 1895 1912.32 1895 1913 C1897.31 1913.33 1899.62 1913.66 1902 1914 C1902 1914.66 1902 1915.32 1902 1916 C1903.65 1916 1905.3 1916 1907 1916 C1907 1916.66 1907 1917.32 1907 1918 C1909.97 1918.33 1912.94 1918.66 1916 1919 C1916 1919.66 1916 1920.32 1916 1921 C1916.66 1921 1917.32 1921 1918 1921 C1918 1921.66 1918 1922.32 1918 1923 C1919.65 1923 1921.3 1923 1923 1923 C1923 1923.66 1923 1924.32 1923 1925 C1924.051875 1924.979375 1925.10375 1924.95875 1926.1875 1924.9375 C1929.32704904 1924.98896802 1931.96883396 1925.26517187 1935 1926 C1935 1926.66 1935 1927.32 1935 1928 C1936.65 1928 1938.3 1928 1940 1928 C1940 1928.99 1940 1929.98 1940 1931 C1941.65 1931 1943.3 1931 1945 1931 C1945 1931.66 1945 1932.32 1945 1933 C1947.31 1933 1949.62 1933 1952 1933 C1952 1933.66 1952 1934.32 1952 1935 C1953.65 1935.33 1955.3 1935.66 1957 1936 C1957 1936.66 1957 1937.32 1957 1938 C1959.31 1938 1961.62 1938 1964 1938 C1964 1938.66 1964 1939.32 1964 1940 C1964.99 1940 1965.98 1940 1967 1940 C1967 1940.66 1967 1941.32 1967 1942 C1969.97 1942.33 1972.94 1942.66 1976 1943 C1976 1943.66 1976 1944.32 1976 1945 C1977.65 1945 1979.3 1945 1981 1945 C1981 1945.66 1981 1946.32 1981 1947 C1983.31 1947.33 1985.62 1947.66 1988 1948 C1988 1948.66 1988 1949.32 1988 1950 C1988.99 1950 1989.98 1950 1991 1950 C1991 1950.66 1991 1951.32 1991 1952 C1992.65 1952 1994.3 1952 1996 1952 C1996 1952.66 1996 1953.32 1996 1954 C1997.65 1954.33 1999.3 1954.66 2001 1955 C2001 1955.66 2001 1956.32 2001 1957 C2002.65 1957 2004.3 1957 2006 1957 C2006 1957.66 2006 1958.32 2006 1959 C2007.0725 1958.979375 2008.145 1958.95875 2009.25 1958.9375 C2012.14790424 1958.9857984 2014.28612141 1959.13155885 2017 1960 C2017 1960.66 2017 1961.32 2017 1962 C2018.98 1962 2020.96 1962 2023 1962 C2023 1962.66 2023 1963.32 2023 1964 C2025.31 1964.33 2027.62 1964.66 2030 1965 C2030 1965.66 2030 1966.32 2030 1967 C2031.32 1967 2032.64 1967 2034 1967 C2034 1967.66 2034 1968.32 2034 1969 C2035.65 1969 2037.3 1969 2039 1969 C2039 1969.99 2039 1970.98 2039 1972 C2040.65 1972 2042.3 1972 2044 1972 C2044 1972.66 2044 1973.32 2044 1974 C2044.66 1974 2045.32 1974 2046 1974 C2046 1974.66 2046 1975.32 2046 1976 C2048.31 1976 2050.62 1976 2053 1976 C2053 1976.99 2053 1977.98 2053 1979 C2054.98 1979 2056.96 1979 2059 1979 C2059 1979.66 2059 1980.32 2059 1981 C2060.32 1981 2061.64 1981 2063 1981 C2063 1981.66 2063 1982.32 2063 1983 C2065.64 1983.33 2068.28 1983.66 2071 1984 C2071 1984.66 2071 1985.32 2071 1986 C2071.66 1986 2072.32 1986 2073 1986 C2073 1986.66 2073 1987.32 2073 1988 C2075.31 1988.33 2077.62 1988.66 2080 1989 C2080 1989.66 2080 1990.32 2080 1991 C2081.65 1991 2083.3 1991 2085 1991 C2085 1991.66 2085 1992.32 2085 1993 C2087.64 1993.33 2090.28 1993.66 2093 1994 C2093 1994.66 2093 1995.32 2093 1996 C2093.66 1996 2094.32 1996 2095 1996 C2095 1996.66 2095 1997.32 2095 1998 C2096.65 1998 2098.3 1998 2100 1998 C2100 1998.66 2100 1999.32 2100 2000 C2101.32 2000 2102.64 2000 2104 2000 C2104 2000.99 2104 2001.98 2104 2003 C2104.99 2003 2105.98 2003 2107 2003 C2107 2003.66 2107 2004.32 2107 2005 C2109.31 2005.33 2111.62 2005.66 2114 2006 C2114 2006.66 2114 2007.32 2114 2008 C2114.99 2008 2115.98 2008 2117 2008 C2117 2008.66 2117 2009.32 2117 2010 C2118.65 2010 2120.3 2010 2122 2010 C2122 2010.66 2122 2011.32 2122 2012 C2123.98 2012.33 2125.96 2012.66 2128 2013 C2128 2013.66 2128 2014.32 2128 2015 C2128.99 2015 2129.98 2015 2131 2015 C2131 2015.66 2131 2016.32 2131 2017 C2131.99 2017 2132.98 2017 2134 2017 C2134 2017.99 2134 2018.98 2134 2020 C2135.98 2020 2137.96 2020 2140 2020 C2140.33 2020.66 2140.66 2021.32 2141 2022 C2143.02463255 2022.65213292 2143.02463255 2022.65213292 2145 2023 C2145.495 2024.98 2145.495 2024.98 2146 2027 C2147.32 2027 2148.64 2027 2150 2027 C2150 2027.66 2150 2028.32 2150 2029 C2151.65 2029.33 2153.3 2029.66 2155 2030 C2155 2030.66 2155 2031.32 2155 2032 C2155.99 2032 2156.98 2032 2158 2032 C2158 2032.66 2158 2033.32 2158 2034 C2159.65 2034.33 2161.3 2034.66 2163 2035 C2163 2035.66 2163 2036.32 2163 2037 C2163.66 2037 2164.32 2037 2165 2037 C2165 2037.66 2165 2038.32 2165 2039 C2166.32 2039 2167.64 2039 2169 2039 C2169 2039.99 2169 2040.98 2169 2042 C2169.99 2042 2170.98 2042 2172 2042 C2172 2042.66 2172 2043.32 2172 2044 C2172.99 2044 2173.98 2044 2175 2044 C2175 2044.99 2175 2045.98 2175 2047 C2176.32 2047 2177.64 2047 2179 2047 C2179 2047.66 2179 2048.32 2179 2049 C2179.66 2049 2180.32 2049 2181 2049 C2181 2050.32 2181 2051.64 2181 2053 C2182.65 2053 2184.3 2053 2186 2053 C2186.33 2053.99 2186.66 2054.98 2187 2056 C2187.66 2056 2188.32 2056 2189 2056 C2189 2056.66 2189 2057.32 2189 2058 C2189.99 2058 2190.98 2058 2192 2058 C2192 2058.99 2192 2059.98 2192 2061 C2192.66 2061 2193.32 2061 2194 2061 C2194 2061.66 2194 2062.32 2194 2063 C2194.804375 2063.12375 2195.60875 2063.2475 2196.4375 2063.375 C2197.283125 2063.58125 2198.12875 2063.7875 2199 2064 C2219.27423104 2104.54846209 2200 2154.66544119 2200 2200 C1474 2200 748 2200 0 2200 C0 1474 0 748 0 0 Z " fill="#FEFEFE" transform="translate(0,0)"/>
<path d="M0 0 C0.66 0 1.32 0 2 0 C2.33 6.27 2.66 12.54 3 19 C3.66 19 4.32 19 5 19 C5.33 21.31 5.66 23.62 6 26 C3.92446352 26.5534764 2.15634036 27 0 27 C0 18.09 0 9.18 0 0 Z " fill="#D2D6E0" transform="translate(648,957)"/>
<path d="M0 0 C2.5 2.25 2.5 2.25 5 5 C5 6.32 5 7.64 5 9 C5.66 9 6.32 9 7 9 C7.12375 9.639375 7.2475 10.27875 7.375 10.9375 C7.58125 11.618125 7.7875 12.29875 8 13 C8.66 13.33 9.32 13.66 10 14 C10 15.65 10 17.3 10 19 C9.34 19 8.68 19 8 19 C7.67 20.32 7.34 21.64 7 23 C7 21.68 7 20.36 7 19 C6.34 19 5.68 19 5 19 C5 17.02 5 15.04 5 13 C4.34 13 3.68 13 3 13 C3 11.68 3 10.36 3 9 C2.34 9 1.68 9 1 9 C0.67 6.03 0.34 3.06 0 0 Z " fill="#CDD5DE" transform="translate(1481,1685)"/>
<path d="M0 0 C-1.375 1.5 -1.375 1.5 -3 3 C-3.66 3 -4.32 3 -5 3 C-5 3.66 -5 4.32 -5 5 C-3.948125 4.67 -2.89625 4.34 -1.8125 4 C1.38873357 3.16033218 3.7411008 2.80249096 7 3 C7 3.66 7 4.32 7 5 C5.35 5 3.7 5 2 5 C2 5.66 2 6.32 2 7 C4.475 7.495 4.475 7.495 7 8 C7 8.66 7 9.32 7 10 C5.02 10 3.04 10 1 10 C1 9.01 1 8.02 1 7 C-1.31 7 -3.62 7 -6 7 C-6 6.34 -6 5.68 -6 5 C-6.66 5 -7.32 5 -8 5 C-8 4.34 -8 3.68 -8 3 C-9.65 3 -11.3 3 -13 3 C-13 2.67 -13 2.34 -13 2 C-8.46298506 0.54815522 -4.81938524 -0.23509196 0 0 Z " fill="#D4DCE4" transform="translate(2052,1969)"/>
<path d="M0 0 C0.66 0 1.32 0 2 0 C2 6.6 2 13.2 2 20 C-0.64 20 -3.28 20 -6 20 C-4.68 19.67 -3.36 19.34 -2 19 C-2 17.35 -2 15.7 -2 14 C-1.34 14 -0.68 14 0 14 C0 9.38 0 4.76 0 0 Z " fill="#D7DADF" transform="translate(677,834)"/>
<path d="M0 0 C0.99 0 1.98 0 3 0 C2.67 1.32 2.34 2.64 2 4 C0.35 4 -1.3 4 -3 4 C-3 4.99 -3 5.98 -3 7 C-4.98 7 -6.96 7 -9 7 C-9.33 7.66 -9.66 8.32 -10 9 C-9.67 6.69 -9.34 4.38 -9 2 C-6.03 2 -3.06 2 0 2 C0 1.34 0 0.68 0 0 Z " fill="#D8DBE5" transform="translate(83,2008)"/>
<path d="M0 0 C0 1.65 0 3.3 0 5 C0.66 5 1.32 5 2 5 C2 3.68 2 2.36 2 1 C2.66 1 3.32 1 4 1 C4.33 2.32 4.66 3.64 5 5 C4.01 5.33 3.02 5.66 2 6 C2 7.98 2 9.96 2 12 C1.34 12 0.68 12 0 12 C-0.33 9.69 -0.66 7.38 -1 5 C-1.66 5 -2.32 5 -3 5 C-3 3.68 -3 2.36 -3 1 C-1 0 -1 0 0 0 Z M5 1 C5.66 1 6.32 1 7 1 C7 1.99 7 2.98 7 4 C6.34 4 5.68 4 5 4 C5 3.01 5 2.02 5 1 Z " fill="#CED3E4" transform="translate(1506,399)"/>
<path d="M0 0 C0.33 0 0.66 0 1 0 C1 2.97 1 5.94 1 9 C0.34 9 -0.32 9 -1 9 C-1 11.97 -1 14.94 -1 18 C-1.66 18 -2.32 18 -3 18 C-3 19.65 -3 21.3 -3 23 C-3.33 23 -3.66 23 -4 23 C-3.40546697 7.25512528 -3.40546697 7.25512528 0 0 Z " fill="#E7EDF1" transform="translate(1538,1057)"/>
<path d="M0 0 C1.20703125 1.70703125 1.20703125 1.70703125 1.20703125 4.70703125 C-1.10296875 4.37703125 -3.41296875 4.04703125 -5.79296875 3.70703125 C-5.79296875 3.04703125 -5.79296875 2.38703125 -5.79296875 1.70703125 C-7.44296875 1.70703125 -9.09296875 1.70703125 -10.79296875 1.70703125 C-10.79296875 1.04703125 -10.79296875 0.38703125 -10.79296875 -0.29296875 C-9.35886507 -0.5425088 -7.92036803 -0.76689517 -6.48046875 -0.98046875 C-5.67996094 -1.10808594 -4.87945313 -1.23570313 -4.0546875 -1.3671875 C-1.79296875 -1.29296875 -1.79296875 -1.29296875 0 0 Z " fill="#D7DBE5" transform="translate(1598.79296875,1781.29296875)"/>
<path d="M0 0 C0 6.27 0 12.54 0 19 C-0.66 19.33 -1.32 19.66 -2 20 C-1.98839844 19.38253906 -1.97679687 18.76507812 -1.96484375 18.12890625 C-1.90300337 12.32474456 -2.25721044 6.75661912 -3 1 C-1 0 -1 0 0 0 Z " fill="#C2C8D2" transform="translate(675,797)"/>
<path d="M0 0 C-2.05637612 2.78215593 -3.09792496 3.01688361 -6.625 3.625 C-7.73875 3.74875 -8.8525 3.8725 -10 4 C-10.33 4.33 -10.66 4.66 -11 5 C-13.33297433 5.04092937 -15.66705225 5.04241723 -18 5 C-18 4.34 -18 3.68 -18 3 C-15.69 3 -13.38 3 -11 3 C-11 2.34 -11 1.68 -11 1 C-7.27569643 0.30710631 -3.78916254 -0.11144596 0 0 Z " fill="#E6EEEF" transform="translate(1127,138)"/>
<path d="M0 0 C3 1 3 1 5 2 C5 2.66 5 3.32 5 4 C3.68 4 2.36 4 1 4 C1 4.66 1 5.32 1 6 C-1.64 6.33 -4.28 6.66 -7 7 C-5.68 6.67 -4.36 6.34 -3 6 C-3 4.68 -3 3.36 -3 2 C-2.01 1.34 -1.02 0.68 0 0 Z " fill="#CDD1DB" transform="translate(278,1919)"/>
<path d="M0 0 C0.33 0 0.66 0 1 0 C1.02895976 3.12498063 1.04678483 6.2499269 1.0625 9.375 C1.07087891 10.26445313 1.07925781 11.15390625 1.08789062 12.0703125 C1.09111328 12.92109375 1.09433594 13.771875 1.09765625 14.6484375 C1.10289307 15.43395996 1.10812988 16.21948242 1.11352539 17.02880859 C1 19 1 19 0 21 C-0.66 21 -1.32 21 -2 21 C-2 18.36 -2 15.72 -2 13 C-1.34 13 -0.68 13 0 13 C0 8.71 0 4.42 0 0 Z " fill="#D9DBE2" transform="translate(1546,1011)"/>
<path d="M0 0 C0.66 0 1.32 0 2 0 C2 0.99 2 1.98 2 3 C4.64 3 7.28 3 10 3 C9.67 3.99 9.34 4.98 9 6 C6.03 6 3.06 6 0 6 C0 4.02 0 2.04 0 0 Z " fill="#C8CBD2" transform="translate(1525,848)"/>
<path d="M0 0 C1.2380014 3.57644848 0.74926071 6.33694766 0 10 C-0.66 10 -1.32 10 -2 10 C-2 12.31 -2 14.62 -2 17 C-2.66 17 -3.32 17 -4 17 C-4 14.03 -4 11.06 -4 8 C-3.34 8 -2.68 8 -2 8 C-1.855625 7.236875 -1.71125 6.47375 -1.5625 5.6875 C-1 3 -1 3 0 0 Z " fill="#DEE0E7" transform="translate(684,438)"/>
<path d="M0 0 C0.66 0 1.32 0 2 0 C3.31626692 3.61973402 4 6.09567131 4 10 C2.35 10.33 0.7 10.66 -1 11 C-0.67 7.37 -0.34 3.74 0 0 Z " fill="#CDD0D9" transform="translate(1465,1261)"/>
<path d="M0 0 C1.65 0 3.3 0 5 0 C5 0.66 5 1.32 5 2 C3.68 2 2.36 2 1 2 C1 3.32 1 4.64 1 6 C0.01 6 -0.98 6 -2 6 C-2 5.34 -2 4.68 -2 4 C-3.65 4 -5.3 4 -7 4 C-7 3.34 -7 2.68 -7 2 C-4.69 2 -2.38 2 0 2 C0 1.34 0 0.68 0 0 Z " fill="#D7DDE6" transform="translate(1925,1919)"/>
<path d="M0 0 C2.31 0 4.62 0 7 0 C7 1.32 7 2.64 7 4 C4.03 4 1.06 4 -2 4 C-1.34 2.68 -0.68 1.36 0 0 Z " fill="#C4C8D1" transform="translate(1206,115)"/>
<path d="M0 0 C2.64 0.33 5.28 0.66 8 1 C8 1.66 8 2.32 8 3 C9.65 3 11.3 3 13 3 C13 3.66 13 4.32 13 5 C10.69 5 8.38 5 6 5 C6 4.34 6 3.68 6 3 C4.35 3 2.7 3 1 3 C0.67 2.01 0.34 1.02 0 0 Z " fill="#DFE1E9" transform="translate(2000,1954)"/>
<path d="M0 0 C0.9075 0.103125 1.815 0.20625 2.75 0.3125 C2.42 1.3025 2.09 2.2925 1.75 3.3125 C1.09 3.3125 0.43 3.3125 -0.25 3.3125 C-0.25 3.9725 -0.25 4.6325 -0.25 5.3125 C-2.56 5.3125 -4.87 5.3125 -7.25 5.3125 C-4.05 0.38942308 -4.05 0.38942308 0 0 Z " fill="#C0C8D4" transform="translate(453.25,1847.6875)"/>
<path d="M0 0 C1.65 0 3.3 0 5 0 C5 0.66 5 1.32 5 2 C3.35 2 1.7 2 0 2 C-0.33 2.99 -0.66 3.98 -1 5 C-1.66 5 -2.32 5 -3 5 C-3 5.66 -3 6.32 -3 7 C-4.65 7 -6.3 7 -8 7 C-8 6.34 -8 5.68 -8 5 C-6.576875 4.87625 -6.576875 4.87625 -5.125 4.75 C-1.89538209 4.34925077 -1.89538209 4.34925077 -0.625 1.9375 C-0.41875 1.298125 -0.2125 0.65875 0 0 Z " fill="#DFE2EB" transform="translate(105,1996)"/>
<path d="M0 0 C1.98 0 3.96 0 6 0 C6 0.66 6 1.32 6 2 C3.29283758 2.90238747 1.76223232 3.11851302 -1.01171875 3.09765625 C-2.14770508 3.09282227 -2.14770508 3.09282227 -3.30664062 3.08789062 C-4.09232422 3.07951172 -4.87800781 3.07113281 -5.6875 3.0625 C-6.48478516 3.05798828 -7.28207031 3.05347656 -8.10351562 3.04882812 C-10.06904257 3.0370585 -12.03453085 3.01912348 -14 3 C-14 2.67 -14 2.34 -14 2 C-9.38 2 -4.76 2 0 2 C0 1.34 0 0.68 0 0 Z " fill="#ECEBF3" transform="translate(1244,112)"/>
<path d="M0 0 C0.99 0 1.98 0 3 0 C3 0.66 3 1.32 3 2 C2.34 2 1.68 2 1 2 C1 2.66 1 3.32 1 4 C-0.65 4 -2.3 4 -4 4 C-4 4.66 -4 5.32 -4 6 C-4.99 6 -5.98 6 -7 6 C-7 4.68 -7 3.36 -7 2 C-4.69 2 -2.38 2 0 2 C0 1.34 0 0.68 0 0 Z " fill="#DEE2E7" transform="translate(387,1878)"/>
<path d="M0 0 C0.66 0 1.32 0 2 0 C2.33 1.32 2.66 2.64 3 4 C3.66 4 4.32 4 5 4 C5 5.65 5 7.3 5 9 C5.66 9.33 6.32 9.66 7 10 C5.35 10 3.7 10 2 10 C2 8.02 2 6.04 2 4 C1.34 4 0.68 4 0 4 C0 2.68 0 1.36 0 0 Z " fill="#D4DAE2" transform="translate(788,1356)"/>
<path d="M0 0 C0.66 0 1.32 0 2 0 C2 2.97 2 5.94 2 9 C-0.31 9.33 -2.62 9.66 -5 10 C-4.01 9.67 -3.02 9.34 -2 9 C-2 8.34 -2 7.68 -2 7 C-1.34 7 -0.68 7 0 7 C0 4.69 0 2.38 0 0 Z " fill="#E8EDEE" transform="translate(781,1571)"/>
<path d="M0 0 C0.66 0 1.32 0 2 0 C2.33 2.64 2.66 5.28 3 8 C2.01 8.33 1.02 8.66 0 9 C-0.33 9.66 -0.66 10.32 -1 11 C-1.125 3.375 -1.125 3.375 0 0 Z " fill="#DAE0E5" transform="translate(1472,1238)"/>
<path d="M0 0 C0.99 0.33 1.98 0.66 3 1 C3.8125 2.875 3.8125 2.875 4 5 C3.01 6.485 3.01 6.485 2 8 C0.68 8 -0.64 8 -2 8 C-2 7.01 -2 6.02 -2 5 C-1.34 4.67 -0.68 4.34 0 4 C0 2.68 0 1.36 0 0 Z " fill="#C0C5D8" transform="translate(1317,208)"/>
<path d="M0 0 C0.99 0 1.98 0 3 0 C3 0.66 3 1.32 3 2 C4.65 2 6.3 2 8 2 C8 2.66 8 3.32 8 4 C8.66 4 9.32 4 10 4 C10 4.66 10 5.32 10 6 C8.68 6 7.36 6 6 6 C6 5.34 6 4.68 6 4 C4.68 4 3.36 4 2 4 C2 3.34 2 2.68 2 2 C1.34 2 0.68 2 0 2 C0 1.34 0 0.68 0 0 Z " fill="#E3E7ED" transform="translate(1715,1837)"/>
<path d="M0 0 C0.99 0 1.98 0 3 0 C3.33 0.99 3.66 1.98 4 3 C4.99 3 5.98 3 7 3 C7 4.98 7 6.96 7 9 C6.34 9 5.68 9 5 9 C5 7.68 5 6.36 5 5 C4.34 5 3.68 5 3 5 C2.67 5.66 2.34 6.32 2 7 C2 5.35 2 3.7 2 2 C1.34 2 0.68 2 0 2 C0 1.34 0 0.68 0 0 Z " fill="#EFF4F4" transform="translate(793,1363)"/>
<path d="M0 0 C0.33 0 0.66 0 1 0 C2.55608908 10.82953887 2.55608908 10.82953887 0 15 C-0.99 15.495 -0.99 15.495 -2 16 C-2 14.02 -2 12.04 -2 10 C-1.34 10 -0.68 10 0 10 C0 6.7 0 3.4 0 0 Z " fill="#CBD3DB" transform="translate(1539,1056)"/>
<path d="M0 0 C1.32 0 2.64 0 4 0 C4 0.66 4 1.32 4 2 C4.99 2.33 5.98 2.66 7 3 C7 3.66 7 4.32 7 5 C7.66 5 8.32 5 9 5 C9 5.66 9 6.32 9 7 C7.68 7 6.36 7 5 7 C4.67 5.68 4.34 4.36 4 3 C2.68 2.67 1.36 2.34 0 2 C0 1.34 0 0.68 0 0 Z " fill="#D8DDE3" transform="translate(1436,315)"/>
<path d="M0 0 C2.97 0 5.94 0 9 0 C8.34 1.32 7.68 2.64 7 4 C6.01 4 5.02 4 4 4 C4 3.34 4 2.68 4 2 C2.68 2 1.36 2 0 2 C0 1.34 0 0.68 0 0 Z " fill="#CED5DE" transform="translate(2059,1979)"/>
<path d="M0 0 C0.66 0 1.32 0 2 0 C2 1.32 2 2.64 2 4 C-1.63 4.33 -5.26 4.66 -9 5 C-6 2 -6 2 -2.8125 1.8125 C-1.4203125 1.9053125 -1.4203125 1.9053125 0 2 C0 1.34 0 0.68 0 0 Z " fill="#E1E5EC" transform="translate(158,1972)"/>
<path d="M0 0 C0.33 0 0.66 0 1 0 C0.88655624 2.1464753 0.75893655 4.29220592 0.625 6.4375 C0.52058594 8.22994141 0.52058594 8.22994141 0.4140625 10.05859375 C0.27742188 11.02925781 0.14078125 11.99992187 0 13 C-0.99 13.495 -0.99 13.495 -2 14 C-2 10.7 -2 7.4 -2 4 C-1.34 4 -0.68 4 0 4 C0 2.68 0 1.36 0 0 Z " fill="#ECEFF4" transform="translate(1406,1373)"/>
<path d="M0 0 C0.66 0 1.32 0 2 0 C2 2.31 2 4.62 2 7 C2.66 7 3.32 7 4 7 C4 7.99 4 8.98 4 10 C2.68 9.67 1.36 9.34 0 9 C0 6.03 0 3.06 0 0 Z " fill="#D5DAE4" transform="translate(663,1056)"/>
<path d="M0 0 C0.66 0 1.32 0 2 0 C2 0.66 2 1.32 2 2 C2.66 2 3.32 2 4 2 C4 2.66 4 3.32 4 4 C4.99 4.33 5.98 4.66 7 5 C6.67 6.32 6.34 7.64 6 9 C6 8.34 6 7.68 6 7 C4.68 6.67 3.36 6.34 2 6 C2 5.34 2 4.68 2 4 C1.34 4 0.68 4 0 4 C0 2.68 0 1.36 0 0 Z " fill="#EAEAF5" transform="translate(1552,861)"/>
<path d="M0 0 C0.66 0 1.32 0 2 0 C2 1.32 2 2.64 2 4 C1.34 4 0.68 4 0 4 C0 4.66 0 5.32 0 6 C-2.31 6.33 -4.62 6.66 -7 7 C-6.34 6.67 -5.68 6.34 -5 6 C-5 5.34 -5 4.68 -5 4 C-3.68 4 -2.36 4 -1 4 C-0.67 2.68 -0.34 1.36 0 0 Z " fill="#EBEEF6" transform="translate(40,2035)"/>
<path d="M0 0 C1.32 0 2.64 0 4 0 C2.25 3.875 2.25 3.875 0 5 C-1.67654729 4.72057545 -3.34608154 4.39171753 -5 4 C-5 3.34 -5 2.68 -5 2 C-3.35 2 -1.7 2 0 2 C0 1.34 0 0.68 0 0 Z " fill="#E9ECF3" transform="translate(371,1885)"/>
<path d="M0 0 C0.7425 0.0825 1.485 0.165 2.25 0.25 C1.92 1.24 1.59 2.23 1.25 3.25 C-0.07 3.25 -1.39 3.25 -2.75 3.25 C-2.75 3.91 -2.75 4.57 -2.75 5.25 C-4.07 4.92 -5.39 4.59 -6.75 4.25 C-3.42692308 0.31153846 -3.42692308 0.31153846 0 0 Z " fill="#C3C8D2" transform="translate(641.75,1763.75)"/>
<path d="M0 0 C1.65 0 3.3 0 5 0 C5 0.66 5 1.32 5 2 C5.66 2 6.32 2 7 2 C7 2.66 7 3.32 7 4 C7.66 4 8.32 4 9 4 C9 4.66 9 5.32 9 6 C7.68 6 6.36 6 5 6 C4.67 4.68 4.34 3.36 4 2 C2.68 2 1.36 2 0 2 C0 1.34 0 0.68 0 0 Z " fill="#DDE2E9" transform="translate(1501,1738)"/>
<path d="M0 0 C1.46726798 3.81489674 0.43336419 6.29011622 -1 10 C-1.99 9.67 -2.98 9.34 -4 9 C-4 7.68 -4 6.36 -4 5 C-3.34 5 -2.68 5 -2 5 C-2 4.01 -2 3.02 -2 2 C-1.34 2 -0.68 2 0 2 C0 1.34 0 0.68 0 0 Z " fill="#D2D5DC" transform="translate(1423,1344)"/>
<path d="M0 0 C0.66 0 1.32 0 2 0 C2 2.31 2 4.62 2 7 C2.66 7 3.32 7 4 7 C4 7.66 4 8.32 4 9 C2.68 9 1.36 9 0 9 C-1.125 2.25 -1.125 2.25 0 0 Z " fill="#D2D6DF" transform="translate(714,1185)"/>
<path d="M0 0 C0.33 1.32 0.66 2.64 1 4 C0.01 4.33 -0.98 4.66 -2 5 C-2 5.66 -2 6.32 -2 7 C-2.66 7 -3.32 7 -4 7 C-4 7.66 -4 8.32 -4 9 C-4.66 9 -5.32 9 -6 9 C-6 7.68 -6 6.36 -6 5 C-4.68 4.67 -3.36 4.34 -2 4 C-2 3.34 -2 2.68 -2 2 C-1.34 2 -0.68 2 0 2 C0 1.34 0 0.68 0 0 Z " fill="#E5E8EF" transform="translate(650,861)"/>
<path d="M0 0 C1.65 0 3.3 0 5 0 C5 0.66 5 1.32 5 2 C3.68 2 2.36 2 1 2 C1 2.66 1 3.32 1 4 C-0.98 4.33 -2.96 4.66 -5 5 C-4.67 4.01 -4.34 3.02 -4 2 C-2.68 2 -1.36 2 0 2 C0 1.34 0 0.68 0 0 Z " fill="#E0E4E8" transform="translate(573,1798)"/>
<path d="M0 0 C0.66 0 1.32 0 2 0 C4.14285714 7.42857143 4.14285714 7.42857143 5 11 C4.01 11 3.02 11 2 11 C2 8.69 2 6.38 2 4 C1.34 4 0.68 4 0 4 C0 2.68 0 1.36 0 0 Z " fill="#E8ECEF" transform="translate(706,1151)"/>
<path d="M0 0 C1.32 0 2.64 0 4 0 C4.33 0.66 4.66 1.32 5 2 C7.52733235 2.65555119 7.52733235 2.65555119 10 3 C10 3.66 10 4.32 10 5 C5.75776898 5.3636198 3.41831915 4.5393228 0 2 C0 1.34 0 0.68 0 0 Z " fill="#CDD1E1" transform="translate(675,1102)"/>
<path d="M0 0 C1.32 0 2.64 0 4 0 C4 0.66 4 1.32 4 2 C4.99 2 5.98 2 7 2 C7 2.66 7 3.32 7 4 C4.69 4 2.38 4 0 4 C0 2.68 0 1.36 0 0 Z " fill="#DEE4EB" transform="translate(1704,1832)"/>
<path d="M0 0 C0.33 0 0.66 0 1 0 C1.98248524 4.0527516 2.08159574 7.83861737 2 12 C1.67 10.68 1.34 9.36 1 8 C0.34 8 -0.32 8 -1 8 C-1.04241723 5.66705225 -1.04092937 3.33297433 -1 1 C-0.67 0.67 -0.34 0.34 0 0 Z " fill="#EAEEF4" transform="translate(724,1213)"/>
<path d="M0 0 C0 0.99 0 1.98 0 3 C-2.64 2.67 -5.28 2.34 -8 2 C-8 1.34 -8 0.68 -8 0 C-4.71303767 -0.79953138 -3.28976808 -1.09658936 0 0 Z " fill="#D2D5DF" transform="translate(1830,1882)"/>
<path d="M0 0 C1.32 0 2.64 0 4 0 C4 0.66 4 1.32 4 2 C3.34 2 2.68 2 2 2 C2.33 2.99 2.66 3.98 3 5 C1.02 5.66 -0.96 6.32 -3 7 C-3 6.34 -3 5.68 -3 5 C-2.34 4.67 -1.68 4.34 -1 4 C-0.34786708 1.97536745 -0.34786708 1.97536745 0 0 Z " fill="#DCE0E6" transform="translate(1308,134)"/>
<path d="M0 0 C1.65 0 3.3 0 5 0 C4.67 0.66 4.34 1.32 4 2 C3.34 2 2.68 2 2 2 C2 2.66 2 3.32 2 4 C2.99 4.33 3.98 4.66 5 5 C3.35 5 1.7 5 0 5 C-0.33 4.01 -0.66 3.02 -1 2 C-0.67 1.34 -0.34 0.68 0 0 Z " fill="#F0F3F6" transform="translate(185,1960)"/>
<path d="M0 0 C0.99 0.33 1.98 0.66 3 1 C3 2.65 3 4.3 3 6 C3.66 6 4.32 6 5 6 C5 6.99 5 7.98 5 9 C4.34 9 3.68 9 3 9 C2.67 9.66 2.34 10.32 2 11 C2 8.03 2 5.06 2 2 C1.34 2 0.68 2 0 2 C0 1.34 0 0.68 0 0 Z " fill="#EDF0F4" transform="translate(718,1197)"/>
<path d="M0 0 C0.66 0 1.32 0 2 0 C2.33 3.3 2.66 6.6 3 10 C2.01 9.34 1.02 8.68 0 8 C-0.40843923 5.28796348 -0.13336867 2.7562858 0 0 Z " fill="#D1D9DC" transform="translate(660,1039)"/>
<path d="M0 0 C0.66 0 1.32 0 2 0 C2 1.65 2 3.3 2 5 C1.34 5 0.68 5 0 5 C0 5.66 0 6.32 0 7 C-0.66 7 -1.32 7 -2 7 C-1.125 2.25 -1.125 2.25 0 0 Z " fill="#D5D6E0" transform="translate(747,1286)"/>
<path d="M0 0 C0.66 0 1.32 0 2 0 C2 1.32 2 2.64 2 4 C1.34 4 0.68 4 0 4 C0 6.97 0 9.94 0 13 C-0.33 13 -0.66 13 -1 13 C-1.02696365 11.20841511 -1.04637917 9.41671527 -1.0625 7.625 C-1.07410156 6.62726563 -1.08570313 5.62953125 -1.09765625 4.6015625 C-1 2 -1 2 0 0 Z " fill="#E6E9F0" transform="translate(1501,1126)"/>
<path d="M0 0 C0.33 0 0.66 0 1 0 C1 2.64 1 5.28 1 8 C0.01 8 -0.98 8 -2 8 C-2.20086443 4.28400809 -2.1519437 3.22791555 0 0 Z " fill="#EDF1F5" transform="translate(1551,976)"/>
<path d="M0 0 C0.6875 1.6875 0.6875 1.6875 1 4 C-0.3125 6.75 -0.3125 6.75 -2 9 C-2.66 9 -3.32 9 -4 9 C-4 8.34 -4 7.68 -4 7 C-3.34 7 -2.68 7 -2 7 C-2 5.35 -2 3.7 -2 2 C-1.34 2 -0.68 2 0 2 C0 1.34 0 0.68 0 0 Z " fill="#E7EAF4" transform="translate(713,376)"/>
<path d="M0 0 C1.32 0 2.64 0 4 0 C4 0.66 4 1.32 4 2 C3.34 2 2.68 2 2 2 C1.731875 2.639375 1.46375 3.27875 1.1875 3.9375 C0 6 0 6 -3 7 C-3 6.34 -3 5.68 -3 5 C-2.34 4.67 -1.68 4.34 -1 4 C-0.34786708 1.97536745 -0.34786708 1.97536745 0 0 Z " fill="#E6ECF3" transform="translate(772,308)"/>
<path d="M0 0 C0.66 0 1.32 0 2 0 C2 0.66 2 1.32 2 2 C3.65 2 5.3 2 7 2 C7 2.66 7 3.32 7 4 C4.69 4 2.38 4 0 4 C0 2.68 0 1.36 0 0 Z " fill="#E3EAF1" transform="translate(2032,1967)"/>
<path d="M0 0 C0.66 0 1.32 0 2 0 C2 1.32 2 2.64 2 4 C-0.31 4 -2.62 4 -5 4 C-5 3.34 -5 2.68 -5 2 C-3.35 2 -1.7 2 0 2 C0 1.34 0 0.68 0 0 Z " fill="#E9EBED" transform="translate(170,1967)"/>
<path d="M0 0 C1.65 0 3.3 0 5 0 C5 0.66 5 1.32 5 2 C4.01 2 3.02 2 2 2 C2 2.66 2 3.32 2 4 C0.68 4 -0.64 4 -2 4 C-2 3.34 -2 2.68 -2 2 C-1.34 2 -0.68 2 0 2 C0 1.34 0 0.68 0 0 Z " fill="#DDE1E9" transform="translate(310,1909)"/>
<path d="M0 0 C1.32 0 2.64 0 4 0 C4 0.66 4 1.32 4 2 C3.34 2 2.68 2 2 2 C2 2.66 2 3.32 2 4 C0.35 4 -1.3 4 -3 4 C-3 3.34 -3 2.68 -3 2 C-2.01 2 -1.02 2 0 2 C0 1.34 0 0.68 0 0 Z " fill="#E7EBF2" transform="translate(453,1851)"/>
<path d="M0 0 C2.31 0 4.62 0 7 0 C7 0.66 7 1.32 7 2 C5.35 2 3.7 2 2 2 C2 2.66 2 3.32 2 4 C1.34 4 0.68 4 0 4 C0 2.68 0 1.36 0 0 Z " fill="#E0E6EC" transform="translate(598,1786)"/>
<path d="M0 0 C1.32 0 2.64 0 4 0 C4 0.66 4 1.32 4 2 C3.34 2 2.68 2 2 2 C2 2.99 2 3.98 2 5 C1.01 5 0.02 5 -1 5 C-0.67 3.35 -0.34 1.7 0 0 Z " fill="#D2D7E2" transform="translate(1540,1754)"/>
<path d="M0 0 C2.31 0 4.62 0 7 0 C7 1.32 7 2.64 7 4 C6.34 4 5.68 4 5 4 C5 3.34 5 2.68 5 2 C3.35 2 1.7 2 0 2 C0 1.34 0 0.68 0 0 Z " fill="#E0E4EA" transform="translate(1527,1752)"/>
<path d="M0 0 C1.32 0 2.64 0 4 0 C4 0.99 4 1.98 4 3 C3.34 3 2.68 3 2 3 C2 3.99 2 4.98 2 6 C1.34 6 0.68 6 0 6 C0 4.02 0 2.04 0 0 Z " fill="#D2D4DE" transform="translate(709,1715)"/>
<path d="M0 0 C1.32 0.66 2.64 1.32 4 2 C3.01 2 2.02 2 1 2 C1 2.66 1 3.32 1 4 C0.34 4 -0.32 4 -1 4 C-1 4.66 -1 5.32 -1 6 C-1.66 6 -2.32 6 -3 6 C-3 4.68 -3 3.36 -3 2 C-2.01 1.34 -1.02 0.68 0 0 Z " fill="#C4C5D3" transform="translate(741,1586)"/>
<path d="M0 0 C0.99 0.33 1.98 0.66 3 1 C3 2.98 3 4.96 3 7 C2.67 6.34 2.34 5.68 2 5 C1.34 5 0.68 5 0 5 C0 4.34 0 3.68 0 3 C-0.99 2.67 -1.98 2.34 -3 2 C-2.01 1.34 -1.02 0.68 0 0 Z " fill="#D1D4E2" transform="translate(1380,264)"/>
<path d="M0 0 C0.66 0 1.32 0 2 0 C3.09658936 3.28976808 2.79953138 4.71303767 2 8 C1.34 8 0.68 8 0 8 C0 5.36 0 2.72 0 0 Z " fill="#C5CACD" transform="translate(1,2058)"/>
<path d="M0 0 C-0.33 0.66 -0.66 1.32 -1 2 C-3.31 2 -5.62 2 -8 2 C-8 1.34 -8 0.68 -8 0 C-4.71303767 -0.79953138 -3.28976808 -1.09658936 0 0 Z " fill="#E4E9F1" transform="translate(424,1866)"/>
<path d="M0 0 C0.66 0 1.32 0 2 0 C2 0.99 2 1.98 2 3 C1.34 3 0.68 3 0 3 C0 4.65 0 6.3 0 8 C-0.99 8 -1.98 8 -3 8 C-3 7.34 -3 6.68 -3 6 C-2.34 6 -1.68 6 -1 6 C-1.0309375 4.7934375 -1.0309375 4.7934375 -1.0625 3.5625 C-1 1 -1 1 0 0 Z " fill="#D0D5DF" transform="translate(702,1732)"/>
<path d="M0 0 C0.33 0 0.66 0 1 0 C1 2.31 1 4.62 1 7 C0.01 7 -0.98 7 -2 7 C-2 5.35 -2 3.7 -2 2 C-1.34 2 -0.68 2 0 2 C0 1.34 0 0.68 0 0 Z " fill="#C4C5D0" transform="translate(1493,1709)"/>
<path d="M0 0 C2.475 0.99 2.475 0.99 5 2 C5 4.31 5 6.62 5 9 C4.67 9 4.34 9 4 9 C4 7.02 4 5.04 4 3 C2.68 3 1.36 3 0 3 C0 2.01 0 1.02 0 0 Z " fill="#D7DAE2" transform="translate(1506,1104)"/>
<path d="M0 0 C0.33 0.66 0.66 1.32 1 2 C1.99 2.33 2.98 2.66 4 3 C3 4 3 4 -0.5625 4.0625 C-1.696875 4.041875 -2.83125 4.02125 -4 4 C-4 3.34 -4 2.68 -4 2 C-2.68 2 -1.36 2 0 2 C0 1.34 0 0.68 0 0 Z " fill="#D0D5DF" transform="translate(1522,1100)"/>
<path d="M0 0 C0.66 0 1.32 0 2 0 C2.33 2.31 2.66 4.62 3 7 C2.01 7.33 1.02 7.66 0 8 C0 5.36 0 2.72 0 0 Z " fill="#E7EAEE" transform="translate(651,976)"/>
<path d="M0 0 C0.99 0 1.98 0 3 0 C3 0.99 3 1.98 3 3 C2.34 3 1.68 3 1 3 C1 4.32 1 5.64 1 7 C0.01 7 -0.98 7 -2 7 C-2 6.34 -2 5.68 -2 5 C-1.34 5 -0.68 5 0 5 C0 3.35 0 1.7 0 0 Z " fill="#E3E9E9" transform="translate(749,329)"/>
<path d="M0 0 C-0.33 1.32 -0.66 2.64 -1 4 C-1.66 4 -2.32 4 -3 4 C-3 3.34 -3 2.68 -3 2 C-3.99 2 -4.98 2 -6 2 C-6 1.34 -6 0.68 -6 0 C-3 -1 -3 -1 0 0 Z " fill="#D6DBE3" transform="translate(1412,289)"/>
<path d="M0 0 C0.99 0 1.98 0 3 0 C2.3125 1.9375 2.3125 1.9375 1 4 C-1.625 4.75 -1.625 4.75 -4 5 C-4 4.34 -4 3.68 -4 3 C-2.68 3 -1.36 3 0 3 C0 2.01 0 1.02 0 0 Z " fill="#EAEAF3" transform="translate(817,274)"/>
<path d="M0 0 C0.99 0 1.98 0 3 0 C2.3125 1.9375 2.3125 1.9375 1 4 C-1.625 4.75 -1.625 4.75 -4 5 C-4 4.34 -4 3.68 -4 3 C-2.68 3 -1.36 3 0 3 C0 2.01 0 1.02 0 0 Z " fill="#E7EEF4" transform="translate(824,269)"/>
<path d="M0 0 C1.65 0 3.3 0 5 0 C5 1.65 5 3.3 5 5 C4.01 4.67 3.02 4.34 2 4 C2 3.34 2 2.68 2 2 C1.34 2 0.68 2 0 2 C0 1.34 0 0.68 0 0 Z " fill="#BFC6D0" transform="translate(1368,255)"/>
<path d="M0 0 C0.66 0 1.32 0 2 0 C2 0.66 2 1.32 2 2 C3.32 2 4.64 2 6 2 C5.67 2.99 5.34 3.98 5 5 C3.35 4.67 1.7 4.34 0 4 C0 2.68 0 1.36 0 0 Z " fill="#D7DCE4" transform="translate(1291,192)"/>
</svg>
