<?xml version="1.0" encoding="UTF-8"?>
<svg version="1.1" xmlns="http://www.w3.org/2000/svg" width="512" height="512">
<path d="M0 0 C1.59698227 -0.00744736 1.59698227 -0.00744736 3.22622681 -0.01504517 C6.73236756 -0.02959229 10.23846299 -0.03645822 13.74462891 -0.04199219 C14.9504726 -0.04481956 16.1563163 -0.04764694 17.39870071 -0.05056 C23.78663602 -0.06552659 30.17454891 -0.0747706 36.5625 -0.07910156 C43.11621307 -0.08456619 49.66971629 -0.10855919 56.22336388 -0.13707352 C61.30075652 -0.15583187 66.37810009 -0.16091259 71.45552444 -0.16243744 C73.86890427 -0.16543745 76.28228379 -0.17337457 78.69562912 -0.18662262 C95.52765138 -0.27238793 112.18154657 0.12562346 128.22119141 5.84863281 C128.95289551 6.10209473 129.68459961 6.35555664 130.43847656 6.61669922 C163.89250587 18.6278702 190.22929215 43.16382669 205.34619141 75.18066406 C213.64128102 93.55285119 216.31338345 112.36574168 216.44628906 132.30517578 C216.46285916 134.12236325 216.49016327 135.93948527 216.52832031 137.75634766 C216.94769389 157.9045129 216.94769389 157.9045129 211.09619141 165.16113281 C206.46429127 169.49347956 202.16248811 171.28424791 195.87118816 171.29256058 C194.23754961 171.29832229 194.23754961 171.29832229 192.57090825 171.30420041 C190.76919131 171.30290069 190.76919131 171.30290069 188.93107605 171.30157471 C187.65867783 171.30454583 186.38627962 171.30751695 185.07532388 171.31057811 C181.53639055 171.31865626 177.99747749 171.32043813 174.45853603 171.32117558 C170.64452689 171.32302471 166.83052831 171.33057132 163.01652527 171.33731079 C154.67359237 171.35090025 146.33066428 171.35691974 137.98772216 171.36132145 C132.77994863 171.36408274 127.57217695 171.36831988 122.36440468 171.37282562 C107.9500792 171.38501891 93.5357552 171.39531822 79.12142467 171.39870071 C77.73725471 171.39903006 77.73725471 171.39903006 76.32512172 171.39936607 C74.93761164 171.39969348 74.93761164 171.39969348 73.52207106 171.40002751 C71.64760792 171.40047098 69.77314478 171.40091755 67.89868164 171.40136719 C66.50397948 171.40169933 66.50397948 171.40169933 65.08110151 171.40203819 C50.01185013 171.40598698 34.94264707 171.42344322 19.87341436 171.44672671 C4.40793877 171.47042988 -11.05751256 171.48290209 -26.52300662 171.48406863 C-35.20869655 171.48498596 -43.8943235 171.49075272 -52.57999611 171.50888824 C-59.97545883 171.52427525 -67.3708391 171.52941798 -74.76631478 171.52115014 C-78.54021265 171.5172387 -82.31394444 171.51819718 -86.08782196 171.53220749 C-90.17791589 171.54725301 -94.26763423 171.53909463 -98.35774231 171.52862549 C-99.55219477 171.53668189 -100.74664723 171.5447383 -101.97729522 171.55303884 C-109.26407368 171.50926269 -113.79719675 170.74997602 -119.52880859 165.97363281 C-124.73954938 159.80301872 -126.51506119 154.22666554 -126.39990234 146.22753906 C-126.40135757 145.3913353 -126.40281281 144.55513153 -126.40431213 143.69358826 C-126.40266076 141.92956042 -126.39118533 140.16551702 -126.37036133 138.40161133 C-126.34171995 135.76155018 -126.34970705 133.12354441 -126.36279297 130.48339844 C-126.31810107 94.00304824 -112.6960234 61.09967572 -87.00146484 35.19628906 C-63.9751273 12.75977345 -32.01269269 0.03613832 0 0 Z " fill="#454545" transform="translate(210.90380859375,276.8388671875)"/>
<path d="M0 0 C19.56226986 16.51448048 31.5169543 36.13543247 34.45605469 61.77197266 C36.27978814 85.75531671 28.85929969 107.11007544 14.07714844 125.77587891 C0.49140137 141.45509582 -17.98404473 151.73022094 -38.54394531 154.77197266 C-57.54295816 155.96703463 -74.48933674 154.78004484 -91.54394531 145.77197266 C-92.49527344 145.29244141 -93.44660156 144.81291016 -94.42675781 144.31884766 C-114.60559599 133.46547777 -127.87250693 114.97917336 -134.60253906 93.37353516 C-140.55753883 70.75023459 -137.78662894 47.34858685 -126.91503906 26.67431641 C-122.88070027 20.01906146 -117.90450151 14.38365401 -112.54394531 8.77197266 C-112.00382812 8.15708984 -111.46371094 7.54220703 -110.90722656 6.90869141 C-83.8806725 -22.70478723 -30.6614942 -24.3876211 0 0 Z " fill="#454545" transform="translate(307.5439453125,101.22802734375)"/>
</svg>
