<?xml version="1.0" encoding="UTF-8"?>
<svg version="1.1" xmlns="http://www.w3.org/2000/svg" width="20" height="20">
<path d="M0 0 C1.12535156 0.00580078 1.12535156 0.00580078 2.2734375 0.01171875 C3.02367187 0.00785156 3.77390625 0.00398437 4.546875 0 C10.14682697 0.01010822 10.14682697 0.01010822 11.2734375 1.13671875 C11.37217566 3.13471447 11.40315549 5.13629033 11.3984375 7.13671875 C11.40230469 8.77640625 11.40230469 8.77640625 11.40625 10.44921875 C11.2734375 13.13671875 11.2734375 13.13671875 10.2734375 14.13671875 C7.5961237 14.23653089 4.95039575 14.2755175 2.2734375 14.26171875 C1.14808594 14.26751953 1.14808594 14.26751953 0 14.2734375 C-5.59995197 14.26332928 -5.59995197 14.26332928 -6.7265625 13.13671875 C-6.82530066 11.13872303 -6.85628049 9.13714717 -6.8515625 7.13671875 C-6.85414063 6.04359375 -6.85671875 4.95046875 -6.859375 3.82421875 C-6.61880525 -1.04378087 -4.32449493 0.00780595 0 0 Z M-3.7265625 2.13671875 C-2.0765625 3.45671875 -0.4265625 4.77671875 1.2734375 6.13671875 C4.18861042 5.06270767 6.05153926 4.35861699 8.2734375 2.13671875 C4.3134375 2.13671875 0.3534375 2.13671875 -3.7265625 2.13671875 Z M-3.7265625 6.13671875 C-3.7265625 8.11671875 -3.7265625 10.09671875 -3.7265625 12.13671875 C0.2334375 12.13671875 4.1934375 12.13671875 8.2734375 12.13671875 C8.2734375 10.15671875 8.2734375 8.17671875 8.2734375 6.13671875 C7.2215625 6.50796875 6.1696875 6.87921875 5.0859375 7.26171875 C1.08711536 8.17948121 -0.21784466 8.05056484 -3.7265625 6.13671875 Z " fill="#95A4A5" transform="translate(7.7265625,2.86328125)"/>
</svg>
