<?xml version="1.0" encoding="UTF-8"?>
<svg version="1.1" xmlns="http://www.w3.org/2000/svg" width="20" height="20">
<path d="M0 0 C3.91324071 4.95677157 3.53481281 10.96278615 3 17 C2 18 2 18 -0.6875 18.1328125 C-1.780625 18.13023438 -2.87375 18.12765625 -4 18.125 C-5.093125 18.12757812 -6.18625 18.13015625 -7.3125 18.1328125 C-10 18 -10 18 -11 17 C-11.55292403 10.75833837 -11.65231943 5.33800532 -8 0 C-4.97172501 -1.51413749 -3.18944514 -0.97636076 0 0 Z M-5 2 C-5.99 3.485 -5.99 3.485 -7 5 C-5.02 5 -3.04 5 -1 5 C-1.66 4.01 -2.32 3.02 -3 2 C-3.66 2 -4.32 2 -5 2 Z M-9 8 C-9 10.31 -9 12.62 -9 15 C-5.7 15 -2.4 15 1 15 C1 12.69 1 10.38 1 8 C-2.3 8 -5.6 8 -9 8 Z " fill="#94A4A5" transform="translate(14,1)"/>
<path d="M0 0 C0.99 0.33 1.98 0.66 3 1 C2.67 2.32 2.34 3.64 2 5 C1.01 4.67 0.02 4.34 -1 4 C-0.67 2.68 -0.34 1.36 0 0 Z " fill="#95A5A5" transform="translate(9,10)"/>
</svg>
