<?xml version="1.0" encoding="UTF-8"?>
<svg version="1.1" xmlns="http://www.w3.org/2000/svg" width="20" height="20">
<path d="M0 0 C1.16402344 0.13148437 1.16402344 0.13148437 2.3515625 0.265625 C4.375 0.75 4.375 0.75 6.375 2.75 C6.375 4.07 6.375 5.39 6.375 6.75 C1.095 6.75 -4.185 6.75 -9.625 6.75 C-8.625 1.75 -8.625 1.75 -6.8515625 0.421875 C-4.32993903 -0.33903594 -2.6055748 -0.33114329 0 0 Z M-4.625 2.75 C-4.625 3.08 -4.625 3.41 -4.625 3.75 C-2.645 3.75 -0.665 3.75 1.375 3.75 C1.375 3.42 1.375 3.09 1.375 2.75 C-0.605 2.75 -2.585 2.75 -4.625 2.75 Z " fill="#95A5A6" transform="translate(11.625,11.25)"/>
<path d="M0 0 C1.67542976 0.28604898 3.34385343 0.61781233 5 1 C5.33 2.65 5.66 4.3 6 6 C3.6875 7.125 3.6875 7.125 1 8 C0.01 7.34 -0.98 6.68 -2 6 C-1.125 1.125 -1.125 1.125 0 0 Z M1 3 C1 3.66 1 4.32 1 5 C1.66 5 2.32 5 3 5 C3 4.34 3 3.68 3 3 C2.34 3 1.68 3 1 3 Z " fill="#96A5A6" transform="translate(8,2)"/>
</svg>
