<svg viewBox="0 0 48 48" xmlns="http://www.w3.org/2000/svg">
    <path d="M0 0h48v48H0z" fill="none"/>
    <path d="M20 12a16 16 0 0 0 23.91 13.912C42.948 36.06 34.4 44 24 44 12.954 44 4 35.046 4 24c0-10.4 7.94-18.948 18.088-19.91A15.926 15.926 0 0 0 20 12zm-12 12a16 16 0 0 0 16 16 16.012 16.012 0 0 0 13.914-8.09c-.632.06-1.272.09-1.914.09-11.046 0-20-8.954-20-20 0-.642.03-1.28.09-1.914A16.012 16.012 0 0 0 8 24zm28.328-19.418L38 5v2l-1.672.418a4 4 0 0 0-2.91 2.91L32 12h-2l-.418-1.672a4 4 0 0 0-2.91-2.91L26 7V5l1.672-.418a4 4 0 0 0 2.91-2.91L30.5 0h2l.418 1.672a4 4 0 0 0 2.91 2.91zm10 10L48 15v2l-1.672.418a4 4 0 0 0-2.91 2.91L43 24h-2l-.418-1.672a4 4 0 0 0-2.91-2.91L38 19v-2l1.672-.418a4 4 0 0 0 2.91-2.91L43 10h2l.418 1.672a4 4 0 0 0 2.91 2.91z"
          fill="#969696"/>
</svg>