<svg viewBox="0 0 48 48" xml:space="preserve" xmlns="http://www.w3.org/2000/svg"><path d="M19 10.5c1.2-1.1 2-2.7 2-4.5 0-3.3-2.7-6-6-6-3 0-5.4 2-5.9 5H9c-3.3 0-6 2.7-6 6 0 1.8.8 3.4 2 4.5-1.8.4-3.5 1.5-5 3.5v4c0 .6.4 1 1 1h16c.6 0 1-.4 1-1v-4h5c.6 0 1-.4 1-1v-4c-1.4-2-3.2-3.1-5-3.5zM15 2c2.2 0 4 1.8 4 4s-1.7 4-4 4c0-2.1-1.9-3.9-3.9-4.6C11.4 3.5 13 2 15 2zM5 11c0-2.2 1.8-4 4-4s4 1.8 4 4-1.8 4-4 4-4-1.8-4-4zm11 11H2v-2s2-3 7-3 7 3 7 3v2zm6-5h-5.9c-1-.8-2-1.3-3.1-1.5 1-.9 1.7-2.1 1.9-3.5h.1c5 0 7 3 7 3v2z" fill="#969696" class="fill-000000"></path></svg>